<svg version="1.2" xmlns="http://www.w3.org/2000/svg" viewBox="0 0 1500 796" width="1500" height="796">
	<title>4428860-ai</title>
	<style>
		.s0 { fill: none;stroke: #dee3fc;stroke-miterlimit:10;stroke-width: 1.6 } 
		.s1 { fill: #dee3fc } 
		.s2 { fill: #a4afff } 
		.s3 { fill: #ffffff } 
		.s4 { fill: #3945ba } 
		.s5 { fill: none;stroke: #698bd1;stroke-linecap: round;stroke-linejoin: round;stroke-width: 2;stroke-dasharray: 5.674 } 
		.s6 { fill: #4b5a9b } 
		.s7 { fill: #7f95f4 } 
		.s8 { fill: #b2c1f9 } 
		.s9 { fill: #3052ce } 
		.s10 { fill: none;stroke: #495ad6;stroke-miterlimit:10;stroke-width: 1.8 } 
		.s11 { fill: none;stroke: #495ad6;stroke-linecap: round;stroke-linejoin: round;stroke-width: 3.3 } 
		.s12 { fill: #f0f4ff } 
		.s13 { fill: #3b47bc } 
		.s14 { fill: #495ad6 } 
		.s15 { fill: #281616 } 
		.s16 { fill: #002c54 } 
		.s17 { fill: #052635 } 
		.s18 { fill: #e5918f } 
		.s19 { fill: #c7e5f2 } 
		.s20 { fill: #cc6362 } 
		.s21 { fill: none;stroke: #ffffff;stroke-miterlimit:10;stroke-width: 1 } 
		.s22 { fill: #375f84 } 
		.s23 { fill: #467cdb } 
		.s24 { fill: #e49191 } 
		.s25 { fill: #000000 } 
		.s26 { fill: #5996ef } 
		.s27 { fill: none;stroke: #ffffff;stroke-miterlimit:10;stroke-width: 1.8 } 
		.s28 { fill: #ffffff;stroke: #495ad6;stroke-miterlimit:10;stroke-width: 1.8 } 
		.s29 { fill: none;stroke: #495ad6;stroke-miterlimit:10;stroke-width: 3.3 } 
		.s30 { fill: none;stroke: #495ad6;stroke-linecap: round;stroke-miterlimit:10;stroke-width: 3.3 } 
		.s31 { fill: #193091 } 
		.s32 { fill: none;stroke: #ffffff;stroke-linecap: round;stroke-miterlimit:10;stroke-width: 1.8 } 
		.s33 { fill: #6589d1 } 
		.s34 { fill: #3b5fb7 } 
		.s35 { fill: none;stroke: #ffffff;stroke-linecap: round;stroke-miterlimit:10;stroke-width: 4 } 
		.s36 { fill: none;stroke: #dee3fc;stroke-linecap: round;stroke-miterlimit:10;stroke-width: 2 } 
		.s37 { fill: #7e89fd;stroke: #dee3fc;stroke-miterlimit:10;stroke-width: 2 } 
		.s38 { fill: #7e89fd } 
		.s39 { fill: #b4c1ef } 
		.s40 { fill: none;stroke: #ffffff;stroke-linecap: round;stroke-miterlimit:10;stroke-width: 2.2 } 
	</style>
	<g id="OBJECTS">
		<g id="&lt;Group&gt;">
			<g id="&lt;Group&gt;">
				<g id="&lt;Group&gt;">
					<g id="&lt;Group&gt;">
						<g id="&lt;Group&gt;">
							<path id="&lt;Compound Path&gt;" fill-rule="evenodd" class="s0" d="m536.1 245.6h-5.2c-1.6 0-3 1-3.3 2.5-1.8 8-4.9 15.5-9.1 22.2-0.9 1.3-0.7 3.1 0.4 4.2l3.7 3.7c1.4 1.4 1.4 3.7 0 5.1l-14.5 14.5c-1.4 1.4-3.7 1.4-5.1 0l-3.7-3.7c-1.1-1.1-2.9-1.3-4.2-0.4-6.7 4.2-14.2 7.3-22.2 9.1-1.5 0.3-2.5 1.7-2.5 3.3v5.2c0 2-1.7 3.7-3.7 3.7h-20.5c-2 0-3.6-1.7-3.6-3.7v-5.2c0-1.6-1-3-2.5-3.3-8-1.8-15.5-4.9-22.2-9.1-1.4-0.9-3.1-0.7-4.2 0.4l-3.7 3.7c-1.4 1.4-3.7 1.4-5.2 0l-14.4-14.5c-1.5-1.4-1.5-3.7 0-5.1l3.7-3.7c1.1-1.1 1.2-2.9 0.4-4.2-4.2-6.7-7.3-14.2-9.1-22.2-0.4-1.5-1.7-2.5-3.3-2.5h-5.3c-2 0-3.6-1.7-3.6-3.7v-20.5c0-2 1.6-3.6 3.6-3.6h5.3c1.6 0 2.9-1 3.3-2.5 1.8-8 4.9-15.5 9.1-22.2 0.8-1.4 0.7-3.1-0.4-4.2l-3.7-3.7c-1.5-1.4-1.5-3.7 0-5.1l14.4-14.5c1.5-1.5 3.8-1.5 5.2 0l3.7 3.7c1.1 1.1 2.8 1.2 4.2 0.4 6.7-4.2 14.2-7.3 22.2-9.1 1.5-0.4 2.5-1.8 2.5-3.3v-5.3c0-2 1.6-3.6 3.6-3.6h20.5c2 0 3.7 1.6 3.7 3.6v5.3c0 1.5 1 2.9 2.5 3.3 8 1.8 15.5 4.9 22.2 9.1 1.3 0.8 3.1 0.7 4.2-0.4l3.7-3.7c1.4-1.5 3.7-1.5 5.1 0l14.5 14.5c1.4 1.4 1.4 3.7 0 5.1l-3.7 3.7c-1.1 1.1-1.3 2.8-0.4 4.2 4.2 6.7 7.3 14.2 9.1 22.2 0.3 1.5 1.7 2.5 3.3 2.5h5.2c2 0 3.7 1.6 3.7 3.6v20.5c0 2-1.7 3.7-3.7 3.7zm-21.9-13.9c0-31.9-25.8-57.8-57.7-57.8-31.9 0-57.8 25.9-57.8 57.8 0 31.9 25.9 57.8 57.8 57.8 31.9 0 57.7-25.9 57.7-57.8z"/>
						</g>
					</g>
					<g id="&lt;Group&gt;">
						<g id="&lt;Group&gt;">
							<path id="&lt;Compound Path&gt;" fill-rule="evenodd" class="s1" d="m631.6 313.8h-3.6c-1.1 0-2 0.7-2.2 1.8-1.3 5.4-3.4 10.5-6.3 15.1-0.5 0.9-0.4 2 0.3 2.8l2.6 2.5c0.9 1 0.9 2.6 0 3.5l-9.9 9.9c-1 1-2.5 1-3.5 0l-2.5-2.5c-0.8-0.8-2-0.9-2.9-0.3-4.6 2.8-9.7 5-15.1 6.2-1 0.2-1.7 1.2-1.7 2.2v3.6c0 1.4-1.2 2.5-2.5 2.5h-14c-1.4 0-2.5-1.1-2.5-2.5v-3.6c0-1-0.7-2-1.7-2.2-5.4-1.2-10.5-3.4-15.1-6.2-0.9-0.6-2.1-0.5-2.9 0.3l-2.5 2.5c-1 1-2.5 1-3.5 0l-9.9-9.9c-0.9-0.9-0.9-2.5 0-3.5l2.6-2.5c0.7-0.8 0.8-1.9 0.3-2.8-2.9-4.6-5-9.7-6.3-15.1-0.2-1.1-1.1-1.8-2.2-1.8h-3.6c-1.4 0-2.5-1.1-2.5-2.5v-13.9c0-1.4 1.1-2.5 2.5-2.5h3.6c1.1 0 2-0.7 2.2-1.8 1.3-5.4 3.4-10.5 6.3-15.1 0.5-0.9 0.4-2.1-0.3-2.8l-2.6-2.5c-0.9-1-0.9-2.6 0-3.5l9.9-9.9c1-1 2.5-1 3.5 0l2.5 2.5c0.8 0.8 2 0.9 2.9 0.3 4.6-2.9 9.7-5 15.1-6.2 1-0.3 1.7-1.2 1.7-2.2v-3.6c0-1.4 1.1-2.5 2.5-2.5h14c1.3 0 2.5 1.1 2.5 2.5v3.6c0 1 0.7 1.9 1.7 2.2 5.4 1.2 10.5 3.3 15.1 6.2 0.9 0.6 2.1 0.5 2.9-0.3l2.5-2.5c1-1 2.5-1 3.5 0l9.9 9.9c0.9 0.9 0.9 2.5 0 3.5l-2.6 2.5c-0.7 0.7-0.8 1.9-0.3 2.8 2.9 4.6 5 9.7 6.3 15.1 0.2 1.1 1.1 1.8 2.2 1.8h3.6c1.3 0 2.4 1.1 2.4 2.5v13.9c0 1.4-1.1 2.5-2.4 2.5zm-17.2-9.5c0-20.5-16.6-37.1-37.1-37.1-20.5 0-37.2 16.6-37.2 37.1 0 20.6 16.7 37.2 37.2 37.2 20.5 0 37.1-16.6 37.1-37.2z"/>
						</g>
					</g>
				</g>
				<g id="&lt;Group&gt;">
					<g id="&lt;Group&gt;">
						<path id="&lt;Path&gt;" class="s2" d="m377.8 674.5c0 3.7-3.1 6.7-6.8 6.7-3.8 0-6.8-3-6.8-6.7 0-3.8 3-6.8 6.8-6.8 3.7 0 6.8 3 6.8 6.8z"/>
					</g>
					<g id="&lt;Group&gt;">
						<path id="&lt;Path&gt;" class="s2" d="m1285 489.4c0 3.8-3 6.8-6.8 6.8-3.7 0-6.7-3-6.7-6.8 0-3.7 3-6.8 6.7-6.8 3.8 0 6.8 3.1 6.8 6.8z"/>
					</g>
					<g id="&lt;Group&gt;">
						<path id="&lt;Path&gt;" class="s2" d="m1271.5 247.6c0 3.7-3.1 6.8-6.8 6.8-3.7 0-6.8-3.1-6.8-6.8 0-3.7 3.1-6.8 6.8-6.8 3.7 0 6.8 3.1 6.8 6.8z"/>
					</g>
					<g id="&lt;Group&gt;">
						<path id="&lt;Path&gt;" class="s2" d="m1025.5 165.4c0 2.4-1.9 4.3-4.3 4.3-2.3 0-4.2-1.9-4.2-4.3 0-2.3 1.9-4.2 4.2-4.2 2.4 0 4.3 1.9 4.3 4.2z"/>
					</g>
					<g id="&lt;Group&gt;">
						<path id="&lt;Path&gt;" class="s2" d="m397.5 108.8c0 2.4-1.9 4.3-4.3 4.3-2.3 0-4.2-1.9-4.2-4.3 0-2.3 1.9-4.2 4.2-4.2 2.4 0 4.3 1.9 4.3 4.2z"/>
					</g>
					<g id="&lt;Group&gt;">
						<path id="&lt;Path&gt;" class="s2" d="m491.5 370.4c0 2.4-1.9 4.3-4.2 4.3-2.4 0-4.3-1.9-4.3-4.3 0-2.3 1.9-4.2 4.3-4.2 2.3 0 4.2 1.9 4.2 4.2z"/>
					</g>
					<g id="&lt;Group&gt;">
						<path id="&lt;Path&gt;" class="s2" d="m335.7 681.2c0 2.4-1.9 4.3-4.3 4.3-2.3 0-4.2-1.9-4.2-4.3 0-2.3 1.9-4.2 4.2-4.2 2.4 0 4.3 1.9 4.3 4.2z"/>
					</g>
					<g id="&lt;Group&gt;">
						<path id="&lt;Path&gt;" class="s2" d="m1185.7 678.5c0 3.7-3.1 6.7-6.8 6.7-3.7 0-6.8-3-6.8-6.7 0-3.8 3.1-6.8 6.8-6.8 3.7 0 6.8 3 6.8 6.8z"/>
					</g>
					<g id="&lt;Group&gt;">
						<path id="&lt;Path&gt;" class="s2" d="m1329.7 678.5c0 3.7-3.1 6.7-6.8 6.7-3.7 0-6.8-3-6.8-6.7 0-3.8 3.1-6.8 6.8-6.8 3.7 0 6.8 3 6.8 6.8z"/>
					</g>
					<g id="&lt;Group&gt;">
						<path id="&lt;Path&gt;" class="s2" d="m521 90.4c0 3.7-3 6.7-6.8 6.7-3.7 0-6.7-3-6.7-6.7 0-3.8 3-6.8 6.7-6.8 3.8 0 6.8 3 6.8 6.8z"/>
					</g>
					<g id="&lt;Group&gt;">
						<path id="&lt;Path&gt;" class="s2" d="m981.5 398.5c0 5-4.1 9-9.1 9-5 0-9-4-9-9 0-5 4-9.1 9-9.1 5 0 9.1 4.1 9.1 9.1z"/>
					</g>
					<g id="&lt;Group&gt;">
						<path id="&lt;Path&gt;" class="s2" d="m313.2 286.4c0 5-4.1 9.1-9.1 9.1-5 0-9.1-4.1-9.1-9.1 0-5 4.1-9 9.1-9 5 0 9.1 4 9.1 9z"/>
					</g>
				</g>
				<g id="&lt;Group&gt;">
					<path id="&lt;Path&gt;" class="s3" d="m287.7 151.2h-11.4c-0.8 0-1.4-0.6-1.4-1.4v-11.4c0-0.7 0.6-1.3 1.4-1.3h11.4c0.7 0 1.3 0.6 1.3 1.3v11.4c0 0.8-0.6 1.4-1.3 1.4z"/>
					<path id="&lt;Path&gt;" class="s3" d="m306.5 151.2h-11.4c-0.8 0-1.4-0.6-1.4-1.4v-11.4c0-0.7 0.6-1.3 1.4-1.3h11.4c0.7 0 1.3 0.6 1.3 1.3v11.4c0 0.8-0.6 1.4-1.3 1.4z"/>
					<path id="&lt;Path&gt;" class="s3" d="m325.3 151.2h-11.4c-0.8 0-1.4-0.6-1.4-1.4v-11.4c0-0.7 0.6-1.3 1.4-1.3h11.4c0.7 0 1.3 0.6 1.3 1.3v11.4c0 0.8-0.6 1.4-1.3 1.4z"/>
				</g>
				<g id="&lt;Group&gt;">
					<g id="&lt;Group&gt;">
						<path id="&lt;Path&gt;" class="s1" d="m1244.8 644.6h-11.4c-0.7 0-1.3-0.6-1.3-1.3v-11.4c0-0.7 0.6-1.3 1.3-1.3h11.4c0.8 0 1.4 0.6 1.4 1.3v11.4c0 0.7-0.6 1.3-1.4 1.3z"/>
						<path id="&lt;Path&gt;" class="s1" d="m1263.6 644.6h-11.4c-0.7 0-1.3-0.6-1.3-1.3v-11.4c0-0.7 0.6-1.3 1.3-1.3h11.4c0.8 0 1.4 0.6 1.4 1.3v11.4c0 0.7-0.6 1.3-1.4 1.3z"/>
						<path id="&lt;Path&gt;" class="s1" d="m1282.4 644.6h-11.4c-0.7 0-1.3-0.6-1.3-1.3v-11.4c0-0.7 0.6-1.3 1.3-1.3h11.4c0.8 0 1.3 0.6 1.3 1.3v11.4c0 0.7-0.5 1.3-1.3 1.3z"/>
					</g>
				</g>
				<g id="&lt;Group&gt;">
					<g id="&lt;Group&gt;">
						<path id="&lt;Path&gt;" class="s1" d="m375.9 636.9h-11.4c-0.7 0-1.3-0.6-1.3-1.3v-11.4c0-0.7 0.6-1.3 1.3-1.3h11.4c0.7 0 1.3 0.6 1.3 1.3v11.4c0 0.7-0.6 1.3-1.3 1.3z"/>
						<path id="&lt;Path&gt;" class="s1" d="m394.7 636.9h-11.4c-0.7 0-1.3-0.6-1.3-1.3v-11.4c0-0.7 0.6-1.3 1.3-1.3h11.4c0.7 0 1.3 0.6 1.3 1.3v11.4c0 0.7-0.6 1.3-1.3 1.3z"/>
						<path id="&lt;Path&gt;" class="s1" d="m413.5 636.9h-11.4c-0.7 0-1.3-0.6-1.3-1.3v-11.4c0-0.7 0.6-1.3 1.3-1.3h11.4c0.7 0 1.3 0.6 1.3 1.3v11.4c0 0.7-0.6 1.3-1.3 1.3z"/>
					</g>
				</g>
			</g>
			<g id="&lt;Group&gt;">
				<g id="&lt;Group&gt;">
					<g id="&lt;Group&gt;">
						<path id="&lt;Path&gt;" class="s4" d="m885.3 757.7h-270.6c-23.6 0-42.7-19.1-42.7-42.7v-602.3c0-23.6 19.1-42.7 42.7-42.7h270.6c23.6 0 42.7 19.1 42.7 42.7v602.3c0 23.6-19.1 42.7-42.7 42.7z"/>
					</g>
					<path id="&lt;Path&gt;" class="s3" d="m883.9 747.9h-267.8c-20.7 0-37.4-16.7-37.4-37.4v-597.1c0-20.7 16.7-37.4 37.4-37.4h267.8c20.7 0 37.4 16.7 37.4 37.4v597.1c0 20.7-16.7 37.4-37.4 37.4z"/>
					<g id="&lt;Group&gt;">
						<path id="&lt;Path&gt;" class="s1" d="m906.3 112.2v596.5c0 13.9-11.3 25.3-25.3 25.3h-262c-14 0-25.3-11.4-25.3-25.3v-596.5c0-14 11.3-25.3 25.3-25.3h43.7c2.4 0 4.6 1.4 5.7 3.5l4.7 9.3c2.1 4.3 6.4 6.9 11.2 6.9h131.4c4.8 0 9.1-2.6 11.2-6.9l4.7-9.3c1.1-2.1 3.3-3.5 5.7-3.5h43.7c14 0 25.3 11.3 25.3 25.3z"/>
					</g>
					<path id="&lt;Path&gt;" class="s1" d="m805.2 95.8h-105.9c-2.5 0-4.5-2-4.5-4.4 0-2.5 2-4.5 4.5-4.5h105.9c2.4 0 4.4 2 4.4 4.5 0 2.4-2 4.4-4.4 4.4z"/>
				</g>
				<path id="&lt;Path&gt;" class="s5" d="m864.7 713.3h-235.5c-9.3 0-16.8-7.5-16.8-16.8v-83.2c0-9.2 7.5-16.7 16.8-16.7h235.5c9.3 0 16.8 7.5 16.8 16.7v83.2c0 9.3-7.5 16.8-16.8 16.8z"/>
				<path id="&lt;Path&gt;" class="s5" d="m852.8 426.9h-116.9c-6.6 0-12.1-5.4-12.1-12.1v-57.7c0-6.7 5.5-12.1 12.1-12.1h116.9c6.7 0 12.1 5.4 12.1 12.1v57.7c0 6.7-5.4 12.1-12.1 12.1z"/>
				<g id="&lt;Group&gt;">
					<path id="&lt;Path&gt;" class="s6" d="m878 577.2h-241.4c-8 0-14.4-6.5-14.4-14.4v-101.8c0-8 6.4-14.4 14.4-14.4h241.4c7.9 0 14.4 6.4 14.4 14.4v101.8c0 7.9-6.5 14.4-14.4 14.4z"/>
					<path id="&lt;Path&gt;" class="s7" d="m881.5 450.4v101.8c0 8-6.4 14.4-14.4 14.4h-240.3c-8 0-14.4-6.4-14.4-14.4v-101.8c0-8 6.4-14.4 14.4-14.4h240.3c8 0 14.4 6.4 14.4 14.4z"/>
					<path id="&lt;Path&gt;" class="s3" d="m705.4 556h-70.8c-5.4 0-9.8-4.4-9.8-9.7v-70.8c0-5.4 4.4-9.8 9.8-9.8h70.8c5.3 0 9.7 4.4 9.7 9.8v70.8c0 5.3-4.4 9.7-9.7 9.7z"/>
					<g id="&lt;Group&gt;">
						<path id="&lt;Path&gt;" class="s8" d="m789.3 477.2h-62.4c-1.7 0-3.1-1.4-3.1-3.1 0-1.7 1.4-3.1 3.1-3.1h62.4c1.7 0 3 1.4 3 3.1 0 1.7-1.3 3.1-3 3.1z"/>
						<path id="&lt;Path&gt;" class="s8" d="m760.9 489.4h-34c-1.7 0-3.1-1.4-3.1-3.1 0-1.7 1.4-3 3.1-3h34c1.7 0 3 1.3 3 3 0 1.7-1.3 3.1-3 3.1z"/>
						<path id="&lt;Path&gt;" class="s8" d="m865.2 489.4h-91.8c-1.7 0-3.1-1.4-3.1-3.1 0-1.7 1.4-3 3.1-3h91.8c1.7 0 3.1 1.3 3.1 3 0 1.7-1.4 3.1-3.1 3.1z"/>
						<path id="&lt;Path&gt;" class="s8" d="m779.4 501.7h-52.5c-1.7 0-3.1-1.4-3.1-3.1 0-1.7 1.4-3.1 3.1-3.1h52.5c1.7 0 3.1 1.4 3.1 3.1 0 1.7-1.4 3.1-3.1 3.1z"/>
						<path id="&lt;Path&gt;" class="s8" d="m824 501.7h-33c-1.7 0-3.1-1.4-3.1-3.1 0-1.7 1.4-3.1 3.1-3.1h33c1.7 0 3.1 1.4 3.1 3.1 0 1.7-1.4 3.1-3.1 3.1z"/>
						<path id="&lt;Path&gt;" class="s8" d="m865.2 501.7h-30.4c-1.7 0-3.1-1.4-3.1-3.1 0-1.7 1.4-3.1 3.1-3.1h30.4c1.7 0 3.1 1.4 3.1 3.1 0 1.7-1.4 3.1-3.1 3.1z"/>
						<path id="&lt;Path&gt;" class="s8" d="m865.2 513.9h-138.3c-1.7 0-3.1-1.3-3.1-3 0-1.7 1.4-3.1 3.1-3.1h138.3c1.7 0 3.1 1.4 3.1 3.1 0 1.7-1.4 3-3.1 3z"/>
						<path id="&lt;Path&gt;" class="s8" d="m803 526.2h-76.1c-1.7 0-3.1-1.4-3.1-3.1 0-1.7 1.4-3.1 3.1-3.1h76.1c1.7 0 3.1 1.4 3.1 3.1 0 1.7-1.4 3.1-3.1 3.1z"/>
						<path id="&lt;Path&gt;" class="s8" d="m865.2 526.2h-49.9c-1.7 0-3.1-1.4-3.1-3.1 0-1.7 1.4-3.1 3.1-3.1h49.9c1.7 0 3.1 1.4 3.1 3.1 0 1.7-1.4 3.1-3.1 3.1z"/>
						<path id="&lt;Path&gt;" class="s8" d="m771.6 538.4h-44.7c-1.7 0-3.1-1.3-3.1-3 0-1.7 1.4-3.1 3.1-3.1h44.7c1.7 0 3.1 1.4 3.1 3.1 0 1.7-1.4 3-3.1 3z"/>
						<path id="&lt;Path&gt;" class="s8" d="m828.4 538.4h-44.7c-1.7 0-3-1.3-3-3 0-1.7 1.3-3.1 3-3.1h44.7c1.7 0 3.1 1.4 3.1 3.1 0 1.7-1.4 3-3.1 3z"/>
						<path id="&lt;Path&gt;" class="s8" d="m865.2 538.4h-25.9c-1.7 0-3.1-1.3-3.1-3 0-1.7 1.4-3.1 3.1-3.1h25.9c1.7 0 3.1 1.4 3.1 3.1 0 1.7-1.4 3-3.1 3z"/>
						<path id="&lt;Path&gt;" class="s8" d="m789.3 550.7h-62.4c-1.7 0-3.1-1.4-3.1-3.1 0-1.7 1.4-3 3.1-3h62.4c1.7 0 3 1.3 3 3 0 1.7-1.3 3.1-3 3.1z"/>
						<path id="&lt;Path&gt;" class="s8" d="m865.2 477.2h-62.4c-1.7 0-3-1.4-3-3.1 0-1.7 1.3-3.1 3-3.1h62.4c1.7 0 3.1 1.4 3.1 3.1 0 1.7-1.4 3.1-3.1 3.1z"/>
					</g>
					<g id="&lt;Group&gt;">
						<path id="&lt;Path&gt;" class="s9" d="m881.5 450.4v4.3h-269.1v-4.3c0-8 6.4-14.4 14.4-14.4h240.3c8 0 14.4 6.4 14.4 14.4z"/>
						<g id="&lt;Group&gt;">
							<path id="&lt;Path&gt;" class="s1" d="m830.8 445.7c0 1.8-1.5 3.3-3.4 3.3-1.8 0-3.3-1.5-3.3-3.3 0-1.9 1.5-3.4 3.3-3.4 1.9 0 3.4 1.5 3.4 3.4z"/>
							<path id="&lt;Path&gt;" class="s1" d="m847.8 445.7c0 1.8-1.5 3.3-3.3 3.3-1.8 0-3.3-1.5-3.3-3.3 0-1.9 1.5-3.4 3.3-3.4 1.8 0 3.3 1.5 3.3 3.4z"/>
							<path id="&lt;Path&gt;" class="s1" d="m864.9 445.7c0 1.8-1.5 3.3-3.3 3.3-1.9 0-3.4-1.5-3.4-3.3 0-1.9 1.5-3.4 3.4-3.4 1.8 0 3.3 1.5 3.3 3.4z"/>
						</g>
					</g>
				</g>
				<g id="&lt;Group&gt;">
					<path id="&lt;Path&gt;" class="s10" d="m695.7 426.9h-53.2c-7.9 0-14.3-6.4-14.3-14.3v-53.2c0-7.9 6.4-14.3 14.3-14.3h53.2c7.9 0 14.3 6.4 14.3 14.3v53.2c0 7.9-6.4 14.3-14.3 14.3z"/>
					<g id="&lt;Group&gt;">
						<path id="&lt;Path&gt;" class="s11" d="m656.3 374.1l-11.8 11.8 11.9 11.9"/>
						<path id="&lt;Path&gt;" class="s11" d="m681.9 374.1l11.7 11.8-11.8 11.9"/>
						<path id="&lt;Path&gt;" class="s11" d="m674.6 374.1l-11 23.7"/>
					</g>
				</g>
				<g id="&lt;Group&gt;">
					<path id="&lt;Path&gt;" class="s8" d="m881.5 145.2v166.6c0 9-7.3 16.3-16.4 16.3h-236.3c-9.1 0-16.4-7.3-16.4-16.3v-166.6c0-9 7.3-16.3 16.4-16.3h236.3c9.1 0 16.4 7.3 16.4 16.3z"/>
					<path id="&lt;Path&gt;" class="s12" d="m866 181.5c0 21.5-17.5 39-39 39-21.5 0-39-17.5-39-39 0-21.5 17.5-39 39-39 21.5 0 39 17.5 39 39z"/>
					<path id="&lt;Path&gt;" class="s3" d="m770.6 328.1h-141.8c-9.1 0-16.4-7.3-16.4-16.3v-26.2l62.1-107.5c3.2-5.7 11.3-5.7 14.6 0l46.8 81.1 34.8 60.3c1.7 2.9 1.4 6.2-0.1 8.6z"/>
					<path id="&lt;Path&gt;" class="s12" d="m831.7 328.1h-135.6l39.8-68.9 21.5-37.1c2.9-5.1 10.2-5.1 13.1 0z"/>
				</g>
			</g>
			<g id="&lt;Group&gt;">
				<g id="&lt;Group&gt;">
					<g id="&lt;Group&gt;">
						<path id="&lt;Path&gt;" class="s13" d="m1100.7 794.7h-104.5v-157.1h104.5z"/>
					</g>
					<g id="&lt;Group&gt;">
						<path id="&lt;Path&gt;" class="s14" d="m1100.7 794.7h40.1v-157.1h-40.1z"/>
					</g>
					<g id="&lt;Group&gt;">
						<path id="&lt;Path&gt;" class="s8" d="m1135.9 648.6h-29.4v-5h29.4z"/>
						<path id="&lt;Path&gt;" class="s8" d="m1135.9 659.4h-29.4v-5h29.4z"/>
						<path id="&lt;Path&gt;" class="s8" d="m1135.9 670.2h-29.4v-5h29.4z"/>
						<path id="&lt;Path&gt;" class="s8" d="m1135.9 681h-29.4v-5h29.4z"/>
						<path id="&lt;Path&gt;" class="s8" d="m1135.9 691.7h-29.4v-5h29.4z"/>
						<path id="&lt;Path&gt;" class="s8" d="m1135.9 702.5h-29.4v-5h29.4z"/>
						<path id="&lt;Path&gt;" class="s8" d="m1135.9 713.3h-29.4v-5h29.4z"/>
						<path id="&lt;Path&gt;" class="s8" d="m1135.9 724.1h-29.4v-5.1h29.4z"/>
						<path id="&lt;Path&gt;" class="s8" d="m1135.9 734.8h-29.4v-5h29.4z"/>
						<path id="&lt;Path&gt;" class="s8" d="m1135.9 745.6h-29.4v-5h29.4z"/>
						<path id="&lt;Path&gt;" class="s8" d="m1135.9 756.4h-29.4v-5h29.4z"/>
						<path id="&lt;Path&gt;" class="s8" d="m1135.9 767.1h-29.4v-5h29.4z"/>
						<path id="&lt;Path&gt;" class="s8" d="m1135.9 777.9h-29.4v-5h29.4z"/>
						<path id="&lt;Path&gt;" class="s8" d="m1135.9 788.7h-29.4v-5h29.4z"/>
					</g>
				</g>
				<g id="&lt;Group&gt;">
					<g id="&lt;Group&gt;">
						<path id="&lt;Path&gt;" class="s15" d="m979.2 794.7h53.1c0 0 3-9.4-3.4-21.2 0 0-4.3 3.5-17.1 1.2 0 0-5.4 4.5-9.1 6.3-3.7 1.8-24.9 5.9-23.5 13.7z"/>
					</g>
					<path id="&lt;Path&gt;" class="s16" d="m982.9 644.9c3.4 20.5 19.3 89.8 26.1 130.7 12.4 1 18.4-0.4 21.6-1.1-0.7-14.3-1.9-48.4-1.7-63.4 0.2-25.3 1.4-58.7-9.8-77l-37.4 3c0.2 2 0.4 3.6 0.6 4.7q0.3 1.7 0.6 3.1z"/>
					<g id="&lt;Group&gt;">
						<path id="&lt;Path&gt;" class="s15" d="m883.1 794.7h53.1c0 0 3-9.4-3.4-21.2 0 0-4.3 3.5-17.1 1.2 0 0-5.4 4.5-9.1 6.3-3.7 1.8-24.9 5.9-23.5 13.7z"/>
					</g>
					<path id="&lt;Path&gt;" class="s17" d="m914.1 774.4c10.2 2.5 17.5 2.3 21 1.9 2.8-16.5 7.3-52.7 11.3-69.7 6.3-26.3 12.4-62.6 8.1-75.5l-36.8-9.3c-0.1 1.2-3.1 112.2-3.6 152.6z"/>
					<path id="&lt;Path&gt;" class="s17" d="m1060.8 584v0.1c-0.8-7.3-1.6-12.6-1.6-12.6l-41.2 10-35 8c-12.9 2.9-28.6 6.4-42.4 9.5-15.5 3.5-25.8 15.3-22.4 30.8l3.9 18.8c21.7-0.3 123.5-10.1 132.3-14.5 9.8-4.9 12.8-22.5 6.4-50.1z"/>
					<path id="&lt;Path&gt;" class="s16" d="m1122.2 584v0.1c-0.7-7.3-4.3-15.1-4.3-15.1l-38.5 12.5-34.9 8c-13 2.9-28.6 6.4-42.4 9.5-15.5 3.5-25.8 15.3-22.4 30.8l3.9 18.8c21.6-0.3 112.2-3.5 132.2-14.5 9.7-5.3 12.8-22.5 6.4-50.1z"/>
					<g id="&lt;Group&gt;">
						<path id="&lt;Path&gt;" class="s18" d="m1007 525.1c0 0 18.3-8.3 23.3 0 2.8 4.5 0.9 12.9-5.4 16.5-6.2 3.5-41.4 18.4-74.7 26.7 0 0-1.4-4.6-3.7-9.5 0 0 14.9-6.2 29.7-16.6 14.9-10.4 30.8-17.1 30.8-17.1z"/>
					</g>
					<path id="&lt;Path&gt;" class="s18" d="m1011.6 468l-15.7 62.6c0 0 1.6 15.8 17.6 8 16-7.8 26.6-57.6 26.6-57.6z"/>
					<path id="&lt;Path&gt;" class="s3" d="m1038.1 503q-2.9-0.7-5.6-1.5-2.7-0.8-5.2-1.7c-14.9-5.1-22.9-11.2-22.9-11.2 4.6-20.4 10.3-34.1 15.3-43.1 0.1-0.2 0.3-0.4 0.4-0.6q0.2-0.4 0.4-0.7c2.7-4.5 6.5-8.2 10.9-11.3 0.4-0.4 0.8-0.6 1.3-1l1.8 32.7 0.3 3.4z"/>
					<path id="&lt;Path&gt;" class="s19" d="m1038.1 503q-2.9-0.7-5.6-1.5-2.7-0.8-5.2-1.7c3.1-22 5.9-35.9 5.9-35.9l1.6 4.1z"/>
					<path id="&lt;Path&gt;" class="s3" d="m1130.6 446.5c-0.4 9.6-2.1 25.2-3.6 40.8-0.4 4.9-0.9 9.9-1.3 14.7-0.2 3-4.7 18.9-4.9 21.8-0.8 13.6-7.5 23.8-1.2 44.6 1.5 5 1.9 7.5 1.9 9.6 0 1.4-1.8 2.9-2.6 3.3-2.6 1.5-7.8 2.6-14.2 3.4-12.4 1.5-29.3 1.8-39.4 1.8-13.6 0-34-2.2-36.6-5.6-2.4-3.2-0.2-7.7 0.9-14 5-28.5 3.2-43.3 2.9-63.9q0-0.7 0-1.5c-0.5-31.7-2.6-58.9-1.1-68.6 0.4-0.4 0.8-0.6 1.3-1q3.2-2.2 6.3-3.9 0.3-0.2 0.6-0.4c0.7-0.3 1.3-0.7 1.9-1q0.3-0.2 0.7-0.3c4.6-2.3 11.4-4.7 15.2-6q0.8-0.3 1.3-0.5 5.5-0.3 11.9-0.1c3.7 0.1 9.3 0.6 15.5 1.4q0 0 0 0c7 0.9 14.6 2.2 20.6 3.8 0 0 0.1 0.1 0.1 0.1 1.1 0.3 8.5 3.1 16.2 11.3 2.6 2.7 5.2 6.1 7.6 10.2z"/>
					<path id="&lt;Path&gt;" class="s19" d="m1119.6 568.4c1.5 5 1.9 7.5 1.9 9.6 0 1.4-1.8 2.9-2.6 3.3-2.6 1.5-7.8 2.6-14.2 3.4 2.6-0.3 7.1-4.5 7.1-8.2 0-2.6-3.3-20.3-2.4-31.6 0.9-11.4 2.8-29.5-0.7-44-3.6-14.5-6.9-33.5-6.9-33.5l19.9 11.9c0 0 2.5 3.6 5.3 8-0.4 4.9-0.9 9.9-1.3 14.7-0.2 3-12.4 45.6-6.1 66.4z"/>
					<g id="&lt;Group&gt;">
						<path id="&lt;Path&gt;" class="s16" d="m1032.3 362.7c0 0 1.7 20.8 8.6 22.2 6.9 1.4 5.2-7.5 5.2-7.5l-1-9.8z"/>
						<path id="&lt;Path&gt;" class="s18" d="m1064 438c-13.5-1.6-8.4-14.7-6.6-17.7 0.5-0.2 2.8-0.9 3-1q0 0 0 0 0.7-0.6 1.1-1.6c1.3-3.5 0.7-10.3 0.7-10.8q0 0 0 0v-1.3q0.3-1.2 0.6-2.3l7.1-5.6 15-11.8c0 0-4 19.8-0.8 32.2 0.2 0.9 0.7 2.2 2 3 0 0 0 0 0 0q0.6 0.4 1.5 0.5c3.7 1.8-1.5 19-23.6 16.4z"/>
						<path id="&lt;Path&gt;" class="s20" d="m1075.9 398.5c0 0-0.1 13.1-14.4 19.2 1.3-3.4 0.7-10.3 0.7-10.8l5.9-4.7z"/>
						<path id="&lt;Path&gt;" class="s18" d="m1035.6 365.7c0 0 3.1 43.1 14.7 46.7 0 0 14.8 1.4 25.5-12.9 3-4.1 6.9-5.1 8.2-10 2-8.1 4.9-23.1 1.2-32-5.2-12.9-49.1-23-49.6 8.2z"/>
						<path id="&lt;Path&gt;" class="s16" d="m1085.4 350.3c-0.2-7.8-8.1-10.7-8.1-10.7-7.9-3.7-24.3-2.1-41.2 1.7-3.9 0.8-8.9-1.6-11.7 0.3-3.3 2.4 0 13 0 13 6.5 19.7 30.5 13.3 37.7 10.8 1.7 5.1 1.5 12.2 5.8 15.8 2.4 2.1 6.7 2.2 11 1.5 0.5 1 2.5 1.8 2.9 3.2 1.3 4.6 1.1 11.9 1.1 17.4l2-1c0.3-1.5 21.3-51.3 0.5-52z"/>
						<g id="&lt;Group&gt;">
							<path id="&lt;Path&gt;" class="s21" d="m1047.5 380.2c0.6 3.6-1.2 6.8-4 7.3-2.7 0.5-5.5-2-6.1-5.6-0.6-3.6 1.2-6.9 3.9-7.3 2.8-0.5 5.6 2 6.2 5.6z"/>
							<path id="&lt;Path&gt;" class="s21" d="m1061.5 377.6c0.7 3.5-1.1 6.8-3.9 7.3-2.8 0.5-5.5-2.1-6.1-5.6-0.6-3.6 1.1-6.9 3.9-7.4 2.8-0.4 5.5 2.1 6.1 5.7z"/>
							<path id="&lt;Path&gt;" class="s21" d="m1047.5 380.2c0 0 0.6-1 3.8-0.7"/>
							<path id="&lt;Path&gt;" class="s21" d="m1061.7 378.4l12-1.9"/>
						</g>
						<g id="&lt;Group&gt;">
							<path id="&lt;Path&gt;" class="s18" d="m1074.6 391.7c8.2 3.2 10.8-17.2 3-18.1-6-0.6-6.2 7.7-6.2 7.7 0 0-1.6 8.6 3.2 10.4z"/>
						</g>
						<g id="&lt;Group&gt;" style="opacity: .5">
							<g id="&lt;Group&gt;">
								<path id="&lt;Path&gt;" class="s20" d="m1077.3 376.7c0 0-0.5 0.6-1 1.5-0.5 0.9-1 2.1-1 3.4-0.1 0.7-0.1 1.4-0.1 2 0.1 0.7 0.1 1.3 0.2 1.8q0.1 0.8 0.1 1.3c0 0.3 0 0.5 0 0.5 0 0-0.1-0.1-0.2-0.4-0.2-0.3-0.5-0.6-0.7-1.2-0.3-0.5-0.5-1.1-0.6-1.8-0.2-0.7-0.2-1.5-0.2-2.3 0.1-0.8 0.3-1.6 0.6-2.2 0.3-0.7 0.8-1.3 1.2-1.7 0.9-0.7 1.7-0.9 1.7-0.9z"/>
							</g>
							<g id="&lt;Group&gt;">
								<path id="&lt;Path&gt;" class="s20" d="m1078.6 380.6c0 0-0.3 0-0.8 0.2-0.5 0.2-1 0.5-1.5 0.9-0.4 0.5-0.7 1-0.8 1.4-0.2 0.4-0.2 0.7-0.2 0.7l-1.4-0.5c0 0 0.2-0.3 0.5-0.8 0.3-0.5 0.8-1 1.5-1.4 0.6-0.3 1.3-0.5 1.8-0.5 0.6-0.1 0.9 0 0.9 0z"/>
							</g>
						</g>
					</g>
					<path id="&lt;Path&gt;" class="s18" d="m1154.2 533.3q0 0-0.1 0c-3.6 4.2-17.4 7.3-24 1.5-2.1-1.9-4.5-6.8-6.8-12.9-5.9-15.5-11.5-38.8-11.5-38.8l30.9-15.7c0 0 4 17.8 7.4 34.7q0 0 0.1 0.5c1.1 5.4 2.2 10.7 3 15.3q0 0.2 0.1 0.4c0.8 5.5 1.3 11.2 0.9 15z"/>
					<path id="&lt;Path&gt;" class="s3" d="m1100.2 461.5c3 12.4 12.3 35.9 12.3 35.9 6.6 1.1 15.4-0.1 22.7-2.7 8.4-3 14.5-9.4 14.5-9.4 0 0-6.3-17.5-11.8-30-5.1-11.3-8.1-15.5-10.2-17.8-3.3-3.4-8.6-7.3-12.3-9.1z"/>
					<path id="&lt;Path&gt;" class="s3" d="m1139.2 469.6l-18.1-7.8-14.3-36.8c0 0 2.6 0.8 6.1 2.2q0 0 0 0 0.1 0 0.5 0.2 0.1 0 0.2 0.1c3.1 1.4 15.1 8.5 23.3 34q0.1 0.4 0.2 0.7c0.9 2.9 1.6 5.3 1.9 6.5q0.1 0.2 0.1 0.4 0.1 0.3 0.1 0.5z"/>
					<g id="&lt;Group&gt;">
						<path id="&lt;Path&gt;" class="s18" d="m1154.2 533.3q0 0-0.1 0c-0.2 2.3-0.8 3.9-2 4.5-0.1 0.1-2.7 1.6-2.8 1.7-3.8 2.3-10.7 6.3-19.2 9.9-20.7 9-50.7 19.3-66.9 24.1 0 0-1.6-4.6-4.1-9.4 0 0 14.7-6.8 29.1-17.8 14.4-11 35.1-24.4 35.1-24.4l5.2-6.1c0 0 18.6-17.1 21.6-13.7q0 0 0.1 0.5c0.5 1.8 1.9 8.3 3 15.3q0 0.2 0.1 0.4c0.8 5.5 1.3 11.2 0.9 15z"/>
						<path id="&lt;Path&gt;" class="s18" d="m1061.3 563.1c0 0-3.7 2.2-7.4 1.4-2-0.4-2.8-1.3-4.4-1.5-1.5-0.3-5.5-0.8-7.5-1.8-2-1-2.8-1.1-2.7 0.9 0.1 2 4 3.8 5.1 4.3 1 0.6 2.4 2.4 2.5 2.6 0.2 0.2-6.5 3.7-8.4 3 0 0-0.5 1.6-0.2 2.5 0.3 0.9 1.7 1.3 1.8 1.7 0.1 0.5-0.3 1.4 0 2.1 0.3 0.7 1.5 0.7 2 1.9 0.5 1.2 0 1.2 0.3 2.4 0.4 1.2 2 1.5 2.3 2.1 0.2 0.6 0.1 1.3 0.7 1.8 0.7 0.4 6.7-1.5 8.9-2.5 2.3-0.9 8.1-9.4 14.7-12.3z"/>
					</g>
					<path id="&lt;Path&gt;" class="s22" d="m1092.2 601h-47v-4.6h47c1.2 0 2.3 1 2.3 2.3 0 1.2-1.1 2.3-2.3 2.3z"/>
					<path id="&lt;Path&gt;" class="s22" d="m1066.7 601h-117.6c-1.4 0-2.7-1-3.1-2.3l-24-86.7c-0.6-2 0.9-3.9 2.9-3.9h113.8c2.6 0 4.9 1.8 5.6 4.4l24 86.3c0.3 1.1-0.5 2.2-1.6 2.2z"/>
					<path id="&lt;Path&gt;" class="s23" d="m1062.5 601h-117.7c-1.4 0-2.6-1-3-2.3l-24.1-86.7c-0.5-2 0.9-3.9 2.9-3.9h113.8c2.6 0 5 1.8 5.7 4.4l24 86.3c0.3 1.1-0.5 2.2-1.6 2.2z"/>
				</g>
			</g>
			<g id="&lt;Group&gt;">
				<path id="&lt;Path&gt;" class="s24" d="m596.1 544.9l13.7-13.9c0 0 0.4-6.3 1.2-7.6 0.7-1.3 2.6-6.2 3.6-6.7 0.9-0.5 2.9 0 2.9 0 0 0 1.8-0.6 2.7-0.6 0.8 0 2.4 0.7 2.4 0.7 0 0 2.1-0.1 2.9-0.1 0.9 0 1.1 0.2 1.1 0.2 0 0 3.3-3.7 4.9-5 1.6-1.3 4-3.6 4.8-3.6 0.6 0 0.9 1.2 0.5 2.5-0.5 1.2-2.7 3.3-2.7 3.3l-6.2 9.4c0 0 1.1-0.4 1.6-0.8 0.6-0.3 4.4-3.9 4.6-4 0.2-0.2 1.9-1.3 2.9-0.2 1 1.2-6.5 10.2-7.7 11.4-1.2 1.2-8.1 4.6-8.1 4.6 0 0-7.2 13.1-8 14-0.7 0.8-17.1-3.6-17.1-3.6z"/>
				<g id="&lt;Group&gt;">
					<path id="&lt;Path&gt;" class="s24" d="m609 480.4c0 0-7.7 44.1-14.8 45.2 0 0-28.6 1.1-35-33.6-5.5-30.1 16.6-36.5 27-34.2 10.4 2.3 25 3.8 22.8 22.6z"/>
				</g>
				<g id="&lt;Group&gt;">
					<path id="&lt;Path&gt;" class="s24" d="m583.7 518.5c0 0-4 5.4-5.4 18.5 0 0-12 1.7-22.9-4 0 0 5.9-18.4 6.6-38.5"/>
				</g>
				<path id="&lt;Path&gt;" class="s16" d="m575.6 450.4c-15.6 3.5-14.4 13.2-14.4 13.2-7.3 1.8-8.9 4.8-8.8 18.3 0 13.6 4.9 29.8 7.6 31.1 2.7 1.3 18 1.4 19.3 0.9 1.3-0.4 6.6-12.8 5.4-15-1.3-2.2 0-10.8 3.6-11.1 3.5-0.3 2.9 5.2 2.9 5.2l2.9-0.6 2.2-5.6c20.7 1.2 26-22.3 26-22.3-4.9-3.2-31.1-17.5-46.7-14.1z"/>
				<path id="&lt;Path&gt;" class="s18" d="m402.1 749l15.8 2.3-5.3 18.4-17.1-4.3c0 0-7-9.4 3.6-16.4 0.5-0.4 2.1-0.2 3 0z"/>
				<path id="&lt;Path&gt;" class="s25" d="m520 701.6l-23.3-70.6c0 0-7-2.5-10.6 0 0 0-24.3 13.1-21.7 50.3 1.9 28 7.9 58.5 10.3 70.7l-62.2-2.3c0 0-7.7 9.1-2.7 21 0 0 78.1 21 89.1 22.9 8.9 1.6 18.7 2.8 23.5-1.2 8.3-7.2-2.4-90.8-2.4-90.8z"/>
				<path id="&lt;Path&gt;" class="s18" d="m475.7 749l15.8 2.3-5.3 18.4-17.1-4.3c0 0-7-9.4 3.6-16.4 0.5-0.4 2.1-0.2 3 0z"/>
				<path id="&lt;Path&gt;" class="s23" d="m469.9 758.7c-0.3 3.6 2.8 6.9 2.3 7.8-0.6 0.9-11.2 18.7-11.2 18.7 0 0 8 3.5 6.7 8.5h-20.3c0 0-5.3-4.7-5.2-11.6 0 0 1.4-7.9 5-14.9 3.6-7 11.9-22.7 11.9-22.7 0 0 2.5-1.1 6.7 0.1 5 1.3 9.9 4.4 9.9 4.4 0 0-4.9 0.7-5.8 9.7z"/>
				<path id="&lt;Path&gt;" class="s16" d="m632.7 777.5c-5.1-18.7-52.2-98.6-68.2-120.2-32.8-14.2-67.8-26.3-67.8-26.3-14.4 3.5-21.5 32.6-13.3 52 5.6 13.3 41.3 46.9 63.1 66.6l-60.6-0.1c0 0-7.2 10.7-0.7 20.8 0 0 100.9 23 109.7 24.3 8.9 1.3 28.7 0 28.7 0 0 0 13.3-1.3 9.1-17.1z"/>
				<path id="&lt;Path&gt;" class="s23" d="m396.3 758.7c-0.3 3.6 2.8 6.9 2.3 7.8-0.6 0.9-11.2 18.7-11.2 18.7 0 0 8 3.5 6.7 8.5h-20.3c0 0-5.3-4.7-5.2-11.6 0 0 1.4-7.9 5-14.9 3.6-7 11.9-22.7 11.9-22.7 0 0 2.5-1.1 6.7 0.1 5 1.3 9.9 4.4 9.9 4.4 0 0-4.9 0.7-5.8 9.7z"/>
				<path id="&lt;Path&gt;" class="s24" d="m708.6 531.4l-32.5 57.2-23.3-23.3-19.3 28.7 5.6 2.7-2 1.7c0 0 44.9 21.9 50.3 17.1 5.4-4.9 30.5-77.6 30.5-77.6z"/>
				<path id="&lt;Path&gt;" class="s23" d="m656.9 569c0 0-6.1 25.9-18.4 38.2l-31.4-12c0 0-14.6 24.5-28.9 43.3-5.4 7.3-7.3 17.5-13.7 18.8q-0.6-0.2-1.2-0.3c-17.4-5.3-43.2 0.3-64.5-7.6-23.4-8.7-18.9-13.7-18.9-13.7 0 0 14.3-25.6 22.3-52.8 3.6-12 6.1-23.2 7.8-31.9 3-15.4 15.3-27.4 30.9-29.5q0.2 0 0.5-0.1c17.8-2.2 64.4 3.3 73.5 7.1 9 3.9 42 40.5 42 40.5z"/>
				<path id="&lt;Path&gt;" class="s26" d="m607.1 595.2c0 0-14.6 24.5-28.9 43.3-5.4 7.3-7.3 17.5-13.7 18.8 2.8-1 7.5-15.8 9.2-19.1 1.6-3.4 4.3-6.7 10.1-18.4 5.7-11.6 13.5-28.8 13.5-28.8z"/>
				<g id="&lt;Group&gt;">
					<path id="&lt;Path&gt;" class="s25" d="m546.5 749.6c0 0 0.5-0.1 1.4-0.2 0.9-0.1 2.1-0.3 3.6-0.4 3-0.1 7 0 11 0.6 2 0.2 4 0.6 5.8 1.1 1.8 0.4 3.5 0.9 5 1.4 1.4 0.5 2.5 1 3.3 1.4 0.8 0.4 1.3 0.6 1.3 0.6 0 0-0.5-0.1-1.4-0.2-0.9-0.2-2.1-0.4-3.6-0.6-2.9-0.5-6.8-1.1-10.7-1.6-1.9-0.3-3.9-0.6-5.7-0.8-1.8-0.2-3.6-0.5-5-0.6-3-0.4-5-0.7-5-0.7z"/>
				</g>
				<path id="&lt;Path&gt;" class="s24" d="m732.9 510.3c-0.5-0.1-3.9 2.6-5.5 3.9l1.9-3.5c0 0 2.4-2.4 3.3-3.7 0.9-1.3 0.4-2.6-0.3-2.6-0.5-0.1-3.4 2.2-5.1 3.6l0.4-0.7c0 0 2.4-2.4 3.3-3.7 0.9-1.3 0.4-2.6-0.3-2.6-0.7-0.1-6.3 4.6-6.3 4.6l-2.7 3.7 2-4c0 0 1.1-1.3 1.8-2.8 0.8-1.5 0.2-1.9-0.2-2.4-0.4-0.5-4.2 2.4-5.1 3.5-1 1.1-4.1 5.7-4.3 6.4l-3.2 6.5c-0.2-1.9-0.5-5.1-0.7-7.2-0.4-3-3.1-3.7-3.2-2.3-0.1 1.5-1.6 8.7-1.2 12.5 0.3 3.9 1 6.5 1.2 8.6 0.3 2.2-2 6.6-2 6.6 0 0 9 5.6 10.5 3.9 1.5-1.7 4.7-5.4 6.3-7.9 2.1-3.5 3.5-8 3.5-8l2.8-6.1c0 0 2.5-2.3 3.4-3.6 0.8-1.3 0.4-2.6-0.3-2.7z"/>
			</g>
			<g id="&lt;Group&gt;">
				<path id="&lt;Path&gt;" class="s27" d="m1252.4 328.1h-106.1c-6.8 0-12.4 5.6-12.4 12.4v25c0 6.3 4.7 11.5 10.8 12.3 0.9 0.1 1.6 0.8 1.6 1.7v13.7c0 0.8 1 1.2 1.4 0.5l10.8-15.1c0.4-0.5 0.9-0.7 1.5-0.7h92.4c6.8 0 12.3-5.6 12.3-12.4v-25c0-6.8-5.5-12.4-12.3-12.4z"/>
				<g id="&lt;Group&gt;">
					<path id="&lt;Path&gt;" class="s27" d="m1162.5 353c0 2.2-1.8 4-4 4-2.3 0-4.1-1.8-4.1-4 0-2.3 1.8-4.1 4.1-4.1 2.2 0 4 1.8 4 4.1z"/>
					<path id="&lt;Path&gt;" class="s27" d="m1183 353c0 2.2-1.9 4-4.1 4-2.2 0-4.1-1.8-4.1-4 0-2.3 1.9-4.1 4.1-4.1 2.2 0 4.1 1.8 4.1 4.1z"/>
					<path id="&lt;Path&gt;" class="s27" d="m1203.4 353c0 2.2-1.8 4-4.1 4-2.2 0-4-1.8-4-4 0-2.3 1.8-4.1 4-4.1 2.3 0 4.1 1.8 4.1 4.1z"/>
					<path id="&lt;Path&gt;" class="s27" d="m1223.8 353c0 2.2-1.8 4-4.1 4-2.2 0-4-1.8-4-4 0-2.3 1.8-4.1 4-4.1 2.3 0 4.1 1.8 4.1 4.1z"/>
					<path id="&lt;Path&gt;" class="s27" d="m1244.2 353c0 2.2-1.8 4-4 4-2.3 0-4.1-1.8-4.1-4 0-2.3 1.8-4.1 4.1-4.1 2.2 0 4 1.8 4 4.1z"/>
				</g>
			</g>
			<g id="&lt;Group&gt;">
				<path id="&lt;Path&gt;" class="s27" d="m413.8 438.1h106.1c6.8 0 12.3 5.5 12.3 12.3v25c0 6.3-4.7 11.5-10.7 12.3-0.9 0.1-1.6 0.8-1.6 1.7v13.8c0 0.7-1 1.1-1.5 0.4l-10.8-15.1c-0.3-0.5-0.9-0.7-1.4-0.7h-92.4c-6.8 0-12.3-5.6-12.3-12.4v-25c0-6.8 5.5-12.3 12.3-12.3z"/>
				<g id="&lt;Group&gt;">
					<path id="&lt;Path&gt;" class="s27" d="m503.6 462.9c0 2.2 1.8 4 4.1 4 2.2 0 4-1.8 4-4 0-2.3-1.8-4.1-4-4.1-2.3 0-4.1 1.8-4.1 4.1z"/>
					<path id="&lt;Path&gt;" class="s27" d="m483.2 462.9c0 2.2 1.8 4 4.1 4 2.2 0 4-1.8 4-4 0-2.3-1.8-4.1-4-4.1-2.3 0-4.1 1.8-4.1 4.1z"/>
					<path id="&lt;Path&gt;" class="s27" d="m462.8 462.9c0 2.2 1.8 4 4 4 2.3 0 4.1-1.8 4.1-4 0-2.3-1.8-4.1-4.1-4.1-2.2 0-4 1.8-4 4.1z"/>
					<path id="&lt;Path&gt;" class="s27" d="m442.4 462.9c0 2.2 1.8 4 4 4 2.3 0 4.1-1.8 4.1-4 0-2.3-1.8-4.1-4.1-4.1-2.2 0-4 1.8-4 4.1z"/>
					<path id="&lt;Path&gt;" class="s27" d="m422 462.9c0 2.2 1.8 4 4 4 2.2 0 4.1-1.8 4.1-4 0-2.3-1.9-4.1-4.1-4.1-2.2 0-4 1.8-4 4.1z"/>
				</g>
			</g>
			<g id="&lt;Group&gt;">
				<path id="&lt;Path&gt;" class="s28" d="m1054.7 270.3h-193.4c-10.7 0-19.3-8.6-19.3-19.3 0-10.7 8.6-19.3 19.3-19.3h193.4c10.7 0 19.3 8.6 19.3 19.3 0 10.7-8.6 19.3-19.3 19.3z"/>
				<g id="&lt;Group&gt;">
					<path id="&lt;Path&gt;" class="s29" d="m1051.9 249.7c0 5.6-4.6 10.2-10.3 10.2-5.7 0-10.3-4.6-10.3-10.2 0-5.7 4.6-10.3 10.3-10.3 5.7 0 10.3 4.6 10.3 10.3z"/>
					<path id="&lt;Path&gt;" class="s30" d="m1048.9 256.9l5.6 5.7"/>
				</g>
			</g>
			<g id="&lt;Group&gt;">
				<g id="&lt;Group&gt;">
					<g id="&lt;Group&gt;">
						<path id="&lt;Path&gt;" class="s31" d="m761.7 795.7h-48.7c-8.5 0-15.4-6.9-15.4-15.5v-48.6c0-8.5 6.9-15.4 15.4-15.4h48.7c8.5 0 15.4 6.9 15.4 15.4v48.6c0 8.6-6.9 15.5-15.4 15.5z"/>
					</g>
					<path id="&lt;Path&gt;" class="s14" d="m747.2 795.7h-48.6c-8.6 0-15.5-6.9-15.5-15.5v-48.6c0-8.5 6.9-15.4 15.5-15.4h48.6c8.5 0 15.4 6.9 15.4 15.4v48.6c0 8.6-6.9 15.5-15.4 15.5z"/>
					<path id="&lt;Path&gt;" class="s3" d="m713.5 740.9l22.8 13.2c1.4 0.8 1.4 2.8 0 3.6l-22.8 13.2c-1.4 0.8-3.2-0.2-3.2-1.8v-26.4c0-1.6 1.8-2.6 3.2-1.8z"/>
				</g>
				<g id="&lt;Group&gt;">
					<g id="&lt;Group&gt;">
						<path id="&lt;Path&gt;" class="s31" d="m1265.1 795.7h-63.6c-11.2 0-20.2-9.1-20.2-20.2v-63.6c0-11.1 9-20.2 20.2-20.2h63.6c11.1 0 20.1 9.1 20.1 20.2v63.6c0 11.1-9 20.2-20.1 20.2z"/>
					</g>
					<path id="&lt;Path&gt;" class="s14" d="m1246.1 795.7h-63.6c-11.1 0-20.1-9.1-20.1-20.2v-63.6c0-11.1 9-20.2 20.1-20.2h63.6c11.2 0 20.2 9.1 20.2 20.2v63.6c0 11.1-9 20.2-20.2 20.2z"/>
					<path id="&lt;Path&gt;" class="s3" d="m1226.8 717.2c0 6.9-5.6 12.5-12.5 12.5-6.9 0-12.5-5.6-12.5-12.5 0-6.9 5.6-12.5 12.5-12.5 6.9 0 12.5 5.6 12.5 12.5z"/>
					<path id="&lt;Path&gt;" class="s3" d="m1240.4 759.5v18.4c0 1.7-1.4 3.1-3.1 3.1h-46c-1.7 0-3-1.4-3-3.1v-18.4c0-14.4 11.6-26 26-26 14.4 0 26.1 11.6 26.1 26z"/>
				</g>
				<g id="&lt;Group&gt;">
					<path id="&lt;Path&gt;" class="s12" d="m981.9 292.6h-40.8c-1.7 0-3.1-1.4-3.1-3.1 0-1.7 1.4-3.1 3.1-3.1h40.8c1.7 0 3.1 1.4 3.1 3.1 0 1.7-1.4 3.1-3.1 3.1z"/>
					<path id="&lt;Path&gt;" class="s12" d="m1022.8 292.6h-29.6c-1.7 0-3-1.4-3-3.1 0-1.7 1.3-3.1 3-3.1h29.6c1.7 0 3.1 1.4 3.1 3.1 0 1.7-1.4 3.1-3.1 3.1z"/>
					<path id="&lt;Path&gt;" class="s12" d="m958.4 306.1h-17.3c-1.7 0-3.1-1.4-3.1-3.1 0-1.7 1.4-3.1 3.1-3.1h17.3c1.7 0 3.1 1.4 3.1 3.1 0 1.7-1.4 3.1-3.1 3.1z"/>
					<path id="&lt;Path&gt;" class="s12" d="m1022.8 306.1h-54.1c-1.7 0-3-1.4-3-3.1 0-1.7 1.3-3.1 3-3.1h54.1c1.7 0 3.1 1.4 3.1 3.1 0 1.7-1.4 3.1-3.1 3.1z"/>
					<path id="&lt;Path&gt;" class="s12" d="m994.9 319.6h-53.8c-1.7 0-3.1-1.4-3.1-3.1 0-1.7 1.4-3.1 3.1-3.1h53.8c1.7 0 3.1 1.4 3.1 3.1 0 1.7-1.4 3.1-3.1 3.1z"/>
					<path id="&lt;Path&gt;" class="s12" d="m1022.8 319.6h-17.4c-1.7 0-3-1.4-3-3.1 0-1.7 1.3-3.1 3-3.1h17.4c1.7 0 3.1 1.4 3.1 3.1 0 1.7-1.4 3.1-3.1 3.1z"/>
				</g>
				<g id="&lt;Group&gt;">
					<path id="&lt;Path&gt;" class="s31" d="m464.6 606.1h-142.7c-4.2 0-7.6-3.4-7.6-7.6v-72c0-4.2 3.4-7.6 7.6-7.6h142.7c4.2 0 7.6 3.4 7.6 7.6v72c0 4.2-3.4 7.6-7.6 7.6z"/>
					<path id="&lt;Path&gt;" class="s32" d="m321 530.6h144.5"/>
					<path id="&lt;Path&gt;" class="s3" d="m463.4 524.6c0 1-0.8 1.8-1.7 1.8-1 0-1.8-0.8-1.8-1.8 0-0.9 0.8-1.7 1.8-1.7 0.9 0 1.7 0.8 1.7 1.7z"/>
					<path id="&lt;Path&gt;" class="s3" d="m454.3 524.6c0 1-0.8 1.8-1.7 1.8-1 0-1.8-0.8-1.8-1.8 0-0.9 0.8-1.7 1.8-1.7 0.9 0 1.7 0.8 1.7 1.7z"/>
					<path id="&lt;Path&gt;" class="s3" d="m445.2 524.6c0 1-0.8 1.8-1.8 1.8-0.9 0-1.7-0.8-1.7-1.8 0-0.9 0.8-1.7 1.7-1.7 1 0 1.8 0.8 1.8 1.7z"/>
					<g id="&lt;Group&gt;">
						<g id="&lt;Group&gt;">
							<path id="&lt;Path&gt;" class="s33" d="m347.9 542.4h-24.5c-1.3 0-2.4-1.1-2.4-2.4 0-1.4 1.1-2.4 2.4-2.4h24.5c1.4 0 2.4 1 2.4 2.4 0 1.3-1 2.4-2.4 2.4z"/>
							<path id="&lt;Path&gt;" class="s33" d="m347.9 553.6h-24.5c-1.3 0-2.4-1.1-2.4-2.5 0-1.3 1.1-2.4 2.4-2.4h24.5c1.4 0 2.4 1.1 2.4 2.4 0 1.4-1 2.5-2.4 2.5z"/>
							<path id="&lt;Path&gt;" class="s33" d="m347.9 564.7h-24.5c-1.3 0-2.4-1.1-2.4-2.4 0-1.3 1.1-2.4 2.4-2.4h24.5c1.4 0 2.4 1.1 2.4 2.4 0 1.3-1 2.4-2.4 2.4z"/>
							<path id="&lt;Path&gt;" class="s33" d="m347.9 575.9h-24.5c-1.3 0-2.4-1.1-2.4-2.4 0-1.4 1.1-2.4 2.4-2.4h24.5c1.4 0 2.4 1 2.4 2.4 0 1.3-1 2.4-2.4 2.4z"/>
							<path id="&lt;Path&gt;" class="s33" d="m347.9 587.1h-24.5c-1.3 0-2.4-1.1-2.4-2.5 0-1.3 1.1-2.4 2.4-2.4h24.5c1.4 0 2.4 1.1 2.4 2.4 0 1.4-1 2.5-2.4 2.5z"/>
							<path id="&lt;Path&gt;" class="s33" d="m347.9 598.2h-24.5c-1.3 0-2.4-1.1-2.4-2.4 0-1.3 1.1-2.4 2.4-2.4h24.5c1.4 0 2.4 1.1 2.4 2.4 0 1.3-1 2.4-2.4 2.4z"/>
						</g>
						<g id="&lt;Group&gt;">
							<path id="&lt;Path&gt;" class="s34" d="m463.1 542.4h-105.7c-1.3 0-2.4-1.1-2.4-2.4 0-1.4 1.1-2.4 2.4-2.4h105.7c1.3 0 2.4 1 2.4 2.4 0 1.3-1.1 2.4-2.4 2.4z"/>
							<path id="&lt;Path&gt;" class="s34" d="m463.1 553.6h-105.7c-1.3 0-2.4-1.1-2.4-2.5 0-1.3 1.1-2.4 2.4-2.4h105.7c1.3 0 2.4 1.1 2.4 2.4 0 1.4-1.1 2.5-2.4 2.5z"/>
							<path id="&lt;Path&gt;" class="s34" d="m463.1 564.7h-105.7c-1.3 0-2.4-1.1-2.4-2.4 0-1.3 1.1-2.4 2.4-2.4h105.7c1.3 0 2.4 1.1 2.4 2.4 0 1.3-1.1 2.4-2.4 2.4z"/>
							<path id="&lt;Path&gt;" class="s34" d="m463.1 575.9h-105.7c-1.3 0-2.4-1.1-2.4-2.4 0-1.4 1.1-2.4 2.4-2.4h105.7c1.3 0 2.4 1 2.4 2.4 0 1.3-1.1 2.4-2.4 2.4z"/>
							<path id="&lt;Path&gt;" class="s34" d="m463.1 587.1h-105.7c-1.3 0-2.4-1.1-2.4-2.5 0-1.3 1.1-2.4 2.4-2.4h105.7c1.3 0 2.4 1.1 2.4 2.4 0 1.4-1.1 2.5-2.4 2.5z"/>
							<path id="&lt;Path&gt;" class="s34" d="m463.1 598.2h-105.7c-1.3 0-2.4-1.1-2.4-2.4 0-1.3 1.1-2.4 2.4-2.4h105.7c1.3 0 2.4 1.1 2.4 2.4 0 1.3-1.1 2.4-2.4 2.4z"/>
						</g>
					</g>
				</g>
				<g id="&lt;Group&gt;">
					<g id="&lt;Group&gt;">
						<path id="&lt;Path&gt;" class="s0" d="m1206.7 135c0 35.9-29.1 65-65 65-35.9 0-65-29.1-65-65 0-35.9 29.1-65 65-65 35.9 0 65 29.1 65 65z"/>
					</g>
					<g id="&lt;Group&gt;">
						<path id="&lt;Path&gt;" class="s4" d="m1198.3 135c0 31.2-25.4 56.5-56.6 56.5-31.2 0-56.5-25.3-56.5-56.5 0-31.2 25.3-56.5 56.5-56.5 31.2 0 56.6 25.3 56.6 56.5z"/>
					</g>
					<path id="&lt;Path&gt;" class="s3" d="m1146.9 135c0 2.8-2.3 5.1-5.2 5.1-2.8 0-5.1-2.3-5.1-5.1 0-2.9 2.3-5.2 5.1-5.2 2.9 0 5.2 2.3 5.2 5.2z"/>
					<path id="&lt;Path&gt;" class="s3" d="m1141.2 134c-0.8 0.4-1.8 0.1-2.2-0.6l-16.6-30c-0.5-0.8-0.2-1.8 0.6-2.2 0.8-0.4 1.7-0.2 2.2 0.6l16.6 30c0.4 0.8 0.1 1.7-0.6 2.2z"/>
					<path id="&lt;Path&gt;" class="s3" d="m1142.5 135.8c0.7-0.6 1.7-0.6 2.3 0l14.4 14.4c0.6 0.6 0.6 1.6 0 2.3-0.6 0.6-1.6 0.6-2.3 0l-14.4-14.4c-0.6-0.6-0.6-1.7 0-2.3z"/>
					<g id="&lt;Group&gt;">
						<path id="&lt;Path&gt;" class="s35" d="m1142.1 89.8v-6.5"/>
						<path id="&lt;Path&gt;" class="s35" d="m1187 135.3h6.5"/>
						<path id="&lt;Path&gt;" class="s35" d="m1141.4 180.2v6.5"/>
						<path id="&lt;Path&gt;" class="s35" d="m1096.5 134.6h-6.5"/>
					</g>
					<g id="&lt;Group&gt;" style="opacity: .5">
						<path id="&lt;Path&gt;" class="s36" d="m1119.4 95.6l-3.2-5.6"/>
						<path id="&lt;Path&gt;" class="s36" d="m1181.1 112.7l5.6-3.3"/>
						<path id="&lt;Path&gt;" class="s36" d="m1164.1 174.3l3.2 5.7"/>
						<path id="&lt;Path&gt;" class="s36" d="m1102.4 157.3l-5.7 3.3"/>
					</g>
					<g id="&lt;Group&gt;" style="opacity: .5">
						<path id="&lt;Path&gt;" class="s36" d="m1102.7 112.1l-5.6-3.3"/>
						<path id="&lt;Path&gt;" class="s36" d="m1164.6 96l3.3-5.6"/>
						<path id="&lt;Path&gt;" class="s36" d="m1180.7 157.9l5.7 3.3"/>
						<path id="&lt;Path&gt;" class="s36" d="m1118.8 174l-3.2 5.6"/>
					</g>
				</g>
				<g id="&lt;Group&gt;">
					<path id="&lt;Path&gt;" class="s31" d="m369.3 462.2h-71.4c-10.5 0-19.1-8.6-19.1-19.2v-71.4c0-10.5 8.6-19.1 19.1-19.1h71.4c10.6 0 19.2 8.6 19.2 19.1v71.4c0 10.6-8.6 19.2-19.2 19.2z"/>
					<path id="&lt;Path&gt;" class="s37" d="m364.6 452.7h-79c-8.4 0-15.3-6.9-15.3-15.4v-79c0-8.4 6.9-15.3 15.3-15.3h79c8.5 0 15.4 6.9 15.4 15.3v79c0 8.5-6.9 15.4-15.4 15.4z"/>
					<g id="&lt;Group&gt;">
						<g id="&lt;Group&gt;">
							<g id="&lt;Group&gt;">
								<g id="&lt;Group&gt;">
									<path id="&lt;Compound Path&gt;" fill-rule="evenodd" class="s1" d="m349.4 390.5v23.7c0 2.9-2.4 5.2-5.3 5.2h-38.1c-2.9 0-5.2-2.3-5.2-5.2v-23.7c0-2.9 2.3-5.2 5.2-5.2h0.1v-6.3c0-10.3 8.4-18.7 18.7-18.7 10.4 0 18.7 8.4 18.7 18.7v6.3h0.6c2.9 0 5.3 2.3 5.3 5.2zm-38.5-5.2h27.9v-6.3c0-7.7-6.3-14-14-14-7.7 0-13.9 6.3-13.9 14z"/>
								</g>
							</g>
							<g id="&lt;Group&gt;">
								<path id="&lt;Path&gt;" class="s38" d="m331.2 397.4c0-3.7-3.4-6.7-7.3-5.9-2.3 0.4-4.3 2.3-4.7 4.6-0.6 2.8 0.7 5.3 2.8 6.6 0.5 0.2 0.7 0.7 0.6 1.2l-1.1 3.9c-0.6 2.4 1.2 4.7 3.6 4.7 2.4 0 4.1-2.3 3.5-4.7l-1-3.8c-0.2-0.5 0.1-1 0.5-1.3 1.9-1 3.1-3 3.1-5.3z"/>
							</g>
						</g>
						<g id="&lt;Group&gt;">
							<path id="&lt;Path&gt;" class="s1" d="m347.1 427.7h-44.1c-1.2 0-2.2-1-2.2-2.2 0-1.3 1-2.3 2.2-2.3h44.1c1.3 0 2.3 1 2.3 2.3 0 1.2-1 2.2-2.3 2.2z"/>
						</g>
						<g id="&lt;Group&gt;">
							<path id="&lt;Path&gt;" class="s1" d="m347.1 435.4h-44.1c-1.2 0-2.2-1-2.2-2.3 0-1.2 1-2.2 2.2-2.2h44.1c1.3 0 2.3 1 2.3 2.2 0 1.3-1 2.3-2.3 2.3z"/>
						</g>
					</g>
				</g>
				<g id="&lt;Group&gt;">
					<g id="&lt;Group&gt;">
						<path id="&lt;Path&gt;" class="s31" d="m1233.1 591.1h-42c-6.2 0-11.2-5.1-11.2-11.3v-42c0-6.3 5-11.3 11.2-11.3h42c6.3 0 11.3 5 11.3 11.3v42c0 6.2-5 11.3-11.3 11.3z"/>
						<path id="&lt;Path&gt;" class="s37" d="m1230.4 585.5h-46.5c-5 0-9.1-4.1-9.1-9.1v-46.5c0-4.9 4.1-9 9.1-9h46.5c5 0 9 4.1 9 9v46.5c0 5-4 9.1-9 9.1z"/>
						<g id="&lt;Group&gt;">
						</g>
					</g>
					<g id="&lt;Group&gt;">
						<g id="&lt;Group&gt;">
							<path id="&lt;Path&gt;" class="s3" d="m1194.1 572.5q-0.3 0-0.6-0.1c-1-0.3-1.6-1.4-1.3-2.5l9.7-34.5c0.3-1.1 1.4-1.7 2.5-1.4 1.1 0.3 1.7 1.4 1.4 2.5l-9.8 34.5c-0.2 0.9-1 1.5-1.9 1.5z"/>
						</g>
						<g id="&lt;Group&gt;">
							<path id="&lt;Path&gt;" class="s3" d="m1210.4 572.5q-0.3 0-0.5-0.1c-1.1-0.3-1.7-1.4-1.4-2.5l9.7-34.5c0.3-1.1 1.5-1.7 2.5-1.4 1.1 0.3 1.7 1.4 1.4 2.5l-9.8 34.5c-0.2 0.9-1 1.5-1.9 1.5z"/>
						</g>
						<g id="&lt;Group&gt;">
							<path id="&lt;Path&gt;" class="s3" d="m1224.4 547.4h-34.6c-1.1 0-2-0.9-2-2 0-1.1 0.9-2 2-2h34.6c1.1 0 2 0.9 2 2 0 1.1-0.9 2-2 2z"/>
						</g>
						<g id="&lt;Group&gt;">
							<path id="&lt;Path&gt;" class="s3" d="m1224.4 563.1h-34.6c-1.1 0-2-0.8-2-2 0-1.1 0.9-2 2-2h34.6c1.1 0 2 0.9 2 2 0 1.2-0.9 2-2 2z"/>
						</g>
					</g>
				</g>
				<g id="&lt;Group&gt;">
					<path id="&lt;Path&gt;" class="s12" d="m453.7 386h-25c-1.5 0-2.7-1.2-2.7-2.8 0-1.5 1.2-2.7 2.7-2.7h25c1.6 0 2.8 1.2 2.8 2.7 0 1.6-1.2 2.8-2.8 2.8z"/>
					<path id="&lt;Path&gt;" class="s12" d="m478.9 398.1h-50.2c-1.5 0-2.7-1.2-2.7-2.7 0-1.5 1.2-2.7 2.7-2.7h50.2c1.5 0 2.8 1.2 2.8 2.7 0 1.5-1.3 2.7-2.8 2.7z"/>
					<path id="&lt;Path&gt;" class="s12" d="m434.7 410.3h-6c-1.5 0-2.7-1.2-2.7-2.7 0-1.5 1.2-2.8 2.7-2.8h6c1.5 0 2.7 1.3 2.7 2.8 0 1.5-1.2 2.7-2.7 2.7z"/>
					<path id="&lt;Path&gt;" class="s12" d="m478.9 410.3h-34.9c-1.5 0-2.8-1.2-2.8-2.7 0-1.5 1.3-2.8 2.8-2.8h34.9c1.5 0 2.8 1.3 2.8 2.8 0 1.5-1.3 2.7-2.8 2.7z"/>
					<path id="&lt;Path&gt;" class="s12" d="m478.9 386h-15.1c-1.5 0-2.8-1.2-2.8-2.8 0-1.5 1.3-2.7 2.8-2.7h15.1c1.5 0 2.8 1.2 2.8 2.7 0 1.6-1.3 2.8-2.8 2.8z"/>
				</g>
				<path id="&lt;Path&gt;" class="s3" d="m338 759.8c-3.3 0-6.3 0.9-8.9 2.5-1.1-9.4-9-16.6-18.6-16.6-10.3 0-18.7 8.4-18.7 18.7q0 1 0.1 2-1.3-0.2-2.6-0.2c-7.9 0-14.3 6.4-14.3 14.3 0 7.8 6.4 14.2 14.3 14.2h48.7c9.6 0 17.4-7.8 17.4-17.4 0-9.7-7.8-17.5-17.4-17.5z"/>
			</g>
			<g id="&lt;Group&gt;">
				<g id="&lt;Group&gt;">
					<path id="&lt;Path&gt;" class="s1" d="m214.1 684.9c-0.5-2.6-0.4-5.3 0.2-7.9 2.2-8.6 4.8-24.8-0.8-42.2-9.4-29.2-47.2-55.1-47.2-55.1 0 0 10.2 43.1 18.7 61.4 6.2 13.4 17 28.7 23 36.8 1.7 2.2 2.8 4.8 3.3 7.5 6.1 33.9 5.2 60.1 5.2 60.5l2.9 0.1c0-0.4 0.9-26.9-5.3-61.1z"/>
				</g>
				<g id="&lt;Group&gt;">
					<path id="&lt;Path&gt;" class="s39" d="m244.3 657.5c7.5-23.8 11-51.8 11-51.8 0 0-34 28-36.7 49.6-1.7 13.3 0.4 24 2.3 30.2 0.8 2.7 1.1 5.5 0.8 8.2-3.5 31.9-0.8 56.4-0.7 56.8l2.5-0.3c0-0.4-2.5-23.1 0.4-53.3 0.4-4.1 2.1-8 4.7-11.2 4.9-6 11.8-16 15.7-28.2z"/>
				</g>
				<g id="&lt;Group&gt;">
					<path id="&lt;Path&gt;" class="s1" d="m278.8 604.6c0 0-36.6 13.5-46.2 43.4-5.8 18.2-3 35-0.8 43.7 0.7 2.4 0.6 5 0 7.4-8.5 34.4-8.7 70-8.7 70.5h2.9c0-0.5 0.2-35.2 8.5-68.9 0.8-3.4 2.2-6.5 4.3-9.3 6.2-8.4 16.9-23.5 23-36.9 8.7-18.7 17-49.9 17-49.9z"/>
				</g>
				<g id="&lt;Group&gt;">
					<path id="&lt;Path&gt;" class="s39" d="m214.2 730.6c-0.9-12.5-4.3-23.8-8.4-33.2-0.8-1.9-1.1-4-0.9-6 0.5-4 0.8-10.1-0.8-17.9-3-14.6-22.4-46.3-50.6-48.1 0 0 9.7 15.6 14.7 28.6 6.3 16.6 15.4 33.9 30.3 40.5 2.7 1.2 4.7 3.4 5.8 6 3.7 8.8 6.6 19 7.4 30.3z"/>
				</g>
				<g id="&lt;Group&gt;">
					<g id="&lt;Group&gt;">
						<path id="&lt;Path&gt;" class="s1" d="m195.2 794.7h46.5l12-73.7c0.6-3.2-2-6.2-5.3-6.2h-60c-3.3 0-5.8 3-5.3 6.2z"/>
					</g>
				</g>
			</g>
			<path id="&lt;Path&gt;" class="s40" d="m99.8 794.7h1300.4"/>
		</g>
	</g>
</svg>