<svg xmlns="http://www.w3.org/2000/svg" version="1.1" xmlns:xlink="http://www.w3.org/1999/xlink" xmlns:svgjs="http://svgjs.com/svgjs" width="48" height="48" x="0" y="0" viewBox="0 0 64 64" style="enable-background:new 0 0 512 512" xml:space="preserve" class=""><g><linearGradient id="New_Gradient_Swatch_3" gradientUnits="userSpaceOnUse" x1="16.063" x2="16.063" y1="62.851" y2="-2.239"><stop stop-opacity="1" stop-color="#006df0" offset="0"></stop><stop stop-opacity="1" stop-color="#c800f0" offset="1"></stop></linearGradient><linearGradient id="New_Gradient_Swatch_3-2" x1="16" x2="16" xlink:href="#New_Gradient_Swatch_3" y1="62.851" y2="-2.239"></linearGradient><linearGradient id="New_Gradient_Swatch_3-5" x1="48" x2="48" xlink:href="#New_Gradient_Swatch_3" y1="62.851" y2="-2.239"></linearGradient><g id="Communicate"><path d="m26.9 21.314-4.949-4.95a1 1 0 0 0 -1.414 0l-2.122 2.121a3 3 0 0 1 -4.243 0l-.242-.242a3 3 0 0 1 0-4.243l2.121-2.122a1 1 0 0 0 0-1.414l-4.951-4.949a1 1 0 0 0 -1.414 0l-2.121 2.121a9.01 9.01 0 0 0 0 12.728l4.485 4.485a9.01 9.01 0 0 0 12.728 0l2.122-2.121a1 1 0 0 0 0-1.414zm-5.656-2.829 3.535 3.536-.707.707-3.535-3.536zm-10.85-10.849 3.535 3.535-.707.708-3.536-3.536zm3.07 15.8-4.485-4.486a7.012 7.012 0 0 1 -.657-9.142l3.556 3.556a5.009 5.009 0 0 0 .637 6.293l.242.242a5.012 5.012 0 0 0 6.293.637l3.556 3.556a7.013 7.013 0 0 1 -9.142-.657z" fill="url(#New_Gradient_Swatch_3)" data-original="url(#New_Gradient_Swatch_3)"></path><g fill="url(#New_Gradient_Swatch_3-2)"><path d="m27 32h-22a3 3 0 0 1 -3-3v-24a3 3 0 0 1 3-3h22a3 3 0 0 1 3 3v24a3 3 0 0 1 -3 3zm-22-28a1 1 0 0 0 -1 1v24a1 1 0 0 0 1 1h22a1 1 0 0 0 1-1v-24a1 1 0 0 0 -1-1z" fill=""></path><path d="m27 62h-22a3 3 0 0 1 -3-3v-22a3 3 0 0 1 3-3h22a3 3 0 0 1 3 3v22a3 3 0 0 1 -3 3zm-22-26a1 1 0 0 0 -1 1v22a1 1 0 0 0 1 1h22a1 1 0 0 0 1-1v-22a1 1 0 0 0 -1-1z" fill=""></path><path d="m25 41h-18a1 1 0 0 0 -1 1v12a1 1 0 0 0 1 1h18a1 1 0 0 0 1-1v-12a1 1 0 0 0 -1-1zm-9 7.65-6.368-5.65h12.734zm-3.734-.641-4.266 3.771v-7.555zm1.506 1.337.9.8a1.993 1.993 0 0 0 2.671.005l.9-.8 4.118 3.649h-12.722zm5.972-1.337 4.256-3.784v7.555z" fill=""></path></g><path d="m59 2h-22a3 3 0 0 0 -3 3v24a3 3 0 0 0 3 3h5v12.538l-1.17-2.479a2.962 2.962 0 0 0 -1.369-1.731 3.007 3.007 0 0 0 -2.281-.3l-.921.248a2 2 0 0 0 -1.378 2.56l4.174 12.124a.988.988 0 0 0 .182.32l2.709 3.2.054 2.541a1 1 0 0 0 1 .979h14a1 1 0 0 0 1-1v-2.7l1.832-2.748a1.006 1.006 0 0 0 .168-.552v-13a2.926 2.926 0 0 0 -.874-2.108 3.058 3.058 0 0 0 -3.23-.682 2.867 2.867 0 0 0 -.77-1.318 3.06 3.06 0 0 0 -3.23-.682 2.867 2.867 0 0 0 -.77-1.318 3.053 3.053 0 0 0 -3.126-.721v-3.171h11a3 3 0 0 0 3-3v-24a3 3 0 0 0 -3-3zm-10 35a.974.974 0 0 1 .712.306.957.957 0 0 1 .288.694v7a1 1 0 0 0 2 0v-5a1 1 0 0 1 1-1 .974.974 0 0 1 .712.306.957.957 0 0 1 .288.694v5a1 1 0 0 0 2 0v-3a1 1 0 0 1 1-1 .974.974 0 0 1 .712.306.957.957 0 0 1 .288.694v12.7l-1.832 2.748a1.006 1.006 0 0 0 -.168.552v2h-12.021l-.041-1.921a1 1 0 0 0 -.236-.626l-2.818-3.326-4.105-11.927.914-.246a1.018 1.018 0 0 1 .768.1.98.98 0 0 1 .462.6c.015.059 3.173 6.763 3.173 6.763a1 1 0 0 0 1.904-.417v-19.888a1.082 1.082 0 0 1 .907-1.112.974.974 0 0 1 .805.3.957.957 0 0 1 .288.7v16a1 1 0 0 0 2 0v-7a1 1 0 0 1 1-1zm11-8a1 1 0 0 1 -1 1h-11v-1a2.926 2.926 0 0 0 -.874-2.108 2.966 2.966 0 0 0 -2.387-.881 3.077 3.077 0 0 0 -2.739 3.101v.888h-5a1 1 0 0 1 -1-1v-24a1 1 0 0 1 1-1h22a1 1 0 0 1 1 1z" fill="url(#New_Gradient_Swatch_3-5)" data-original="url(#New_Gradient_Swatch_3-5)"></path><path d="m48 8a8 8 0 0 0 0 16h4a1 1 0 0 0 0-2h-4a6 6 0 1 1 6-6v1a1 1 0 0 1 -2 0v-1a4.033 4.033 0 1 0 -1.286 2.92 2.987 2.987 0 0 0 5.286-1.92v-1a8.009 8.009 0 0 0 -8-8zm0 10a2 2 0 1 1 2-2 2 2 0 0 1 -2 2z" fill="url(#New_Gradient_Swatch_3-5)" data-original="url(#New_Gradient_Swatch_3-5)"></path></g></g></svg>