<svg xmlns="http://www.w3.org/2000/svg" version="1.1" xmlns:xlink="http://www.w3.org/1999/xlink" xmlns:svgjs="http://svgjs.com/svgjs" width="46" height="46" x="0" y="0" viewBox="0 0 512 512" style="enable-background:new 0 0 512 512" xml:space="preserve" class=""><g><g><path d="m398.616 449.192c-3.118-2.727-7.855-2.408-10.583.709l-30.921 35.364c-3.275 3.749-7.821 5.906-12.799 6.074-4.992.178-9.66-1.676-13.181-5.193l-23.831-23.821v-15.753c0-4.142-3.357-7.5-7.5-7.5s-7.5 3.358-7.5 7.5v18.821.077 39.03c0 4.142 3.357 7.5 7.5 7.5s7.5-3.358 7.5-7.5v-20.966l13.228 13.222c6.138 6.132 14.537 9.593 23.193 9.593 9.406 0 18.497-4.127 24.684-11.212l30.92-35.362c2.727-3.119 2.408-7.857-.71-10.583zm-311.478-10.12c-4.143 0-7.5 3.358-7.5 7.5v57.928c0 4.142 3.357 7.5 7.5 7.5s7.5-3.358 7.5-7.5v-57.928c0-4.142-3.358-7.5-7.5-7.5zm415.363-320.17-50.271-40.846c-3.477-2.824-8.148-3.384-12.194-1.458-4.045 1.925-6.558 5.904-6.558 10.384v96.401c0 .014.003.027.003.041v121.646l-75.516 86.126-23.923-44.665c-11.418-21.333-32.493-36.41-56.379-40.332-9.85-1.617-32.841-5.376-41.126-6.739-6.192-1.019-10.688-6.309-10.688-12.58v-8.863c5.844-3.685 11.331-8.027 16.335-13.035 17.583-17.594 27.266-40.977 27.266-65.842v-3.26h2.89c14.839.068 27.46-12.551 27.46-27.46 0-7.91-3.474-15.262-9.108-20.37 4.36-6.219 5.596-14.391 3.115-21.566-2.142-6.193-6.805-11.27-12.793-13.928-.787-.35-1.582-.686-2.374-1.028v-53.988c0-31.727-25.813-57.54-57.54-57.54h-89.49c-31.727 0-57.54 25.813-57.54 57.54v53.988c-.79.342-1.582.678-2.369 1.027-5.989 2.659-10.652 7.736-12.794 13.93-2.513 7.268-1.279 15.314 3.101 21.574-5.629 5.104-9.098 12.451-9.098 20.361 0 14.869 12.476 27.545 27.47 27.46h2.89v3.26c0 33.167 17.428 62.334 43.601 78.834v10.436c0 5.762-3.911 10.753-9.506 12.138l-62.28 15.36c-30.226 7.455-51.335 34.403-51.335 65.532v123.06c0 4.142 3.357 7.5 7.5 7.5s7.5-3.358 7.5-7.5v-123.06c0-24.211 16.418-45.17 39.926-50.968l48.242-11.897c14.915 23.919 41.008 38.549 69.439 38.549 29.5 0 56.13-15.469 70.774-40.728l28.104 4.605c19.311 3.171 36.351 15.361 45.583 32.61l24.207 45.194c2.253 4.216 6.436 7.059 11.188 7.605 4.76.546 9.482-1.278 12.636-4.876l51.365-58.582 32.626 32.638c.031.03.064.056.095.086l-41.824 47.833c-2.727 3.118-2.408 7.856.71 10.583 3.107 2.717 7.847 2.419 10.583-.709l68.933-78.836c14.109-16.004 11.635-41.598-4.885-54.804-11.098-8.872-25.631-10.563-37.972-5.589v-107.204l54.021-43.892c3.653-2.969 5.749-7.371 5.749-12.079 0-4.707-2.096-9.109-5.749-12.077zm-217.701 49.518c0 6.76-5.695 12.494-12.46 12.46h-2.89v-22.76c2.847.204 5.679-.108 8.377-.892 4.19 2.067 6.973 6.409 6.973 11.192zm-201.53 12.46h-2.89c-6.804.035-12.47-5.691-12.47-12.46 0-4.779 2.776-9.113 6.955-11.177 2.699.784 5.576 1.103 8.404.895v22.742zm1.857-38.43c-4.297 1.905-9.274.041-11.51-4.126-2.356-4.39-.38-10.038 4.17-12.058 41.218-18.296 86.635-24.752 131.354-18.667 4.097.553 7.884-2.316 8.442-6.42.559-4.104-2.316-7.884-6.421-8.443-41.272-5.616-83.111-1.164-122.093 12.858v-48.054c0-23.457 19.083-42.54 42.54-42.54h89.491c23.457 0 42.54 19.083 42.54 42.54v48.051c-5.741-2.064-11.552-3.927-17.396-5.571-3.983-1.12-8.129 1.201-9.251 5.188s1.201 8.129 5.188 9.251c11.141 3.135 22.158 7.107 32.746 11.806 4.512 2.003 6.5 7.656 4.186 12.028-2.196 4.148-7.125 6.106-11.527 4.156-55.968-24.784-125.746-25.143-182.459.001zm13.143 56.69v-45.935c50.042-20.014 106.142-20.013 156.181.003v45.932c0 20.86-8.124 40.478-22.875 55.238-14.631 14.641-34.342 22.881-55.215 22.881-43.06.001-78.091-35.044-78.091-78.119zm78.087 142.984c-21.562 0-41.476-10.311-53.968-27.431 12.228-3.798 20.708-16.029 19.481-29.062 10.672 4.274 22.311 6.629 34.49 6.629 12.009 0 23.661-2.279 34.489-6.597-.768 12.921 8.135 24.591 20.287 27.938-12.401 17.805-32.595 28.523-54.779 28.523zm300.726-30.669c10.051 8.034 11.534 23.513 2.961 33.218l-17.216 19.689-32.702-32.713 15.235-17.375c8.141-9.293 22.078-10.527 31.722-2.819zm15.959-180.039-44.562 36.207-.003-73.288 44.564 36.209c.227.141.233.726.001.872zm-275.39 62.043c4.143 0 7.5-3.358 7.5-7.5v-16.524c0-4.142-3.357-7.5-7.5-7.5s-7.5 3.358-7.5 7.5v16.524c0 4.143 3.358 7.5 7.5 7.5zm-82.59-31.523c-4.143 0-7.5 3.358-7.5 7.5v16.524c0 4.142 3.357 7.5 7.5 7.5s7.5-3.358 7.5-7.5v-16.524c0-4.143-3.358-7.5-7.5-7.5zm64.388 68.821c-1.992-3.63-6.549-4.96-10.183-2.968-2.816 1.545-7.404 3.362-13.191 3.313-5.555-.058-9.934-1.833-12.629-3.313-3.635-1.993-8.191-.665-10.184 2.967s-.664 8.19 2.967 10.184c4.2 2.305 11.025 5.071 19.689 5.162 8.753.091 16.236-2.788 20.563-5.161 3.632-1.993 4.96-6.552 2.968-10.184z" fill="#876eb5" data-original="#876eb5" class=""></path></g></g></svg>