<svg xmlns="http://www.w3.org/2000/svg" version="1.1" xmlns:xlink="http://www.w3.org/1999/xlink" xmlns:svgjs="http://svgjs.com/svgjs" width="48" height="48" x="0" y="0" viewBox="0 0 520 520" style="enable-background:new 0 0 512 512" xml:space="preserve" class=""><g><g id="_x37_47_x2C__Book_x2C__Bookmarks_x2C__Contacts_x2C__Design_x2C__Coding"><g><path d="m167.5 100v70 180h220v-37.41-32.59-128.45-51.55z" fill="#757d8c" data-original="#757d8c" class=""></path><path d="m277.5 170c30.369 0 55 24.62 55 55s-24.631 55-55 55c-30.38 0-55-24.62-55-55s24.62-55 55-55z" fill="#d7e816" data-original="#d7e816" class=""></path><path d="m452.5 70c13.8 0 25 11.19 25 25s-11.2 25-25 25c-13.811 0-25-11.19-25-25s11.189-25 25-25z" fill="#bce4ff" data-original="#bce4ff"></path><path d="m62.5 400c11.04 0 20 8.95 20 20s-8.96 20-20 20c-11.05 0-20-8.95-20-20s8.95-20 20-20z" fill="#bce4ff" data-original="#bce4ff"></path><path d="m167.5 350v30h-25c-9.66 0-18.42 3.92-24.75 10.25-5.21 5.21-8.79 12.06-9.89 19.71l-.36-307.96c0-17.67 14.32-32 32-32h28v30 70z" fill="#545b66" data-original="#545b66" class=""></path><path d="m387.5 350v30h-20-200v-30z" fill="#3f4751" data-original="#3f4751"></path><path d="m167.5 70h220v30h-220z" fill="#3f4751" data-original="#3f4751"></path><path d="m142.5 380c-19.374 0-35 15.707-35 35 0 19.33 15.67 35 35 35h225c0-14.275 0-55.756 0-70-10.915 0-205.838 0-225 0z" fill="#33383f" data-original="#33383f" class=""></path><path d="m332.5 450v35l-30.01-25-29.99 25v-35-40h60z" fill="#d94556" data-original="#d94556" class=""></path><path d="m455 390c4.14 0 7.5 3.36 7.5 7.5s-3.36 7.5-7.5 7.5c-4.15 0-7.5-3.36-7.5-7.5s3.35-7.5 7.5-7.5z" fill="#000000" data-original="#000000" class=""></path><path d="m450 160c4.14 0 7.5 3.36 7.5 7.5s-3.36 7.5-7.5 7.5c-4.15 0-7.5-3.36-7.5-7.5s3.35-7.5 7.5-7.5z" fill="#000000" data-original="#000000" class=""></path><path d="m425 35c4.14 0 7.5 3.36 7.5 7.5s-3.36 7.5-7.5 7.5c-4.15 0-7.5-3.36-7.5-7.5s3.35-7.5 7.5-7.5z" fill="#000000" data-original="#000000" class=""></path><path d="m415 290c4.14 0 7.5 3.36 7.5 7.5s-3.36 7.5-7.5 7.5c-4.15 0-7.5-3.36-7.5-7.5s3.35-7.5 7.5-7.5z" fill="#000000" data-original="#000000" class=""></path><path d="m120 30c4.14 0 7.5 3.36 7.5 7.5s-3.36 7.5-7.5 7.5c-4.15 0-7.5-3.36-7.5-7.5s3.35-7.5 7.5-7.5z" fill="#000000" data-original="#000000" class=""></path><path d="m105 465c4.14 0 7.5 3.36 7.5 7.5s-3.36 7.5-7.5 7.5c-4.15 0-7.5-3.36-7.5-7.5s3.35-7.5 7.5-7.5z" fill="#000000" data-original="#000000" class=""></path><path d="m60 145c4.14 0 7.5 3.36 7.5 7.5s-3.36 7.5-7.5 7.5c-4.15 0-7.5-3.36-7.5-7.5s3.35-7.5 7.5-7.5z" fill="#000000" data-original="#000000" class=""></path><path d="m60 285c4.14 0 7.5 3.36 7.5 7.5s-3.36 7.5-7.5 7.5c-4.15 0-7.5-3.36-7.5-7.5s3.35-7.5 7.5-7.5z" fill="#000000" data-original="#000000" class=""></path><path d="m277.5 285c-33.084 0-60-26.916-60-60s26.916-60 60-60 60 26.916 60 60-26.916 60-60 60zm0-110c-27.57 0-50 22.43-50 50s22.43 50 50 50 50-22.43 50-50-22.43-50-50-50z" fill="#000000" data-original="#000000" class=""></path><path d="m297.504 240c-1.615 0-3.201-.782-4.164-2.227-1.531-2.297-.911-5.402 1.387-6.934l8.76-5.84-8.76-5.84c-2.298-1.532-2.918-4.636-1.387-6.934 1.531-2.299 4.637-2.918 6.934-1.387l15 10c1.391.927 2.227 2.488 2.227 4.16s-.836 3.233-2.227 4.16l-15 10c-.852.571-1.817.842-2.77.842z" fill="#000000" data-original="#000000" class=""></path><path d="m257.496 240c-.954 0-1.917-.272-2.77-.84l-15-10c-1.391-.927-2.227-2.488-2.227-4.16s.835-3.233 2.227-4.16l15-10c2.297-1.532 5.401-.911 6.934 1.387 1.531 2.297.911 5.402-1.387 6.934l-8.76 5.84 8.76 5.84c2.298 1.532 2.918 4.636 1.387 6.934-.963 1.444-2.549 2.225-4.164 2.225z" fill="#000000" data-original="#000000" class=""></path><path d="m267.5 260.001c-.523 0-1.057-.083-1.581-.258-2.62-.873-4.036-3.704-3.163-6.324l20-60c.875-2.619 3.705-4.035 6.325-3.163 2.62.874 4.036 3.705 3.163 6.325l-20 60c-.699 2.095-2.65 3.42-4.744 3.42z" fill="#000000" data-original="#000000" class=""></path><path d="m107.866 414.961c-.237 0-.477-.018-.718-.052-2.733-.394-4.63-2.928-4.237-5.661 1.234-8.581 5.143-16.373 11.304-22.534 7.553-7.554 17.598-11.714 28.285-11.714h245c2.762 0 5 2.238 5 5s-2.238 5-5 5h-245c-8.015 0-15.549 3.12-21.214 8.785-4.622 4.621-7.553 10.461-8.477 16.887-.358 2.491-2.497 4.289-4.943 4.289z" fill="#000000" data-original="#000000" class=""></path><path d="m272.5 455h-130c-22.056 0-40-17.944-40-40 0-1.94.139-3.868.413-5.729.402-2.731 2.943-4.629 5.676-4.217 2.732.402 4.62 2.943 4.218 5.676-.204 1.379-.307 2.816-.307 4.271 0 16.542 13.458 30 30 30h130c2.762 0 5 2.238 5 5s-2.238 4.999-5 4.999z" fill="#000000" data-original="#000000" class=""></path><path d="m387.5 455h-55c-2.762 0-5-2.238-5-5s2.238-5 5-5h55c2.762 0 5 2.238 5 5s-2.238 5-5 5z" fill="#000000" data-original="#000000" class=""></path><path d="m367.5 455c-2.762 0-5-2.238-5-5v-70c0-2.762 2.238-5 5-5s5 2.238 5 5v70c0 2.762-2.238 5-5 5z" fill="#000000" data-original="#000000" class=""></path><path d="m367.5 415h-35c-2.762 0-5-2.238-5-5s2.238-5 5-5h35c2.762 0 5 2.238 5 5s-2.238 5-5 5z" fill="#000000" data-original="#000000" class=""></path><path d="m272.5 415h-75c-2.761 0-5-2.238-5-5s2.239-5 5-5h75c2.762 0 5 2.238 5 5s-2.238 5-5 5z" fill="#000000" data-original="#000000" class=""></path><path d="m387.5 355h-220c-2.761 0-5-2.238-5-5s2.239-5 5-5h220c2.762 0 5 2.238 5 5s-2.238 5-5 5z" fill="#000000" data-original="#000000" class=""></path><path d="m387.5 105h-220c-2.761 0-5-2.239-5-5s2.239-5 5-5h220c2.762 0 5 2.239 5 5s-2.238 5-5 5z" fill="#000000" data-original="#000000" class=""></path><path d="m167.5 385c-2.761 0-5-2.238-5-5v-310c0-2.761 2.239-5 5-5s5 2.239 5 5v310c0 2.762-2.239 5-5 5z" fill="#000000" data-original="#000000" class=""></path><path d="m107.86 410h-5l-.36-307.994c0-20.408 16.598-37.006 37-37.006h248c2.762 0 5 2.239 5 5v310c0 2.762-2.238 5-5 5s-5-2.238-5-5v-305h-243c-14.888 0-27 12.112-27 27l.36 307.954z" fill="#000000" data-original="#000000" class=""></path><path d="m452.5 125c-16.542 0-30-13.458-30-30s13.458-30 30-30 30 13.458 30 30-13.458 30-30 30zm0-50c-11.027 0-20 8.972-20 20s8.973 20 20 20 20-8.972 20-20-8.973-20-20-20z" fill="#000000" data-original="#000000" class=""></path><path d="m62.5 445c-13.785 0-25-11.215-25-25s11.215-25 25-25 25 11.215 25 25-11.215 25-25 25zm0-40c-8.271 0-15 6.729-15 15s6.729 15 15 15 15-6.729 15-15-6.729-15-15-15z" fill="#000000" data-original="#000000" class=""></path><path d="m332.501 490c-1.148 0-2.285-.396-3.201-1.158l-26.81-22.333-26.789 22.332c-1.49 1.241-3.564 1.509-5.322.688-1.756-.823-2.879-2.588-2.879-4.528v-75c0-2.762 2.238-5 5-5h60c2.762 0 5 2.238 5 5v75c0 1.939-1.122 3.705-2.879 4.527-.677.317-1.4.472-2.12.472zm-30.011-35c1.137 0 2.273.386 3.199 1.158l21.811 18.169v-59.327h-50v59.322l21.788-18.163c.927-.772 2.065-1.159 3.202-1.159z" fill="#000000" data-original="#000000" class=""></path><path d="m387.5 285h-175c-2.761 0-5-2.238-5-5s2.239-5 5-5h175c2.762 0 5 2.238 5 5s-2.238 5-5 5z" fill="#000000" data-original="#000000" class=""></path><path d="m342.5 175h-175c-2.761 0-5-2.239-5-5s2.239-5 5-5h175c2.762 0 5 2.239 5 5s-2.238 5-5 5z" fill="#000000" data-original="#000000" class=""></path></g></g></g></svg>