<svg xmlns="http://www.w3.org/2000/svg" version="1.1" xmlns:xlink="http://www.w3.org/1999/xlink" xmlns:svgjs="http://svgjs.com/svgjs" width="36" height="36" x="0" y="0" viewBox="0 0 512.068 512.068" style="enable-background:new 0 0 512 512" xml:space="preserve" class=""><g><g><g><path d="m467.271 111.437c-3.126-4.554-9.351-5.71-13.904-2.585-4.554 3.125-5.711 9.35-2.586 13.904 64.214 93.552 52.479 219.784-27.902 300.15-92.016 91.999-241.738 92-333.756 0-44.575-44.566-69.123-103.819-69.123-166.844s24.548-122.279 69.122-166.845c80.301-80.287 206.477-92.075 300.021-28.028 4.556 3.119 10.779 1.955 13.9-2.602 3.12-4.557 1.955-10.781-2.602-13.9-101.478-69.483-238.355-56.703-325.46 30.387-48.352 48.344-74.981 112.619-74.981 180.988s26.629 132.644 74.981 180.988c48.353 48.342 112.639 74.966 181.019 74.966s132.667-26.624 181.019-74.966c87.194-87.178 99.917-224.118 30.252-325.613z" fill="#000000" data-original="#000000" class=""></path><path d="m420.13 88.27c1.622 3.957 5.781 6.51 10.05 6.143 4.035-.347 7.54-3.154 8.74-7.023 1.227-3.954-.201-8.351-3.474-10.873-3.355-2.586-8.113-2.731-11.637-.386-3.918 2.606-5.487 7.8-3.679 12.139z" fill="#000000" data-original="#000000" class=""></path><path d="m183.959 379.847c21.52 11.039 45.131 16.668 68.886 16.668 12.437 0 24.916-1.544 37.146-4.664 35.824-9.137 67.108-31.224 88.089-62.192 3.098-4.572 1.902-10.79-2.671-13.888-4.569-3.098-10.789-1.903-13.888 2.67-37.266 55.004-109.675 73.751-168.433 43.61-4.911-2.521-10.94-.582-13.462 4.333-2.521 4.915-.581 10.942 4.333 13.463z" fill="#000000" data-original="#000000" class=""></path><path d="m210.454 216.316v-19.025c0-19.6-15.948-35.546-35.551-35.546-19.604 0-35.552 15.946-35.552 35.546v19.025c0 19.601 15.948 35.546 35.552 35.546 19.603.001 35.551-15.945 35.551-35.546zm-20 0c0 8.572-6.976 15.546-15.551 15.546s-15.552-6.974-15.552-15.546v-19.025c0-8.572 6.977-15.546 15.552-15.546s15.551 6.974 15.551 15.546z" fill="#000000" data-original="#000000" class=""></path><path d="m389.425 223.354c3.905-3.906 3.904-10.237-.001-14.142-28.588-28.582-75.102-28.582-103.689 0-3.905 3.905-3.906 10.236-.001 14.142 3.904 3.906 10.237 3.907 14.142.001 20.791-20.786 54.617-20.786 75.408 0 1.952 1.952 4.512 2.928 7.07 2.928 2.559 0 5.119-.976 7.071-2.929z" fill="#000000" data-original="#000000" class=""></path></g></g></g></svg>