<svg xmlns="http://www.w3.org/2000/svg" version="1.1" xmlns:xlink="http://www.w3.org/1999/xlink" xmlns:svgjs="http://svgjs.com/svgjs" width="54" height="54" x="0" y="0" viewBox="0 0 512 512" style="enable-background:new 0 0 512 512" xml:space="preserve" class="">
<g>
<path d="m417.981 452.634c-.5-.223-50.589-22.636-57.473-51.423-4.987-20.858-1.266-83.242 3.88-134.668a31.744 31.744 0 0 0 -1.387-13l-76.661-237.228a7.292 7.292 0 0 0 -6.148-5.007c-4.171-.451-21.416-1.3-30.47 13.716a27.109 27.109 0 0 0 -7.068-8.46c-8-6.267-17.431-5.788-21.11-5.292a7.273 7.273 0 0 0 -6.029 5.255l-66.547 237.116a31.725 31.725 0 0 0 -1.357 12.894c5.147 51.428 8.869 113.815 3.881 134.674-6.872 28.738-56.97 51.2-57.475 51.423a5 5 0 0 0 4.041 9.148c1.591-.7 28.579-12.8 47.045-31.71a82.763 82.763 0 0 0 15.39 17.421c11.051 9.5 29.8 20.611 58.3 22.874a127.657 127.657 0 0 1 -10.854 10.29 5 5 0 0 0 6.441 7.651 140.784 140.784 0 0 0 43.97-67.3 219.474 219.474 0 0 0 10.639 23.147c15 28.094 34.139 47.616 55.354 56.455a5 5 0 1 0 3.845-9.23c-11.932-4.972-22.069-13.28-30.555-22.885a108.9 108.9 0 0 0 21.207-4.509c20.249-6.5 36.3-18.6 46.846-35.18 18.472 19.636 46.627 32.252 48.253 32.97a5 5 0 1 0 4.039-9.147zm-250.581-12.393a71.216 71.216 0 0 1 -15.436-18.1 59.8 59.8 0 0 0 5.706-9.07 106.962 106.962 0 0 0 16.661 17.055 93.5 93.5 0 0 0 59.069 21.488q-3.015 4.7-6.43 9.133c-23.97-.438-44.014-7.317-59.57-20.506zm71.9 1.2c-21.678 1.288-41.3-5.023-58.355-18.833a94.6 94.6 0 0 1 -19.282-21.158c5.827-29.7-1.626-111.165-4.1-135.913a21.777 21.777 0 0 1 .953-8.92c.02-.062.038-.124.056-.186l66.067-235.407a17.845 17.845 0 0 1 11.85 3.414c4.368 3.419 7.054 9.42 7.988 17.838l.01.171a5.027 5.027 0 0 0 .042.664l1.737 27.849c-5.845-4.624-12.688-4.353-20.612-4.033a6.906 6.906 0 0 0 -6.4 6l-35.454 162.673a5 5 0 1 0 9.8 2l35.113-160.782c9.379-.31 12.644.4 16.938 10.536 1.9 4.483 2.9 10.394 2.887 17.09v.2l1.609 41.716a34.175 34.175 0 0 0 -16.113-8.329 7.229 7.229 0 0 0 -8.679 6.011c-.013.092-.025.184-.033.276l-12.745 135.354a5 5 0 1 0 9.956.937l12.429-131.954a24.251 24.251 0 0 1 16.211 23.636v.226l2.953 199.747c0 .073 0 .146.008.218a132.485 132.485 0 0 1 -14.834 68.963zm23.256-38.855a141.755 141.755 0 0 0 1.565-30.582l-2.946-199.235c.01-.161.038-.317.033-.482a24.254 24.254 0 0 1 16.258-23.652l14.31 132.04a5 5 0 0 0 9.942-1.077l-14.669-135.348c-.007-.069-.016-.137-.026-.206a7.229 7.229 0 0 0 -8.676-6.012 34.179 34.179 0 0 0 -18.112 10.329l-1.3-33.8c0-6.646 1.432-21.98 3.5-26.574 4.72-10.487 11.033-11.924 15.185-11.487l37.4 161.163a5 5 0 1 0 9.772-2.124l-37.692-162.665a7.328 7.328 0 0 0 -5.525-5.813c-3.86-.926-15.959-2.5-24.87 10.677l-2.205-35.369c.906-7.275 4.956-22.258 22.877-21.262l76.106 235.514a21.8 21.8 0 0 1 .953 8.926c-2.471 24.685-9.892 105.8-4.146 135.683-12.614 17.267-28.907 28.8-48.482 34.258a84.374 84.374 0 0 1 -24.358 3.171 208.405 208.405 0 0 1 -14.893-36.069zm27.487 56.43c-2.487-3.415-4.8-6.9-6.929-10.389 15.261-.656 46.158-6.011 70.992-36a57.653 57.653 0 0 0 4.844 8.032c-19.706 34.312-58.877 37.991-68.906 38.361z" fill="#000000" data-original="#000000">
</path>
</g>
</svg>