<svg xmlns="http://www.w3.org/2000/svg" version="1.1" xmlns:xlink="http://www.w3.org/1999/xlink" xmlns:svgjs="http://svgjs.com/svgjs" width="48" height="48" x="0" y="0" viewBox="0 0 24 24" style="enable-background:new 0 0 512 512" xml:space="preserve" class=""><g><g><g><g><path d="m8.569 24.021c-.276 0-.5-.224-.5-.5v-.869c0-.309-.094-.606-.271-.861l-1.984-2.833c-.814-1.163-1.032-2.66-.583-4.005l.996-2.988c.288-.864 1.094-1.444 2.004-1.444h4.76c.561 0 1.042.322 1.257.84.215.519.102 1.087-.295 1.483-.926.925-2.112 1.495-3.394 1.64 1.372 1.15 2.415 2.674 2.983 4.379.087.262-.054.545-.316.633-.263.088-.545-.056-.632-.316-.61-1.83-1.83-3.427-3.435-4.496l-.369-.246c-.183-.122-.265-.351-.201-.562.064-.21.258-.354.479-.354h.835c1.263 0 2.449-.491 3.342-1.384.154-.154.106-.326.078-.394s-.116-.223-.333-.223h-4.76c-.479 0-.904.306-1.056.761l-.995 2.988c-.348 1.045-.179 2.209.454 3.113l1.984 2.834c.296.424.452.92.452 1.435v.869c0 .276-.224.5-.5.5z" fill="#000000" data-original="#000000" class=""></path></g></g><g><g><path d="m14.565 16.984c-.339 0-.682-.086-.996-.268-.462-.267-.793-.698-.932-1.214-.138-.517-.067-1.056.2-1.518l2-3.464c.267-.463.698-.794 1.214-.933.517-.137 1.055-.066 1.518.2.955.552 1.283 1.777.732 2.732l-2 3.464c-.37.643-1.044 1.001-1.736 1.001zm-.496-1.132c.477.273 1.09.11 1.367-.366l2-3.464c.275-.478.111-1.091-.367-1.367-.23-.134-.5-.165-.758-.1-.258.069-.474.235-.607.467l-2 3.464c-.134.231-.169.501-.1.759.068.257.233.473.465.607z" fill="#000000" data-original="#000000" class=""></path></g></g><g><g><path d="m17.154 18.521c-.347 0-.688-.091-.997-.27v.001c-.955-.552-1.284-1.777-.732-2.732l1.412-2.444c.267-.463.699-.794 1.215-.933.517-.139 1.054-.067 1.518.201.955.551 1.283 1.776.732 2.731l-1.412 2.444c-.267.463-.698.794-1.214.932-.174.047-.348.07-.522.07zm1.415-5.446c-.086 0-.173.012-.259.034-.258.069-.474.235-.607.467l-1.412 2.444c-.275.478-.111 1.09.366 1.366.232.134.501.169.759.1s.474-.234.607-.466l1.412-2.444c.275-.478.111-1.09-.366-1.366-.155-.089-.326-.135-.5-.135z" fill="#000000" data-original="#000000" class=""></path></g></g><g><g><path d="m11.568 11.521c-.244 0-.457-.178-.494-.426l-1.31-8.736c-.072-.478-.491-.838-.974-.838-.287 0-.559.125-.746.342-.187.216-.27.503-.228.787l1.227 8.276c.041.273-.148.527-.421.567-.269.044-.527-.147-.568-.421l-1.227-8.275c-.085-.571.083-1.15.46-1.588s.925-.688 1.503-.688c.975 0 1.818.727 1.963 1.69l1.311 8.735c.041.273-.147.527-.42.568-.026.005-.051.007-.076.007z" fill="#000000" data-original="#000000" class=""></path></g></g><g><g><path d="m14.452 12.521c-.031 0-.062-.003-.093-.009-.271-.051-.45-.312-.398-.584l1.836-9.724c.055-.293-.022-.593-.213-.822s-.471-.361-.769-.361c-.481 0-.894.344-.981.816l-1.719 9.274c-.05.271-.309.451-.583.4-.271-.05-.451-.311-.4-.582l1.719-9.274c.175-.947 1.001-1.635 1.965-1.635.597 0 1.157.264 1.539.723.381.46.536 1.06.425 1.646l-1.836 9.724c-.047.241-.256.408-.492.408z" fill="#000000" data-original="#000000" class=""></path></g></g><g><g><path d="m17.32 24.02c-.276 0-.5-.224-.5-.5v-.78c0-.586.205-1.154.576-1.6l.333-.394c.993-1.186 1.438-2.752 1.216-4.297l-.09-.651c-.038-.273.153-.525.427-.563.274-.037.525.154.563.427l.09.649c.261 1.823-.265 3.676-1.442 5.08l-.332.392c-.219.264-.341.604-.341.957v.779c0 .277-.224.501-.5.501z" fill="#000000" data-original="#000000" class=""></path></g></g></g></g></svg>