<svg xmlns="http://www.w3.org/2000/svg" version="1.1" xmlns:xlink="http://www.w3.org/1999/xlink" xmlns:svgjs="http://svgjs.com/svgjs" width="52" height="52" x="0" y="0" viewBox="0 0 512 512" style="enable-background:new 0 0 512 512" xml:space="preserve" class=""><g><g><path d="m375 433.2c-1.5-17.7-.2-35.5-.2-53.3.1-32.2-6-60.8-14-94.7-3.2-13.7-13-25.1-22.1-34.4-19.1-19.5-38.2-39-57.2-58.5-3.8-3.9-6.8-12.4-6.2-18 1.7-16.3 4.7-32.6 8.7-48.5 1.1-4.2.4-8.6-1.8-12.3-2.7-4.5-7.5-7.5-12.7-7.9-9-.7-17.9.1-26.6 2.3-1.5-2.4-3.2-4.6-5.3-6.5-6.2-5.8-15.8-5.6-21.7.3-6.6 6.5-12.9 12.6-18.9 18.5-1.6-8.1-5.2-15.8-10.7-21.8-7.8-8.8-26.4-17.9-36.6-8.5-3.1 2.8-5 6.7-5.2 10.8 0 .6-4.4 73.5-4.3 74.1-10 8.5-21 19-20.6 33.6.6 19.9.9 40.5 3.4 60.2-6.3 15.1-11.5 30.1-15.4 45-1.7 6.6-.8 13.5 2.4 19.5 5.4 9.9 10.6 18.7 15.8 26.6.5 2.5 1.3 4.9 2.5 7.2 12.1 24.1 23.9 42.6 37.1 58 22.6 26.5 60.6 36 90.6 51.9 2.3 6.3 5.7 12.6 7.7 18.8 1 3.2 4 5.2 7.1 5.2 5 .1 8.7-5 7.2-9.8-2.3-7.5-6.4-14.6-8.7-21.7-.6-1.8-1.8-3.3-3.5-4.3-10-5.6-21-10.3-31.6-14.9-21.4-9.3-43.5-18.8-57.4-35-12.4-14.5-23.6-31.9-35.1-55-1.4-2.8-1.8-6-1.1-9 6.6-26.8 16.4-53 29-77.6 2.1-4.1 6-7 10.4-7.9 20.3-3.8 41.1-6.1 61.8-6.9 2.2-.1 4.4.3 6.4 1.2 14.3 6.3 29.3 16.8 39.7 30-5.2 7.5-9.7 10.1-17.5 10.1-9.2 0-17.9-4-22.2-10.3-1.5-2.2-4.1-3.5-6.8-3.2-12.4 1.1-27.2 1.9-42.6-.1-3.9-.5-7.5 2.1-8.3 5.9-1.3 6.2-3.3 12.3-5.5 18.7-2.2 6.6-4.5 13.3-5.9 20.3-.7 3.3-1.6 7.4-1 11.8 1.3 9.9 9.1 16.4 14.2 20.7 3.2 2.7 7.9 2.3 10.6-.9s2.3-7.9-.9-10.6c-4.3-3.6-8.5-7.4-9-11.3-.2-1.8.3-4.3.8-6.7 2.2-10.6 6.8-21.5 9.8-32.4 12.6 1.1 24.6.6 35.1-.2 7.4 8.3 18.8 13.1 31.3 13.3 13.2.1 22.3-4.9 30.5-16.7 2.8-3.9 3.4-9.1 1.6-13.6-2.8-6.4-8.4-11-13.3-15.8 8.1-8.4 7.2-17.1-1-25-12.9-13.1-28-23.2-45-30.2-5.4-2.2-11.1-2.5-16.9-2.1-1.5-15.3-.7-25 1.3-38.8 10.3-15.5 21.2-31.8 20.5-50.7 6.8-1.6 13.8-2.2 20.8-1.7.4 0 .9.4 1 .6s.2.5.1.9c-4.2 16.6-7.3 33.6-9.1 50.6-1.1 10 3.4 22.9 10.4 30 19.1 19.5 38.2 39 57.2 58.5 7.7 7.8 15.8 17.2 18.2 27.4 7.8 33 13.7 60.7 13.6 91.3-.7 36.9-3.7 79.1 17.8 109.2 5.9 7.9 17.7-.1 12.3-8.6-8.4-11.8-13.4-27.6-15-47.1zm-215.3-332.1c.1-.1.3-.2.5-.2 5.8.7 11.1 3.4 15 7.7 6.1 6.5 8.6 16.8 7.2 25.9-8.3 8.1-17 16.6-26.4 25.8l3.5-58.7c0-.2.1-.3.2-.5zm70.2 125.4c2.5-.1 4.9.3 7.2 1.2 15.9 6.7 30.6 16.3 42 29.3-.6.8-1.3 1.6-2 2.4-7.3-5.4-15.1-9.9-23-13.3-4.1-1.8-8.5-2.6-12.9-2.4-21.4.8-42.9 3.2-64 7.1-9 1.7-16.9 7.7-21 15.9-11.3 22.2-20.5 45.6-27.2 69.6-1.9-3.3-3.9-6.8-5.8-10.4-1.4-2.6-1.8-5.6-1.1-8.5 6.5-25.1 16.9-50.7 30.7-76.2 2.4-4.2 6.5-7.1 11.4-7.9 21.6-3.8 43.7-6.1 65.7-6.8zm-19.1-14c-6 .4-12 1-18 1.6.6-3 2.2-5.7 4.6-7.7 4.1-3.4 8.4-7.5 12.6-12.1 0 5.6.2 11.4.8 18.2zm16.9-70c-7.2 15.6-24.9 40.3-39.7 52.3-6.5 5.2-10.2 13-10.5 21.2-5.3.7-10.6 1.6-15.9 2.5-13.8 2.5-20.3 11-26 23-.6-11.2-.8-22.3-1.1-33.5-.2-8.6 9.3-16.7 17.8-23.9 15.5-13.5 30.2-29.3 43.4-41.8 9.6-9.4 19.6-19.1 30.6-30 .3-.3.7-.3 1 0 8.4 8.6 5.8 18.3.4 30.2z" fill="#000000" data-original="#000000"></path><path d="m286.2 326.4c-9.1-4.1-15.4 8.6-6.7 13.4 22 10.9 37.7 33.8 40 58.2.4 3.9 3.6 6.8 7.5 6.8h.7c4.1-.4 7.1-4.1 6.7-8.2-2.8-29.5-21.7-57-48.2-70.2z" fill="#000000" data-original="#000000"></path><path d="m289.5 95.3c1.9 0 3.8-.7 5.3-2.2l12.4-12.4c2.9-2.9 2.9-7.7 0-10.6s-7.7-2.9-10.6 0l-12.4 12.4c-4.8 4.7-1.3 12.9 5.3 12.8z" fill="#000000" data-original="#000000"></path><path d="m297.5 111.5c.6 4.1 4.5 7 8.5 6.4 0 0 17.4-2.4 17.4-2.4 9.8-1.8 7.8-15.8-2.1-14.9 0 0-17.4 2.4-17.4 2.4-4.1.6-7 4.4-6.4 8.5z" fill="#000000" data-original="#000000"></path><path d="m305.8 131.5c-9.2-3.8-15.1 9.1-6.3 13.6 0 0 15.9 7.3 15.9 7.3 3.7 1.7 8.2.1 9.9-3.7s.1-8.2-3.7-9.9z" fill="#000000" data-original="#000000"></path><path d="m87 116c.2-4-2.8-7.4-6.7-7.8-16.9-1.7-24.5-10.2-24.8-27.5 0-4-3.2-7.2-7.2-7.4s-7.4 2.8-7.8 6.8c-1.7 16.9-10.2 24.5-27.6 24.7-4 0-7.2 3.2-7.4 7.2s2.8 7.4 6.7 7.8c16.9 1.7 24.5 10.2 24.7 27.6.1 4 3.2 7.2 7.2 7.4 3.9.2 7.4-2.8 7.8-6.7 1.7-16.9 10.2-24.5 27.5-24.7 4.2-.3 7.4-3.4 7.6-7.4zm-41.2 6.4c-2.1-3.4-4.8-6.4-7.9-8.9 3.5-2.1 6.4-4.8 8.9-7.9 2.1 3.4 4.8 6.4 7.9 8.9-3.4 2.1-6.4 4.7-8.9 7.9z" fill="#000000" data-original="#000000"></path><path d="m340.8 64.3c13.9 4.4 18.6 12.5 15.8 27.1-1.5 9.2 11.4 12.6 14.5 3.7 4.4-13.9 12.5-18.6 27.1-15.8 9.3 1.5 12.6-11.4 3.7-14.5-9.2-2.9-18.6-11.3-9.5-51.1 1.8-9.5-11.5-13-14.5-3.8-11.2 38.8-23.8 41.6-33.4 39.8-9.3-1.4-12.6 11.6-3.7 14.6zm31.9-10c.7-.7 1.3-1.4 2-2.2.9 4.8 2.4 9.3 4.7 13.3-3.5 1.1-6.6 2.8-9.4 5-1.4-3.4-3.3-6.5-5.8-9.2 2.9-1.8 5.8-4.1 8.5-6.9z" fill="#000000" data-original="#000000"></path><path d="m109.6 194.2c2.3-3.5 1.3-8.1-2.2-10.4l-7.4-4.8 4.9-7.4c2.3-3.5 1.3-8.1-2.2-10.4s-8.1-1.3-10.4 2.2l-4.9 7.4-7.4-4.9c-3.5-2.3-8.1-1.3-10.4 2.2s-1.3 8.1 2.2 10.4l7.4 4.8-4.8 7.4c-2.3 3.5-1.3 8.1 2.2 10.4 3.4 2.3 8.1 1.3 10.4-2.2 0 0 4.8-7.4 4.8-7.4l7.4 4.8c3.4 2.4 8.1 1.4 10.4-2.1z" fill="#000000" data-original="#000000"></path><path d="m355.7 225.2c3.1 2.7 7.8 2.4 10.6-.7 0 0 5.8-6.7 5.8-6.7l6.7 5.8c3.1 2.7 7.8 2.4 10.6-.7 2.7-3.1 2.4-7.9-.7-10.6l-6.7-5.8 5.8-6.7c2.7-3.1 2.4-7.9-.7-10.6s-7.9-2.4-10.6.7l-5.8 6.7-6.7-5.8c-3.1-2.7-7.9-2.4-10.6.7s-2.4 7.9.7 10.6l6.7 5.8-5.8 6.7c-2.7 3.1-2.4 7.8.7 10.6z" fill="#000000" data-original="#000000"></path><path d="m164.4 55.1 8.2 3.4-3.4 8.2c-1.6 3.8.3 8.2 4.1 9.8 3.7 1.6 8.2-.2 9.8-4.1 0 0 3.3-8.2 3.3-8.2l8.2 3.4c3.7 1.6 8.2-.2 9.8-4.1 1.6-3.8-.3-8.2-4.1-9.8l-8.2-3.4 3.4-8.2c1.6-3.8-.3-8.2-4.1-9.8s-8.2.3-9.8 4.1l-3.4 8.2-8.2-3.3c-9.3-3.5-14.7 9.7-5.6 13.8z" fill="#000000" data-original="#000000"></path><path d="m412.2 262.2c-11 0-19.9 8.9-19.9 19.9 1.1 26.4 38.7 26.4 39.8 0 0-10.9-8.9-19.9-19.9-19.9zm0 24.8c-6.5-.2-6.5-9.6 0-9.8 6.5.2 6.5 9.6 0 9.8z" fill="#000000" data-original="#000000"></path></g></g></svg>