<svg xmlns="http://www.w3.org/2000/svg" version="1.1" xmlns:xlink="http://www.w3.org/1999/xlink" xmlns:svgjs="http://svgjs.com/svgjs" width="52" height="52" x="0" y="0" viewBox="0 0 91 91" style="enable-background:new 0 0 512 512" xml:space="preserve" class=""><g><g><g><g><g><g><path d="m68.4 56.6c0-2.5-2.1-4.6-4.6-4.6h-12.3l.8-2.7c0-.1 0-5.1 0-5.1 0-3.1-2.5-5.5-5.5-5.5 0 0-1.5 0-1.6 0-.7 0-1.2.5-1.2 1.2v6.1l-1.4 2-6.1 6.7c-.9.9-1.5 1.9-1.9 3h-.3v-1.5h-26.2c-.7 0-1.2.5-1.2 1.2s.5 1.2 1.2 1.2h20.5v24.3h-20.5c-.7 0-1.2.5-1.2 1.2s.5 1.2 1.2 1.2h22.9v-3h3.3v-3.7h1.9c1.7 1.9 4 3 6.6 3h15.5c2.6 0 4.6-2.1 4.6-4.6 0-.9-.3-1.7-.7-2.4 2-.5 3.5-2.2 3.5-4.4 0-1.1-.4-2.2-1.2-3 1.2-.8 2.1-2.2 2.1-3.8 0-1-.3-1.9-.9-2.6 1.6-.8 2.7-2.3 2.7-4.2zm-36.5 23.3h-.9v-21.3h.9zm31.9-21.1h-6.3c-.7 0-1.2.5-1.2 1.2s.5 1.2 1.2 1.2h4.5c1.2 0 2.2 1 2.2 2.2s-1 2.2-2.2 2.2h-4.5c-.7 0-1.2.5-1.2 1.2s.5 1.2 1.2 1.2h3.6c1.2 0 2.2 1 2.2 2.2s-1 2.2-2.2 2.2h-4.5c-.7 0-1.2.5-1.2 1.2s.5 1.2 1.2 1.2h1.7c1.2 0 2.2 1 2.2 2.2s-1 2.2-2.2 2.2h-15.5c-2 0-3.8-.9-5-2.5l-.4-.5h-3.1v-16.1h1.2c.6 0 1.1-.4 1.1-1 .3-1.1.8-2.1 1.6-2.9l6.3-6.9 1.7-2.3c.1-.2.2-.5.2-.7v-5.3h.4c1.7 0 3.1 1.4 3.1 3.1v4.6l-1.2 4.1c-.2.6.2 1.5 1.2 1.6h13.9c1.2 0 2.2 1 2.2 2.2s-1 2.2-2.2 2.2z" fill="#000000" data-original="#000000" class=""></path></g></g><g><path d="m22.9 80.9c-1.8 0-3.4-1.5-3.4-3.4s1.5-3.4 3.4-3.4c1.8 0 3.4 1.5 3.4 3.4s-1.6 3.4-3.4 3.4zm0-4.3c-.5 0-1 .4-1 1s.4 1 1 1c.5 0 1-.4 1-1s-.5-1-1-1z" fill="#000000" data-original="#000000" class=""></path></g></g><g><g><path d="m68.6 49.5v-6.5h-15.8v-7c0-.7.5-1.2 1.2-1.2s1.2.5 1.2 1.2v4.6h15.8v3.1l3.1-3.1h4v-15.6h-16.2c-.7 0-1.2-.5-1.2-1.2s.5-1.2 1.2-1.2h18.6v20.4h-5.4z" fill="#000000" data-original="#000000" class=""></path></g><g><path d="m28.3 37.1h-8.2v-30.8h42.3v30.8h-25v9.2zm-5.8-2.4h6.8l5.8 5.8v-5.8h25v-26h-37.6z" fill="#000000" data-original="#000000" class=""></path></g><path d="m28.2 14.4h26.6v2.4h-26.6z" fill="#000000" data-original="#000000" class=""></path><path d="m28.2 20h26.6v2.4h-26.6z" fill="#000000" data-original="#000000" class=""></path><path d="m28.2 25.6h13.9v2.4h-13.9z" fill="#000000" data-original="#000000" class=""></path></g></g><path d="m24.8 43.2h-2.3v-2.3h-2.4v2.3h-2.2v2.4h2.2v2.2h2.4v-2.2h2.3z" fill="#000000" data-original="#000000" class=""></path><g><path d="m85.3 24.5h-2.4v-5.2h-15.6v-2.4h18z" fill="#000000" data-original="#000000" class=""></path><path d="m82.9 26.1h2.4v4.4h-2.4z" fill="#000000" data-original="#000000" class=""></path></g></g></g></svg>