<svg version="1.2" xmlns="http://www.w3.org/2000/svg" viewBox="0 0 2121 1908" width="2121" height="1908">
	<title>journey-svg</title>
	<defs>
		<radialGradient id="g1" cx="0" cy="0" r="1" gradientUnits="userSpaceOnUse" gradientTransform="matrix(386.384,0,0,386.384,1055.116,366.979)">
			<stop offset="0" stop-color="#038e43" stop-opacity=".97"/>
			<stop offset=".08" stop-color="#038e43" stop-opacity=".55"/>
			<stop offset=".17" stop-color="#038e43" stop-opacity=".36"/>
			<stop offset=".26" stop-color="#038e43" stop-opacity=".19"/>
			<stop offset=".35" stop-color="#038e43" stop-opacity=".09"/>
			<stop offset=".45" stop-color="#038e43" stop-opacity=".04"/>
			<stop offset=".55" stop-color="#038e43" stop-opacity=".01"/>
			<stop offset=".67" stop-color="#038e43" stop-opacity=".01"/>
			<stop offset=".8" stop-color="#038e43" stop-opacity=".01"/>
			<stop offset="1" stop-color="#038e43" stop-opacity="0"/>
		</radialGradient>
		<radialGradient id="g2" cx="0" cy="0" r="1" gradientUnits="userSpaceOnUse" gradientTransform="matrix(298.664,0,0,298.664,1028.114,1646)">
			<stop offset="0" stop-color="#038e43" stop-opacity=".97"/>
			<stop offset=".08" stop-color="#038e43" stop-opacity=".55"/>
			<stop offset=".17" stop-color="#038e43" stop-opacity=".36"/>
			<stop offset=".26" stop-color="#038e43" stop-opacity=".19"/>
			<stop offset=".35" stop-color="#038e43" stop-opacity=".09"/>
			<stop offset=".45" stop-color="#038e43" stop-opacity=".04"/>
			<stop offset=".55" stop-color="#038e43" stop-opacity=".01"/>
			<stop offset=".67" stop-color="#038e43" stop-opacity=".01"/>
			<stop offset=".8" stop-color="#038e43" stop-opacity=".01"/>
			<stop offset="1" stop-color="#038e43" stop-opacity="0"/>
		</radialGradient>
		<radialGradient id="g3" cx="0" cy="0" r="1" gradientUnits="userSpaceOnUse" gradientTransform="matrix(298.664,0,0,298.664,1303.136,1383.546)">
			<stop offset="0" stop-color="#038e43" stop-opacity=".97"/>
			<stop offset=".08" stop-color="#038e43" stop-opacity=".55"/>
			<stop offset=".17" stop-color="#038e43" stop-opacity=".36"/>
			<stop offset=".26" stop-color="#038e43" stop-opacity=".19"/>
			<stop offset=".35" stop-color="#038e43" stop-opacity=".09"/>
			<stop offset=".45" stop-color="#038e43" stop-opacity=".04"/>
			<stop offset=".55" stop-color="#038e43" stop-opacity=".01"/>
			<stop offset=".67" stop-color="#038e43" stop-opacity=".01"/>
			<stop offset=".8" stop-color="#038e43" stop-opacity=".01"/>
			<stop offset="1" stop-color="#038e43" stop-opacity="0"/>
		</radialGradient>
		<radialGradient id="g4" cx="0" cy="0" r="1" gradientUnits="userSpaceOnUse" gradientTransform="matrix(298.664,0,0,298.664,707.256,1296.061)">
			<stop offset="0" stop-color="#038e43" stop-opacity=".97"/>
			<stop offset=".08" stop-color="#038e43" stop-opacity=".55"/>
			<stop offset=".17" stop-color="#038e43" stop-opacity=".36"/>
			<stop offset=".26" stop-color="#038e43" stop-opacity=".19"/>
			<stop offset=".35" stop-color="#038e43" stop-opacity=".09"/>
			<stop offset=".45" stop-color="#038e43" stop-opacity=".04"/>
			<stop offset=".55" stop-color="#038e43" stop-opacity=".01"/>
			<stop offset=".67" stop-color="#038e43" stop-opacity=".01"/>
			<stop offset=".8" stop-color="#038e43" stop-opacity=".01"/>
			<stop offset="1" stop-color="#038e43" stop-opacity="0"/>
		</radialGradient>
		<radialGradient id="g5" cx="0" cy="0" r="1" gradientUnits="userSpaceOnUse" gradientTransform="matrix(298.664,0,0,298.664,290.557,1116.926)">
			<stop offset="0" stop-color="#038e43" stop-opacity=".97"/>
			<stop offset=".08" stop-color="#038e43" stop-opacity=".55"/>
			<stop offset=".17" stop-color="#038e43" stop-opacity=".36"/>
			<stop offset=".26" stop-color="#038e43" stop-opacity=".19"/>
			<stop offset=".35" stop-color="#038e43" stop-opacity=".09"/>
			<stop offset=".45" stop-color="#038e43" stop-opacity=".04"/>
			<stop offset=".55" stop-color="#038e43" stop-opacity=".01"/>
			<stop offset=".67" stop-color="#038e43" stop-opacity=".01"/>
			<stop offset=".8" stop-color="#038e43" stop-opacity=".01"/>
			<stop offset="1" stop-color="#038e43" stop-opacity="0"/>
		</radialGradient>
		<radialGradient id="g6" cx="0" cy="0" r="1" gradientUnits="userSpaceOnUse" gradientTransform="matrix(302.868,0,0,302.868,1210.535,947.132)">
			<stop offset="0" stop-color="#038e43" stop-opacity=".97"/>
			<stop offset=".08" stop-color="#038e43" stop-opacity=".55"/>
			<stop offset=".17" stop-color="#038e43" stop-opacity=".36"/>
			<stop offset=".26" stop-color="#038e43" stop-opacity=".19"/>
			<stop offset=".35" stop-color="#038e43" stop-opacity=".09"/>
			<stop offset=".45" stop-color="#038e43" stop-opacity=".04"/>
			<stop offset=".55" stop-color="#038e43" stop-opacity=".01"/>
			<stop offset=".67" stop-color="#038e43" stop-opacity=".01"/>
			<stop offset=".8" stop-color="#038e43" stop-opacity=".01"/>
			<stop offset="1" stop-color="#038e43" stop-opacity="0"/>
		</radialGradient>
		<radialGradient id="g7" cx="0" cy="0" r="1" gradientUnits="userSpaceOnUse" gradientTransform="matrix(298.664,0,0,298.664,1815.676,779.485)">
			<stop offset="0" stop-color="#038e43" stop-opacity=".97"/>
			<stop offset=".08" stop-color="#038e43" stop-opacity=".55"/>
			<stop offset=".17" stop-color="#038e43" stop-opacity=".36"/>
			<stop offset=".26" stop-color="#038e43" stop-opacity=".19"/>
			<stop offset=".35" stop-color="#038e43" stop-opacity=".09"/>
			<stop offset=".45" stop-color="#038e43" stop-opacity=".04"/>
			<stop offset=".55" stop-color="#038e43" stop-opacity=".01"/>
			<stop offset=".67" stop-color="#038e43" stop-opacity=".01"/>
			<stop offset=".8" stop-color="#038e43" stop-opacity=".01"/>
			<stop offset="1" stop-color="#038e43" stop-opacity="0"/>
		</radialGradient>
		<radialGradient id="g8" cx="0" cy="0" r="1" gradientUnits="userSpaceOnUse" gradientTransform="matrix(298.664,0,0,298.664,1440.647,658.672)">
			<stop offset="0" stop-color="#038e43" stop-opacity=".97"/>
			<stop offset=".08" stop-color="#038e43" stop-opacity=".55"/>
			<stop offset=".17" stop-color="#038e43" stop-opacity=".36"/>
			<stop offset=".26" stop-color="#038e43" stop-opacity=".19"/>
			<stop offset=".35" stop-color="#038e43" stop-opacity=".09"/>
			<stop offset=".45" stop-color="#038e43" stop-opacity=".04"/>
			<stop offset=".55" stop-color="#038e43" stop-opacity=".01"/>
			<stop offset=".67" stop-color="#038e43" stop-opacity=".01"/>
			<stop offset=".8" stop-color="#038e43" stop-opacity=".01"/>
			<stop offset="1" stop-color="#038e43" stop-opacity="0"/>
		</radialGradient>
		<radialGradient id="g9" cx="0" cy="0" r="1" gradientUnits="userSpaceOnUse" gradientTransform="matrix(302.868,0,0,302.868,855.58,545.796)">
			<stop offset="0" stop-color="#038e43" stop-opacity=".97"/>
			<stop offset=".08" stop-color="#038e43" stop-opacity=".55"/>
			<stop offset=".17" stop-color="#038e43" stop-opacity=".36"/>
			<stop offset=".26" stop-color="#038e43" stop-opacity=".19"/>
			<stop offset=".35" stop-color="#038e43" stop-opacity=".09"/>
			<stop offset=".45" stop-color="#038e43" stop-opacity=".04"/>
			<stop offset=".55" stop-color="#038e43" stop-opacity=".01"/>
			<stop offset=".67" stop-color="#038e43" stop-opacity=".01"/>
			<stop offset=".8" stop-color="#038e43" stop-opacity=".01"/>
			<stop offset="1" stop-color="#038e43" stop-opacity="0"/>
		</radialGradient>
		<linearGradient id="g10" x2="1" gradientUnits="userSpaceOnUse" gradientTransform="matrix(0,-712.024,1339.939,0,-67.394,1153.676)">
			<stop offset="0" stop-color="#038e43" stop-opacity="0"/>
			<stop offset=".14" stop-color="#038e43" stop-opacity=".01"/>
			<stop offset=".27" stop-color="#038e43" stop-opacity=".01"/>
			<stop offset=".39" stop-color="#038e43" stop-opacity=".02"/>
			<stop offset=".51" stop-color="#038e43" stop-opacity=".06"/>
			<stop offset=".63" stop-color="#038e43" stop-opacity=".14"/>
			<stop offset=".75" stop-color="#038e43" stop-opacity=".29"/>
			<stop offset=".86" stop-color="#038e43" stop-opacity=".53"/>
			<stop offset=".98" stop-color="#038e43" stop-opacity=".9"/>
			<stop offset="1" stop-color="#038e43" stop-opacity="1"/>
		</linearGradient>
		<linearGradient id="g11" x2="1" gradientUnits="userSpaceOnUse" gradientTransform="matrix(0,-632.589,1015.714,0,1731.883,1555.066)">
			<stop offset="0" stop-color="#038e43" stop-opacity="0"/>
			<stop offset=".14" stop-color="#038e43" stop-opacity=".01"/>
			<stop offset=".27" stop-color="#038e43" stop-opacity=".01"/>
			<stop offset=".39" stop-color="#038e43" stop-opacity=".02"/>
			<stop offset=".51" stop-color="#038e43" stop-opacity=".06"/>
			<stop offset=".63" stop-color="#038e43" stop-opacity=".14"/>
			<stop offset=".75" stop-color="#038e43" stop-opacity=".29"/>
			<stop offset=".86" stop-color="#038e43" stop-opacity=".53"/>
			<stop offset=".98" stop-color="#038e43" stop-opacity=".9"/>
			<stop offset="1" stop-color="#038e43" stop-opacity="1"/>
		</linearGradient>
		<linearGradient id="g12" x2="1" gradientUnits="userSpaceOnUse" gradientTransform="matrix(0,62.264,-62.28,0,1266.766,1416.644)">
			<stop offset="0" stop-color="#111111"/>
			<stop offset="1" stop-color="#224c55"/>
		</linearGradient>
		<linearGradient id="g13" x2="1" gradientUnits="userSpaceOnUse" gradientTransform="matrix(0,62.265,-62.28,0,1054.25,200.19)">
			<stop offset="0" stop-color="#111111"/>
			<stop offset="1" stop-color="#224c55"/>
		</linearGradient>
		<linearGradient id="g14" x2="1" gradientUnits="userSpaceOnUse" gradientTransform="matrix(0,62.264,-62.28,0,1862.646,758.426)">
			<stop offset="0" stop-color="#111111"/>
			<stop offset="1" stop-color="#224c55"/>
		</linearGradient>
		<linearGradient id="g15" x2="1" gradientUnits="userSpaceOnUse" gradientTransform="matrix(0,62.264,-62.28,0,804.23,612.618)">
			<stop offset="0" stop-color="#111111"/>
			<stop offset="1" stop-color="#224c55"/>
		</linearGradient>
		<linearGradient id="g16" x2="1" gradientUnits="userSpaceOnUse" gradientTransform="matrix(0,62.264,-62.28,0,1175.092,945.893)">
			<stop offset="0" stop-color="#111111"/>
			<stop offset="1" stop-color="#224c55"/>
		</linearGradient>
		<linearGradient id="g17" x2="1" gradientUnits="userSpaceOnUse" gradientTransform="matrix(0,62.264,-62.28,0,1033.415,1733.256)">
			<stop offset="0" stop-color="#111111"/>
			<stop offset="1" stop-color="#224c55"/>
		</linearGradient>
		<linearGradient id="g18" x2="1" gradientUnits="userSpaceOnUse" gradientTransform="matrix(0,62.264,-62.28,0,1466.782,679.273)">
			<stop offset="0" stop-color="#111111"/>
			<stop offset="1" stop-color="#224c55"/>
		</linearGradient>
		<linearGradient id="g19" x2="1" gradientUnits="userSpaceOnUse" gradientTransform="matrix(0,62.264,-62.28,0,687.554,1283.334)">
			<stop offset="0" stop-color="#111111"/>
			<stop offset="1" stop-color="#224c55"/>
		</linearGradient>
		<linearGradient id="g20" x2="1" gradientUnits="userSpaceOnUse" gradientTransform="matrix(0,62.264,-62.28,0,333.36,1158.356)">
			<stop offset="0" stop-color="#111111"/>
			<stop offset="1" stop-color="#224c55"/>
		</linearGradient>
	</defs>
	<style>
		tspan { white-space:pre } 
		.s0 { mix-blend-mode: screen;fill: url(#g1) } 
		.s1 { mix-blend-mode: screen;fill: url(#g2) } 
		.s2 { mix-blend-mode: screen;fill: url(#g3) } 
		.s3 { mix-blend-mode: screen;fill: url(#g4) } 
		.s4 { mix-blend-mode: screen;fill: url(#g5) } 
		.s5 { mix-blend-mode: screen;fill: url(#g6) } 
		.s6 { mix-blend-mode: screen;fill: url(#g7) } 
		.s7 { mix-blend-mode: screen;fill: url(#g8) } 
		.s8 { mix-blend-mode: screen;fill: url(#g9) } 
		.s9 { fill: #52c084 } 
		.s10 { fill: #65cd95 } 
		.s11 { fill: #79d9a5 } 
		.s12 { fill: #b4ffd6 } 
		.s13 { fill: #c7ffe0 } 
		.s14 { fill: url(#g10) } 
		.s15 { fill: url(#g11) } 
		.s16 { fill: url(#g12) } 
		.s17 { fill: #d4f479 } 
		.s18 { fill: url(#g13) } 
		.s19 { fill: url(#g14) } 
		.s20 { fill: url(#g15) } 
		.s21 { fill: url(#g16) } 
		.s22 { fill: url(#g17) } 
		.s23 { fill: url(#g18) } 
		.s24 { fill: url(#g19) } 
		.s25 { fill: url(#g20) } 
		.t26 { font-size: 10px;fill: #000000;font-weight: 400;font-family: "InriaSans-Regular", "Inria Sans" } 
	</style>
	<path class="s0" d="m1064.7 691.5c-213.2 0-385.5-154.5-385.5-345.7 0-191.2 172.3-345.8 385.5-345.8 213.1 0 385.4 154.6 385.4 345.8 0 191.2-172.3 345.7-385.4 345.7z"/>
	<path class="s1" d="m1035.5 1908c-164.8 0-297.9-124.8-297.9-279.1 0-154.4 133.1-279.1 297.9-279.1 164.8 0 297.9 124.7 297.9 279.1 0 154.3-133.1 279.1-297.9 279.1z"/>
	<path class="s2" d="m1310.5 1645.5c-164.7 0-297.9-124.7-297.9-279.1 0-154.3 133.2-279.1 297.9-279.1 164.8 0 298 124.8 298 279.1 0 154.4-133.2 279.1-298 279.1z"/>
	<path class="s3" d="m714.6 1558.1c-164.7 0-297.9-124.8-297.9-279.2 0-154.3 133.2-279.1 297.9-279.1 164.8 0 298 124.8 298 279.1 0 154.4-133.2 279.2-298 279.2z"/>
	<path class="s4" d="m297.9 1378.9c-164.7 0-297.9-124.7-297.9-279.1 0-154.3 133.2-279.1 297.9-279.1 164.8 0 298 124.8 298 279.1 0 154.4-133.2 279.1-298 279.1z"/>
	<path class="s5" d="m1218 1212.8c-167.1 0-302.1-126.5-302.1-283 0-156.6 135-283.1 302.1-283.1 167.1 0 302.2 126.5 302.2 283.1 0 156.5-135.1 283-302.2 283z"/>
	<path class="s6" d="m1823.1 1041.5c-164.8 0-298-124.8-298-279.1 0-154.4 133.2-279.2 298-279.2 164.7 0 297.9 124.8 297.9 279.2 0 154.3-133.2 279.1-297.9 279.1z"/>
	<path class="s7" d="m1448 920.7c-164.7 0-297.9-124.8-297.9-279.1 0-154.4 133.2-279.2 297.9-279.2 164.8 0 298 124.8 298 279.2 0 154.3-133.2 279.1-298 279.1z"/>
	<path class="s8" d="m863.1 811.5c-167.1 0-302.2-126.5-302.2-283.1 0-156.5 135.1-283 302.2-283 167 0 302.1 126.5 302.1 283 0 156.6-135.1 283.1-302.1 283.1z"/>
	<path class="s9" d="m442.6 1177.1c0-30.2 75.6-68.8 230.7-118.1 138.9-44 321-90.4 497.1-135.2 296.5-75.5 576.7-146.9 552.6-185.1-21.3-33.6-216.4-51.5-422.9-70.3-223-20.4-453.6-41.4-464.6-84.8-10.4-40.7 33.9-58.3 85.1-78.6 64.4-25.6 137.4-54.6 130.8-137.7l-1.5-219.2h2.6l1.5 219.1c6.7 83.6-66.7 112.8-131.5 138.5-50.8 20.2-94.6 37.6-84.4 77.8 11 42.5 240.6 63.5 462.6 83.8 207.4 18.9 403.2 36.8 424.9 71.1 11.4 17.8-37.9 42.9-154.8 79-103.6 32-247.1 68.6-398.9 107.2-340.8 86.8-726.6 185-726.6 252.5q0 0.9 0 1.6c4.2 43.9 209.9 86.9 408.9 128.5 103.9 21.6 211.3 44.1 288.2 66.4 86.3 25 124.2 47.2 115.5 67.9-6.1 14.5-35.3 29.3-72.2 48.1-72 36.6-170.6 86.8-158.7 170.4l13.6 114.7h-2.7l-13.5-114.7c-12.1-84 87-134.3 159.2-171 36.7-18.7 65.7-33.5 71.7-47.6 19-45.3-195.2-90-402.4-133.3-199.6-41.7-406-84.8-410.2-129.3q0-0.8 0-1.7z"/>
	<path class="s10" d="m413 1171.2c0-32.2 80.2-71.4 244.8-120 147.4-43.5 340.2-88.2 526.8-131.6 311.8-72.4 606.5-140.9 581-181.4-22.5-35.9-229.4-50.2-448.4-65.4-234.8-16.3-477.4-33.1-489.1-79-11-43.2 35.7-59.7 89.6-78.8 68.1-24.2 145.4-51.6 138.4-140.1l-1.5-226.8h2.3l1.5 226.8c7 88.9-70.6 116.5-139.1 140.7-53.6 19-99.7 35.4-88.9 78.1 11.4 45.2 253.3 61.9 487.2 78.1 219.7 15.2 427.4 29.6 450.2 66.1 11.9 18.9-39.7 44.1-162.4 79.2-109 31.1-259.9 66.2-419.7 103.3-361.2 83.9-770.3 178.9-770.3 250.7 0 0.6 0 1.1 0 1.7 4.4 46.9 222.8 87.6 433.9 126.8 109.3 20.4 222.4 41.4 303.1 63 90.8 24.2 130.5 46.7 121.4 68.6-6.5 15.5-37.8 30.1-77.3 48.7-75.7 35.4-179.2 84-166.5 172.4l14.3 122.4h-2.3l-14.3-122.4c-12.7-88.8 91.3-137.5 167.1-173.1 39.3-18.5 70.4-33 76.8-48.2 9-21.6-30.4-43.7-120.3-67.7-80.5-21.5-193.5-42.5-302.9-62.9-211.7-39.4-430.7-80.1-435.2-127.6q0-0.9 0-1.8z"/>
	<path class="s11" d="m366.6 1165c0-34 85.9-73.8 262.5-121.7 158.1-42.8 364.7-86 564.6-127.8 170.1-35.6 330.9-69.1 446.6-99.5 129.7-33.9 184.3-58.8 171.9-78.3-10.9-17.1-64.1-30.3-162.5-40.3-88.4-9-205.3-14.6-318.3-20.1-250.1-12.3-508.8-24.8-521.2-73.4-11.7-45.6 38-61 95.4-78.9 73-22.8 155.8-48.6 148.3-142.5l-1.7-234.4h2l1.7 234.4c3.3 42-11.3 74.2-44.7 98.5-29.2 21.2-69.2 33.6-104.4 44.6-56.9 17.7-106.2 33.1-94.6 78.3 12.2 47.8 270.1 60.4 519.4 72.5 235.5 11.5 458 22.4 482.6 61.1 12.6 19.9-42.2 45-172.7 79.2-115.9 30.3-276.6 63.9-446.8 99.5-199.8 41.8-406.4 85-564.4 127.8-179.3 48.6-264.9 88.8-261.6 122.9 4.7 49.8 238.9 88.1 465.6 125.1 116.5 19 237 38.7 322.9 59.6 96.5 23.4 138.6 46 128.9 69.2-6.9 16.5-42.4 31.7-83.6 49.2-80.4 34.4-190.5 81.4-177.1 174.7l15.3 130h-2l-15.3-130c-13.4-93.7 97-140.8 177.6-175.3 42.7-18.1 76.3-32.5 83.1-48.8 9.6-22.8-32.3-45.1-128-68.4-85.7-20.8-206.1-40.5-322.6-59.5-227.1-37.1-462-75.5-466.7-125.8q0-1 0-1.9z"/>
	<path class="s12" d="m332.7 1156.4c0-35.8 90.9-76.1 277.5-123.1 167-42.1 385.1-83.6 595.9-123.7 178.5-34 347.1-66 468.5-95.5 64.9-15.7 111.1-29.4 141-41.9 33.2-13.7 46-25.7 39.1-36.5-11.5-18.1-67.7-31.1-171.8-39.9-93.4-7.8-216.7-11.7-335.9-15.4-262.6-8.1-534.3-16.5-547.3-67.5-1.3-4.7-1.8-9.2-1.8-13.3 0-37.5 47.7-50.6 102-65.6 37-10.2 78.9-21.8 109.6-42.9 35.1-24.2 50.4-57.4 46.9-101.6l-1.8-241.4h1.7l1.8 241.4c3.6 44.3-11.9 77.6-47.2 101.9-30.7 21.3-72.9 32.9-109.9 43.1-59.9 16.6-111.6 30.9-99.5 78.4 12.9 50.3 283.8 58.7 545.7 66.9 119.3 3.7 242.8 7.5 336.1 15.4 106.2 8.9 161.3 21.7 173.1 40.3 13.2 20.9-44.3 46.1-180.9 79.2-121.5 29.5-290.2 61.6-468.8 95.5-210.8 40.1-428.8 81.6-595.7 123.7-189.5 47.8-279.9 88.5-276.5 124.5 5.1 52.6 252.6 88.5 492.1 123.1 122.3 17.6 248.7 35.9 338.8 56 48.5 10.9 82.9 21.4 105.4 32.2 25.3 12.2 35 24.5 29.5 37.5-7.3 17.5-45.1 32.4-88.9 49.6-43.5 17.1-92.8 36.5-130.2 64.1-43.5 32.2-61.5 68.9-55.3 112.4l16 137.3h-1.7l-16-137.3c-6.3-43.6 11.8-80.5 55.5-112.7 37.5-27.7 86.9-47.2 130.5-64.3 43.6-17.2 81.2-32 88.5-49.3 5.3-12.8-4.2-24.9-29.2-36.9-22.4-10.7-56.8-21.2-105.1-32-89.9-20.1-216.3-38.4-338.6-56-119.5-17.3-243-35.2-335.3-55-103.9-22.4-155.4-44.8-157.8-68.6q0-1 0-2z"/>
	<path class="s12" d="m298.9 1148.8c0-19.7 26.5-40.6 78.7-62.1 48.5-19.9 118.3-40.5 213.5-63 175.9-41.5 405.4-81.5 627.2-120.2 186.9-32.5 363.4-63.3 490.5-92.1 67.9-15.3 116.2-28.9 147.5-41.4 34.7-13.8 48.1-26.1 40.9-37.5-6.5-10.2-25.6-18.5-58.6-25.2-29.6-6.1-69.6-10.8-122.4-14.5-98.3-6.7-228-8.7-353.6-10.6-275.1-4.1-559.6-8.4-573.3-62-12.8-50.5 41.7-63.9 104.9-79.4 38.9-9.5 83-20.3 115.1-41.6 37-24.3 53.2-58.8 49.4-105.5l-1.8-249.7h1.4l1.9 249.6c3.6 46.8-12.5 81.4-49.6 105.9-32.4 21.4-76.6 32.2-115.7 41.8-62.8 15.4-116.9 28.7-104.3 78.8 13.6 53.2 297.4 57.4 572.1 61.6 125.6 1.9 255.4 3.8 353.8 10.6 52.9 3.6 93.1 8.4 122.7 14.5 33.3 6.8 52.7 15.2 59.3 25.6 7.4 11.6-6.1 24.1-41.3 38.1-31.4 12.5-79.7 26.1-147.7 41.5-127 28.7-303.6 59.5-490.6 92-221.8 38.7-451.2 78.6-627.1 120.1-196 46.3-291.5 87.1-291.5 124.7q0 1 0 2.1c5.2 55.7 266.2 89.1 518.4 121.5 128.1 16.4 260.5 33.4 354.8 52.9 50.7 10.5 86.7 20.9 110.3 31.9 26.4 12.3 36.6 24.9 30.8 38.6-7.7 18.5-47.9 33.2-94.3 50.2-45.5 16.6-97.1 35.4-136.1 63.3-45.4 32.2-64.3 70.2-57.8 116l16.9 145.3h-1.4l-16.8-145.3c-6.5-45.9 12.3-83.9 57.9-116.3 39.2-28 90.9-46.8 136.5-63.5 46.2-16.9 86.1-31.5 93.9-49.8 5.6-13.5-4.3-26-30.5-38.2-23.5-10.8-59.5-21.2-110-31.7-94.1-19.5-226.4-36.5-354.5-52.9-125.8-16.1-255.9-32.8-353.1-52.2-52.4-10.4-91.2-20.7-118.6-31.6-30.8-12.2-46.4-24.6-47.7-38.1q0-1.1 0-2.1z"/>
	<path class="s13" d="m256.7 1142.8c0-10.3 6.8-20.8 20.4-31.3 13.7-10.7 34.9-21.6 62.7-32.7 51.1-20.1 124.9-40.7 225.5-62.8 185.7-40.8 427.7-79.2 661.9-116.2 196.2-31.1 381.6-60.5 514.9-88.5 71.2-14.9 121.9-28.3 154.8-40.8 36.4-13.9 50.4-26.5 42.9-38.5-6.9-10.8-27.2-19.2-61.9-25.9-31.3-6-73.5-10.4-129.2-13.4-103.8-5.7-240.7-5.8-373.1-5.8-143.8-0.1-292.4-0.2-404.8-7.2-60.6-3.8-105.8-9.3-138.2-16.7-36.5-8.4-56-19-59.3-32.6-13.5-52.9 43.7-65.2 110-79.5 41-8.9 87.4-18.9 121.5-40.3 39-24.4 56.1-60.2 52.1-109.3l-2-257.3h1l2 257.3c3.8 49.2-13.2 85-52.4 109.5-34.1 21.4-80.8 31.5-121.9 40.4-66 14.2-123 26.5-109.5 79.1 3.5 13.4 22.7 23.9 59 32.2 32.2 7.4 77.4 12.9 137.8 16.7 112.3 7.1 260.9 7.1 404.7 7.2 132.4 0 269.3 0.1 373.2 5.8 55.9 3 98.3 7.5 129.5 13.5 35.1 6.7 55.6 15.3 62.4 26.2 7.7 12.2-6.4 24.9-43.2 38.8-32.9 12.6-83.7 26-155 40.9-133.4 28.1-318.8 57.4-515 88.5-234.1 37-476.1 75.4-661.8 116.2-100.5 22.1-174.2 42.6-225.2 62.8-27.8 11-48.8 21.9-62.6 32.5-14.4 11.2-21.2 22.4-20.2 33.3 1.4 14.1 17.7 26.9 50.1 39.2 28.8 10.9 69.6 21.1 124.9 31.3 102.6 18.8 240 34.2 372.7 49.2 134.5 15.1 273.7 30.7 372.5 49.6 53.2 10.1 91 20.4 115.7 31.5 27.7 12.4 38.3 25.3 32.3 39.6-8.2 19.7-50.8 34-100.1 50.6-47.8 16.1-101.9 34.3-142.9 62.3-47.5 32.4-67.4 71.5-60.5 119.4l17.8 153h-0.9l-17.8-153c-6.8-48 12.9-87.2 60.5-119.7 41.1-28 95.4-46.3 143.2-62.3 49.2-16.6 91.5-30.9 99.7-50.3 6-14.2-4.5-27.1-32-39.4-24.6-11-62.4-21.3-115.4-31.4-98.8-18.8-237.9-34.5-372.4-49.6-132.9-14.9-270.1-30.3-372.8-49.1-55.4-10.2-96.3-20.4-125.2-31.4-32.4-12.3-48.9-25.2-50.3-39.4q0-1.1 0-2.2z"/>
	<path class="s14" d="m1693.4 1153.7v-0.2l27.5-426.5c-263.6 0-350.6-481.6-528.5-481.6-178 0-214.8 440.1-459.3 440.1-244.5 0-200.9 211-426.8 211 0 217.1-294.7-88.6-294.7 257"/>
	<path class="s15" d="m714.4 748.1c-141.9 0-163.1 410.7-373.2 410.7l309 62c834.8 277.5 741.5 31.1 430.2-81.7-194.8 0-224.2-391-366-391z"/>
	<path class="s16" d="m1266.8 1345.6c36.8 0 66.6 29.8 66.6 66.7 0 36.8-29.8 66.6-66.6 66.6-36.9 0-66.7-29.8-66.7-66.6 0-36.9 29.8-66.7 66.7-66.7z"/>
	<path fill-rule="evenodd" class="s17" d="m1251.6 1429.7c-10.5 0-14.9-7.3-14.9-18.3 0-11.1 4.6-18.3 14.9-18.3 10.3 0 14.8 7.3 14.8 18.3 0 11.2-4.6 18.3-14.8 18.3zm6.8-18.3c0-6.9-3-12.4-6.8-12.4-3.8 0-6.9 5.5-6.9 12.4 0 6.9 3.1 12.4 6.9 12.4 3.8 0 6.8-5.5 6.8-12.4zm12.1 11.2c11.3-8.3 18.8-13.2 18.8-18.7 0-3.1-2.1-4.9-5.2-4.9-3.2 0-5.4 1.7-5.8 5.2h-7.4c0.6-7.6 5.7-11 13.2-11 7.3 0 12.8 3.6 12.8 10.5 0 8-8.5 13-17 18.8l0.1 0.4c2.5-0.3 4.7-0.3 8.1-0.3h8.3v6.3h-25.9z"/>
	<path class="s18" d="m1054.2 129.1c36.9 0 66.7 29.9 66.7 66.7 0 36.8-29.8 66.7-66.7 66.7-36.8 0-66.6-29.9-66.6-66.7 0-36.8 29.8-66.7 66.6-66.7z"/>
	<path fill-rule="evenodd" class="s17" d="m1038.1 213.2c-10.5 0-14.9-7.2-14.9-18.2 0-11.1 4.5-18.3 14.9-18.3 10.3 0 14.7 7.3 14.7 18.3 0 11.1-4.5 18.2-14.7 18.2zm6.8-18.3c0-6.8-3.1-12.4-6.9-12.4-3.8 0-6.9 5.6-6.9 12.4 0 6.9 3.1 12.5 6.9 12.5 3.8 0 6.9-5.6 6.9-12.5zm33-0.3c-1.3 3.6-4.4 5.9-9.2 5.9-6.5 0-11.2-4.4-11.2-11.7 0-8 6.3-12.1 13.5-12.1 9.7 0 14.3 6.6 14.3 17.6 0 11.7-4.4 19-14.4 19-5.9 0-11.8-2.6-12.8-9.8h7c0.6 2.6 2.4 4.1 5.8 4.1 5.4 0 7.4-4.3 7.4-13zm-0.6-5.8c0-3.4-2.8-6.2-6.2-6.2-3.5 0-6.3 2.8-6.3 6.2 0 3.5 2.8 6.3 6.3 6.3 3.4 0 6.2-2.8 6.2-6.3z"/>
	<path class="s19" d="m1862.6 687.4c36.9 0 66.7 29.8 66.7 66.6 0 36.8-29.8 66.7-66.7 66.7-36.8 0-66.6-29.9-66.6-66.7 0-36.8 29.8-66.6 66.6-66.6z"/>
	<path fill-rule="evenodd" class="s17" d="m1846.4 771.4c-10.5 0-14.9-7.2-14.9-18.2 0-11.1 4.5-18.3 14.9-18.3 10.3 0 14.7 7.3 14.7 18.3 0 11.1-4.5 18.2-14.7 18.2zm6.8-18.2c0-6.9-3.1-12.4-6.9-12.4-3.8 0-6.9 5.5-6.9 12.4 0 6.8 3.1 12.4 6.9 12.4 3.8 0 6.9-5.6 6.9-12.4zm20.5 0.4c1.3-3.6 4.4-5.9 9.2-5.9 6.5 0 11.2 4.4 11.2 11.7 0 7.9-6.3 12.1-13.5 12.1-9.7 0-14.3-6.6-14.3-17.6 0-11.7 4.4-19 14.4-19 5.9 0 11.8 2.6 12.8 9.8h-7c-0.6-2.6-2.4-4.1-5.8-4.1-5.4 0-7.4 4.3-7.4 13zm13.1 5.8c0-3.5-2.8-6.3-6.3-6.3-3.5 0-6.2 2.8-6.2 6.3 0 3.4 2.7 6.2 6.2 6.2 3.5 0 6.3-2.8 6.3-6.2z"/>
	<path class="s20" d="m804.2 541.6c36.9 0 66.7 29.8 66.7 66.6 0 36.8-29.8 66.7-66.7 66.7-36.8 0-66.6-29.9-66.6-66.7 0-36.8 29.8-66.6 66.6-66.6z"/>
	<path fill-rule="evenodd" class="s17" d="m788.2 625.6c-10.5 0-14.9-7.2-14.9-18.2 0-11.1 4.5-18.3 14.9-18.3 10.3 0 14.7 7.3 14.7 18.3 0 11.1-4.5 18.2-14.7 18.2zm6.8-18.2c0-6.9-3.1-12.5-6.9-12.5-3.8 0-6.9 5.6-6.9 12.5 0 6.8 3.1 12.4 6.9 12.4 3.8 0 6.9-5.6 6.9-12.4zm26.7 18.3c-8.6 0-14.3-4.1-14.3-10.5 0-5 3-7.8 7-8.7v-0.4c-3.2-0.6-5.5-3.5-5.5-7.5 0-5.8 5.1-9.5 12.8-9.5 7.6 0 12.8 3.7 12.8 9.5 0 3.9-2.4 6.9-5.7 7.5v0.4c4.1 0.9 7.1 3.7 7.1 8.7 0 6.4-5.7 10.5-14.2 10.5zm6.7-11.3c0-3-3-5.4-6.7-5.4-3.7 0-6.7 2.4-6.7 5.4 0 3 3 5.4 6.7 5.4 3.7 0 6.7-2.4 6.7-5.4zm-0.8-15.1c0-2.6-2.6-4.7-5.9-4.7-3.2 0-5.9 2.1-5.9 4.7 0 2.6 2.7 4.7 5.9 4.7 3.3 0 5.9-2.1 5.9-4.7z"/>
	<path class="s21" d="m1175.1 874.8c36.8 0 66.7 29.9 66.7 66.7 0 36.8-29.9 66.7-66.7 66.7-36.8 0-66.7-29.9-66.7-66.7 0-36.8 29.9-66.7 66.7-66.7z"/>
	<path fill-rule="evenodd" class="s17" d="m1159.6 958.9c-10.5 0-14.9-7.2-14.9-18.2 0-11.1 4.5-18.3 14.9-18.3 10.3 0 14.7 7.3 14.7 18.3 0 11.1-4.5 18.2-14.7 18.2zm6.8-18.3c0-6.8-3.1-12.4-6.9-12.4-3.8 0-6.9 5.6-6.9 12.4 0 6.9 3.1 12.5 6.9 12.5 3.8 0 6.9-5.6 6.9-12.5zm19.7 7.5c0.3 3.4 2.7 5.3 6.4 5.3 3.8 0 6.1-2.5 6.1-6.6 0-4-2.5-6.6-6.2-6.6-3 0-4.9 1.1-6 3.7l-6.7-1.5 3.1-19.2h21.3v5.8h-15.3l-1.9 10.1h0.3c1-2.3 3.7-4.2 7.6-4.2 6.3 0 11.1 4.4 11.1 11.7 0 7.8-6.2 12.4-13.3 12.4-7.6 0-13.1-3.8-13.6-10.9z"/>
	<path class="s22" d="m1033.4 1662.2c36.8 0 66.7 29.9 66.7 66.7 0 36.8-29.9 66.6-66.7 66.6-36.8 0-66.7-29.8-66.7-66.6 0-36.8 29.9-66.7 66.7-66.7z"/>
	<path fill-rule="evenodd" class="s17" d="m1022.4 1746.3c-10.5 0-14.9-7.3-14.9-18.3 0-11.1 4.6-18.3 14.9-18.3 10.3 0 14.8 7.3 14.8 18.3 0 11.2-4.6 18.3-14.8 18.3zm6.8-18.3c0-6.9-3.1-12.4-6.9-12.4-3.8 0-6.8 5.5-6.8 12.4 0 6.9 3 12.4 6.8 12.4 3.8 0 6.9-5.5 6.9-12.4zm21.3-8.8c-1.7 2.2-4 3.1-8.3 3.1v-6.9c5.4 0 8.4-1.5 10.1-4.9h6.1v35h-7.6v-26.3z"/>
	<path class="s23" d="m1466.8 608.2c36.8 0 66.7 29.9 66.7 66.7 0 36.8-29.9 66.6-66.7 66.6-36.8 0-66.7-29.8-66.7-66.6 0-36.8 29.9-66.7 66.7-66.7z"/>
	<path fill-rule="evenodd" class="s17" d="m1454 692.3c-10.5 0-14.9-7.3-14.9-18.3 0-11 4.5-18.2 14.9-18.2 10.3 0 14.7 7.3 14.7 18.2 0 11.2-4.5 18.3-14.7 18.3zm6.8-18.3c0-6.8-3.1-12.4-6.9-12.4-3.8 0-6.9 5.6-6.9 12.4 0 6.9 3.1 12.4 6.9 12.4 3.8 0 6.9-5.5 6.9-12.4zm29.9-11.6h-19.9v-5.8h24.9v6.2c-8.1 8.4-11 16.5-11.3 28.7h-7.9c0.2-11.5 4.8-22.5 14.2-28.7z"/>
	<path class="s24" d="m687.6 1212.3c36.8 0 66.6 29.8 66.6 66.6 0 36.9-29.8 66.7-66.6 66.7-36.9 0-66.7-29.8-66.7-66.7 0-36.8 29.8-66.6 66.7-66.6z"/>
	<path fill-rule="evenodd" class="s17" d="m671.6 1296.4c-10.5 0-14.9-7.3-14.9-18.3 0-11.1 4.5-18.3 14.9-18.3 10.3 0 14.7 7.3 14.7 18.3 0 11.2-4.5 18.3-14.7 18.3zm6.8-18.3c0-6.9-3.1-12.4-6.9-12.4-3.8 0-6.9 5.5-6.9 12.4 0 6.9 3.1 12.4 6.9 12.4 3.8 0 6.9-5.5 6.9-12.4zm26.8 18.3c-8.8 0-14.1-4.4-14.4-12.2h7.6c0.1 4 2.4 6.1 6.5 6.1 3.7 0 6-2 6-5 0-3.1-1.9-5.1-6.4-5.1h-2.5v-5.3h2.9c3.6 0 5.5-1.6 5.5-4.6 0-2.9-2.1-4.4-5.5-4.4-3.4 0-5.4 1.6-5.6 5h-7.4c0.2-7.1 5.3-11 13.3-11 7.4-0.1 12.5 3.6 12.5 9.5 0 3.6-2.3 7-6.4 7.4v0.4c5 0.6 7.6 3.8 7.6 8.3 0 6.6-5.5 10.9-13.7 10.9z"/>
	<path class="s25" d="m333.4 1087.3c36.8 0 66.6 29.9 66.6 66.7 0 36.8-29.8 66.6-66.6 66.6-36.9 0-66.7-29.8-66.7-66.6 0-36.8 29.8-66.7 66.7-66.7z"/>
	<path fill-rule="evenodd" class="s17" d="m317.1 1171.4c-10.5 0-14.9-7.3-14.9-18.3 0-11.1 4.5-18.3 14.9-18.3 10.3 0 14.7 7.3 14.7 18.3 0 11.2-4.5 18.3-14.7 18.3zm6.8-18.3c0-6.9-3.1-12.4-6.9-12.4-3.8 0-6.9 5.5-6.9 12.4 0 6.9 3.1 12.4 6.9 12.4 3.8 0 6.9-5.5 6.9-12.4zm28.9 17.5v-7.5h-16.9v-7.2l16.2-20.3h8.4v21.6h4.6v5.9h-4.6v7.5zm-10.8-13.4h11.1v-14.8h-0.4c-0.9 2.1-2.4 4.4-4.3 6.8z"/>
	<text id="Problem Statement" style="transform: matrix(4.167,0,0,4.166,1149.09,1753.188)" >
		<tspan x="0" y="0" class="t26">P</tspan><tspan  y="0" class="t26">r</tspan><tspan  y="0" class="t26">o</tspan><tspan  y="0" class="t26">b</tspan><tspan  y="0" class="t26">l</tspan><tspan  y="0" class="t26">e</tspan><tspan  y="0" class="t26">m</tspan><tspan  y="0" class="t26"> </tspan><tspan  y="0" class="t26">S</tspan><tspan  y="0" class="t26">t</tspan><tspan  y="0" class="t26">a</tspan><tspan  y="0" class="t26">t</tspan><tspan  y="0" class="t26">e</tspan><tspan  y="0" class="t26">m</tspan><tspan  y="0" class="t26">e</tspan><tspan  y="0" class="t26">n</tspan><tspan  y="0" class="t26">t
</tspan>
	</text>
	<text id="User Persona " style="transform: matrix(4.167,0,0,4.166,1384.09,1426.188)" >
		<tspan x="0" y="0" class="t26">User Persona 
</tspan>
	</text>
	<text id="Wireframes  &amp; Prototype" style="transform: matrix(4.167,0,0,4.166,684.09,1402.188)" >
		<tspan x="-25.1" y="0" class="t26">Wireframes </tspan><tspan  y="0" class="t26">
</tspan>
		<tspan x="-24.3" y="11.5" class="t26">&amp; Prototype
</tspan>
	</text>
	<text id="Design &amp; Development" style="transform: matrix(4.167,0,0,4.166,321.09,1290.188)" >
		<tspan x="-17.8" y="0" class="t26">Design &amp;</tspan><tspan  y="0" class="t26">
</tspan>
		<tspan x="-27.8" y="11.5" class="t26">Development
</tspan>
	</text>
	<text id="Development Iteration" style="transform: matrix(4.167,0,0,4.166,1304.09,1077.188)" >
		<tspan x="-47.1" y="0" class="t26">D</tspan><tspan  y="0" class="t26">e</tspan><tspan  y="0" class="t26">v</tspan><tspan  y="0" class="t26">e</tspan><tspan  y="0" class="t26">l</tspan><tspan  y="0" class="t26">o</tspan><tspan  y="0" class="t26">p</tspan><tspan  y="0" class="t26">m</tspan><tspan  y="0" class="t26">e</tspan><tspan  y="0" class="t26">n</tspan><tspan  y="0" class="t26">t</tspan><tspan  y="0" class="t26"> </tspan><tspan  y="0" class="t26">I</tspan><tspan  y="0" class="t26">t</tspan><tspan  y="0" class="t26">e</tspan><tspan  y="0" class="t26">r</tspan><tspan  y="0" class="t26">a</tspan><tspan  y="0" class="t26">t</tspan><tspan  y="0" class="t26">i</tspan><tspan  y="0" class="t26">o</tspan><tspan  y="0" class="t26">n</tspan><tspan  y="0" class="t26">
</tspan>
	</text>
	<text id="Iteration &amp;  Integration" style="transform: matrix(4.167,0,0,4.166,1867.09,878.188)" >
		<tspan x="-23" y="0" class="t26">Iteration &amp; </tspan><tspan  y="0" class="t26">
</tspan>
		<tspan x="-23.5" y="11.5" class="t26">Integration
</tspan>
	</text>
	<text id="Testing &amp; QA" style="transform: matrix(4.167,0,0,4.166,1481.09,572.188)" >
		<tspan x="-25.5" y="0" class="t26">T</tspan><tspan  y="0" class="t26">e</tspan><tspan  y="0" class="t26">s</tspan><tspan  y="0" class="t26">t</tspan><tspan  y="0" class="t26">i</tspan><tspan  y="0" class="t26">n</tspan><tspan  y="0" class="t26">g</tspan><tspan  y="0" class="t26"> </tspan><tspan  y="0" class="t26">&amp;</tspan><tspan  y="0" class="t26"> </tspan><tspan  y="0" class="t26">Q</tspan><tspan  y="0" class="t26">A
</tspan>
	</text>
	<text id="Launch &amp; Grow" style="transform: matrix(4.167,0,0,4.166,1284.09,199.188)" >
		<tspan x="-30.6" y="0" class="t26">L</tspan><tspan  y="0" class="t26">a</tspan><tspan  y="0" class="t26">u</tspan><tspan  y="0" class="t26">n</tspan><tspan  y="0" class="t26">c</tspan><tspan  y="0" class="t26">h</tspan><tspan  y="0" class="t26"> </tspan><tspan  y="0" class="t26">&amp;</tspan><tspan  y="0" class="t26"> </tspan><tspan  y="0" class="t26">G</tspan><tspan  y="0" class="t26">r</tspan><tspan  y="0" class="t26">o</tspan><tspan  y="0" class="t26">w</tspan><tspan  y="0" class="t26">
</tspan>
	</text>
	<text id="Feedbacks &amp;  Predeployment" style="transform: matrix(3.784,0,0,3.783,593.68,599.412)" >
		<tspan x="-25.3" y="0" class="t26">F</tspan><tspan  y="0" class="t26">e</tspan><tspan  y="0" class="t26">e</tspan><tspan  y="0" class="t26">d</tspan><tspan  y="0" class="t26">b</tspan><tspan  y="0" class="t26">a</tspan><tspan  y="0" class="t26">c</tspan><tspan  y="0" class="t26">k</tspan><tspan  y="0" class="t26">s</tspan><tspan  y="0" class="t26"> </tspan><tspan  y="0" class="t26">&amp;
</tspan>
		<tspan x="-32.9" y="11.5" class="t26"> </tspan><tspan  y="11.5" class="t26">P</tspan><tspan  y="11.5" class="t26">r</tspan><tspan  y="11.5" class="t26">e</tspan><tspan  y="11.5" class="t26">d</tspan><tspan  y="11.5" class="t26">e</tspan><tspan  y="11.5" class="t26">p</tspan><tspan  y="11.5" class="t26">l</tspan><tspan  y="11.5" class="t26">o</tspan><tspan  y="11.5" class="t26">y</tspan><tspan  y="11.5" class="t26">m</tspan><tspan  y="11.5" class="t26">e</tspan><tspan  y="11.5" class="t26">n</tspan><tspan  y="11.5" class="t26">t</tspan><tspan  y="11.5" class="t26">
</tspan>
	</text>
</svg>