<svg version="1.2" xmlns="http://www.w3.org/2000/svg" viewBox="0 0 1000 703" width="1000" height="703">
	<title>5124558-ai</title>
	<style>
		tspan { white-space:pre } 
		.s0 { fill: #ddecff } 
		.s1 { mix-blend-mode: multiply;fill: #ddecff } 
		.s2 { fill: #60a8ff } 
		.s3 { fill: #223a7a } 
		.s4 { fill: #ffffff } 
		.s5 { fill: #1c83ff } 
		.s6 { fill: #ff9d8c } 
		.s7 { fill: #8593b6 } 
		.s8 { fill: #8e9bbb } 
		.s9 { fill: #dee1eb } 
		.s10 { fill: #818fb3 } 
		.s11 { fill: #6baeff } 
		.s12 { fill: #43588e } 
		.s13 { fill: #f6f7fa } 
		.s14 { fill: #d9dee8 } 
		.s15 { fill: #596b9b } 
		.s16 { fill: #7a89af } 
		.s17 { mix-blend-mode: multiply;fill: #bdc4d7 } 
		.s18 { fill: #6f7fa9 } 
		.s19 { fill: #9ca6c3 } 
		.s20 { fill: #d2e6ff } 
		.s21 { fill: #ff5f42 } 
		.t22 { font-size: 12px;fill: #ffffff;font-weight: 700;font-family: "Quicksand-Bold", "Quicksand" } 
		.s23 { fill: #67acff } 
	</style>
	<g id="BACKGROUND">
		<path id="&lt;Path&gt;" class="s0" d="m214.9 668.5c0 0-109.2-77.8-140.7-210.2-31.4-132.4 16.6-292.9 107.6-374.1 91.1-81.1 254.9-26.4 327.7 41.4 72.9 67.9 72.9 67.9 72.9 67.9 0 0 69.5 38.1 160.5 34.7 91.1-3.3 172.2 120.9 193.7 218.5 21.5 97.7-29.8 226.8-29.8 226.8z"/>
		<path id="&lt;Path&gt;" class="s1" d="m165.3 688.4c0 0-76.2-41.4-96-137.4-19.9-96 66.2-183.7 74.5-231.7 8.2-48-10-107.6 66.2-153.9 76.1-46.4 211.8-29.8 263.1-41.4 51.3-11.6 110.9-91.1 213.6-72.9 102.6 18.3 201.9 72.9 206.8 192 5 119.2-33.1 122.5 5 187.1 38.1 64.5 53 109.2 34.8 175.4-18.2 66.2-56.3 84.4-56.3 84.4z"/>
		<path id="&lt;Path&gt;" class="s1" d="m324.2 666.9c-4.7-5-74.2-144 3.2-271.5 77.4-127.4 271.6-112.5 348.9-62.9 77.4 49.7 115.3 114.2 123.2 182.1 7.8 67.9-44.3 173.8-44.3 173.8z"/>
	</g>
	<g id="OBJECTS">
		<g id="&lt;Group&gt;">
			<g id="&lt;Group&gt;">
				<path id="&lt;Path&gt;" class="s2" d="m868.9 432.8h-89.2c-5.5 0-10-4.5-10-10v-44.6c0-5.5 4.5-10 10-10h89.2c5.5 0 10 4.5 10 10v44.6c0 5.5-4.5 10-10 10z"/>
				<path id="&lt;Path&gt;" class="s2" d="m824.3 458l14.1-33.5h-28.2z"/>
			</g>
			<g id="&lt;Group&gt;">
				<g id="&lt;Group&gt;">
					<g id="&lt;Group&gt;">
						<path id="&lt;Path&gt;" class="s3" d="m824 389.4h25.5v3.8l12.5-7.2-12.5-7.3v3.8h-25.5z"/>
					</g>
					<g id="&lt;Group&gt;">
						<path id="&lt;Path&gt;" class="s4" d="m862 404.1h-25.5v-3.7l-12.5 7.2 12.5 7.2v-3.7h25.5z"/>
					</g>
				</g>
				<g id="&lt;Group&gt;">
					<path id="&lt;Path&gt;" class="s3" d="m808.3 410.7l-1.2 0.4c0 0-3.8-4.3-5.8-9-2-4.7-2-10.5-2-10.5l0.9-0.3-5.4-13c-1 0.8-1.9 1.8-2.7 3-3 5.2-2.7 13.1 0.4 20.8 3 7.8 6.3 14.7 12.3 19 3.6 2.6 6.6 3.1 9 2.7z"/>
					<path id="&lt;Path&gt;" class="s3" d="m812.2 409.2l-1.7 0.6 5.5 13.2q1-0.3 1.7-0.7c1.4-0.8 2-2.5 1.4-4l-2.8-7.3c-0.7-1.6-2.5-2.4-4.1-1.8z"/>
					<path id="&lt;Path&gt;" class="s3" d="m799 376.1q-1 0.3-2.2 1l5.5 13.2 1.9-0.8c1.6-0.7 2.4-2.5 1.8-4.1l-2.9-7.5c-0.7-1.6-2.5-2.4-4.1-1.8z"/>
				</g>
			</g>
		</g>
		<g id="&lt;Group&gt;">
			<path id="&lt;Path&gt;" class="s5" d="m298.4 644.5v-148.9c0 0-1.6-40.2 19.5-51.8 21.1-11.6 110.1-5.3 110.1-5.3v206z"/>
		</g>
		<g id="&lt;Group&gt;">
			<g id="&lt;Group&gt;">
				<path id="&lt;Path&gt;" class="s6" d="m455.8 299c0 0-5.4 45.1-7.5 48.8-2.1 3.8-2.1 3.8-2.1 3.8l-10.3 7c0 0 19.9 28.1 44.3 32.7 24.4 4.5 22.3-9.9 22.3-9.9l-3.7-7.9 5-43c0 0-44.3-20.3-48-31.5z"/>
			</g>
			<path id="&lt;Path&gt;" class="s4" d="m423.1 362.3l16.1-7c0 0 10.3 16.9 34.3 26.9 24 9.9 24.5 4.1 25.7 0 1.2-4.2-0.4-8.7-0.4-8.7l1.8-14.5 9.6 3.2 33.3 269.5-85.7 4.1z"/>
			<g id="&lt;Group&gt;">
				<path id="&lt;Path&gt;" class="s3" d="m502.1 359.3c0 0 5.8 13.4 11.2 44.8 5.4 31.5 10.3 84.4 11.6 120.8 1.2 36.5 2 119.6 2 119.6 0 0 106.8 0 108 0 1.3 0 8.7-40.9 8.7-40.9 0 0-47.2-40.5-49.6-47.1-1.7-4.4-0.9-86.2-7.9-123.8-7-37.7-16.1-45.3-35.2-54.7-19.6-9.7-48.8-18.7-48.8-18.7z"/>
			</g>
			<g id="&lt;Group&gt;">
				<path id="&lt;Path&gt;" class="s7" d="m558.4 597.1c-0.6 0-1-0.4-1-1 0-2.9-0.6-45-1.1-85.6-0.5-40.7-1-82.7-1-85.7 0-0.6 0.5-1 1-1 0.6 0 1 0.4 1 1 0 3 0.5 45 1 85.6 0.5 40.7 1.1 82.7 1.1 85.7 0 0.6-0.5 1-1 1z"/>
			</g>
			<g id="&lt;Group&gt;">
				<path id="&lt;Path&gt;" class="s3" d="m343.2 587l-0.8 57.5h125.8c0 0 5.3-48.8 3.3-53.4-2.1-4.5-128.3-4.1-128.3-4.1z"/>
			</g>
			<g id="&lt;Group&gt;" style="mix-blend-mode: multiply">
				<path id="&lt;Path&gt;" class="s8" d="m483.2 346.6c5.1 4.1 12.1 7.4 17.6 9.4l3-25.5c0 0-33.3-15.3-44.6-26.6 2.4 12.9 8.2 29.9 24 42.7z"/>
			</g>
			<g id="&lt;Group&gt;">
				<path id="&lt;Path&gt;" class="s6" d="m542.7 215c0 0 8.6 14.9 10.3 33.1 1.7 18.2 0 65-14.9 84.8-14.9 19.9-45.9 14.1-60 2.1-12.9-11-25.7-23.2-29-47.2-3.3-24 7.1-69.5 36.4-79 29.4-9.5 57.2 6.2 57.2 6.2z"/>
			</g>
			<g id="&lt;Group&gt;">
				<g id="&lt;Group&gt;">
					<path id="&lt;Path&gt;" class="s6" d="m580 618.5c0 0-1.5 0-3.7 0-0.5-0.1-1.1 0-1.7-0.1-2.1 0-4.7-0.1-7.4-0.2q-0.8 0-1.7 0c-2.6-0.1-4.8 0.2-6.9 0.1h-0.1c-0.4 0-1.1 0.1-1.6 0.1-0.2 0-0.5 0-0.6 0-1.2-0.2-1.5-0.5-2.8-1.1-1.7-0.7-24.4-5.8-42.9-5.7-18.5 0.1-35.1 1.3-37.8-0.9-2.7-2.3-4.3-25.5 11.5-27.1l19.4 7.4c0 0 44.3-5.3 60.5 6.7 16.3 12 15.8 20.8 15.8 20.8z"/>
				</g>
				<g id="&lt;Group&gt;">
					<g id="&lt;Group&gt;">
						<path id="&lt;Path&gt;" class="s3" d="m558.5 618.3c-0.4 0-1.1 0.1-1.6 0.1-0.4-0.7-1.2-1.8-1.7-2.3-5-5.1-17.1-8.4-21.4-9.5-0.4-0.1-0.7-0.5-0.6-0.9 0.1-0.4 0.5-0.6 0.9-0.5 6.4 1.5 19.9 5.5 23.8 11.9 0.1 0.2 0.4 0.8 0.6 1.2z"/>
					</g>
				</g>
				<g id="&lt;Group&gt;">
					<g id="&lt;Group&gt;">
						<path id="&lt;Path&gt;" class="s3" d="m567.2 618.2q-0.8 0-1.7 0c-5.5-10-14.4-12.8-25.4-16.4l-0.7-0.2c-0.4-0.1-0.6-0.6-0.5-1 0.2-0.3 0.6-0.6 1-0.4l0.6 0.2c11.7 3.7 21.1 6.7 26.7 17.8z"/>
					</g>
				</g>
				<g id="&lt;Group&gt;">
					<g id="&lt;Group&gt;">
						<path id="&lt;Path&gt;" class="s3" d="m576.3 618.4q-0.8 0-1.7 0c-3.3-6.9-14.3-18.6-28.8-21.3-0.4-0.1-0.7-0.5-0.6-0.9 0.1-0.4 0.5-0.6 0.9-0.6 14.9 2.8 27 15 30.2 22.8z"/>
					</g>
				</g>
			</g>
			<g id="&lt;Group&gt;">
				<path id="&lt;Path&gt;" class="s3" d="m459.1 267.4c0 0 9.1-4.4 15.5-16.6 6.4-12.2 5.6-23.2 5.6-23.2 0 0 11.6-1.8 28.9 3.3 17.4 5.2 38.1 12.2 55.5 2.3 17.4-9.9 17.4-25.8 8.9-32.5-9.5-7.4-28.4-2.9-28.4-2.9 0 0 7.3-7 3.3-11.1-3.9-4.2-18.2 1.2-18.2 1.2 0 0-17.3-13.9-50.2-12.2-32.9 1.7-48.7 24.6-50.5 50.3-1.9 25.6 7.4 51.3 7.4 51.3z"/>
			</g>
			<g id="&lt;Group&gt;" style="mix-blend-mode: multiply">
				<g id="&lt;Group&gt;">
					<path id="&lt;Path&gt;" class="s8" d="m525.8 273.6c-1.9 4.6-1.8 9.9-2.3 14.8-0.3 3.8-1 8.2 2.4 10.8 1.7 1.2 9.5 4.5 5.5 7.2-1.5 1-4.1 0.7-5.9 0.6q-1.8-0.1-3.6-0.2c-1.3-0.1-2.6-0.5-3.9-0.5-0.7 0-1 1-0.3 1.4 2 1.3 5.1 1.7 7.5 1.8 2.5 0.1 4.1 0 6.3-1.1 1.4-0.6 2.7-1.6 2.9-3.2 0.2-1.8-1.1-3.4-2.5-4.4-1.5-1.2-3.5-1.7-5-2.9-2.2-1.5-2.1-4.2-1.9-6.6 0.4-5.9 1.7-11.7 2.2-17.5 0.1-0.9-1.1-0.9-1.4-0.2z"/>
				</g>
			</g>
			<g id="&lt;Group&gt;">
				<path id="&lt;Path&gt;" class="s3" d="m542.7 287.3c-0.6 3.5-3.1 6-5.6 5.5-2.6-0.4-4.1-3.6-3.5-7.1 0.6-3.5 3.2-5.9 5.7-5.5 2.5 0.5 4 3.6 3.4 7.1z"/>
			</g>
			<g id="&lt;Group&gt;">
				<path id="&lt;Path&gt;" class="s3" d="m511.1 284.6c-0.6 3.7-3.3 6.5-6 6-2.7-0.4-4.4-3.7-3.9-7.5 0.6-3.8 3.3-6.5 6-6.1 2.7 0.4 4.4 3.8 3.9 7.6z"/>
			</g>
			<g id="&lt;Group&gt;">
				<g id="&lt;Group&gt;">
					<path id="&lt;Path&gt;" class="s3" d="m535.3 273c2 0.3 3.9-0.1 5.9 0.1q0.7 0 1.4 0.1c0.3 0.1-0.6-0.1-0.2 0q0.2 0 0.3 0.1 0.4 0 0.8 0.1c0.4 0.1 0.8 0.3 1.2 0.4 0.4 0 0.8 0.1 1.2 0.1q0.3 0 0.6-0.1-0.2 0.1-0.4 0.1c0 0 0.7-0.1 0.8-0.1 1.1-0.2 1.8-1.5 1.5-2.6q-0.2-0.5-0.4-0.8-0.2-0.2-0.3-0.4 0.1 0.2 0.2 0.3-0.1-0.2-0.2-0.3-0.2-0.3-0.5-0.5-0.2-0.2-0.4-0.3c-0.5-0.4-1.2-0.6-1.8-0.8-1.2-0.3-2.4-0.4-3.6-0.4-1.2 0-2.3 0.1-3.5 0.3-1 0.1-2.2 0.5-3 1.1-0.7 0.5-1.1 1.1-1 1.9 0.1 0.7 0.7 1.5 1.4 1.7z"/>
				</g>
			</g>
			<g id="&lt;Group&gt;">
				<g id="&lt;Group&gt;">
					<path id="&lt;Path&gt;" class="s3" d="m513.3 267.4q-0.4-0.2-0.8-0.4c-0.3-0.1-0.9-0.4-0.4-0.2q-0.3-0.1-0.6-0.3c-0.8-0.4-1.6-0.6-2.5-0.9-1.8-0.4-3.8-0.6-5.8-0.4-2 0.3-3.9 0.8-5.7 1.8-0.3 0.2-0.5 0.3-0.7 0.6q-0.2 0.2-0.4 0.5 0-0.1 0.1-0.2c-0.6 0.4-0.9 1-0.9 1.7 0 0.6 0.3 1.2 0.9 1.5 0.7 0.4 1.3 0.2 2 0q-0.5 0-1 0c0.5 0.1 0.9 0.1 1.5 0 0 0 0.6-0.1 0.2-0.1-0.3 0.1 0.6 0 0.7-0.1 0.1 0 0.7 0 0.1 0q0.1 0 0.3 0 0.5-0.1 1-0.1 2-0.2 4.1-0.2 1.9-0.1 3.8 0 0.8 0 1.6 0c0.3 0 0.2 0.1 0 0q0.2 0.1 0.3 0.1 0.4 0.1 0.7 0.2c0.9 0.4 1.9-0.3 2.3-1.1 0.3-0.9 0-1.9-0.8-2.4z"/>
				</g>
			</g>
			<g id="&lt;Group&gt;">
				<path id="&lt;Path&gt;" class="s3" d="m523.1 324.9c1.9-3.8 5.4-6.6 9.3-8.4-3.4-0.3-19.8-1.8-23.9 0.5-4.6 2.6 0.8 13.2 10.4 13.7 1 0.1 1.9 0 2.8-0.2 0.1-1.9 0.5-3.8 1.4-5.6z"/>
			</g>
			<g id="&lt;Group&gt;">
				<path id="&lt;Path&gt;" class="s9" d="m447.5 302.7c0 0 1.6 6.4 11.2 13.9 9.5 7.4 23.3 12.9 23.3 12.9l1.1-4.8c0 0-14.3-6.2-20.9-13.1-6.7-6.8-7.5-10.5-7.5-10.5z"/>
			</g>
			<g id="&lt;Group&gt;">
				<path id="&lt;Path&gt;" class="s3" d="m484.7 321.1c7.7-0.4 12 5.7 12.5 9.6 0.5 3.9-3.2 8.3-11.8 4.5-10.7-4.8-8.3-13.8-0.7-14.1z"/>
			</g>
			<g id="&lt;Group&gt;">
				<path id="&lt;Path&gt;" class="s9" d="m453.5 255.4c0 0 3.3-23.8 19.2-40 30.4-30.8 56.3-28.9 56.3-28.9 0 0-0.2-4.4-9.9-7.7-9.2-3.1-13.3-1.4-13.3-1.4 0 0-25 2-46.1 25.4-21.1 23.4-23.4 53.2-23.4 53.2z"/>
			</g>
			<g id="&lt;Group&gt;">
				<g id="&lt;Group&gt;">
					<path id="&lt;Path&gt;" class="s4" d="m451.2 252.5c-19.9-3.4-31 12.2-31.9 27.9-0.8 15.7 10.6 27.7 25.9 26.5 34.3-2.7 30.4-50.3 6-54.4z"/>
				</g>
				<g id="&lt;Group&gt;">
					<path id="&lt;Path&gt;" class="s10" d="m441.3 291.6c-5.3 0-9.7-2.7-12.3-7.3-2.7-5-2.5-11.1 0.6-15.6 0.3-0.4 0.7-0.5 1.1-0.2 0.3 0.2 0.4 0.7 0.2 1-2.8 4.1-3 9.6-0.5 14.1 2.3 4.2 6.4 6.7 11.3 6.5 4.5-0.1 8.4-2.2 10.8-5.9 2.8-4.2 3.5-9.9 1.7-14.7-1.8-4.7-6.7-7.9-11.2-7.3-0.4 0-0.8-0.2-0.8-0.7-0.1-0.4 0.2-0.7 0.6-0.8 5.2-0.7 10.7 2.9 12.8 8.3 1.9 5.2 1.2 11.5-1.8 16.1-2.8 4-7 6.3-12.1 6.5q-0.2 0-0.4 0z"/>
				</g>
			</g>
			<g id="&lt;Group&gt;">
				<path id="&lt;Path&gt;" class="s3" d="m426.8 356.5c0 0-60.4 14.9-81.5 38.9-21.1 24-31.1 142.4-31.5 164.3-0.4 21.9 14.9 31 24 37.2 9.1 6.2 49.3 17.4 81.5 19.1 32.3 1.6 62.9 0 62.9 0 0 0-0.1-7.1 4.9-17.4 4.6-9.6 10.4-11.6 10.4-11.6l-27.7-9.9c0 0-4.8-87-12.4-129.1-8.7-48.4-30.6-91.5-30.6-91.5z"/>
			</g>
			<g id="&lt;Group&gt;">
				<path id="&lt;Path&gt;" class="s7" d="m526.9 563.2q-0.2 0-0.4-0.1c-0.5-0.2-0.7-0.8-0.5-1.3 5.7-12.8 11.5-37.9 14.8-55.5l0.3-1.4c1-5.2 2.3-11.6-0.2-16-1.3-2.3-4.2-7.2-6.9-11.9-2.9-4.9-5.5-9.6-6.3-11-1.5-2.7 3.1-9.9 9.8-19.8 1.8-2.7 3.3-5 4.2-6.5 2.4-4.1 0.8-7.9-1-12.2l-0.6-1.5c-1.7-4.1-3.6-8.1-5.4-12.1q-1.1-2.4-2.2-4.8-1.5-3.2-2.9-6.5c-5.9-13.1-11.9-26.5-19.7-39.6-0.3-0.4-0.1-1.1 0.4-1.3 0.5-0.3 1.1-0.2 1.3 0.3 7.8 13.1 13.9 26.7 19.8 39.8q1.5 3.3 2.9 6.5 1.1 2.4 2.2 4.8c1.9 3.9 3.7 8 5.4 12.1l0.6 1.5c1.9 4.4 3.8 9 1 14-1 1.6-2.5 3.9-4.4 6.6-3.4 5.2-10.6 15.9-9.6 17.8 0.7 1.3 3.4 6 6.2 10.9 2.8 4.7 5.7 9.6 6.9 11.9 2.9 5.1 1.5 11.9 0.5 17.4l-0.3 1.4c-1.2 6.4-7.6 39.2-15 55.9-0.1 0.4-0.5 0.6-0.9 0.6z"/>
			</g>
			<g id="&lt;Group&gt;">
				<path id="&lt;Path&gt;" class="s7" d="m468 566.7c-0.3 0-0.6-0.1-0.7-0.3-4.8-4.7-27.4-44-29.1-51.4-0.9-4 1.4-14.3 3.6-24.2 1.8-7.7 3.6-15.6 3.1-17.8-0.8-3.2-6.6-7.9-12.2-12.5-6.8-5.5-13.8-11.3-15.2-16.4-1.5-5.9-0.2-42.5 0.7-66.8 0.3-8.7 0.6-15.6 0.6-18.1 0-0.5 0.4-1 1-1q0 0 0 0c0.5 0 1 0.5 1 1 0 2.5-0.3 9.4-0.6 18.2-0.8 22.6-2.2 60.6-0.7 66.2 1.2 4.5 8.2 10.3 14.4 15.4 6.2 5 12 9.7 12.9 13.6 0.6 2.6-1.1 10-3 18.6-2.1 9.3-4.5 19.8-3.7 23.4 1.7 7.2 24 45.7 28.6 50.4 0.4 0.4 0.4 1 0 1.4q-0.3 0.3-0.7 0.3z"/>
			</g>
			<g id="&lt;Group&gt;">
				<path id="&lt;Path&gt;" class="s7" d="m386.7 549.5q-0.1 0-0.2 0c-0.5-0.1-0.9-0.6-0.8-1.1 0.7-5.2 12.2-108.8 12.7-116.8 0-0.5 0.5-0.9 1.1-0.9 0.5 0.1 0.9 0.5 0.9 1.1-0.5 7.9-12 111.7-12.8 116.9 0 0.5-0.5 0.8-0.9 0.8z"/>
			</g>
			<g id="&lt;Group&gt;">
				<path id="&lt;Path&gt;" class="s7" d="m469 577.7q-0.2 0-0.4-0.1c-2.5-1-13.8-4.8-28-9.6-28.7-9.7-68-23-75.5-26.9-0.5-0.2-0.7-0.8-0.4-1.3 0.2-0.5 0.8-0.7 1.3-0.4 7.3 3.8 48.2 17.6 75.2 26.7 14.3 4.8 25.6 8.6 28.2 9.6 0.5 0.2 0.7 0.8 0.5 1.3-0.1 0.4-0.5 0.7-0.9 0.7z"/>
			</g>
			<g id="&lt;Group&gt;">
				<path id="&lt;Path&gt;" class="s7" d="m455.2 618.9c-25.3 0-74.3-4.5-111.5-17.7-0.5-0.2-0.8-0.8-0.6-1.3 0.2-0.5 0.7-0.8 1.3-0.6 47 16.6 112.8 19.5 125 16.7 0.5-0.1 1.1 0.3 1.2 0.8 0.1 0.5-0.2 1.1-0.8 1.2-2.6 0.6-7.7 0.9-14.6 0.9z"/>
			</g>
		</g>
		<g id="&lt;Group&gt;">
			<g id="&lt;Group&gt;">
				<g id="&lt;Group&gt;">
					<path id="&lt;Compound Path&gt;" class="s11" d="m165.9 370.5c7.9 6.9 17.8 11.3 24.7 19.3 2.7 3.1 5.1 6.5 7.6 9.8 1.9 2.4 6.8 6.3 7.6 9.3 0.3 1.4 0.2-0.4-0.1-1.8q-0.1 0-0.1-0.1c-0.7-6.1-1.2-12.2-1.4-18.4-0.2-6.1 0.2-12.2-0.2-18.4-0.5-8.6-3.2-16.9-10.3-22.3-3.4-2.6-7.8-4.3-11-7.2-3-2.8-1.8-5.9 0-9 1.6-2.9 3.6-5.8 4.3-9.1 0.7-3.8-0.7-7.8-2.6-11-4.1-6.9-13.2-14.5-21.8-13.5-7.2 0.9-8 9.1-7.9 14.9 0.1 5.6 0.6 11.2 0.7 16.8 0 5.8-0.9 11.4-1 17.2-0.2 9.7 4.3 17.2 11.5 23.5z"/>
					<path id="&lt;Compound Path&gt;" class="s11" d="m238.8 460c2.2-5.2 4.7-10 7.8-14.8 4.2-6.5 8.9-12.8 11.7-20.1 2.9-7.4 2.5-15.4 2.8-23.2 0.2-5.7 1.9-11.5 1.5-17.3-0.3-2.7-1.9-7.2-5.4-6.7-2.8 0.3-4.5 3.8-5.5 6-1.9 3.8-3.2 7.9-4.6 12-0.5 1.5-1 3.1-1.7 4.7-0.4 0.8-1.7 3-2.9 2.7-2-0.5-0.2-8.8 0.1-10.3 1.5-7.3 3.8-14.2 4.1-21.8 0.5-11-0.3-24.1-11.1-30.2-2.8-1.5-6.4-2.5-9.1-0.1-2.6 2.3-3.4 6.3-3.8 9.6-1.2 10.2 1.2 19.9 4.5 29.4 2.7 7.9 5.9 16.1 6.1 24.5 0.2 8.2-4 15.4-6 23.1-3.1 12.2-2.5 18.7-2.5 22.7 0 4.9 0.2 9.9 0.5 14.8 0.4 4.6 0.8 9.1 1.3 13.7q0.2 1.3 0.4 2.8c-1.8-4.2-2.4-9-3.9-13.3-2.5-7.5-5.5-14.9-8-22.4-2-6.3-4-12.6-6.7-18.6-2.5-5.6-5.5-11.6-10.3-15.7-2.8-2.5-6.3-4-10.1-4-2.4 0.1-4.6 0.9-6.9 1.5-2.9 0.8-5.2 0.5-7.5-1.3-7.8-5.9-10.1-16.6-15.8-24.1-4.3-5.6-14.4-15.1-21.8-9-4 3.2-5.1 9.5-4.9 14.3 0.3 6 2.9 11.5 6.1 16.6 3.3 5.3 7.6 10.1 10.7 15.6 1.8 3.3 2.1 6.4 1.8 10.1-0.3 3.4-0.6 6.8 0.6 10.1 3.5 10 14.6 8.6 23.2 8.9 6 0.2 12.4 1.1 18.2 3 6.6 2.2 10.9 6.5 13.2 13 1.7 4.8 2.6 10.1 5.9 14.1 1.5 1.9 3.5 3.3 5.7 4.3 3.3 1.5 13.5 2.1 13.6 1.2 0.3-3.1 1.8-6.4 2.7-9.4 1.7-5.6 3.8-11 6-16.4z"/>
					<path id="&lt;Compound Path&gt;" class="s11" d="m286.3 458.2c-0.9-5.8-0.7-12.1-3.5-17.3-0.1-0.4-0.7-0.5-1-0.3-2 1.1-2 4.2-2.2 6.1-0.3 3.2-0.1 6.4-0.5 9.6-0.6 5.6-1.9 11.3-3.9 16.6-2.3 6-6.5 9.4-12.5 11.2-3.9 1.2-7.7 2.3-10.9 4.8-2.9 2.3-4.9 5.5-6.4 8.8-4 9.1-5.9 19.1-7.8 28.8-1.2 6.4-2.2 13-3.8 19.4-1.6 6.4-3.3 12.8-4.2 19.3q-0.2 0.5-0.4 1c-0.5 1 1.1 1.5 1.6 0.7 6.2-9.6 13.8-18.1 24.1-23.4 4.7-2.4 10.9-2.9 14.8-6.6 2.9-2.9 3.3-7.2 2.9-11.1-0.6-5.1-3-9.2-5.6-13.6-1.4-2.3-3-4.9-2.4-7.8 0.5-2.7 2.8-4.7 5-6.1 4.3-2.7 9.3-3.9 12.8-7.7 3.3-3.6 5.1-8 5.5-12.8 0.5-6.4-0.6-13.3-1.6-19.6z"/>
					<path id="&lt;Compound Path&gt;" class="s11" d="m201.5 491.2c-5.4-7.1-12.1-13.2-19.5-18.1-4-2.7-13.3-7.9-15.2-0.1-1.1 4.6 3.3 9.1 6.3 11.9 4.4 4.3 9.5 8 13.2 13-4.6 1.5-9.4 1.7-13.4 4.9-4.8 3.8-6.9 11.1-2.2 15.7 2.3 2.3 5.3 3.7 8.2 5.1 3.7 1.7 7.5 3.4 11.3 5 8.2 3.4 16.5 6.9 23.5 12.5 7.2 5.7 13.9 15.4 14.4 24.8 0.1 0.9-0.2 0 0.3-0.4 0.3 0.3 1.3-0.2 1.3-0.7-0.2-13.9-2.7-27.1-8.4-39.8-5.2-11.8-11.8-23.6-19.8-33.8z"/>
				</g>
				<g id="&lt;Group&gt;">
					<path id="&lt;Path&gt;" class="s12" d="m182.6 362.1c3 6.3 6.2 12.4 9.6 18.5 3.2 5.9 6.4 11.8 8.8 18 3 7.8 6.1 15.4 9.3 23.1 3.3 8 6.2 16.1 8.5 24.4 4.6 16.2 8 32.9 9.7 49.6 0.8 8.5 1.2 17.1 1 25.7-0.2 6.6-0.9 13.3-1.6 19.9-0.6 6.9-1.1 13.9-0.5 20.9 0.5 5.8 1.4 12.7 5.9 16.8 0.9 0.9 2.1-0.2 1.6-1.2-5.3-11-5-23-4-34.9 0.6-6.5 1.3-13.1 1.6-19.7 0.2-8.4-0.1-16.8-0.9-25.2-1.5-16.4-4.8-32.7-9.1-48.6-2.1-8.2-4.8-16.2-8-24.1-3.1-7.8-6.7-15.5-9.7-23.4-5.4-14.4-13.8-27.1-21.1-40.4-0.4-0.7-1.4-0.1-1.1 0.6z"/>
				</g>
				<g id="&lt;Group&gt;">
					<path id="&lt;Path&gt;" class="s12" d="m228.7 479.3c0.9-10.5 1.8-20.5 5.3-30.5 1.7-4.6 3.7-9.1 5.3-13.8 1.3-3.8 3.2-9.1 2.2-13.2-0.1-0.5-0.8-0.5-0.9 0-0.7 2.3-0.6 4.9-1.1 7.3-0.4 2.3-1.1 4.6-1.8 6.9-1.5 4.8-3.6 9.4-5.3 14.2-3.4 9.1-5.1 19.3-4.4 29.1 0.1 0.4 0.7 0.4 0.7 0z"/>
				</g>
				<g id="&lt;Group&gt;">
					<path id="&lt;Path&gt;" class="s12" d="m168.2 419.3c4.2 10 16.6 10.6 25.7 12.8 6.5 1.6 11.3 5.9 14.7 11.6 3.8 6.1 6.3 13.3 8.4 20.2 0 0 0.1 0 0.1-0.1-2.5-12-6.1-26.4-18.5-32-9.9-4.5-23-2.2-29.3-12.9-0.3-0.6-1.3-0.2-1.1 0.4z"/>
				</g>
				<g id="&lt;Group&gt;">
					<path id="&lt;Path&gt;" class="s12" d="m222.2 477.7c0.5 0.7 0.9 1.4 1.4 2 0.3 0.3 0.5 0.6 0.9 0.9 0.3 0.3 0.7 0.6 1.1 0.6 0.2 0 0.3-0.2 0.2-0.4-0.2-0.3-0.5-0.5-0.8-0.8q-0.5-0.4-0.9-0.8c-0.6-0.5-1.1-1.1-1.7-1.7-0.1-0.1-0.3 0.1-0.2 0.2z"/>
				</g>
				<g id="&lt;Group&gt;">
					<path id="&lt;Path&gt;" class="s12" d="m196.3 509.5c7.1 5.8 13.7 12.8 19 20.4 2.5 3.6 4.8 7.4 6.9 11.3 2.3 4.3 3.8 8.8 5.6 13.2 0.1 0.4 0.7 0.4 0.7-0.1-1-9.4-7-17.5-11.8-25.3-2.5-4.1-5.5-7.3-8.9-10.7-3.4-3.5-6.9-6.9-10.9-9.7-0.5-0.3-1.1 0.5-0.6 0.9z"/>
				</g>
				<g id="&lt;Group&gt;">
					<path id="&lt;Path&gt;" class="s12" d="m253.2 498.4c-3.5 1.9-3.6 7.4-3.6 10.8-0.2 6.7 1.5 13-1.4 19.3-2.7 5.8-6.9 10.6-10.2 15.9-3.1 5-6.2 11.4-6.1 17.4 0 0.3 0.5 0.5 0.7 0.2 1.2-2.8 1.7-5.9 2.6-8.7 1-3.2 2.4-6.2 4.2-9 3.2-4.9 7.1-9.4 9.7-14.8 2.7-5.6 2.3-11.1 2.2-17.2-0.2-3.9-0.5-10.1 2.6-13 0.5-0.5-0.2-1.2-0.7-0.9z"/>
				</g>
			</g>
			<path id="&lt;Path&gt;" class="s4" d="m230.2 562.4c-13.9-0.2-40.3-0.4-40.3-0.4l6.5 48.6c1.5 10.9 10.8 19 21.8 19h11.4 1.1 11.4c11 0 20.3-8.1 21.8-19l6.5-48.6c0 0-26.4 0.2-40.2 0.4z"/>
		</g>
		<g id="&lt;Group&gt;">
			<g id="&lt;Group&gt;">
				<g id="&lt;Group&gt;">
					<path id="&lt;Path&gt;" class="s13" d="m900.4 473.2l-79.1 156.7-230.6 1.7 71.1-160.6z"/>
				</g>
				<g id="&lt;Group&gt;">
					<path id="&lt;Path&gt;" class="s14" d="m437.6 630.6v-12.6h149.3l68.7-150.6h238.8l6 5.8h-233.3l-71.3 157.3c0 0-158.2-0.3-158.2 0.1z"/>
				</g>
				<g id="&lt;Group&gt;">
					<path id="&lt;Path&gt;" class="s14" d="m780.6 559.7c-2.6 7.8-16.7 13.8-31.6 13.5-14.8-0.4-24.7-7-22.1-14.9 2.6-7.8 16.7-13.8 31.6-13.4 14.8 0.3 24.7 7 22.1 14.8z"/>
				</g>
			</g>
			<g id="&lt;Group&gt;">
				<path id="&lt;Path&gt;" class="s4" d="m595.8 631.5q-0.3 0-0.5-0.1c-0.5-0.3-0.7-0.9-0.5-1.4l71.7-157.8h233.9c0.5 0 1 0.5 1 1 0 0.6-0.5 1-1 1h-232.6l-71.1 156.7c-0.2 0.3-0.6 0.6-0.9 0.6z"/>
			</g>
		</g>
		<g id="&lt;Group&gt;">
			<g id="&lt;Group&gt;">
				<path id="&lt;Path&gt;" class="s15" d="m427.2 703.3h-274.3v-60.8h274.3z"/>
				<path id="&lt;Path&gt;" class="s16" d="m919.2 703.3h-493.6v-60.8h493.6z"/>
			</g>
			<path id="&lt;Path&gt;" class="s17" d="m427.2 642.5h-1.6-272.7v11.1h272.7 1.6 492v-11.1z"/>
			<path id="&lt;Path&gt;" class="s18" d="m439.2 645.4h-299.6v-14.9h299.6z"/>
			<path id="&lt;Path&gt;" class="s19" d="m931.2 645.4h-493.6v-14.9h493.6z"/>
		</g>
		<g id="&lt;Group&gt;">
			<path id="&lt;Path&gt;" class="s4" d="m357.9 311.3h-96.8c-6 0-10.9-4.8-10.9-10.8v-48.4c0-6 4.9-10.8 10.9-10.8h96.8c6 0 10.9 4.8 10.9 10.8v48.4c0 6-4.9 10.8-10.9 10.8z"/>
			<path id="&lt;Path&gt;" class="s4" d="m396.4 276.3l-36.4-15.4v30.7z"/>
			<g id="&lt;Group&gt;">
				<path id="&lt;Path&gt;" class="s3" d="m293.2 276.3c0 3.7-3 6.7-6.7 6.7-3.7 0-6.7-3-6.7-6.7 0-3.7 3-6.7 6.7-6.7 3.7 0 6.7 3 6.7 6.7z"/>
				<path id="&lt;Path&gt;" class="s3" d="m316.2 276.3c0 3.7-3 6.7-6.7 6.7-3.7 0-6.7-3-6.7-6.7 0-3.7 3-6.7 6.7-6.7 3.7 0 6.7 3 6.7 6.7z"/>
				<path id="&lt;Path&gt;" class="s3" d="m339.2 276.3c0 3.7-3 6.7-6.7 6.7-3.7 0-6.7-3-6.7-6.7 0-3.7 3-6.7 6.7-6.7 3.7 0 6.7 3 6.7 6.7z"/>
			</g>
		</g>
		<g id="&lt;Group&gt;">
			<path id="&lt;Path&gt;" class="s2" d="m851 92.5h-223.6c-14.3 0-26 11.7-26 26v106.1c0 14.4 11.7 26 26 26h20.1c0.5 9.6-0.9 23.9-8.9 42.2 25.8-11.9 40.7-29.8 48.5-42.2h163.9c14.4 0 26-11.6 26-26v-106.1c0-14.3-11.6-26-26-26z"/>
			<path id="&lt;Path&gt;" class="s4" d="m755.6 143.1h-110.9c-3 0-5.5-2.5-5.5-5.5 0-3.1 2.5-5.6 5.5-5.6h110.9c3.1 0 5.5 2.5 5.5 5.6 0 3-2.4 5.5-5.5 5.5z"/>
			<path id="&lt;Path&gt;" class="s20" d="m835.1 175.2h-192.5c-1.9 0-3.4-1.5-3.4-3.4 0-1.8 1.5-3.3 3.4-3.3h192.5c1.9 0 3.4 1.5 3.4 3.3 0 1.9-1.5 3.4-3.4 3.4z"/>
			<path id="&lt;Path&gt;" class="s20" d="m835.1 194h-192.5c-1.9 0-3.4-1.5-3.4-3.4 0-1.9 1.5-3.4 3.4-3.4h192.5c1.9 0 3.4 1.5 3.4 3.4 0 1.9-1.5 3.4-3.4 3.4z"/>
			<path id="&lt;Path&gt;" class="s20" d="m793.1 214h-150.5c-1.9 0-3.4-1.5-3.4-3.4 0-1.9 1.5-3.4 3.4-3.4h150.5c1.9 0 3.4 1.5 3.4 3.4 0 1.9-1.5 3.4-3.4 3.4z"/>
			<path id="&lt;Path&gt;" class="s4" d="m833.6 143.1h-52.9c-3 0-5.5-2.5-5.5-5.5 0-3.1 2.5-5.6 5.5-5.6h52.9c3.1 0 5.5 2.5 5.5 5.6 0 3-2.4 5.5-5.5 5.5z"/>
		</g>
		<g id="&lt;Group&gt;">
			<path id="&lt;Path&gt;" class="s4" d="m700.3 387h-60.1c-2.2 0-4-1.8-4-4v-41c0-2.2 1.8-4 4-4h60.1c2.2 0 4 1.8 4 4v41c0 2.2-1.8 4-4 4z"/>
			<g id="&lt;Group&gt;">
				<g id="&lt;Group&gt;">
					<path id="&lt;Path&gt;" class="s18" d="m670.7 369.8c-0.4 0-0.7-0.1-1-0.3l-32.7-27c-0.6-0.6-0.7-1.5-0.2-2.1 0.6-0.7 1.5-0.8 2.1-0.2l31.7 26.2 30.9-26.9c0.7-0.6 1.6-0.5 2.2 0.1 0.5 0.6 0.4 1.6-0.2 2.1l-31.8 27.7c-0.3 0.3-0.7 0.4-1 0.4z"/>
				</g>
				<g id="&lt;Group&gt;">
					<path id="&lt;Path&gt;" class="s18" d="m638 385.9c-0.4 0-0.8-0.1-1.1-0.4-0.6-0.6-0.6-1.5 0-2.1l22.9-24.1c0.5-0.6 1.5-0.6 2.1 0 0.6 0.5 0.6 1.5 0 2.1l-22.8 24c-0.3 0.3-0.7 0.5-1.1 0.5z"/>
				</g>
				<g id="&lt;Group&gt;">
					<path id="&lt;Path&gt;" class="s18" d="m702.5 385c-0.4 0-0.7-0.1-1-0.4l-22.8-22.9c-0.6-0.6-0.6-1.5 0-2.1 0.6-0.6 1.5-0.6 2.1 0l22.8 22.8c0.6 0.6 0.6 1.6 0 2.2-0.3 0.3-0.7 0.4-1.1 0.4z"/>
				</g>
			</g>
			<g id="&lt;Group&gt;">
				<g id="&lt;Group&gt;">
					<path id="&lt;Path&gt;" class="s21" d="m727.5 336.5c0 11-9 20-20.1 20-11.1 0-20.1-9-20.1-20 0-11.1 9-20.1 20.1-20.1 11.1 0 20.1 9 20.1 20.1z"/>
				</g>
				<text id="85
" style="transform: matrix(2,0,0,2,693.304,344.925)" >
					<tspan x="0" y="0" class="t22">85
</tspan>
				</text>
			</g>
		</g>
		<g id="&lt;Group&gt;">
			<g id="&lt;Group&gt;">
				<path id="&lt;Path&gt;" class="s3" d="m909 329.1h-117.3c-4.4 0-8-3.6-8-8v-18.4c0-4.4 3.6-8 8-8h117.3c4.4 0 8 3.6 8 8v18.4c0 4.4-3.6 8-8 8z"/>
			</g>
			<g id="&lt;Group&gt;">
				<path id="&lt;Compound Path&gt;" class="s4" d="m800.2 320.9q-0.8 0-1.3-0.6-0.4-0.5-0.4-1.4l0.5-4.4q0.1-0.2 0-0.2-0.2-0.1-0.3 0l-3.7 2.7q-0.7 0.5-1.4 0.3-0.7-0.1-1.2-0.8-0.5-0.9-0.2-1.6 0.3-0.7 1.1-1l4.1-1.8q0.2-0.1 0.2-0.2 0-0.1-0.2-0.2l-4.1-1.8q-0.8-0.4-1-1.1-0.3-0.7 0.1-1.5 0.5-0.7 1.2-0.8 0.7-0.2 1.4 0.3l3.7 2.7q0.1 0.1 0.3 0 0.1 0 0-0.2l-0.5-4.4q0-0.9 0.5-1.4 0.5-0.6 1.3-0.6 0.8 0 1.3 0.6 0.5 0.5 0.4 1.4l-0.5 4.4q-0.1 0.2 0 0.2 0.2 0.1 0.3 0l3.7-2.7q0.7-0.5 1.4-0.3 0.8 0.1 1.2 0.8 0.5 0.9 0.2 1.6-0.3 0.7-1.1 1l-4.1 1.8q-0.1 0.1-0.1 0.2 0 0.1 0.1 0.2l4.1 1.8q0.8 0.4 1.1 1.1 0.2 0.7-0.2 1.5-0.4 0.7-1.2 0.8-0.7 0.2-1.4-0.3l-3.7-2.7q-0.1-0.1-0.3 0-0.1 0 0 0.2l0.5 4.4q0.1 0.9-0.4 1.4-0.6 0.6-1.4 0.6z"/>
			</g>
			<g id="&lt;Group&gt;">
				<path id="&lt;Compound Path&gt;" class="s4" d="m824.4 320.9q-0.7 0-1.2-0.6-0.5-0.5-0.4-1.4l0.5-4.4q0-0.2-0.1-0.2-0.1-0.1-0.3 0l-3.6 2.7q-0.7 0.5-1.4 0.3-0.8-0.1-1.2-0.8-0.5-0.9-0.2-1.6 0.3-0.7 1-1l4.1-1.8q0.2-0.1 0.2-0.2 0-0.1-0.2-0.2l-4.1-1.8q-0.8-0.4-1-1.1-0.2-0.7 0.2-1.5 0.4-0.7 1.2-0.8 0.7-0.2 1.4 0.3l3.6 2.7q0.2 0.1 0.3 0 0.1 0 0.1-0.2l-0.5-4.4q-0.1-0.9 0.4-1.4 0.5-0.6 1.4-0.6 0.7 0 1.3 0.6 0.5 0.5 0.3 1.4l-0.5 4.4q0 0.2 0.1 0.2 0.1 0.1 0.3 0l3.6-2.7q0.7-0.5 1.5-0.3 0.7 0.1 1.1 0.8 0.5 0.9 0.2 1.6-0.3 0.7-1 1l-4.1 1.8q-0.2 0.1-0.2 0.2 0 0.1 0.2 0.2l4.1 1.8q0.8 0.4 1 1.1 0.3 0.7-0.2 1.5-0.4 0.7-1.1 0.8-0.8 0.2-1.5-0.3l-3.6-2.7q-0.2-0.1-0.3 0-0.1 0-0.1 0.2l0.5 4.4q0.2 0.9-0.4 1.4-0.5 0.6-1.4 0.6z"/>
			</g>
			<g id="&lt;Group&gt;">
				<path id="&lt;Compound Path&gt;" class="s4" d="m848.7 320.9q-0.8 0-1.3-0.6-0.5-0.5-0.4-1.4l0.5-4.4q0.1-0.2 0-0.2-0.2-0.1-0.3 0l-3.7 2.7q-0.7 0.5-1.4 0.3-0.7-0.1-1.2-0.8-0.5-0.9-0.2-1.6 0.3-0.7 1.1-1l4.1-1.8q0.2-0.1 0.2-0.2 0-0.1-0.2-0.2l-4.1-1.8q-0.8-0.4-1-1.1-0.3-0.7 0.1-1.5 0.5-0.7 1.2-0.8 0.7-0.2 1.4 0.3l3.7 2.7q0.1 0.1 0.3 0 0.1 0 0-0.2l-0.5-4.4q0-0.9 0.5-1.4 0.5-0.6 1.3-0.6 0.8 0 1.3 0.6 0.5 0.5 0.4 1.4l-0.5 4.4q-0.1 0.2 0 0.2 0.2 0.1 0.3 0l3.7-2.7q0.7-0.5 1.4-0.3 0.8 0.1 1.2 0.8 0.5 0.9 0.2 1.6-0.3 0.7-1.1 1l-4.1 1.8q-0.1 0.1-0.1 0.2 0 0.1 0.1 0.2l4.1 1.8q0.8 0.4 1.1 1.1 0.2 0.7-0.2 1.5-0.4 0.7-1.2 0.8-0.7 0.2-1.4-0.3l-3.7-2.7q-0.1-0.1-0.3 0-0.1 0 0 0.2l0.5 4.4q0.1 0.9-0.4 1.4-0.6 0.6-1.4 0.6z"/>
			</g>
			<g id="&lt;Group&gt;">
				<path id="&lt;Compound Path&gt;" class="s4" d="m872.9 320.9q-0.7 0-1.2-0.6-0.5-0.5-0.4-1.4l0.5-4.4q0-0.2-0.1-0.2-0.1-0.1-0.3 0l-3.6 2.7q-0.7 0.5-1.4 0.3-0.8-0.1-1.2-0.8-0.5-0.9-0.2-1.6 0.3-0.7 1-1l4.1-1.8q0.2-0.1 0.2-0.2 0-0.1-0.2-0.2l-4.1-1.8q-0.8-0.4-1-1.1-0.2-0.7 0.2-1.5 0.4-0.7 1.2-0.8 0.7-0.2 1.4 0.3l3.6 2.7q0.2 0.1 0.3 0 0.1 0 0.1-0.2l-0.5-4.4q-0.1-0.9 0.4-1.4 0.5-0.6 1.4-0.6 0.7 0 1.3 0.6 0.5 0.5 0.3 1.4l-0.5 4.4q0 0.2 0.1 0.2 0.1 0.1 0.3 0l3.6-2.7q0.7-0.5 1.5-0.3 0.7 0.1 1.1 0.8 0.5 0.9 0.2 1.6-0.3 0.7-1 1l-4.1 1.8q-0.2 0.1-0.2 0.2 0 0.1 0.2 0.2l4.1 1.8q0.8 0.4 1 1.1 0.3 0.7-0.2 1.5-0.4 0.7-1.1 0.8-0.8 0.2-1.5-0.3l-3.6-2.7q-0.2-0.1-0.3 0-0.1 0-0.1 0.2l0.5 4.4q0.2 0.9-0.4 1.4-0.5 0.6-1.4 0.6z"/>
			</g>
			<g id="&lt;Group&gt;">
				<path id="&lt;Compound Path&gt;" class="s23" d="m897.2 320.9q-0.8 0-1.3-0.6-0.5-0.5-0.4-1.4l0.5-4.4q0.1-0.2 0-0.2-0.2-0.1-0.3 0l-3.7 2.7q-0.7 0.5-1.4 0.3-0.7-0.1-1.2-0.8-0.5-0.9-0.2-1.6 0.3-0.7 1.1-1l4.1-1.8q0.1-0.1 0.1-0.2 0-0.1-0.1-0.2l-4.1-1.8q-0.8-0.4-1-1.1-0.3-0.7 0.1-1.5 0.5-0.7 1.2-0.8 0.7-0.2 1.4 0.3l3.7 2.7q0.1 0.1 0.3 0 0.1 0 0-0.2l-0.5-4.4q-0.1-0.9 0.5-1.4 0.5-0.6 1.3-0.6 0.8 0 1.3 0.6 0.5 0.5 0.4 1.4l-0.5 4.4q-0.1 0.2 0 0.2 0.2 0.1 0.3 0l3.7-2.7q0.7-0.5 1.4-0.3 0.8 0.1 1.2 0.8 0.5 0.9 0.2 1.6-0.3 0.7-1.1 1l-4.1 1.8q-0.1 0.1-0.1 0.2 0 0.1 0.1 0.2l4.1 1.8q0.8 0.4 1.1 1.1 0.2 0.7-0.2 1.5-0.4 0.7-1.2 0.8-0.7 0.2-1.4-0.3l-3.7-2.7q-0.1-0.1-0.3 0-0.1 0 0 0.2l0.5 4.4q0.1 0.9-0.4 1.4-0.6 0.6-1.4 0.6z"/>
			</g>
		</g>
	</g>
</svg>