<svg version="1.2" xmlns="http://www.w3.org/2000/svg" viewBox="0 0 1000 693" width="1000" height="693">
	<title>5057940-ai</title>
	<style>
		.s0 { fill: #e0e0e0 } 
		.s1 { fill: #ebebeb } 
		.s2 { fill: #f0f0f0 } 
		.s3 { fill: #f5f5f5 } 
		.s4 { fill: #fafafa } 
		.s5 { fill: #e6e6e6 } 
		.s6 { opacity: .6;fill: #f0f0f0 } 
		.s7 { opacity: .6;fill: #fafafa } 
		.s8 { opacity: .6;fill: #f5f5f5 } 
		.s9 { fill: #407bff } 
		.s10 { opacity: .2;fill: #000000 } 
		.s11 { opacity: .5;fill: #ffffff } 
		.s12 { opacity: .6;fill: #ffffff } 
		.s13 { opacity: .2;fill: #ffffff } 
		.s14 { opacity: .8;fill: #ffffff } 
		.s15 { opacity: .5;fill: #263238 } 
		.s16 { fill: #ffffff } 
		.s17 { opacity: .9;fill: #ffffff } 
		.s18 { fill: #263238 } 
		.s19 { fill: #000000 } 
		.s20 { opacity: .3;fill: #000000 } 
		.s21 { opacity: .3;fill: #ffffff } 
		.s22 { opacity: .4;fill: #ffffff } 
		.s23 { opacity: .1;fill: #ffffff } 
		.s24 { opacity: .1;fill: #000000 } 
		.s25 { opacity: .7;fill: #ffffff } 
		.s26 { fill: #fcc1bb } 
		.s27 { fill: #eb827e } 
		.s28 { fill: #1a2e35 } 
		.s29 { opacity: .2;fill: #1a2e35 } 
		.s30 { fill: #ffc3bd } 
		.s31 { opacity: .5;fill: #000000 } 
	</style>
	<g id="Background Complete">
		<g id="&lt;Group&gt;">
			<path id="&lt;Path&gt;" class="s0" d="m171.7 205.5v-38.9h-3v38.9c-1.9 0.7-3.3 2.5-3.3 4.6v12.3c0 2.7 2.1 4.9 4.8 4.9 2.7 0 4.8-2.2 4.8-4.9v-12.3c0-2.1-1.4-3.9-3.3-4.6z"/>
			<path id="&lt;Path&gt;" class="s1" d="m186.3 605.1h-5.9v-438.5h5.9z"/>
			<path id="&lt;Path&gt;" class="s0" d="m222.4 606.9h-78c0-4 3.2-7.3 7.3-7.3h63.4c4 0 7.3 3.3 7.3 7.3z"/>
			<path id="&lt;Path&gt;" class="s0" d="m180.4 197.6l5.9-2v-29h-5.9z"/>
			<path id="&lt;Path&gt;" class="s2" d="m219.2 75.6h-71.6l-22 95h115.6z"/>
		</g>
		<g id="&lt;Group&gt;">
			<g id="&lt;Group&gt;">
				<g id="&lt;Group&gt;">
					<path id="&lt;Path&gt;" class="s1" d="m533.3 102.4v-17.1c-2.1 0-2.1-3.2 0-3.2q9.8-0.1 19.5-0.1v23.6q-9.7 0-19.5 0c-2.1 0-2.1-3.2 0-3.2z"/>
					<path id="&lt;Path&gt;" class="s3" d="m548.5 102.3h-15.2v-17h15.2z"/>
					<path id="&lt;Path&gt;" class="s4" d="m545.3 104h52.5c3.6 0 6.6-4.5 6.6-10.2 0-5.6-3-10.1-6.6-10.1h-52.5z"/>
					<g id="&lt;Group&gt;">
						<path id="&lt;Path&gt;" class="s5" d="m545.3 82.1c17.2 0 34.4-0.4 51.6 0 11.8 0.2 12.4 22.7 0.9 23.5-8.1 0.6-16.4 0-24.4 0q-14.1 0-28.1 0c-2.1 0-2.1-3.2 0-3.2q24.4 0 48.9 0c3.8 0 6.5-0.1 7.9-4.5 1.3-3.9 0.9-11.7-4.3-12.6-0.5-0.1-1.2 0-1.7 0q-13.4 0-26.7 0-12.1 0-24.1 0c-2.1 0-2.1-3.2 0-3.2z"/>
					</g>
				</g>
				<g id="&lt;Group&gt;">
					<path id="&lt;Path&gt;" class="s1" d="m533.1 79.3v-15.1c-1.8 0-1.8-2.9 0-2.9q8.7 0 17.4-0.1v21q-8.7 0-17.4 0c-1.8 0-1.8-2.9 0-2.9z"/>
					<path id="&lt;Path&gt;" class="s3" d="m546.6 79.3h-13.5v-15.1h13.5z"/>
					<path id="&lt;Path&gt;" class="s4" d="m543.8 80.8h46.7c3.2 0 5.8-4.1 5.8-9 0-5-2.6-9.1-5.8-9.1h-46.7z"/>
					<g id="&lt;Group&gt;">
						<path id="&lt;Path&gt;" class="s5" d="m543.8 61.3c15.3 0 30.6-0.3 45.9 0 10.4 0.2 11 20.2 0.7 20.9-7.1 0.5-14.5 0-21.7 0q-12.4 0-24.9 0c-1.9 0-1.9-2.9 0-2.9q21.7 0 43.5 0c3.3 0 5.7 0 7-4 1.1-3.4 0.8-10.4-3.8-11.1-0.5-0.1-1.1 0-1.6 0q-11.8 0-23.7 0-10.7 0-21.4 0c-1.9 0-1.9-2.9 0-2.9z"/>
					</g>
				</g>
				<g id="&lt;Group&gt;">
					<path id="&lt;Path&gt;" class="s1" d="m533.3 125.6v-17.1c-2.1 0-2.1-3.3 0-3.3q9.8 0 19.5-0.1v23.7q-9.7 0-19.5 0c-2.1 0-2.1-3.2 0-3.2z"/>
					<path id="&lt;Path&gt;" class="s3" d="m548.5 125.5h-15.2v-17h15.2z"/>
					<path id="&lt;Path&gt;" class="s4" d="m545.3 127.2h52.5c3.6 0 6.6-4.6 6.6-10.2 0-5.6-3-10.1-6.6-10.1h-52.5z"/>
					<g id="&lt;Group&gt;">
						<path id="&lt;Path&gt;" class="s5" d="m545.3 105.2c17.2 0 34.4-0.3 51.6 0 11.8 0.2 12.4 22.8 0.9 23.6-8.1 0.6-16.4 0-24.4 0q-14.1 0-28.1 0c-2.1 0-2.1-3.2 0-3.2q24.4 0 48.9 0c3.8 0 6.5-0.1 7.9-4.5 1.3-3.9 0.9-11.8-4.3-12.6-0.5-0.1-1.2 0-1.7 0q-13.4 0-26.7 0-12.1 0-24.1 0c-2.1 0-2.1-3.3 0-3.3z"/>
					</g>
				</g>
			</g>
			<g id="&lt;Group&gt;">
				<path id="&lt;Path&gt;" class="s3" d="m662.4 126.2h3.7 106.1v14.1h-106.1-3.7-353.9v-14.1z"/>
				<g id="&lt;Group&gt;">
					<path id="&lt;Path&gt;" class="s0" d="m746 174.5v-34.2h17.1z"/>
					<path id="&lt;Path&gt;" class="s3" d="m754.5 174.5l17.2-34.2h-8.6l-17.1 34.2z"/>
				</g>
				<g id="&lt;Group&gt;">
					<path id="&lt;Path&gt;" class="s0" d="m334.2 174.5v-34.2h-17.1z"/>
					<path id="&lt;Path&gt;" class="s3" d="m325.6 174.5l-17.1-34.2h8.6l17.1 34.2z"/>
				</g>
			</g>
			<g id="&lt;Group&gt;">
				<path id="&lt;Path&gt;" class="s5" d="m634.8 91.9c0 20.5 16.7 37.2 37.3 37.2 20.5 0 37.2-16.7 37.2-37.2v-1.3c0-20.6-16.7-37.3-37.2-37.3-20.6 0-37.3 16.7-37.3 37.3z"/>
				<path id="&lt;Path&gt;" class="s2" d="m634.8 86.5c0 20.6 16.7 37.3 37.3 37.3 20.5 0 37.2-16.7 37.2-37.3v-1.3c0-20.6-16.7-37.3-37.2-37.3-20.6 0-37.3 16.7-37.3 37.3z"/>
				<path id="&lt;Path&gt;" class="s4" d="m643 85.2c0 16.1 13 29.1 29.1 29.1 16 0 29.1-13 29.1-29.1 0-16.1-13.1-29.1-29.1-29.1-16.1 0-29.1 13-29.1 29.1z"/>
				<path id="&lt;Path&gt;" class="s5" d="m672.1 60.7c-15.3 0-27.9 11.8-29 26.8q-0.1-1.1-0.1-2.3c0-16.1 13-29.1 29.1-29.1 16 0 29.1 13 29.1 29.1q0 1.2-0.1 2.3c-1.2-15-13.7-26.8-29-26.8z"/>
				<path id="&lt;Path&gt;" class="s0" d="m653.7 85.2c0.9 0 10.3 0 15.3 0 0-5 0-14.5 0-15.3 0-1.7 1.4-3.1 3.1-3.1 1.7 0 3 1.4 3 3.1 0 1.1 0 17.2 0 18.4 0 1.7-1.3 3.1-3 3.1-1.2 0-17.3 0-18.4 0-1.7 0-3.1-1.4-3.1-3.1 0-1.7 1.4-3.1 3.1-3.1z"/>
				<path id="&lt;Path&gt;" class="s3" d="m653.7 88.3c-1.7 0-3.1-1.4-3.1-3.1 0-1.7 1.4-3.1 3.1-3.1 1.1 0 17.2 0 18.4 0 1.7 0 3 1.4 3 3.1 0 1.7-1.3 3.1-3 3.1-1.2 0-17.3 0-18.4 0z"/>
				<path id="&lt;Path&gt;" class="s1" d="m669 66.8c0-1.7 1.4-3.1 3.1-3.1 1.7 0 3 1.4 3 3.1 0 1.2 0 17.3 0 18.4 0 1.7-1.3 3.1-3 3.1-1.7 0-3.1-1.4-3.1-3.1 0-1.1 0-17.2 0-18.4z"/>
			</g>
			<g id="&lt;Group&gt;">
				<g id="&lt;Group&gt;">
					<path id="&lt;Path&gt;" class="s0" d="m437.9 126.7h22.5v-93.3h-22.5z"/>
					<path id="&lt;Path&gt;" class="s4" d="m442.2 106.7c0 3.9 3.1 7 6.9 7 3.9 0 7-3.1 7-7 0-3.8-3.1-6.9-7-6.9-3.8 0-6.9 3.1-6.9 6.9z"/>
					<path id="&lt;Path&gt;" class="s6" d="m442.2 87.3h13.9v-44.9h-13.9z"/>
					<path id="&lt;Path&gt;" class="s7" d="m442.2 48.7h13.9v-6.3h-13.9z"/>
				</g>
				<g id="&lt;Group&gt;">
					<path id="&lt;Path&gt;" class="s5" d="m421.1 126.7h18.1v-75.4h-18.1z"/>
					<path id="&lt;Path&gt;" class="s4" d="m424.6 110.6c0 3.1 2.5 5.6 5.5 5.6 3.1 0 5.6-2.5 5.6-5.6 0-3.1-2.5-5.6-5.6-5.6-3 0-5.5 2.5-5.5 5.6z"/>
					<path id="&lt;Path&gt;" class="s6" d="m424.6 94.9h11.1v-36.3h-11.1z"/>
					<path id="&lt;Path&gt;" class="s7" d="m424.6 63.7h11.1v-5.1h-11.1z"/>
				</g>
				<g id="&lt;Group&gt;">
					<path id="&lt;Path&gt;" class="s1" d="m474.9 126.7h22.4v-93.3h-22.4z"/>
					<path id="&lt;Path&gt;" class="s0" d="m479.2 106.7c0 3.9 3.1 7 6.9 7 3.8 0 6.9-3.1 6.9-7 0-3.8-3.1-6.9-6.9-6.9-3.8 0-6.9 3.1-6.9 6.9z"/>
					<path id="&lt;Path&gt;" class="s7" d="m479.2 87.3h13.8v-44.9h-13.8z"/>
					<path id="&lt;Path&gt;" class="s7" d="m479.2 48.7h13.8v-6.3h-13.8z"/>
				</g>
				<g id="&lt;Group&gt;">
					<path id="&lt;Path&gt;" class="s0" d="m400.2 126.7h22.5v-93.3h-22.5z"/>
					<path id="&lt;Path&gt;" class="s4" d="m404.5 106.7c0 3.9 3.1 7 6.9 7 3.9 0 6.9-3.1 6.9-7 0-3.8-3-6.9-6.9-6.9-3.8 0-6.9 3.1-6.9 6.9z"/>
					<path id="&lt;Path&gt;" class="s6" d="m404.5 87.3h13.8v-44.9h-13.8z"/>
					<path id="&lt;Path&gt;" class="s7" d="m404.5 48.7h13.8v-6.3h-13.8z"/>
				</g>
				<g id="&lt;Group&gt;">
					<path id="&lt;Path&gt;" class="s1" d="m368.2 125.2l22.3 2.4 9.8-92.8-22.4-2.3z"/>
					<path id="&lt;Path&gt;" class="s0" d="m374.5 105.9c-0.4 3.8 2.4 7.2 6.2 7.6 3.8 0.4 7.2-2.4 7.6-6.2 0.4-3.8-2.4-7.2-6.2-7.6-3.8-0.4-7.2 2.4-7.6 6.2z"/>
					<path id="&lt;Path&gt;" class="s8" d="m376.6 86.5l13.7 1.5 4.7-44.7-13.7-1.4z"/>
					<path id="&lt;Path&gt;" class="s7" d="m380.6 48.2l13.8 1.4 0.6-6.3-13.7-1.4z"/>
				</g>
				<g id="&lt;Group&gt;">
					<path id="&lt;Path&gt;" class="s5" d="m458.8 126.7h18.1v-75.4h-18.1z"/>
					<path id="&lt;Path&gt;" class="s4" d="m462.3 110.6c0 3.1 2.5 5.6 5.5 5.6 3.1 0 5.6-2.5 5.6-5.6 0-3.1-2.5-5.6-5.6-5.6-3 0-5.5 2.5-5.5 5.6z"/>
					<path id="&lt;Path&gt;" class="s6" d="m462.3 94.9h11.1v-36.3h-11.1z"/>
					<path id="&lt;Path&gt;" class="s7" d="m462.3 63.7h11.1v-5.1h-11.1z"/>
				</g>
			</g>
		</g>
	</g>
	<g id="Shadow">
		<path id="&lt;Path&gt; 1 " class="s3" d="m878.1 668.8c0 12.5-173.6 22.6-387.7 22.6-214.2 0-387.8-10.1-387.8-22.6 0-12.5 173.6-22.7 387.8-22.7 214.1 0 387.7 10.2 387.7 22.7z"/>
	</g>
	<g id="Screen">
		<g id="&lt;Group&gt;">
			<path id="&lt;Path&gt;" class="s9" d="m498.9 393.6h-37.5l18-57h37.5z"/>
			<path id="&lt;Path&gt;" class="s10" d="m474.1 353.3h37.5l5.3-16.7h-37.5z"/>
			<g id="&lt;Group&gt;">
				<path id="&lt;Path&gt;" class="s9" d="m528.5 398.7h-71.7v-8.7h71.7z"/>
				<path id="&lt;Path&gt;" class="s11" d="m528.5 398.7h-71.7v-8.7h71.7z"/>
				<path id="&lt;Path&gt;" class="s12" d="m492.7 398.7h-35.9v-8.7h35.9z"/>
			</g>
			<g id="&lt;Group&gt;">
				<path id="&lt;Path&gt;" class="s9" d="m806.4 324.2l-13-149.2-204.5 18h-206l-207.5-18-4 4 13 149.2 207.6 18.1h206l204.4-18.1z"/>
				<path id="&lt;Path&gt;" class="s13" d="m806.4 324.2l-13-149.2-204.5 18h-206l-207.5-18 13 149.2 207.6 18.1h206z"/>
			</g>
			<path id="&lt;Path&gt;" class="s14" d="m787.9 181.5l12 137.3-192.5 16.9-12-137.2z"/>
			<g id="&lt;Group&gt;">
				<g id="&lt;Group&gt;">
					<g id="&lt;Group&gt;">
						<path id="&lt;Path&gt;" class="s15" d="m631.5 212.3c-1.1 0.1-2.2-0.8-2.3-2-0.1-1.2 0.8-2.2 2-2.3l48.4-4.3c1.2-0.1 2.2 0.8 2.3 2 0.1 1.2-0.8 2.2-1.9 2.3z"/>
					</g>
					<g id="&lt;Group&gt;" style="opacity: .5">
						<path id="&lt;Path&gt;" class="s11" d="m631.5 212.3c-1.1 0.1-2.2-0.8-2.3-2-0.1-1.2 0.8-2.2 2-2.3l48.4-4.3c1.2-0.1 2.2 0.8 2.3 2 0.1 1.2-0.8 2.2-1.9 2.3z"/>
					</g>
				</g>
				<g id="&lt;Group&gt;">
					<g id="&lt;Group&gt;">
						<path id="&lt;Path&gt;" class="s15" d="m710.3 205.3c-1.2 0.1-2.2-0.7-2.3-1.9-0.1-1.2 0.8-2.2 1.9-2.3l48.5-4.3c1.1-0.1 2.2 0.8 2.3 1.9 0.1 1.2-0.8 2.3-2 2.4z"/>
					</g>
					<g id="&lt;Group&gt;" style="opacity: .5">
						<path id="&lt;Path&gt;" class="s11" d="m710.3 205.3c-1.2 0.1-2.2-0.7-2.3-1.9-0.1-1.2 0.8-2.2 1.9-2.3l48.5-4.3c1.1-0.1 2.2 0.8 2.3 1.9 0.1 1.2-0.8 2.3-2 2.4z"/>
					</g>
				</g>
				<g id="&lt;Group&gt;">
					<path id="&lt;Path&gt;" class="s9" d="m682.9 238.3c1.2 13.7-8.8 25.7-22.3 26.9-13.6 1.2-25.5-8.9-26.7-22.6-1.2-13.6 8.8-25.7 22.3-26.8 13.6-1.2 25.6 8.9 26.7 22.5z"/>
					<g id="&lt;Group&gt;" style="opacity: .9">
						<path id="&lt;Path&gt;" class="s16" d="m647.7 253.3l-2.8 0.3c-0.7 0-1.3-0.5-1.4-1.2l-1.1-13.3c-0.1-0.7 0.4-1.3 1.1-1.4l2.8-0.3c0.8 0 1.4 0.5 1.5 1.2l1.1 13.3c0.1 0.7-0.4 1.4-1.2 1.4z"/>
						<path id="&lt;Path&gt;" class="s16" d="m651.4 236.5c1.8-1.8 6.3-6.9 6.3-12.3 0-2.6 3.7-3.8 5-1.5 1 1.8 1.2 5.1-0.6 11.2l6.9-0.6c1.9-0.1 3.6 0.8 4.5 2.5 0.6 0.9 0.7 2 0.5 3.1l-2 10.4c-0.5 2.4-2.6 4-4.9 3.8l-13.2-0.9c-1.1-0.1-2-1-2.1-2.1l-1-11.9c-0.1-0.6 0.1-1.3 0.6-1.7z"/>
					</g>
				</g>
				<g id="&lt;Group&gt;">
					<path id="&lt;Path&gt;" class="s17" d="m761.7 231.4c-1.2-13.7-13.1-23.8-26.7-22.6-13.5 1.2-23.6 13.2-22.4 26.9 1.2 13.7 13.2 23.8 26.7 22.6 13.6-1.2 23.6-13.3 22.4-26.9z"/>
					<g id="&lt;Group&gt;">
						<path id="&lt;Path&gt;" class="s9" d="m724.4 222.8l-2.8 0.2c-0.7 0.1-1.2 0.7-1.2 1.5l1.2 13.2c0.1 0.7 0.7 1.3 1.4 1.2l2.8-0.3c0.8 0 1.3-0.7 1.2-1.4l-1.1-13.2c-0.1-0.8-0.7-1.3-1.5-1.2z"/>
						<path id="&lt;Path&gt;" class="s9" d="m731 238.7c2.1 1.5 7.4 5.6 8.3 11 0.5 2.6 4.3 3.1 5.2 0.6 0.7-1.9 0.3-5.2-2.5-10.9l6.9-0.7c1.8-0.1 3.4-1.4 4-3.1 0.3-1.1 0.3-2.2-0.1-3.2l-3.8-10c-0.8-2.2-3.2-3.4-5.5-2.8l-12.8 3.2c-1.1 0.3-1.8 1.3-1.7 2.4l1 11.9c0.1 0.6 0.4 1.2 1 1.6z"/>
					</g>
				</g>
				<g id="&lt;Group&gt;">
					<path id="&lt;Path&gt;" class="s9" d="m653.5 319.7l-14.6 1.3-1.5-16.9 14.6-1.3z"/>
					<path id="&lt;Path&gt;" class="s17" d="m668.1 318.4l-14.6 1.3-1.1-13.2 14.6-1.3z"/>
					<path id="&lt;Path&gt;" class="s17" d="m697.3 315.9l-14.6 1.2-2.6-30.3 14.6-1.3z"/>
					<path id="&lt;Path&gt;" class="s17" d="m726.5 313.3l-14.6 1.3-2.9-34 14.6-1.3z"/>
					<path id="&lt;Path&gt;" class="s17" d="m755.7 310.7l-14.6 1.3-2.3-26.4 14.6-1.3z"/>
					<path id="&lt;Path&gt;" class="s9" d="m682.7 317.1l-14.6 1.3-2.4-27.6 14.6-1.3z"/>
					<path id="&lt;Path&gt;" class="s9" d="m711.9 314.6l-14.6 1.3-3.3-37.7 14.6-1.2z"/>
					<path id="&lt;Path&gt;" class="s9" d="m741.1 312l-14.6 1.3-2.6-30.4 14.6-1.3z"/>
					<path id="&lt;Path&gt;" class="s9" d="m770.3 309.4l-14.6 1.3-4.1-47.2 14.6-1.3z"/>
				</g>
			</g>
			<path id="&lt;Path&gt;" class="s14" d="m181.9 181.5l12 137.3 195.5 16.9-12-137.2z"/>
			<g id="&lt;Group&gt;">
				<path id="&lt;Path&gt;" class="s16" d="m321.5 245l-104.9-9.1c-4.4-0.4-8.3-4.2-8.7-8.6l-1.3-15.1c-0.4-4.4 2.9-7.7 7.3-7.3l104.9 9.1c4.5 0.4 8.3 4.3 8.7 8.7l1.4 15.1c0.3 4.4-2.9 7.6-7.4 7.2z"/>
				<path id="&lt;Path&gt;" class="s9" d="m234 222.1c0.4 5.2-3.5 9.1-8.8 8.6-5.3-0.4-9.9-5.1-10.4-10.3-0.4-5.3 3.5-9.1 8.8-8.7 5.3 0.5 9.9 5.1 10.4 10.4z"/>
				<g id="&lt;Group&gt;">
					<g id="&lt;Group&gt;">
						<path id="&lt;Path&gt;" class="s18" d="m246.2 217.8c-1.1-0.1-2.1-1.1-2.2-2.3-0.1-1.1 0.7-1.9 1.9-1.8l64.3 5.5c1.1 0.1 2.1 1.1 2.2 2.3 0.1 1.1-0.7 2-1.9 1.9z"/>
						<path id="&lt;Path&gt;" class="s18" d="m247.5 232.7c-1.1-0.1-2.1-1.1-2.2-2.3-0.1-1.1 0.7-2 1.9-1.9l37.6 3.3c1.2 0.1 2.2 1.1 2.3 2.2 0.1 1.2-0.8 2-1.9 1.9z"/>
						<path id="&lt;Path&gt;" class="s18" d="m246.9 225.2c-1.2-0.1-2.2-1.1-2.3-2.2-0.1-1.2 0.8-2 1.9-1.9l54.6 4.7c1.1 0.1 2.1 1.1 2.2 2.3 0.1 1.1-0.7 2-1.9 1.9z"/>
					</g>
					<g id="&lt;Group&gt;" style="opacity: .5">
						<path id="&lt;Path&gt;" class="s16" d="m246.2 217.8c-1.1-0.1-2.1-1.1-2.2-2.3-0.1-1.1 0.7-1.9 1.9-1.8l64.3 5.5c1.1 0.1 2.1 1.1 2.2 2.3 0.1 1.1-0.7 2-1.9 1.9z"/>
						<path id="&lt;Path&gt;" class="s16" d="m247.5 232.7c-1.1-0.1-2.1-1.1-2.2-2.3-0.1-1.1 0.7-2 1.9-1.9l37.6 3.3c1.2 0.1 2.2 1.1 2.3 2.2 0.1 1.2-0.8 2-1.9 1.9z"/>
						<path id="&lt;Path&gt;" class="s16" d="m246.9 225.2c-1.2-0.1-2.2-1.1-2.3-2.2-0.1-1.2 0.8-2 1.9-1.9l54.6 4.7c1.1 0.1 2.1 1.1 2.2 2.3 0.1 1.1-0.7 2-1.9 1.9z"/>
					</g>
				</g>
				<path id="&lt;Path&gt;" class="s9" d="m327 199.7l-12.2-0.9c-1.7-0.2-3 1.1-2.8 2.8l1 10.2c0.2 1.6 1.7 3.1 3.3 3.2l3.6 0.3 1.7 2.5c0.6 0.9 1.8 0.9 2.2 0.2l1.3-2.3 3.5 0.3c1.7 0.1 2.9-1.2 2.8-2.8l-1-10.2c-0.2-1.7-1.7-3.2-3.4-3.3z"/>
				<g id="&lt;Group&gt;" style="opacity: .9">
					<path id="&lt;Compound Path&gt;" class="s16" d="m317.6 208c-1.1-1-1.6-2.1-1.7-3-0.1-1.6 0.9-2.6 2.5-2.5 1.5 0.2 2.1 0.9 3 2 0.8-0.9 1.3-1.6 2.8-1.5 1.6 0.2 2.8 1.3 2.9 2.9 0.1 1-0.2 2-1.1 2.8l-3.9 3.8z"/>
				</g>
			</g>
			<g id="&lt;Group&gt;">
				<path id="&lt;Path&gt;" class="s16" d="m350.2 283.9l-104.9-9.1c-4.4-0.4-8.3-4.3-8.7-8.7l-1.3-15.1c-0.4-4.4 2.9-7.6 7.3-7.2l104.9 9.1c4.4 0.4 8.3 4.2 8.7 8.6l1.3 15.1c0.4 4.4-2.9 7.7-7.3 7.3z"/>
				<path id="&lt;Path&gt;" class="s9" d="m262.6 260.9c0.5 5.2-3.4 9.1-8.7 8.7-5.3-0.5-9.9-5.1-10.4-10.4-0.5-5.2 3.5-9.1 8.7-8.6 5.3 0.4 10 5 10.4 10.3z"/>
				<g id="&lt;Group&gt;">
					<g id="&lt;Group&gt;">
						<path id="&lt;Path&gt;" class="s18" d="m274.9 256.6c-1.1-0.1-2.2-1.1-2.3-2.2-0.1-1.2 0.8-2 1.9-1.9l64.3 5.6c1.2 0.1 2.2 1.1 2.3 2.2 0.1 1.2-0.8 2-1.9 1.9z"/>
						<path id="&lt;Path&gt;" class="s18" d="m276.2 271.5c-1.1-0.1-2.2-1.1-2.3-2.3-0.1-1.1 0.8-1.9 1.9-1.8l37.7 3.2c1.2 0.1 2.2 1.1 2.3 2.3 0.1 1.1-0.8 2-1.9 1.9z"/>
						<path id="&lt;Path&gt;" class="s18" d="m275.6 264.1c-1.2-0.1-2.2-1.1-2.3-2.3-0.1-1.1 0.7-2 1.9-1.9l54.5 4.8c1.2 0.1 2.2 1.1 2.3 2.2 0.1 1.1-0.8 2-1.9 1.9z"/>
					</g>
					<g id="&lt;Group&gt;" style="opacity: .5">
						<path id="&lt;Path&gt;" class="s16" d="m274.9 256.6c-1.1-0.1-2.2-1.1-2.3-2.2-0.1-1.2 0.8-2 1.9-1.9l64.3 5.6c1.2 0.1 2.2 1.1 2.3 2.2 0.1 1.2-0.8 2-1.9 1.9z"/>
						<path id="&lt;Path&gt;" class="s16" d="m276.2 271.5c-1.1-0.1-2.2-1.1-2.3-2.3-0.1-1.1 0.8-1.9 1.9-1.8l37.7 3.2c1.2 0.1 2.2 1.1 2.3 2.3 0.1 1.1-0.8 2-1.9 1.9z"/>
						<path id="&lt;Path&gt;" class="s16" d="m275.6 264.1c-1.2-0.1-2.2-1.1-2.3-2.3-0.1-1.1 0.7-2 1.9-1.9l54.5 4.8c1.2 0.1 2.2 1.1 2.3 2.2 0.1 1.1-0.8 2-1.9 1.9z"/>
					</g>
				</g>
				<path id="&lt;Path&gt;" class="s9" d="m355.7 238.5l-12.3-0.9c-1.7-0.1-2.9 1.1-2.7 2.8l1 10.2c0.1 1.7 1.6 3.1 3.3 3.3l3.6 0.3 1.7 2.4c0.6 0.9 1.8 1 2.2 0.2l1.3-2.3 3.5 0.3c1.7 0.1 2.9-1.1 2.8-2.8l-1.1-10.2c-0.1-1.7-1.6-3.1-3.3-3.3z"/>
				<g id="&lt;Group&gt;" style="opacity: .9">
					<path id="&lt;Compound Path&gt;" class="s16" d="m346.3 246.8c-1.1-1-1.6-2.1-1.7-3-0.1-1.6 0.8-2.6 2.5-2.4 1.5 0.1 2 0.8 3 1.9 0.8-0.9 1.3-1.6 2.8-1.4 1.6 0.1 2.7 1.3 2.9 2.9 0.1 0.9-0.3 1.9-1.2 2.7l-3.8 3.8z"/>
				</g>
			</g>
			<g id="&lt;Group&gt;">
				<path id="&lt;Path&gt;" class="s16" d="m336.5 321.5l-104.9-9.1c-4.4-0.4-8.3-4.3-8.7-8.7l-1.3-15.1c-0.4-4.4 2.9-7.6 7.3-7.2l104.9 9.1c4.4 0.4 8.3 4.2 8.7 8.6l1.3 15.1c0.4 4.4-2.9 7.7-7.3 7.3z"/>
				<path id="&lt;Path&gt;" class="s9" d="m248.9 298.5c0.5 5.3-3.4 9.1-8.7 8.7-5.3-0.5-9.9-5.1-10.4-10.4-0.5-5.2 3.5-9.1 8.7-8.6 5.3 0.4 10 5.1 10.4 10.3z"/>
				<g id="&lt;Group&gt;">
					<g id="&lt;Group&gt;">
						<path id="&lt;Path&gt;" class="s18" d="m261.2 294.2c-1.2-0.1-2.2-1.1-2.3-2.2-0.1-1.1 0.8-2 1.9-1.9l64.3 5.6c1.2 0.1 2.2 1.1 2.3 2.2 0.1 1.2-0.8 2-1.9 1.9z"/>
						<path id="&lt;Path&gt;" class="s18" d="m262.5 309.1c-1.2-0.1-2.2-1.1-2.3-2.2-0.1-1.2 0.8-2 1.9-1.9l51.8 4.5c1.1 0.1 2.2 1.1 2.3 2.2 0.1 1.2-0.8 2-1.9 1.9z"/>
						<path id="&lt;Path&gt;" class="s18" d="m261.8 301.7c-1.1-0.1-2.1-1.1-2.2-2.3-0.1-1.1 0.7-1.9 1.9-1.8l46.5 4c1.1 0.1 2.1 1.1 2.2 2.2 0.1 1.2-0.7 2-1.9 1.9z"/>
					</g>
					<g id="&lt;Group&gt;" style="opacity: .5">
						<path id="&lt;Path&gt;" class="s16" d="m261.2 294.2c-1.2-0.1-2.2-1.1-2.3-2.2-0.1-1.1 0.8-2 1.9-1.9l64.3 5.6c1.2 0.1 2.2 1.1 2.3 2.2 0.1 1.2-0.8 2-1.9 1.9z"/>
						<path id="&lt;Path&gt;" class="s16" d="m262.5 309.1c-1.2-0.1-2.2-1.1-2.3-2.2-0.1-1.2 0.8-2 1.9-1.9l51.8 4.5c1.1 0.1 2.2 1.1 2.3 2.2 0.1 1.2-0.8 2-1.9 1.9z"/>
						<path id="&lt;Path&gt;" class="s16" d="m261.8 301.7c-1.1-0.1-2.1-1.1-2.2-2.3-0.1-1.1 0.7-1.9 1.9-1.8l46.5 4c1.1 0.1 2.1 1.1 2.2 2.2 0.1 1.2-0.7 2-1.9 1.9z"/>
					</g>
				</g>
				<path id="&lt;Path&gt;" class="s9" d="m342.3 280.2l-12.2-0.9c-1.7-0.2-2.9 1.1-2.8 2.8l1 10.2c0.2 1.6 1.7 3.1 3.4 3.2l3.5 0.3 1.8 2.5c0.5 0.8 1.7 0.9 2.2 0.2l1.2-2.3 3.5 0.2c1.7 0.2 3-1.1 2.8-2.8l-1-10.1c-0.2-1.7-1.7-3.2-3.4-3.3z"/>
				<g id="&lt;Group&gt;">
					<path id="&lt;Path&gt;" class="s17" d="m333 291.6c-0.5 0-1-0.5-1-0.9l-0.3-3.5c0-0.5 0.3-0.8 0.8-0.8 0.5 0 1 0.5 1 1l0.3 3.4c0.1 0.5-0.3 0.9-0.8 0.8z"/>
					<path id="&lt;Path&gt;" class="s17" d="m334.7 286.4c0.6-0.5 2.1-1.8 2.1-3.6 0-0.9 1.2-1 1.7-0.2 0.3 0.6 0.4 1.7-0.2 3.6l2.3 0.2c0.6 0.1 1.2 0.5 1.5 1.1 0.2 0.3 0.2 0.7 0.2 1l-0.7 3.3c-0.2 0.7-0.9 1.1-1.7 0.9l-4.4-1c-0.4-0.1-0.7-0.5-0.7-0.8l-0.3-3.9q-0.1-0.4 0.2-0.6z"/>
				</g>
			</g>
			<path id="&lt;Path&gt;" class="s14" d="m389.5 199l12 137.3h194l-12-137.3z"/>
			<g id="&lt;Group&gt;">
				<g id="&lt;Group&gt;" style="opacity: .2">
					<path id="&lt;Path&gt;" class="s19" d="m395.4 335.6c-0.8 0-1.5-0.7-1.6-1.5l-3.8-43.2c-0.1-0.8 0.5-1.5 1.4-1.5 0.8 0 1.5 0.7 1.6 1.5l3.8 43.2c0.1 0.8-0.6 1.5-1.4 1.5z"/>
				</g>
				<g id="&lt;Group&gt;" style="opacity: .2">
					<path id="&lt;Path&gt;" class="s19" d="m390.9 284.4c-0.8 0-1.5-0.7-1.6-1.5l-5.4-61.3c0-0.9 0.6-1.5 1.4-1.5 0.8 0 1.6 0.6 1.6 1.5l5.4 61.3c0.1 0.8-0.5 1.5-1.4 1.5z"/>
				</g>
				<g id="&lt;Group&gt;" style="opacity: .2">
					<path id="&lt;Path&gt;" class="s19" d="m384.9 215.4c-0.8 0-1.6-0.7-1.6-1.5l-1.1-12.8c-0.1-0.8 0.5-1.5 1.3-1.5 0.8 0 1.6 0.7 1.7 1.5l1.1 12.8c0 0.8-0.6 1.5-1.4 1.5z"/>
				</g>
			</g>
			<g id="&lt;Group&gt;">
				<g id="&lt;Group&gt;" style="opacity: .2">
					<path id="&lt;Path&gt;" class="s19" d="m601.4 335.6c-0.8 0-1.5-0.7-1.6-1.5l-5.5-62.9c-0.1-0.8 0.5-1.5 1.4-1.5 0.8 0 1.5 0.7 1.6 1.5l5.5 62.9c0.1 0.8-0.6 1.5-1.4 1.5z"/>
				</g>
				<g id="&lt;Group&gt;" style="opacity: .2">
					<path id="&lt;Path&gt;" class="s19" d="m595.3 265.4c-0.9 0-1.6-0.7-1.7-1.5l-4.2-49c-0.1-0.8 0.5-1.5 1.3-1.5 0.9 0 1.6 0.7 1.7 1.5l4.2 49c0.1 0.8-0.5 1.5-1.3 1.5z"/>
				</g>
				<g id="&lt;Group&gt;" style="opacity: .2">
					<path id="&lt;Path&gt;" class="s19" d="m590.2 207.5c-0.8 0-1.6-0.7-1.6-1.5l-0.5-4.9c0-0.8 0.6-1.5 1.4-1.5 0.8 0 1.6 0.7 1.6 1.5l0.5 4.9c0 0.8-0.6 1.5-1.4 1.5z"/>
				</g>
			</g>
			<g id="&lt;Group&gt;">
				<path id="&lt;Path&gt;" class="s9" d="m560.8 259.4c-0.1-1.1 0.8-2 1.9-2 1.2 0 2.2 0.9 2.3 2l2.3 27.1c0.1 1.2-0.7 2.1-1.8 2.1-1.2 0-2.2-0.9-2.3-2.1z"/>
				<g id="&lt;Group&gt;">
					<path id="&lt;Path&gt;" class="s18" d="m404.1 210.5c-1.2 0-2.2-0.9-2.3-2-0.1-1.2 0.8-2.1 1.9-2.1h47.1c1.2 0 2.2 0.9 2.3 2.1 0.1 1.1-0.8 2-1.9 2z"/>
					<path id="&lt;Path&gt;" class="s18" d="m405.4 225.4c-1.2 0-2.2-0.9-2.3-2.1-0.1-1.1 0.8-2 1.9-2h39.1c1.2 0 2.2 0.9 2.3 2 0.1 1.2-0.8 2.1-1.9 2.1z"/>
					<path id="&lt;Path&gt;" class="s18" d="m404.7 218c-1.1 0-2.1-1-2.2-2.1-0.1-1.1 0.7-2.1 1.8-2.1h31.2c1.1 0 2.1 1 2.2 2.1 0.1 1.1-0.7 2.1-1.9 2.1z"/>
				</g>
				<g id="&lt;Group&gt;" style="opacity: .5">
					<path id="&lt;Path&gt;" class="s16" d="m404.1 210.5c-1.2 0-2.2-0.9-2.3-2-0.1-1.2 0.8-2.1 1.9-2.1h47.1c1.2 0 2.2 0.9 2.3 2.1 0.1 1.1-0.8 2-1.9 2z"/>
					<path id="&lt;Path&gt;" class="s16" d="m405.4 225.4c-1.2 0-2.2-0.9-2.3-2.1-0.1-1.1 0.8-2 1.9-2h39.1c1.2 0 2.2 0.9 2.3 2 0.1 1.2-0.8 2.1-1.9 2.1z"/>
					<path id="&lt;Path&gt;" class="s16" d="m404.7 218c-1.1 0-2.1-1-2.2-2.1-0.1-1.1 0.7-2.1 1.8-2.1h31.2c1.1 0 2.1 1 2.2 2.1 0.1 1.1-0.7 2.1-1.9 2.1z"/>
				</g>
				<g id="&lt;Group&gt;">
					<path id="&lt;Path&gt;" class="s9" d="m572.1 242.5c0.5 5.9-3.8 10.7-9.7 10.7-5.9 0-11.1-4.8-11.6-10.7-0.6-5.9 3.8-10.7 9.7-10.7 5.9 0 11.1 4.8 11.6 10.7z"/>
					<g id="&lt;Group&gt;">
						<path id="&lt;Path&gt;" class="s16" d="m556.2 247.6c-0.7 0-1.3-0.5-1.3-1.2l-0.4-4.5c-0.1-0.6 0.4-1.1 1.1-1.1 0.6 0 1.2 0.5 1.3 1.1l0.3 4.5c0.1 0.7-0.4 1.2-1 1.2z"/>
						<path id="&lt;Path&gt;" class="s16" d="m558.4 240.5c0.8-0.7 2.7-2.7 2.7-5 0-1.1 1.6-1.5 2.2-0.4 0.4 0.7 0.5 2.2-0.3 4.7h3c0.9 0 1.6 0.5 2 1.3 0.2 0.4 0.3 0.9 0.2 1.3l-0.9 4.4c-0.2 1-1.1 1.6-2.1 1.5l-5.7-0.9c-0.5-0.1-0.9-0.5-0.9-1l-0.5-5.1c0-0.3 0.1-0.6 0.3-0.8z"/>
					</g>
				</g>
				<g id="&lt;Group&gt;">
					<path id="&lt;Path&gt;" class="s9" d="m577.4 303.4c-0.5-5.9-5.7-10.6-11.6-10.6-5.9 0-10.2 4.7-9.7 10.6 0.5 5.9 5.7 10.7 11.6 10.7 5.9 0 10.2-4.8 9.7-10.7z"/>
					<g id="&lt;Group&gt;">
						<path id="&lt;Path&gt;" class="s16" d="m560.6 298.3c-0.6 0-1.1 0.6-1.1 1.2l0.4 4.5c0.1 0.7 0.7 1.2 1.3 1.2 0.7 0 1.1-0.5 1.1-1.2l-0.4-4.5c-0.1-0.6-0.6-1.2-1.3-1.2z"/>
						<path id="&lt;Path&gt;" class="s16" d="m564.1 305.4c0.9 0.7 3.2 2.7 3.6 5 0.2 1.2 1.8 1.5 2.2 0.5 0.3-0.8 0.2-2.2-1.1-4.8h3c0.8 0 1.5-0.5 1.8-1.2 0.1-0.4 0.1-0.9 0-1.4l-1.7-4.4c-0.4-0.9-1.4-1.6-2.4-1.4l-5.6 0.9c-0.4 0.1-0.7 0.5-0.7 1l0.5 5.1c0 0.3 0.1 0.5 0.4 0.7z"/>
					</g>
				</g>
				<g id="&lt;Group&gt;">
					<g id="&lt;Group&gt;">
						<path id="&lt;Path&gt;" class="s9" d="m547.8 273.1c2.6 30.4-19.9 55.1-50.4 55.1-30.5 0-57.3-24.7-60-55.1-2.6-30.5 19.9-55.2 50.4-55.2 30.4 0 57.3 24.7 60 55.2z"/>
						<path id="&lt;Path&gt;" class="s12" d="m528.2 234.1c-10.9-10-25.2-16.2-40.4-16.2-30.5 0-53 24.7-50.4 55.2h55.2z"/>
						<g id="&lt;Group&gt;">
							<path id="&lt;Path&gt;" class="s10" d="m450.2 234.1l42.4 39-4.8-55.2c-15.3 0-28.5 6.2-37.6 16.2z"/>
							<path id="&lt;Path&gt;" class="s9" d="m450.2 234.1l42.4 39-4.8-55.2c-15.3 0-28.5 6.2-37.6 16.2z"/>
							<path id="&lt;Path&gt;" class="s20" d="m450.2 234.1l42.4 39-4.8-55.2c-15.3 0-28.5 6.2-37.6 16.2z"/>
						</g>
						<path id="&lt;Path&gt;" class="s21" d="m497.4 328.2c30.5 0 53-24.7 50.4-55.1h-55.2l-35.6 39c10.8 10 25.2 16.1 40.4 16.1z"/>
					</g>
					<g id="&lt;Group&gt;">
						<path id="&lt;Path&gt;" class="s18" d="m533.5 318.8c0.7 7.4-4.8 13.4-12.2 13.4-7.4 0-14-6-14.6-13.4-0.7-7.4 4.8-13.4 12.2-13.4 7.4 0 14 6 14.6 13.4z"/>
						<g id="&lt;Group&gt;">
							<path id="&lt;Compound Path&gt;" class="s9" d="m515.4 321c-1.2-1.1-1.8-2.3-1.9-3.4-0.1-1.8 1-3.1 2.9-3.1 1.7 0 2.4 0.9 3.5 2 0.9-1.1 1.4-2 3.2-2 1.9 0 3.2 1.3 3.4 3.1 0.1 1.1-0.3 2.3-1.4 3.4l-4.4 4.9z"/>
						</g>
					</g>
					<g id="&lt;Group&gt;">
						<path id="&lt;Path&gt;" class="s18" d="m457.9 251.6c0.6 7.4-4.9 13.4-12.3 13.4-7.4 0-13.9-6-14.6-13.4-0.6-7.4 4.9-13.4 12.3-13.4 7.4 0 13.9 6 14.6 13.4z"/>
						<g id="&lt;Group&gt;">
							<path id="&lt;Path&gt;" class="s9" d="m452.9 251.6c0.4 4.7-3 8.5-7.7 8.5-4.7 0-8.8-3.8-9.2-8.5-0.4-4.7 3-8.4 7.7-8.4 4.7 0 8.8 3.7 9.2 8.4z"/>
							<path id="&lt;Path&gt;" class="s11" d="m452.9 251.6c0.4 4.7-3 8.5-7.7 8.5-4.7 0-8.8-3.8-9.2-8.5-0.4-4.7 3-8.4 7.7-8.4 4.7 0 8.8 3.7 9.2 8.4z"/>
							<g id="&lt;Group&gt;">
								<g id="&lt;Group&gt;">
									<path id="&lt;Path&gt;" class="s9" d="m447.5 253.4c-1.5 1.6-4 1.6-5.8 0-0.8-0.6-1.7 0.4-1 1 2.5 2.2 5.8 2.2 8 0 0.6-0.6-0.5-1.6-1.2-1z"/>
								</g>
								<g id="&lt;Group&gt;">
									<path id="&lt;Path&gt;" class="s9" d="m442.2 248.9c0.1 0.9-0.2 1.6-0.6 1.6-0.4 0-0.8-0.7-0.8-1.6-0.1-1 0.1-1.7 0.5-1.7 0.4 0 0.8 0.7 0.9 1.7z"/>
									<path id="&lt;Path&gt;" class="s9" d="m447.7 248.9c0 0.9-0.2 1.6-0.6 1.6-0.4 0-0.8-0.7-0.9-1.6-0.1-1 0.2-1.7 0.6-1.7 0.4 0 0.8 0.7 0.9 1.7z"/>
								</g>
							</g>
						</g>
					</g>
					<g id="&lt;Group&gt;">
						<path id="&lt;Path&gt;" class="s18" d="m539.7 239.4c0.7 7.4-4.8 13.4-12.2 13.4-7.4 0-13.9-6-14.6-13.4-0.6-7.4 4.9-13.4 12.3-13.4 7.4 0 13.9 6 14.5 13.4z"/>
						<g id="&lt;Group&gt;">
							<path id="&lt;Path&gt;" class="s9" d="m534.8 239.4c0.4 4.7-3.1 8.5-7.7 8.5-4.7 0-8.8-3.8-9.2-8.5-0.4-4.6 3-8.4 7.7-8.4 4.7 0 8.8 3.8 9.2 8.4z"/>
							<path id="&lt;Path&gt;" class="s11" d="m534.8 239.4c0.4 4.7-3.1 8.5-7.7 8.5-4.7 0-8.8-3.8-9.2-8.5-0.4-4.6 3-8.4 7.7-8.4 4.7 0 8.8 3.8 9.2 8.4z"/>
							<g id="&lt;Group&gt;">
								<g id="&lt;Group&gt;">
									<path id="&lt;Path&gt;" class="s9" d="m523.8 243.6c1.5-1.6 4-1.6 5.8 0 0.8 0.7 1.7-0.4 1-1-2.5-2.1-5.8-2.1-8 0-0.6 0.6 0.5 1.7 1.2 1z"/>
								</g>
								<g id="&lt;Group&gt;">
									<path id="&lt;Path&gt;" class="s9" d="m524.1 236.7c0.1 0.9-0.2 1.6-0.6 1.6-0.4 0-0.8-0.7-0.9-1.6 0-1 0.2-1.7 0.6-1.7 0.4 0 0.8 0.7 0.9 1.7z"/>
									<path id="&lt;Path&gt;" class="s9" d="m529.5 236.7c0.1 0.9-0.1 1.6-0.5 1.6-0.4 0-0.8-0.7-0.9-1.6-0.1-1 0.2-1.7 0.6-1.7 0.4 0 0.8 0.7 0.8 1.7z"/>
								</g>
							</g>
						</g>
					</g>
					<g id="&lt;Group&gt;">
						<path id="&lt;Path&gt;" class="s18" d="m459 292.8c0.6 7.4-4.9 13.4-12.3 13.4-7.4 0-13.9-6-14.5-13.4-0.7-7.4 4.8-13.4 12.2-13.4 7.4 0 13.9 6 14.6 13.4z"/>
						<g id="&lt;Group&gt;">
							<g id="&lt;Group&gt;">
								<path id="&lt;Path&gt;" class="s9" d="m454 292.8c0.4 4.6-3 8.4-7.7 8.4-4.7 0-8.8-3.8-9.2-8.4-0.4-4.7 3.1-8.5 7.7-8.5 4.7 0 8.8 3.8 9.2 8.5z"/>
								<path id="&lt;Path&gt;" class="s11" d="m454 292.8c0.4 4.6-3 8.4-7.7 8.4-4.7 0-8.8-3.8-9.2-8.4-0.4-4.7 3.1-8.5 7.7-8.5 4.7 0 8.8 3.8 9.2 8.5z"/>
							</g>
							<g id="&lt;Group&gt;">
								<path id="&lt;Path&gt;" class="s9" d="m441.6 295.4c2.5 2.4 6.3 2.4 8.4 0l-0.1-1.4h-8.4z"/>
							</g>
							<g id="&lt;Group&gt;">
								<g id="&lt;Group&gt;">
									<path id="&lt;Path&gt;" class="s9" d="m444.5 290.2c-1.3-0.9-2.7-0.9-3.7 0-0.5 0.5 0.3 1.3 0.8 0.8 0.6-0.6 1.4-0.6 2.1 0 0.6 0.5 1.3-0.3 0.8-0.8z"/>
								</g>
								<g id="&lt;Group&gt;">
									<path id="&lt;Path&gt;" class="s9" d="m449.9 290.2c-1.2-0.9-2.6-0.9-3.7 0-0.5 0.5 0.4 1.3 0.9 0.8 0.6-0.6 1.4-0.6 2.1 0 0.6 0.5 1.3-0.3 0.7-0.8z"/>
								</g>
							</g>
						</g>
					</g>
				</g>
			</g>
			<g id="&lt;Group&gt;">
				<path id="&lt;Path&gt;" class="s9" d="m597.8 388.6h-62.1v10.1h124.1v-4.2z"/>
				<path id="&lt;Path&gt;" class="s12" d="m597.8 388.6h-62.1v10.1h124.1v-4.2z"/>
				<path id="&lt;Path&gt;" class="s12" d="m597.8 398.7h-62.1v-10.1l62.1 5.9z"/>
			</g>
			<g id="&lt;Group&gt;" style="opacity: .5">
				<path id="&lt;Path&gt;" class="s16" d="m796.5 279l-8.6-97.5-11.5 1-49.5 142.7 55.2-4.9z"/>
			</g>
			<g id="&lt;Group&gt;" style="opacity: .5">
				<path id="&lt;Path&gt;" class="s16" d="m533.8 336.3l47.6-137.3h-53.5l-47.6 137.3z"/>
			</g>
			<path id="&lt;Path&gt;" class="s11" d="m340.1 331.5l39.1-112.7-1.8-20.3-43.4-3.8-45.8 132.2z"/>
		</g>
	</g>
	<g id="Desk">
		<g id="&lt;Group&gt;">
			<g id="&lt;Group&gt;">
				<path id="&lt;Path&gt;" class="s9" d="m695.5 418.4h-391.6c-1.9 0-3.4-1.6-3.4-3.5v-8.5h398.5v8.5c0 1.9-1.5 3.5-3.5 3.5z"/>
				<path id="&lt;Path&gt;" class="s10" d="m695.5 418.4h-391.6c-1.9 0-3.4-1.6-3.4-3.5v-8.5h398.5v8.5c0 1.9-1.5 3.5-3.5 3.5z"/>
				<path id="&lt;Path&gt;" class="s21" d="m480.9 418.4h-177c-1.9 0-3.4-1.6-3.4-3.5v-8.5h180.4z"/>
			</g>
			<g id="&lt;Group&gt;">
				<path id="&lt;Path&gt;" class="s9" d="m707.1 408.7h-414.7c-2.3 0-4.1-1.9-4.1-4.1v-1.9c0-2.2 1.8-4 4.1-4h414.7c2.3 0 4.1 1.8 4.1 4v1.9c0 2.2-1.8 4.1-4.1 4.1z"/>
				<path id="&lt;Path&gt;" class="s22" d="m480.9 408.7h-188.5c-2.3 0-4.1-1.9-4.1-4.1v-1.9c0-2.2 1.8-4 4.1-4h188.5z"/>
			</g>
			<g id="&lt;Group&gt;">
				<g id="&lt;Group&gt;">
					<path id="&lt;Compound Path&gt;" fill-rule="evenodd" class="s18" d="m459.8 658.8h-138.3c-8.3 0-15-6.7-15-15v-210.4c0-8.3 6.7-15 15-15h138.3c8.3 0 15.1 6.7 15.1 15v210.4c0 8.3-6.8 15-15.1 15zm-138.3-232.4c-3.9 0-7 3.2-7 7v210.4c0 3.9 3.1 7 7 7h138.3c3.9 0 7.1-3.1 7.1-7v-210.4c0-3.8-3.2-7-7.1-7z"/>
				</g>
				<g id="&lt;Group&gt;" style="opacity: .4">
					<path id="&lt;Compound Path&gt;" fill-rule="evenodd" class="s13" d="m459.8 658.8h-138.3c-8.3 0-15-6.7-15-15v-210.4c0-8.3 6.7-15 15-15h138.3c8.3 0 15.1 6.7 15.1 15v210.4c0 8.3-6.8 15-15.1 15zm-138.3-232.4c-3.9 0-7 3.2-7 7v210.4c0 3.9 3.1 7 7 7h138.3c3.9 0 7.1-3.1 7.1-7v-210.4c0-3.8-3.2-7-7.1-7z"/>
				</g>
				<path id="&lt;Path&gt;" class="s10" d="m459.8 418.4h-138.3c-7.8 0-14.2 5.9-14.9 13.5h8.1c0.7-3.1 3.5-5.5 6.8-5.5h138.3c3.4 0 6.2 2.4 6.9 5.5h8.1c-0.8-7.6-7.2-13.5-15-13.5z"/>
			</g>
			<g id="&lt;Group&gt;">
				<g id="&lt;Group&gt;">
					<path id="&lt;Compound Path&gt;" fill-rule="evenodd" class="s18" d="m675.2 658.8h-138.4c-8.3 0-15-6.7-15-15v-210.4c0-8.3 6.7-15 15-15h138.4c8.2 0 15 6.7 15 15v210.4c0 8.3-6.8 15-15 15zm-138.4-232.4c-3.8 0-7 3.2-7 7v210.4c0 3.9 3.2 7 7 7h138.4c3.8 0 7-3.1 7-7v-210.4c0-3.8-3.2-7-7-7z"/>
				</g>
				<path id="&lt;Compound Path&gt;" fill-rule="evenodd" class="s23" d="m675.2 658.8h-138.4c-8.3 0-15-6.7-15-15v-210.4c0-8.3 6.7-15 15-15h138.4c8.2 0 15 6.7 15 15v210.4c0 8.3-6.8 15-15 15zm-138.4-232.4c-3.8 0-7 3.2-7 7v210.4c0 3.9 3.2 7 7 7h138.4c3.8 0 7-3.1 7-7v-210.4c0-3.8-3.2-7-7-7z"/>
				<path id="&lt;Path&gt;" class="s10" d="m675.2 418.4h-138.4c-7.7 0-14.2 5.9-14.9 13.5h8.1c0.7-3.1 3.5-5.5 6.8-5.5h138.4c3.3 0 6.1 2.4 6.8 5.5h8.1c-0.7-7.6-7.2-13.5-14.9-13.5z"/>
			</g>
		</g>
	</g>
	<g id="Device">
		<g id="&lt;Group&gt;">
			<path id="&lt;Path&gt;" class="s9" d="m426.4 467.8h-154.7c-9.3 0-16.8 7.6-16.8 16.9v158c0 9.4 7.5 16.9 16.8 16.9h154.7c9.3 0 16.9-7.5 16.9-16.9v-158c0-9.3-7.6-16.9-16.9-16.9z"/>
			<path id="&lt;Path&gt;" class="s22" d="m426.4 467.8h-154.7c-9.3 0-16.8 7.6-16.8 16.9v158c0 9.4 7.5 16.9 16.8 16.9h154.7c9.3 0 16.9-7.5 16.9-16.9v-158c0-9.3-7.6-16.9-16.9-16.9z"/>
			<path id="&lt;Path&gt;" class="s24" d="m254.9 642.6v0.1c0 9.4 7.5 16.9 16.8 16.9h154.7c9.3 0 16.9-7.5 16.9-16.9v-0.1z"/>
			<path id="&lt;Path&gt;" class="s9" d="m426.4 659.6h-42.9c-9.3 0-16.8-7.5-16.8-16.9v-158c0-9.3 7.5-16.9 16.8-16.9h42.9c9.3 0 16.9 7.6 16.9 16.9v158c0 9.4-7.6 16.9-16.9 16.9z"/>
			<path id="&lt;Path&gt;" class="s21" d="m426.4 650.6c4.3 0 7.9-3.5 7.9-7.9v-158c0-4.4-3.6-7.9-7.9-7.9h-42.9c-4.3 0-7.8 3.5-7.8 7.9v158c0 4.4 3.5 7.9 7.8 7.9z"/>
			<g id="&lt;Group&gt;">
				<g id="&lt;Group&gt;">
					<path id="&lt;Path&gt;" class="s25" d="m428.5 501.8h-47v-12.5h47z"/>
					<path id="&lt;Path&gt;" class="s25" d="m428.5 516.8h-47v-12.5h47z"/>
				</g>
				<g id="&lt;Group&gt;">
					<path id="&lt;Path&gt;" class="s9" d="m414.8 563.7c0 5.4-4.4 9.8-9.8 9.8-5.4 0-9.8-4.4-9.8-9.8 0-5.4 4.4-9.8 9.8-9.8 5.4 0 9.8 4.4 9.8 9.8z"/>
					<g id="&lt;Group&gt;" style="opacity: .9">
						<g id="&lt;Group&gt;">
							<path id="&lt;Path&gt;" class="s16" d="m407.2 561.8c1.9 2 0.7 5.5-2.2 5.5-2.9 0-4.2-3.5-2.3-5.5 0.9-1-0.6-2.6-1.5-1.5-3.1 3.3-1 9.1 3.8 9.1 4.8 0 6.9-5.8 3.8-9.1-1-1.1-2.5 0.5-1.6 1.5z"/>
						</g>
						<g id="&lt;Group&gt;">
							<path id="&lt;Path&gt;" class="s16" d="m403.9 558q0 2.4 0 4.9c0 1.4 2.1 1.4 2.1 0q0-2.5 0-4.9c0-1.4-2.1-1.4-2.1 0z"/>
						</g>
					</g>
				</g>
				<g id="&lt;Group&gt;">
					<path id="&lt;Path&gt;" class="s9" d="m389.4 592.7c0 1.6-1.3 3-3 3-1.6 0-3-1.4-3-3 0-1.7 1.4-3 3-3 1.7 0 3 1.3 3 3z"/>
					<path id="&lt;Path&gt;" class="s9" d="m401.8 592.7c0 1.6-1.4 3-3 3-1.7 0-3-1.4-3-3 0-1.7 1.3-3 3-3 1.6 0 3 1.3 3 3z"/>
					<path id="&lt;Path&gt;" class="s9" d="m414.2 592.7c0 1.6-1.4 3-3 3-1.7 0-3-1.4-3-3 0-1.7 1.3-3 3-3 1.6 0 3 1.3 3 3z"/>
					<path id="&lt;Path&gt;" class="s9" d="m426.5 592.7c0 1.6-1.3 3-3 3-1.6 0-3-1.4-3-3 0-1.7 1.4-3 3-3 1.7 0 3 1.3 3 3z"/>
					<path id="&lt;Path&gt;" class="s9" d="m395.6 603.3c0 1.7-1.3 3-3 3-1.6 0-3-1.3-3-3 0-1.6 1.4-3 3-3 1.7 0 3 1.4 3 3z"/>
					<path id="&lt;Path&gt;" class="s9" d="m408 603.3c0 1.7-1.4 3-3 3-1.7 0-3-1.3-3-3 0-1.6 1.3-3 3-3 1.6 0 3 1.4 3 3z"/>
					<path id="&lt;Path&gt;" class="s9" d="m420.3 603.3c0 1.7-1.3 3-3 3-1.6 0-3-1.3-3-3 0-1.6 1.4-3 3-3 1.7 0 3 1.4 3 3z"/>
					<path id="&lt;Path&gt;" class="s9" d="m389.4 615.1c0 1.7-1.3 3-3 3-1.6 0-3-1.3-3-3 0-1.6 1.4-3 3-3 1.7 0 3 1.4 3 3z"/>
					<path id="&lt;Path&gt;" class="s9" d="m401.8 615.1c0 1.7-1.4 3-3 3-1.7 0-3-1.3-3-3 0-1.6 1.3-3 3-3 1.6 0 3 1.4 3 3z"/>
					<path id="&lt;Path&gt;" class="s9" d="m414.2 615.1c0 1.7-1.4 3-3 3-1.7 0-3-1.3-3-3 0-1.6 1.3-3 3-3 1.6 0 3 1.4 3 3z"/>
					<path id="&lt;Path&gt;" class="s9" d="m426.5 615.1c0 1.7-1.3 3-3 3-1.6 0-3-1.3-3-3 0-1.6 1.4-3 3-3 1.7 0 3 1.4 3 3z"/>
					<path id="&lt;Path&gt;" class="s9" d="m395.6 625.8c0 1.7-1.3 3-3 3-1.6 0-3-1.3-3-3 0-1.7 1.4-3 3-3 1.7 0 3 1.3 3 3z"/>
					<path id="&lt;Path&gt;" class="s9" d="m408 625.8c0 1.7-1.4 3-3 3-1.7 0-3-1.3-3-3 0-1.7 1.3-3 3-3 1.6 0 3 1.3 3 3z"/>
					<path id="&lt;Path&gt;" class="s9" d="m420.3 625.8c0 1.7-1.3 3-3 3-1.6 0-3-1.3-3-3 0-1.7 1.4-3 3-3 1.7 0 3 1.3 3 3z"/>
					<path id="&lt;Path&gt;" class="s9" d="m389.4 637.6c0 1.7-1.3 3-3 3-1.6 0-3-1.3-3-3 0-1.6 1.4-3 3-3 1.7 0 3 1.4 3 3z"/>
					<path id="&lt;Path&gt;" class="s9" d="m401.8 637.6c0 1.7-1.4 3-3 3-1.7 0-3-1.3-3-3 0-1.6 1.3-3 3-3 1.6 0 3 1.4 3 3z"/>
					<path id="&lt;Path&gt;" class="s9" d="m414.2 637.6c0 1.7-1.4 3-3 3-1.7 0-3-1.3-3-3 0-1.6 1.3-3 3-3 1.6 0 3 1.4 3 3z"/>
					<path id="&lt;Path&gt;" class="s9" d="m426.5 637.6c0 1.7-1.3 3-3 3-1.6 0-3-1.3-3-3 0-1.6 1.4-3 3-3 1.7 0 3 1.4 3 3z"/>
				</g>
			</g>
		</g>
	</g>
	<g id="Character">
		<g id="&lt;Group&gt;">
			<g id="&lt;Group&gt;">
				<path id="&lt;Path&gt;" class="s26" d="m660.3 379.3l-12.1-5.5-17 7.1v8.4c0 0 26.3-0.9 26.3-0.8 0 0 29.7 9.9 40.6 8.3 11-1.5 45.9-50.1 45.9-50.1l-17.6-15.3-33.3 47.5z"/>
				<path id="&lt;Path&gt;" class="s24" d="m660.3 379.3l-12.1-5.5-17 7.1v8.4c0 0 26.3-0.9 26.3-0.8 0 0 0.8 0.2 2.1 0.6l8.4-9.9z"/>
				<path id="&lt;Path&gt;" class="s18" d="m714.7 345.2c0 0 12.1-21.6 19.8-28.4 4.7-4.2 11.3-5.5 15.7-5.8 2.8-0.3 5.2 1.9 5.2 4.7 0.1 8.6-2.1 27.1-19.7 46.2z"/>
				<path id="&lt;Path&gt;" class="s9" d="m714.7 341.1c0 0 14.7 7 23.4 20.6l-4.7 3.7c0 0-9.7-12.1-21.7-19.1z"/>
			</g>
			<g id="&lt;Group&gt;">
				<path id="&lt;Path&gt;" class="s27" d="m685 263.2l-6 9.4c0 0 3.1 2.4 7.5 0.8z"/>
				<g id="&lt;Group&gt;">
					<path id="&lt;Compound Path&gt;" fill-rule="evenodd" class="s9" d="m684 269.2c-3.7 0-6.7-3.2-6.7-7.1 0-4 3-7.2 6.7-7.2 3.7 0 6.6 3.2 6.6 7.2 0 3.9-2.9 7.1-6.6 7.1zm0-12.8c-2.9 0-5.2 2.6-5.2 5.7 0 3.1 2.3 5.6 5.2 5.6 2.8 0 5.1-2.5 5.1-5.6 0-3.1-2.3-5.7-5.1-5.7z"/>
				</g>
				<path id="&lt;Path&gt;" class="s28" d="m681.4 261.9c0 1.2 0.6 2.2 1.4 2.2 0.8 0.1 1.5-1 1.5-2.1 0-1.2-0.6-2.3-1.4-2.3-0.8 0-1.5 1-1.5 2.2z"/>
				<path id="&lt;Path&gt;" class="s26" d="m728.2 254.3c0.6 16.2 1.2 23-6.2 32-11.6 9.6-30.9 10.7-36.3-5-4.8-14.1-4.9-38 10.2-46 10.8-5.7 24.1-1.5 29.8 9.2 1.6 3.1 2.5 6.4 2.5 9.8z"/>
				<path id="&lt;Path&gt;" class="s29" d="m705.6 293.2l-0.1-0.8c-0.3-1.7-2-2.9-3.7-2.4l-6.6 1.8c3.2 1.3 6.7 1.7 10.4 1.4z"/>
				<path id="&lt;Path&gt;" class="s28" d="m685.8 256.4c-0.2 0.1-0.5 0-0.6-0.2-1-1.2-2.5-1.9-4.2-1.9-0.3 0.1-0.6-0.2-0.7-0.5 0-0.4 0.2-0.7 0.6-0.7 2-0.2 4 0.7 5.3 2.3 0.2 0.3 0.2 0.7-0.1 0.9q-0.1 0.1-0.3 0.1z"/>
				<path id="&lt;Path&gt;" class="s26" d="m705 289.1l3.5 24 20-4.2-6.4-24.5z"/>
				<path id="&lt;Path&gt;" class="s28" d="m684.9 241.3c6.8 12.9 11.6 1.1 10.3 11.5-1.2 10.5 2.5 13.9 2.5 13.9l13.7 20.4c0.7 1.1 2.1 1.4 3.3 0.9 3.6-1.5 5.9-1.2 7.2-0.7 0.9 0.4 1.9 0.3 2.6-0.4 3.1-2.7 10.4-10.6 12.7-25 4.4-28.2-17.3-32.5-17.3-32.5-12-2.5-8.9-15.2-16.1-15.2-5.5 0-3.9 8.9-3.9 8.9 0 0-5.8-4.3-9.2-2.8-4.4 1.9-0.5 10.9-0.5 10.9 0 0-12-2.7-5.3 10.1z"/>
				<g id="&lt;Group&gt;">
					<path id="&lt;Path&gt;" class="s9" d="m699 259.1h-20l1-2h19z"/>
				</g>
				<path id="&lt;Path&gt;" class="s30" d="m694.9 261.5c-0.6 3.3 0.2 6.6 2.1 9.3 2.5 3.6 6.5 2 8.2-1.8 1.4-3.5 1.8-9.4-1.8-11.7-3.7-2.2-7.7 0.3-8.5 4.2z"/>
			</g>
			<path id="&lt;Path&gt;" class="s18" d="m699.6 304.3c0 0 12.8-12.1 26.3-11.1 9.2 0.6 12 12.1 12 12.1z"/>
			<path id="&lt;Path&gt;" class="s13" d="m699.6 304.3c0 0 12.8-12.1 26.3-11.1 9.2 0.6 12 12.1 12 12.1z"/>
			<path id="&lt;Path&gt;" class="s18" d="m708.3 451.3l-28.2-137.5c-1.1-5.5 2.6-10.6 8.1-11 17.7-1.5 53.3-2.9 65.2 8 27.8 25.5 30 142.5 30 142.5z"/>
			<path id="&lt;Path&gt;" class="s31" d="m688.1 311.7c0 0-4.5 1.7-7.5 4.6l9.3 45.3c8.3-18.6 7.7-49.9 7.7-49.9z"/>
			<g id="&lt;Group&gt;">
				<path id="&lt;Path&gt;" class="s26" d="m604.1 377.5l-11.9-5.9-16.8 7.7v9.3c0 0 26-1 26-0.9 0 0 29.3 10.8 40.2 9.1 10.8-1.6 45.3-55 45.3-55l-17.3-16.8-33 52.2z"/>
				<path id="&lt;Path&gt;" class="s18" d="m657.9 340.2c0 0 12-23.7 19.7-31.2 7.6-7.5 20.3-6.5 20.3-6.5 0 0 4.5 27.4-19.2 56z"/>
				<path id="&lt;Path&gt;" class="s18" d="m657.9 335.7c0 0 14.6 7.6 23.2 22.6l-4.7 4c0 0-9.5-13.3-21.4-20.9z"/>
				<path id="&lt;Path&gt;" class="s13" d="m657.9 335.7c0 0 14.6 7.6 23.2 22.6l-4.7 4c0 0-9.5-13.3-21.4-20.9z"/>
			</g>
			<g id="&lt;Group&gt;">
				<g id="&lt;Group&gt;">
					<path id="&lt;Path&gt;" class="s26" d="m700.2 601.4l6.8 33.2 13.5-2-3.2-32.3z"/>
					<path id="&lt;Path&gt;" class="s10" d="m719.4 621.6l-2.1-21.3-17.1 1.1 4.2 20.8z"/>
				</g>
				<g id="&lt;Group&gt;">
					<path id="&lt;Path&gt;" class="s9" d="m780.4 450.3c0 0 6.9 36-16.6 36-23.5 0-54.8 7.7-54.8 7.7 0 0 9 8.5 11 117.5l-19.5 0.8c0 0-32.4-122.9-26-136.5 9-19 55.6-25.5 55.6-25.5z"/>
					<path id="&lt;Path&gt;" class="s10" d="m780.4 450.3c0 0 6.9 36-16.6 36-23.5 0-54.8 7.7-54.8 7.7 0 0 9 8.5 11 117.5l-19.5 0.8c0 0-32.4-122.9-26-136.5 9-19 55.6-25.5 55.6-25.5z"/>
				</g>
				<g id="&lt;Group&gt;">
					<path id="&lt;Path&gt;" class="s9" d="m696.4 606.5l26.5-0.7-0.9 11-22.2 1z"/>
					<path id="&lt;Path&gt;" class="s11" d="m696.4 606.5l26.5-0.7-0.9 11-22.2 1z"/>
				</g>
				<g id="&lt;Group&gt;">
					<path id="&lt;Compound Path&gt;" fill-rule="evenodd" class="s9" d="m700.9 636.7c-1.7 0.2-3.6 0.1-4.2-0.5-0.4-0.4-0.4-1-0.2-1.5 0.2-0.4 0.5-0.7 1-0.9 2.2-0.9 7.5 1.3 7.7 1.4 0.2 0 0.2 0.2 0.2 0.3 0 0.2-0.1 0.3-0.2 0.3q-2.1 0.7-4.3 0.9zm-2.5-2.4q-0.4 0-0.7 0.1c-0.2 0.1-0.5 0.3-0.6 0.6-0.2 0.4 0 0.6 0.1 0.7 0.7 0.8 4.3 0.4 6.9-0.2-1.8-0.8-3.8-1.2-5.7-1.2z"/>
					<path id="&lt;Compound Path&gt;" fill-rule="evenodd" class="s9" d="m705.1 635.8q0 0.1-0.1 0c-1.8-0.5-5.5-3.2-5.4-4.8 0-0.4 0.2-0.9 1.1-1.1 0.7-0.1 1.4 0 1.9 0.4 2 1.2 2.8 5 2.9 5.2q0 0.2-0.1 0.3-0.1 0-0.3 0zm-4.1-5.3h-0.2c-0.6 0.2-0.6 0.4-0.6 0.5 0 1 2.5 3.1 4.4 3.9-0.4-1.6-1.2-3-2.4-4.1-0.3-0.2-0.8-0.3-1.2-0.3z"/>
					<path id="&lt;Path&gt;" class="s9" d="m706.4 633.7l15.4-1.9c0.5 0 1.1 0.3 1.3 0.9l4.3 12.1c0.4 1.1-0.2 2.3-1.3 2.7q-0.2 0.1-0.4 0.1c-5.6 0.6-10.5 0.8-17.4 1.7-8.2 1-6 1.7-15.5 3-5.8 0.7-7.6-5.7-5.2-6.3 11-2.8 11.8-6.3 15.6-10.8 0.8-0.9 2-1.4 3.2-1.5z"/>
				</g>
			</g>
			<g id="&lt;Group&gt;">
				<g id="&lt;Group&gt;">
					<path id="&lt;Path&gt;" class="s26" d="m660.6 610.3l12.8 31 12.4-2.5-8.6-33.1z"/>
					<path id="&lt;Path&gt;" class="s10" d="m682.9 627.8l-5.7-22.1-16.6 4.6 8.3 20.2z"/>
				</g>
				<path id="&lt;Path&gt;" class="s9" d="m780.4 450.3c0 0 14.5 37.6-33.5 36-18.4-0.6-98 18-98 18 0 0 14.4 7.5 32.4 108l-20.4 4.6c0 0-57.7-114.1-51.4-127.6 9-19 103.8-39 103.8-39z"/>
				<g id="&lt;Group&gt;">
					<path id="&lt;Path&gt;" class="s9" d="m658.4 615.7l24.2-5.2 2.5 10-23.2 5.3z"/>
					<path id="&lt;Path&gt;" class="s11" d="m658.4 615.7l24.2-5.2 2.5 10-23.2 5.3z"/>
				</g>
				<g id="&lt;Group&gt;">
					<path id="&lt;Compound Path&gt;" fill-rule="evenodd" class="s9" d="m665.7 642.7c-1.8 0.2-3.6 0.1-4.3-0.6-0.3-0.4-0.4-1-0.1-1.4 0.2-0.4 0.5-0.8 0.9-0.9 2.3-1 7.5 1.3 7.8 1.4 0.1 0 0.2 0.1 0.2 0.3 0 0.1-0.1 0.2-0.3 0.3q-2 0.6-4.2 0.9zm-2.6-2.5q-0.3 0.1-0.6 0.2c-0.3 0.1-0.5 0.3-0.6 0.5-0.2 0.5-0.1 0.7 0 0.8 0.8 0.8 4.3 0.4 6.9-0.2-1.8-0.8-3.7-1.2-5.7-1.3z"/>
					<path id="&lt;Compound Path&gt;" fill-rule="evenodd" class="s9" d="m669.9 641.8q-0.1 0-0.2 0c-1.7-0.5-5.5-3.2-5.4-4.8 0-0.4 0.3-0.9 1.2-1.1 0.6-0.1 1.3 0 1.9 0.3 2 1.3 2.8 5.1 2.8 5.2q0.1 0.2-0.1 0.4-0.1 0-0.2 0zm-4.1-5.3h-0.2c-0.6 0.1-0.6 0.4-0.7 0.5 0.1 0.9 2.6 3.1 4.5 3.9-0.4-1.6-1.2-3-2.4-4.1-0.4-0.2-0.8-0.3-1.2-0.3z"/>
					<path id="&lt;Path&gt;" class="s9" d="m671.1 639.7l15.4-1.9c0.6-0.1 1.1 0.3 1.3 0.8l4.3 12.2c0.4 1.1-0.2 2.3-1.2 2.7q-0.2 0-0.5 0.1c-5.5 0.5-10.5 0.8-17.4 1.6-8.1 1-5.9 1.8-15.5 3-5.7 0.8-7.6-5.6-5.2-6.2 11-2.8 11.8-6.3 15.6-10.8 0.9-0.9 2-1.5 3.2-1.5z"/>
				</g>
			</g>
		</g>
	</g>
	<g id="Chair">
		<g id="&lt;Group&gt;">
			<g id="&lt;Group&gt;">
				<path id="&lt;Path&gt;" class="s18" d="m824.3 620.3c-12.2-2-30.3-4.9-38.4-5.5-1.8-0.1-4-0.2-6.5-0.3v-62.7h-15.3v62.7c-2.5 0.1-4.7 0.2-6.5 0.3-8 0.6-26.2 3.5-38.4 5.5-7 1.1-12.2 7.2-12.2 14.3v3.2h14.9l2-4.4c0 0 28-4.9 37.4-5.6 5.2-0.4 15.7-0.4 20.9 0 9.4 0.7 37.4 5.6 37.4 5.6l2 4.4h14.9v-3.2c0-7.1-5.1-13.2-12.2-14.3z"/>
				<path id="&lt;Path&gt;" class="s23" d="m824.3 620.3c-12.2-2-30.3-4.9-38.4-5.5-1.8-0.1-4-0.2-6.5-0.3v-62.7h-15.3v62.7c-2.5 0.1-4.7 0.2-6.5 0.3-8 0.6-26.2 3.5-38.4 5.5-7 1.1-12.2 7.2-12.2 14.3v3.2h14.9l2-4.4c0 0 28-4.9 37.4-5.6 5.2-0.4 15.7-0.4 20.9 0 9.4 0.7 37.4 5.6 37.4 5.6l2 4.4h14.9v-3.2c0-7.1-5.1-13.2-12.2-14.3z"/>
				<path id="&lt;Path&gt;" class="s18" d="m777 560.8h-10.4c-4 0-7.2-3.2-7.2-7.1v-53h24.7v53c0 3.9-3.2 7.1-7.1 7.1z"/>
				<path id="&lt;Path&gt;" class="s10" d="m759.4 515.3h24.7v-14.6h-24.7z"/>
				<g id="&lt;Group&gt;">
					<path id="&lt;Path&gt;" class="s18" d="m840.8 648.3c0 5.8-4.7 10.5-10.5 10.5-5.8 0-10.5-4.7-10.5-10.5 0-5.8 4.7-10.5 10.5-10.5 5.8 0 10.5 4.7 10.5 10.5z"/>
					<path id="&lt;Path&gt;" class="s18" d="m723.8 648.3c0 5.8-4.7 10.5-10.5 10.5-5.8 0-10.5-4.7-10.5-10.5 0-5.8 4.7-10.5 10.5-10.5 5.8 0 10.5 4.7 10.5 10.5z"/>
				</g>
			</g>
			<g id="&lt;Group&gt;">
				<g id="&lt;Group&gt;">
					<g id="&lt;Group&gt;">
						<path id="&lt;Path&gt;" class="s9" d="m855.1 488.2c-14.7-3.7-29.8-5.8-45-6.2-15.6-0.4-74-0.1-87.9-0.1-16.9 0-33.8 2.1-50.2 6.3-10.3 2.6-7.1 17.5 2.2 17.7 0.8 0 177.5-0.1 178.2 0 9.7 0.4 13.2-15 2.7-17.7z"/>
						<path id="&lt;Path&gt;" class="s20" d="m855.1 488.2c-14.7-3.7-29.8-5.8-45-6.2-15.6-0.4-74-0.1-87.9-0.1-16.9 0-33.8 2.1-50.2 6.3-10.3 2.6-7.1 17.5 2.2 17.7 0.8 0 177.5-0.1 178.2 0 9.7 0.4 13.2-15 2.7-17.7z"/>
					</g>
					<g id="&lt;Group&gt;">
						<path id="&lt;Path&gt;" class="s9" d="m676.8 505.6c29.7-7.6 61.1-7.6 90.8 0 11.2 2.8 16-14.5 4.8-17.4-32.8-8.4-67.6-8.4-100.4 0-11.2 2.9-6.5 20.2 4.8 17.4z"/>
					</g>
					<g id="&lt;Group&gt;" style="opacity: .4">
						<path id="&lt;Path&gt;" class="s16" d="m676.8 505.6c29.7-7.6 61.1-7.6 90.8 0 11.2 2.8 16-14.5 4.8-17.4-32.8-8.4-67.6-8.4-100.4 0-11.2 2.9-6.5 20.2 4.8 17.4z"/>
					</g>
				</g>
				<path id="&lt;Path&gt;" class="s9" d="m807.8 359.4c-1.8 0-3.7 0.8-4.9 2.9-23.8 39.6-32.3 87.2-24.1 132.6 0.5 2.8 2.5 4.1 4.6 4.3 3.7 0.2 67.8 0 70.1 0 3.5 0 7.4-3 6.6-7.5-7.7-42.2 0.7-86.7 22.8-123.4 2.7-4.5-1.3-8.8-5.4-8.9-1.8 0-65.6 0.1-69.7 0z"/>
				<path id="&lt;Path&gt;" class="s10" d="m807.8 359.4c-1.8 0-3.7 0.8-4.9 2.9-23.8 39.6-32.3 87.2-24.1 132.6 0.5 2.8 2.5 4.1 4.6 4.3 3.7 0.2 67.8 0 70.1 0 3.5 0 7.4-3 6.6-7.5-7.7-42.2 0.7-86.7 22.8-123.4 2.7-4.5-1.3-8.8-5.4-8.9-1.8 0-65.6 0.1-69.7 0z"/>
				<g id="&lt;Group&gt;">
					<path id="&lt;Path&gt;" class="s9" d="m790.4 491.7c-7.6-42.2 0.8-86.7 22.8-123.4 4-6.6-6.3-12.7-10.3-6-23.8 39.6-32.3 87.2-24.1 132.6 1.4 7.6 13 4.3 11.6-3.2z"/>
				</g>
				<g id="&lt;Group&gt;" style="opacity: .4">
					<path id="&lt;Path&gt;" class="s16" d="m790.4 491.7c-7.6-42.2 0.8-86.7 22.8-123.4 4-6.6-6.3-12.7-10.3-6-23.8 39.6-32.3 87.2-24.1 132.6 1.4 7.6 13 4.3 11.6-3.2z"/>
				</g>
				<g id="&lt;Group&gt;">
					<g id="&lt;Group&gt;">
						<path id="&lt;Path&gt;" class="s18" d="m711.8 439.5q30.9 28.3 61.8 56.5c4.3 4 10.7-2.4 6.4-6.3q-30.9-28.3-61.8-56.6c-4.3-3.9-10.7 2.5-6.4 6.4z"/>
					</g>
					<g id="&lt;Group&gt;" style="opacity: .5">
						<path id="&lt;Path&gt;" class="s16" d="m711.8 439.5q30.9 28.3 61.8 56.5c4.3 4 10.7-2.4 6.4-6.3q-30.9-28.3-61.8-56.6c-4.3-3.9-10.7 2.5-6.4 6.4z"/>
					</g>
					<path id="&lt;Path&gt;" class="s10" d="m718.2 433.1c-4.3-3.9-10.7 2.5-6.4 6.4q5.9 5.4 11.8 10.8h13.4q-9.4-8.6-18.8-17.2z"/>
				</g>
				<g id="&lt;Group&gt;">
					<g id="&lt;Group&gt;">
						<path id="&lt;Path&gt;" class="s9" d="m679.6 442.3c31.6 0 53.2 0 84.8 0 7.7 0 7.7-12 0-12-31.6 0-53.2 0-84.8 0-7.7 0-7.8 12 0 12z"/>
					</g>
					<g id="&lt;Group&gt;" style="opacity: .3">
						<path id="&lt;Path&gt;" class="s16" d="m679.6 442.3c31.6 0 53.2 0 84.8 0 7.7 0 7.7-12 0-12-31.6 0-53.2 0-84.8 0-7.7 0-7.8 12 0 12z"/>
					</g>
				</g>
			</g>
		</g>
	</g>
</svg>