<svg version="1.2" xmlns="http://www.w3.org/2000/svg" viewBox="0 0 1000 708" width="1000" height="708">
	<title>4421963-ai</title>
	<style>
		tspan { white-space:pre } 
		.s0 { fill: #e5f1ff } 
		.s1 { fill: #a9ccea } 
		.s2 { fill: #0f3157 } 
		.s3 { fill: #ff4d6b } 
		.s4 { fill: none;stroke: #ff4d6b;stroke-linecap: round;stroke-linejoin: round;stroke-width: 2.3;stroke-dasharray: 0,11.2762 } 
		.s5 { fill: #289df2 } 
		.s6 { fill: #0f3775 } 
		.s7 { fill: #284d89 } 
		.s8 { fill: #2889db } 
		.s9 { fill: #ffffff } 
		.s10 { fill: #282e5c } 
		.s11 { fill: none;stroke: #ffffff;stroke-miterlimit:10;stroke-width: 2.3 } 
		.s12 { fill: #289df2;stroke: #ffffff;stroke-miterlimit:10;stroke-width: 2.3 } 
		.s13 { fill: #289df2;stroke: #ffffff;stroke-miterlimit:10;stroke-width: 1.1 } 
		.s14 { fill: none;stroke: #284d89;stroke-linecap: round;stroke-linejoin: round;stroke-width: 4.5 } 
		.s15 { fill: none;stroke: #ff5c66;stroke-miterlimit:10;stroke-width: 2 } 
		.s16 { fill: none;stroke: #f7f7f7;stroke-miterlimit:10;stroke-width: .5 } 
		.s17 { fill: #f7f7f7 } 
		.s18 { fill: none;stroke: #f7f7f7;stroke-miterlimit:10;stroke-width: 1 } 
		.t19 { font-size: 8px;line-height: 23px;fill: #f7f7f7;font-weight: 400;font-family: "BebasNeueRegular", "Bebas Neue" } 
		.s20 { fill: #28385e } 
		.t21 { font-size: 8px;line-height: 23px;fill: #f7f7f7;font-weight: 400;font-family: "BebasNeueBook", "Bebas Neue" } 
		.s22 { fill: none;stroke: #289df2;stroke-miterlimit:10;stroke-width: 2.3 } 
		.s23 { fill: #f9fbfc } 
		.s24 { fill: none;stroke: #ff4d6b;stroke-miterlimit:10;stroke-width: 2.3 } 
		.s25 { fill: #1ae5ff } 
		.s26 { fill: #287dd1 } 
		.s27 { fill: none;stroke: #289df2;stroke-linecap: round;stroke-linejoin: round;stroke-width: 2.3 } 
	</style>
	<g id="OBJECTS">
		<g id="&lt;Group&gt;">
			<path id="&lt;Path&gt;" class="s0" d="m903.9 225.1c0 94.8-76.9 171.7-171.7 171.7-94.8 0-171.6-76.9-171.6-171.7 0-94.8 76.8-171.6 171.6-171.6 94.8 0 171.7 76.8 171.7 171.6z"/>
			<path id="&lt;Path&gt;" class="s0" d="m390.3 587c0 55.4-44.9 100.3-100.3 100.3-55.4 0-100.3-44.9-100.3-100.3 0-55.4 44.9-100.3 100.3-100.3 55.4 0 100.3 44.9 100.3 100.3z"/>
			<g id="&lt;Group&gt;">
				<path id="&lt;Compound Path&gt;" fill-rule="evenodd" class="s1" d="m380.4 202.4c0 50.7-41.1 91.7-91.7 91.7-50.7 0-91.8-41-91.8-91.7 0-50.6 41.1-91.7 91.8-91.7 50.6 0 91.7 41.1 91.7 91.7zm-33.1 0c0-32.4-26.3-58.6-58.6-58.6-32.4 0-58.7 26.2-58.7 58.6 0 32.4 26.3 58.7 58.7 58.7 32.3 0 58.6-26.3 58.6-58.7z"/>
				<path id="&lt;Compound Path&gt;" class="s2" d="m635.2 697.1c0 5.8-4.8 10.5-10.6 10.5h-266.1c-5.8 0-10.5-4.7-10.5-10.5 0-5.8 4.7-10.5 10.5-10.5h94.5l13-24.1h22.6 6 22.5l13.1 24.1h94.4c5.8 0 10.6 4.7 10.6 10.5z"/>
				<path id="&lt;Path&gt;" class="s3" d="m511.2 653.5h-43.6v-12.8h43.6z"/>
				<path id="&lt;Path&gt;" class="s3" d="m511.2 632.4h-43.6v-12.7h43.6z"/>
				<path id="&lt;Path&gt;" class="s4" d="m836.5 576.4c-7.6 2.9-15.8 4.5-24.4 4.5-37.7 0-68.2-30.5-68.2-68.2 0-37.6 30.5-68.2 68.2-68.2 37.7 0 68.2 30.6 68.2 68.2 0 10.1-2.2 19.7-6.1 28.3"/>
				<path id="&lt;Compound Path&gt;" fill-rule="evenodd" class="s5" d="m652.5 201.1v24.2c0 4.7-3.8 8.5-8.5 8.5h-10.9c-2.2 9.7-6 18.7-11.1 26.9l7.7 7.7c3.3 3.4 3.3 8.7 0 12l-17.1 17.1c-3.4 3.4-8.7 3.4-12.1 0l-7.6-7.6c-8.2 5-17.3 8.9-27 11.1v10.9c0 4.7-3.8 8.5-8.5 8.5h-24.2c-4.7 0-8.5-3.8-8.5-8.5v-10.9c-9.6-2.2-18.7-6.1-26.9-11.1l-7.7 7.6c-3.3 3.4-8.7 3.4-12 0l-17.1-17.1c-3.3-3.3-3.3-8.6 0-12l7.7-7.7c-5.1-8.2-8.9-17.2-11.2-26.9h-10.9c-4.7 0-8.5-3.8-8.5-8.5v-24.2c0-4.7 3.8-8.5 8.5-8.5h10.9c2.3-9.7 6.1-18.7 11.2-26.9l-7.7-7.7c-3.3-3.3-3.3-8.7 0-12l17.1-17.1c3.3-3.4 8.7-3.4 12 0l7.7 7.7c8.2-5.1 17.3-8.9 26.9-11.2v-10.9c0-4.7 3.8-8.5 8.5-8.5h24.2c4.7 0 8.5 3.8 8.5 8.5v10.9c9.7 2.3 18.8 6.1 27 11.2l7.6-7.7c3.4-3.4 8.7-3.4 12.1 0l17.1 17.1c3.3 3.3 3.3 8.7 0 12l-7.7 7.7c5.1 8.2 8.9 17.2 11.1 26.9h10.9c4.7 0 8.5 3.8 8.5 8.5zm-64 12.1c0-23.8-19.4-43.1-43.2-43.1-23.8 0-43.1 19.3-43.1 43.1 0 23.8 19.3 43.1 43.1 43.1 23.8 0 43.2-19.3 43.2-43.1z"/>
				<path id="&lt;Path&gt;" class="s6" d="m192 613.9c-12.6 0-22.9-10.3-22.9-22.9v-359c0-12.6 10.3-22.9 22.9-22.9h599.1c12.7 0 23 10.3 23 22.9v359c0 12.6-10.3 22.9-23 22.9z"/>
				<path id="&lt;Path&gt;" class="s7" d="m282.6 273.8h-66.5v-14.6h66.5z"/>
				<path id="&lt;Path&gt;" class="s7" d="m362.7 273.8h-66.5v-14.6h66.5z"/>
				<path id="&lt;Path&gt;" class="s7" d="m565.7 273.8h-66.6v-14.6h66.6z"/>
				<path id="&lt;Path&gt;" class="s7" d="m768.6 273.8h-66.5v-14.6h66.5z"/>
				<path id="&lt;Path&gt;" class="s3" d="m490.7 273.8h-119v-14.6h119z"/>
				<path id="&lt;Path&gt;" class="s8" d="m692.5 273.8h-118.9v-14.6h118.9z"/>
				<path id="&lt;Path&gt;" class="s8" d="m228.1 254.7h-11.6v-7.2h11.6z"/>
				<g id="&lt;Group&gt;">
					<path id="&lt;Path&gt;" class="s9" d="m338.1 293h-121.6v-7.1h121.6z"/>
					<path id="&lt;Path&gt;" class="s9" d="m252.6 305.6h-36.1v-7.1h36.1z"/>
				</g>
				<path id="&lt;Path&gt;" class="s7" d="m345.2 562.5h-112.7c-8.4 0-15.3-6.8-15.3-15.2v-204.1c0-8.4 6.9-15.2 15.3-15.2h112.7c8.4 0 15.3 6.8 15.3 15.2v204.1c0 8.4-6.9 15.2-15.3 15.2z"/>
				<g id="&lt;Group&gt;">
					<path id="&lt;Path&gt;" class="s9" d="m283.2 369.7h-47.9v-7.3h47.9z"/>
					<path id="&lt;Path&gt;" class="s9" d="m283.2 386h-47.9v-7.3h47.9z"/>
					<path id="&lt;Path&gt;" class="s9" d="m283.2 402.4h-47.9v-7.3h47.9z"/>
				</g>
				<path id="&lt;Path&gt;" class="s9" d="m264.6 470.6h-29.3v-7.3h29.3z"/>
				<path id="&lt;Path&gt;" class="s9" d="m264.6 487h-29.3v-7.4h29.3z"/>
				<path id="&lt;Path&gt;" class="s9" d="m315 487h-29.3v-7.4h29.3z"/>
				<path id="&lt;Path&gt;" class="s9" d="m253.7 452h-18.4v-7.3h18.4z"/>
				<path id="&lt;Path&gt;" class="s9" d="m324 452h-9.8v-7.3h9.8z"/>
				<path id="&lt;Path&gt;" class="s3" d="m310.5 452h-50.4v-7.3h50.4z"/>
				<path id="&lt;Path&gt;" class="s8" d="m242.3 424.4h-7v-7.3h7z"/>
				<path id="&lt;Path&gt;" class="s3" d="m242.3 437.4h-7v-7.4h7z"/>
				<path id="&lt;Path&gt;" class="s9" d="m274.4 488.5h-2.7l6.3-9.4h2.7z"/>
				<path id="&lt;Path&gt;" class="s10" d="m344.1 507.3h-108.8v-6.2h108.8z"/>
				<path id="&lt;Path&gt;" class="s10" d="m344.1 521.4h-108.8v-6.2h108.8z"/>
				<path id="&lt;Path&gt;" class="s5" d="m867.5 424.9h-299.2c-7.5 0-13.5-6-13.5-13.5v-81.2c0-7.4 6-13.5 13.5-13.5h299.2c7.5 0 13.5 6.1 13.5 13.5v81.2c0 7.5-6 13.5-13.5 13.5z"/>
				<path id="&lt;Path&gt;" class="s11" d="m651.8 386.6c0 0 16.5-40.6 63.9-30.8 47.3 9.8 71.4 63.1 132.3 19.5"/>
				<path id="&lt;Path&gt;" class="s12" d="m805.1 395.6h-6.8v-6.7h6.8z"/>
				<path id="&lt;Path&gt;" class="s13" d="m660 353.9h85.7"/>
				<path id="&lt;Path&gt;" class="s13" d="m758.9 394.1h85.7"/>
				<path id="&lt;Path&gt;" class="s12" d="m702.9 357.3h-6.8v-6.8h6.8z"/>
				<g id="&lt;Group&gt;">
					<path id="&lt;Path&gt;" class="s7" d="m611.9 452.8h-64.6c-5.4 0-9.8-4.4-9.8-9.8v-97c0-5.4 4.4-9.8 9.8-9.8h64.6c5.4 0 9.8 4.4 9.8 9.8v97c0 5.4-4.4 9.8-9.8 9.8z"/>
					<g id="&lt;Group&gt;">
						<g id="&lt;Group&gt;">
							<path id="&lt;Path&gt;" class="s9" d="m598.6 359.4h-48v-6.6h48z"/>
							<path id="&lt;Path&gt;" class="s9" d="m598.6 374.1h-48v-6.6h48z"/>
							<path id="&lt;Path&gt;" class="s9" d="m568.7 388.9h-18.1v-6.6h18.1z"/>
						</g>
						<g id="&lt;Group&gt;">
							<path id="&lt;Path&gt;" class="s5" d="m581.8 404.1h-31.2v-6.6h31.2z"/>
							<path id="&lt;Path&gt;" class="s5" d="m571.7 418.9h-21.1v-6.7h21.1z"/>
							<path id="&lt;Path&gt;" class="s9" d="m571.7 433.6h-21.1v-6.6h21.1z"/>
						</g>
					</g>
				</g>
				<path id="&lt;Path&gt;" class="s14" d="m828.4 302h33.8"/>
				<g id="&lt;Group&gt;">
					<path id="&lt;Path&gt;" class="s15" d="m752.4 492.9l-11.7 9.2-16.7 3c0 0-15.8-1-17.3-1-1.5 0-12.2-8.6-12.2-8.6l-19.8-7.2-13.7 5.1-16.2-3.5-24.4-1.6-23.3 9.2-19.3 3-17.3 5.6-19.3 1.5-20.8-16.2-19.3-3.6-19.8 11.2-15.7 5.1-17.9-0.5-22.5 13.7h-13.4l-22.7 7.9"/>
					<g id="&lt;Group&gt;">
						<g id="&lt;Group&gt;">
							<path id="&lt;Path&gt;" class="s16" d="m389.5 525.6h363.4"/>
							<path id="&lt;Path&gt;" class="s17" d="m389.6 530.1h-3.7v-9.1h3.7z"/>
							<path id="&lt;Path&gt;" class="s17" d="m754.4 530.1h-3.7v-9.1h3.7z"/>
						</g>
						<path id="&lt;Path&gt;" class="s18" d=""/>
					</g>
					<path id="&lt;Path&gt;" class="s16" d="m752.6 525.6v-30.7"/>
					<path id="&lt;Path&gt;" class="s17" d="m754.6 493.4c0 1.6-1.3 2.9-2.9 2.9-1.6 0-2.9-1.3-2.9-2.9 0-1.6 1.3-2.9 2.9-2.9 1.6 0 2.9 1.3 2.9 2.9z"/>
					<text id="beta test
" style="transform: matrix(2,0,0,2,389.959,547.008)" >
						<tspan x="0" y="0" class="t19" dx="0 0 0 0 0 0 0 0 0 0" >beta test
</tspan>
					</text>
					<path id="&lt;Path&gt;" class="s20" d="m699.4 542.8h-226v-4h226z"/>
					<path id="&lt;Path&gt;" class="s3" d="m612.1 542.8h-138.7v-4h138.7z"/>
					<path id="&lt;Path&gt;" class="s20" d="m584.5 550.6h-111.1v-4h111.1z"/>
					<g id="&lt;Group&gt;">
						<path id="&lt;Path&gt;" class="s3" d="m402.9 558.7h13.7l1.8-3.9h-27.7v6.4h9.7z"/>
						<path id="&lt;Path&gt;" class="s17" d="m431.3 556.3h-1.5v-1.5h1.5z"/>
						<path id="&lt;Path&gt;" class="s17" d="m440.8 556.3h-1.6v-1.5h1.6z"/>
						<path id="&lt;Path&gt;" class="s17" d="m450.2 556.3h-1.5v-1.5h1.5z"/>
					</g>
					<text id="500
" style="transform: matrix(2,0,0,2,734.801,483.274)" >
						<tspan x="0" y="0" class="t21" dx="0 0 0 0" >500
</tspan>
					</text>
					<g id="&lt;Group&gt;">
						<path id="&lt;Path&gt;" class="s20" d="m715.7 551h-3.4l-5.4-12.2h3.4z"/>
						<path id="&lt;Path&gt;" class="s20" d="m724.5 551h-3.4l-5.4-12.2h3.4z"/>
						<path id="&lt;Path&gt;" class="s20" d="m733.3 551h-3.4l-5.4-12.2h3.4z"/>
						<path id="&lt;Path&gt;" class="s20" d="m742.1 551h-3.4l-5.4-12.2h3.4z"/>
						<path id="&lt;Path&gt;" class="s20" d="m750.7 551h-3.4l-5.4-12.2h3.4z"/>
					</g>
				</g>
				<g id="&lt;Group&gt;">
					<g id="&lt;Group&gt;">
						<path id="&lt;Path&gt;" class="s1" d="m681 141.4v-9.9h55v9.9z"/>
						<path id="&lt;Path&gt;" class="s1" d="m681 159v-9.9h83v9.9z"/>
						<path id="&lt;Path&gt;" class="s1" d="m681 176.6v-9.8h102.3v9.8z"/>
						<path id="&lt;Path&gt;" class="s1" d="m681 194.3v-9.9h39.1v9.9z"/>
					</g>
				</g>
				<g id="&lt;Group&gt;">
					<g id="&lt;Group&gt;">
						<path id="&lt;Path&gt;" class="s8" d="m103.7 260.1v-9.8h55v9.8z"/>
						<path id="&lt;Path&gt;" class="s1" d="m103.7 277.8v-9.9h82.9v9.9z"/>
						<path id="&lt;Path&gt;" class="s1" d="m103.7 295.4v-9.8h102.3v9.8z"/>
						<path id="&lt;Path&gt;" class="s1" d="m103.7 313v-9.8h39.1v9.8z"/>
					</g>
				</g>
				<path id="&lt;Path&gt;" class="s22" d="m475.5 626.8h-234.6v-30.5h234.6z"/>
				<path id="&lt;Path&gt;" class="s22" d="m365.3 425.7h-11.2v-69.2h11.2z"/>
				<g id="&lt;Group&gt;">
					<path id="&lt;Path&gt;" class="s3" d="m851 512.7c0 21.5-17.4 38.9-38.9 38.9-21.5 0-38.9-17.4-38.9-38.9 0-21.4 17.4-38.8 38.9-38.8 21.5 0 38.9 17.4 38.9 38.8z"/>
					<g id="&lt;Group&gt;">
						<g id="&lt;Group&gt;">
							<path id="&lt;Compound Path&gt;" class="s23" d="m809.3 509.1l-15.5 5.6 15.5 5.6v5.8l-22.1-8.4v-6l22.1-8.4z"/>
						</g>
						<g id="&lt;Group&gt;">
							<path id="&lt;Compound Path&gt;" class="s23" d="m814.3 503.3l22.1 8.4v6l-22.1 8.4v-5.8l15.5-5.6-15.5-5.6z"/>
						</g>
					</g>
				</g>
				<path id="&lt;Path&gt;" class="s24" d="m876.9 544.5c0 2.8-2.3 5.1-5.1 5.1-2.8 0-5-2.3-5-5.1 0-2.8 2.2-5.1 5-5.1 2.8 0 5.1 2.3 5.1 5.1z"/>
				<path id="&lt;Path&gt;" class="s22" d="m412.3 196h-183.8v-19.1h183.8z"/>
				<path id="&lt;Path&gt;" class="s5" d="m350.3 188.7h-113.9v-5.6h113.9z"/>
				<g id="&lt;Group&gt;">
					<path id="&lt;Path&gt;" class="s7" d="m519.4 333.2h-134.5v-6.7h134.5z"/>
					<path id="&lt;Path&gt;" class="s8" d="m445.9 333.2h-61v-6.7h61z"/>
				</g>
				<g id="&lt;Group&gt;">
					<path id="&lt;Path&gt;" class="s7" d="m519.4 350.7h-134.5v-6.8h134.5z"/>
					<path id="&lt;Path&gt;" class="s3" d="m478.6 350.7h-93.7v-6.8h93.7z"/>
				</g>
				<g id="&lt;Group&gt;">
					<path id="&lt;Path&gt;" class="s7" d="m519.4 368.2h-134.5v-6.8h134.5z"/>
					<path id="&lt;Path&gt;" class="s25" d="m412.3 368.2h-27.4v-6.8h27.4z"/>
				</g>
				<g id="&lt;Group&gt;">
					<path id="&lt;Path&gt;" class="s7" d="m388.1 317.3h-2.7v-2.7h2.7z"/>
					<path id="&lt;Path&gt;" class="s7" d="m397.1 317.3h-2.6v-2.7h2.6z"/>
					<path id="&lt;Path&gt;" class="s7" d="m406.1 317.3h-2.6v-2.7h2.6z"/>
				</g>
				<g id="&lt;Group&gt;">
					<path id="&lt;Path&gt;" class="s9" d="m640.2 411.2h-4.4v-4.4h4.4z"/>
					<path id="&lt;Path&gt;" class="s9" d="m655.3 411.2h-4.4v-4.4h4.4z"/>
					<path id="&lt;Path&gt;" class="s9" d="m670.3 411.2h-4.4v-4.4h4.4z"/>
				</g>
				<g id="&lt;Group&gt;">
					<path id="&lt;Path&gt;" class="s9" d="m707.4 240.7h-8.3v-8.2h8.3z"/>
					<path id="&lt;Path&gt;" class="s9" d="m735.5 240.7h-8.2v-8.2h8.2z"/>
					<path id="&lt;Path&gt;" class="s9" d="m763.7 240.7h-8.2v-8.2h8.2z"/>
				</g>
				<g id="&lt;Group&gt;">
					<path id="&lt;Path&gt;" class="s9" d="m590.8 580.5h-8.2v-8.2h8.2z"/>
					<path id="&lt;Path&gt;" class="s9" d="m619 580.5h-8.2v-8.2h8.2z"/>
					<path id="&lt;Path&gt;" class="s9" d="m647.2 580.5h-8.2v-8.2h8.2z"/>
				</g>
				<g id="&lt;Group&gt;">
					<path id="&lt;Path&gt;" class="s9" d="m242.1 349h-4.4v-4.4h4.4z"/>
					<path id="&lt;Path&gt;" class="s9" d="m257.1 349h-4.4v-4.4h4.4z"/>
					<path id="&lt;Path&gt;" class="s9" d="m272.1 349h-4.4v-4.4h4.4z"/>
				</g>
				<g id="&lt;Group&gt;">
					<path id="&lt;Path&gt;" class="s9" d="m852.5 346.4h-73v-7.2h73z"/>
					<path id="&lt;Path&gt;" class="s26" d="m801.2 359h-21.7v-7.2h21.7z"/>
				</g>
				<path id="&lt;Path&gt;" class="s25" d="m191.3 353.9h-15.8v-15.8h-14.6v15.8h-15.8v14.7h15.8v15.8h14.6v-15.8h15.8z"/>
				<path id="&lt;Path&gt;" class="s8" d="m149.1 397.9h-9.7v-9.6h-8.9v9.6h-9.6v8.9h9.6v9.7h8.9v-9.7h9.7z"/>
				<g id="&lt;Group&gt;">
					<path id="&lt;Compound Path&gt;" fill-rule="evenodd" class="s7" d="m437.2 414.2c0 13.6-11 24.7-24.7 24.7-13.6 0-24.7-11.1-24.7-24.7 0-13.7 11.1-24.7 24.7-24.7 13.7 0 24.7 11 24.7 24.7zm-11.8 0c0-7.1-5.8-12.9-12.9-12.9-7.1 0-12.8 5.8-12.8 12.9 0 7.1 5.7 12.8 12.8 12.8 7.1 0 12.9-5.7 12.9-12.8z"/>
					<path id="&lt;Path&gt;" class="s5" d="m395.7 411.7c2.3 0 4.3-1.3 5.4-3.4 2.1-4.1 6.4-7 11.4-7 5 0 9.4 2.9 11.5 7 1 2.1 3 3.4 5.3 3.4 4.4 0 7.3-4.5 5.4-8.4-4-8.2-12.4-13.8-22.2-13.8-9.7 0-18.1 5.6-22.1 13.8-1.9 3.9 1 8.4 5.3 8.4z"/>
				</g>
				<g id="&lt;Group&gt;">
					<path id="&lt;Compound Path&gt;" fill-rule="evenodd" class="s7" d="m478.7 389.5c13.6 0 24.7 11 24.7 24.7 0 13.6-11.1 24.7-24.7 24.7-13.6 0-24.7-11.1-24.7-24.7 0-13.7 11.1-24.7 24.7-24.7zm0 11.8c-7.1 0-12.9 5.8-12.9 12.9 0 7.1 5.8 12.8 12.9 12.8 7.1 0 12.9-5.7 12.9-12.8 0-7.1-5.8-12.9-12.9-12.9z"/>
					<path id="&lt;Path&gt;" class="s3" d="m476.3 431c0-2.3-1.4-4.3-3.5-5.4-4.1-2.1-7-6.4-7-11.4 0-5 2.9-9.4 7-11.5 2.1-1 3.5-3 3.5-5.3 0-4.4-4.6-7.3-8.5-5.4-8.2 4-13.8 12.4-13.8 22.2 0 9.7 5.6 18.1 13.8 22.2 3.9 1.9 8.5-1.1 8.5-5.4z"/>
				</g>
				<path id="&lt;Path&gt;" class="s22" d="m342 424.9h-45.1v-108.2h45.1z"/>
				<g id="&lt;Group&gt;">
					<path id="&lt;Path&gt;" class="s25" d="m316.5 341.4h-13.2v-3.8h13.2z"/>
					<path id="&lt;Path&gt;" class="s25" d="m316.5 350.1h-13.2v-3.9h13.2z"/>
					<path id="&lt;Path&gt;" class="s25" d="m316.5 358.8h-13.2v-3.9h13.2z"/>
					<path id="&lt;Path&gt;" class="s25" d="m316.5 403.9h-13.2v-3.9h13.2z"/>
				</g>
				<g id="&lt;Group&gt;">
					<path id="&lt;Path&gt;" class="s25" d="m322.5 371.5h-19.2v-3.9h19.2z"/>
					<path id="&lt;Path&gt;" class="s9" d="m322.5 380.2h-19.2v-3.9h19.2z"/>
					<path id="&lt;Path&gt;" class="s9" d="m322.5 388.9h-19.2v-3.9h19.2z"/>
				</g>
				<path id="&lt;Path&gt;" class="s5" d="m192.4 509.1h-57.1v-57.1h57.1z"/>
				<path id="&lt;Path&gt;" class="s22" d="m162.4 522.7h-57.2v-57.2h57.2z"/>
				<path id="&lt;Path&gt;" class="s22" d="m838.9 641.5h-24v-24.1h24z"/>
				<g id="&lt;Group&gt;">
					<path id="&lt;Path&gt;" class="s11" d="m526.2 579.4h20.3l11.3 11.3h117.3l18-18h63.1"/>
					<path id="&lt;Path&gt;" class="s11" d="m526.2 579.7c0 3.3-2.6 5.9-5.9 5.9-3.3 0-5.9-2.6-5.9-5.9 0-3.3 2.6-5.9 5.9-5.9 3.3 0 5.9 2.6 5.9 5.9z"/>
					<path id="&lt;Path&gt;" class="s11" d="m768.3 572.4c0 3.3-2.7 5.9-5.9 5.9-3.3 0-6-2.6-6-5.9 0-3.3 2.7-5.9 6-5.9 3.2 0 5.9 2.6 5.9 5.9z"/>
				</g>
				<path id="&lt;Path&gt;" class="s5" d="m841.9 261.1c0 4.1-3.3 7.5-7.5 7.5-4.1 0-7.5-3.4-7.5-7.5 0-4.2 3.4-7.5 7.5-7.5 4.2 0 7.5 3.3 7.5 7.5z"/>
				<path id="&lt;Path&gt;" class="s3" d="m147.3 554.2c0 4.2-3.3 7.6-7.5 7.6-4.1 0-7.5-3.4-7.5-7.6 0-4.1 3.4-7.5 7.5-7.5 4.2 0 7.5 3.4 7.5 7.5z"/>
				<path id="&lt;Path&gt;" class="s3" d="m181.9 582.1c0 7.2-5.9 13.1-13.1 13.1-7.3 0-13.2-5.9-13.2-13.1 0-7.3 5.9-13.2 13.2-13.2 7.2 0 13.1 5.9 13.1 13.2z"/>
				<g id="&lt;Group&gt;">
					<path id="&lt;Path&gt;" class="s22" d="m630 638.4h-52.7v-12h52.7z"/>
					<path id="&lt;Path&gt;" class="s22" d="m692.7 661h-115.4v-12h115.4z"/>
				</g>
				<g id="&lt;Group&gt;">
					<path id="&lt;Path&gt;" class="s27" d="m255 637.9l-12.8 12.8"/>
					<path id="&lt;Path&gt;" class="s27" d="m267.2 637.9l-12.7 12.8"/>
					<path id="&lt;Path&gt;" class="s27" d="m279.5 637.9l-12.8 12.8"/>
					<path id="&lt;Path&gt;" class="s27" d="m291.8 637.9l-12.8 12.8"/>
					<path id="&lt;Path&gt;" class="s27" d="m304 637.9l-12.7 12.8"/>
				</g>
			</g>
		</g>
	</g>
</svg>