<svg version="1.2" xmlns="http://www.w3.org/2000/svg" viewBox="0 0 2384 1444" width="2384" height="1444">
	<title>vecteezy_businessman-designing-a-website-by-coding-on-a-desktop_5611079-ai</title>
	<defs>
		<clipPath clipPathUnits="userSpaceOnUse" id="cp1">
			<path d="m1094.3 605.36h205.93v265.23h-205.93z"/>
		</clipPath>
	</defs>
	<style>
		.s0 { fill: #bdd1ff } 
		.s1 { fill: #f2f2f2 } 
		.s2 { mix-blend-mode: multiply;fill: #e6e6e6 } 
		.s3 { fill: #ffffff } 
		.s4 { fill: #1f264c } 
		.s5 { fill: none;stroke: #ffffff;stroke-miterlimit:10;stroke-width: .4 } 
		.s6 { fill: #33376f } 
		.s7 { fill: #ffb049 } 
		.s8 { fill: #00c9ce } 
		.s9 { fill: #ff6672 } 
		.s10 { fill: #a7eef7 } 
		.s11 { fill: #ffe159 } 
		.s12 { fill: #006837 } 
		.s13 { fill: #22b573 } 
		.s14 { fill: #8c6239 } 
		.s15 { fill: #91c3ff } 
		.s16 { fill: #ffcc4d } 
		.s17 { fill: #9a90fc } 
		.s18 { fill: #f7931e } 
		.s19 { fill: #a8d29f } 
		.s20 { fill: #82b378 } 
		.s21 { fill: #fcee21 } 
		.s22 { fill: #f7ec86 } 
		.s23 { fill: #699dee } 
		.s24 { fill: #548ee2 } 
		.s25 { opacity: .2;fill: #666666 } 
		.s26 { fill: #333333 } 
		.s27 { fill: #bbbbbb } 
		.s28 { fill: #ea9963 } 
		.s29 { fill: #ffb27d } 
		.s30 { fill: #2b478b } 
		.s31 { fill: #dce6f2 } 
		.s32 { fill: #becbeb } 
		.s33 { fill: #0cba83 } 
		.s34 { fill: #0059d6 } 
		.s35 { fill: #fbb03b } 
		.s36 { fill: #fbbf62 } 
		.s37 { fill: #ff9129 } 
		.s38 { mix-blend-mode: multiply;fill: #e5e3e3 } 
		.s39 { fill: #595076 } 
		.s40 { fill: #442d5d } 
		.s41 { fill: #dae5ea } 
		.s42 { fill: #b9ced6 } 
		.s43 { fill: #2c3f54 } 
		.s44 { fill: #1e3142 } 
		.s45 { fill: #808080 } 
		.s46 { fill: #8f83ff } 
		.s47 { fill: #6e52ff } 
		.s48 { fill: #ffe9c2 } 
		.s49 { fill: #19305f } 
		.s50 { fill: #44bcc6 } 
		.s51 { fill: #88eaed } 
		.s52 { fill: #33acaf } 
		.s53 { fill: #ffd96e } 
		.s54 { fill: #fce2be } 
		.s55 { fill: #d8a739 } 
		.s56 { fill: #ff5148 } 
		.s57 { fill: #e8312d } 
		.s58 { mix-blend-mode: multiply;fill: #e9e1f4 } 
		.s59 { fill: #4d3fd8 } 
		.s60 { fill: #4c3edb } 
		.s61 { fill: #fbf8ff } 
		.s62 { fill: #ffe7b0 } 
	</style>
	<g id="Layer 1">
		<g id="&lt;Group&gt;">
			<path id="&lt;Path&gt;" class="s0" d="m2276.1 1318c-5.7 10.5-11.5 19.9-16.9 28q-0.2 0.4-0.5 0.7c-15.7 23.4-42 37.4-70.1 37.4-150.8 0-671.2 0-833.4-0.1 0 0-851-2.4-1117.2-3.2-52-0.2-99.1-31.1-120.2-78.7-23.9-54.1-49.9-132-52.9-220.4-4.8-140.1 48.2-306.4 258.8-445.1 181-119.2-11.3-197.9 132.6-330.6 165.4-152.5 346 16.2 529.9-53 32.5-12.2 65.1-31.8 97.7-62 18.4-16.9 38.6-31.7 60.1-44.6q5-2.9 10-5.7c13-7.2 26.3-13.6 40.1-19.5q13.9-5.8 28.3-10.8c15.3-5.3 31-9.8 47-13.7 22.7-5.4 46.1-9.5 69.9-12.2q15.6-1.8 31.5-2.9c205.5-13.8 436.8 63.9 556.2 177.4 24 22.9 133.3 141.2 47.1 303.8-54.4 102.7 173.5 200.7 254.4 318 50.7 73.3 76.6 140.8 86.9 200.9 17.5 102.8-10.7 184-39.3 236.3z"/>
		</g>
		<g id="&lt;Group&gt;">
			<path id="&lt;Path&gt;" class="s1" d="m1216 1009.8l-82.1-6v-0.5l-3.1 0.2-3-0.2v0.5l-82.1 6c0 0 39.4 81.6-16.7 120.1h98.7 6.3 98.6c-56-38.5-16.6-120.1-16.6-120.1z"/>
			<path id="&lt;Path&gt;" class="s2" d="m1203.8 1051.8c3.3-23.6 12.2-42 12.2-42l-82.1-6v-0.5l-3.1 0.2-3-0.2v0.5l-82.1 6c0 0 8.9 18.4 12.2 42z"/>
			<path id="&lt;Path&gt;" class="s3" d="m1602.7 445.5h-937.6c-6.2 0-11.3 5.1-11.3 11.3v552.9c0 6.3 5.1 11.4 11.3 11.4h937.6c6.3 0 11.4-5.1 11.4-11.4v-552.9c0-6.2-5.1-11.3-11.4-11.3z"/>
			<path id="&lt;Path&gt;" class="s1" d="m1608.2 446.7h-948.6c-2.5 0-4.6 2.1-4.6 4.7v563.8c0 2.6 2.1 4.7 4.6 4.7h948.6c2.6 0 4.7-2.1 4.7-4.7v-563.8c0-2.6-2.1-4.7-4.7-4.7z"/>
			<path id="&lt;Path&gt;" class="s4" d="m1602.8 456.4h-937.7v513.5h937.7z"/>
			<g id="&lt;Group&gt;">
				<path id="&lt;Path&gt;" class="s5" d="m1581.5 477.4h-895.1v471.5h895.1z"/>
				<path id="&lt;Path&gt;" class="s3" d="m689.9 473.9h-7v7h7z"/>
				<path id="&lt;Path&gt;" class="s3" d="m689.9 945.4h-7v7h7z"/>
				<path id="&lt;Path&gt;" class="s3" d="m1585 473.9h-7v7h7z"/>
				<path id="&lt;Path&gt;" class="s3" d="m1585 945.4h-7v7h7z"/>
			</g>
			<path id="&lt;Path&gt;" class="s6" d="m1549.1 506.8h-830.3c-6.6 0-11.9 5.3-11.9 11.9 0 6.5 5.3 11.8 11.9 11.8h830.3c6.6 0 11.9-5.3 11.9-11.8 0-6.6-5.3-11.9-11.9-11.9z"/>
			<g id="&lt;Group&gt;">
				<path id="&lt;Path&gt;" class="s7" d="m728.1 495.4c0-2.6-2.1-4.7-4.7-4.7-2.5 0-4.7 2.1-4.7 4.7 0 2.6 2.2 4.7 4.7 4.7 2.6 0 4.7-2.1 4.7-4.7z"/>
				<path id="&lt;Path&gt;" class="s8" d="m748.2 495.4c0-2.6-2.1-4.7-4.7-4.7-2.6 0-4.7 2.1-4.7 4.7 0 2.6 2.1 4.7 4.7 4.7 2.6 0 4.7-2.1 4.7-4.7z"/>
				<path id="&lt;Path&gt;" class="s9" d="m768.3 495.4c0-2.6-2.1-4.7-4.7-4.7-2.6 0-4.7 2.1-4.7 4.7 0 2.6 2.1 4.7 4.7 4.7 2.6 0 4.7-2.1 4.7-4.7z"/>
			</g>
			<g id="&lt;Group&gt;">
				<path id="&lt;Path&gt;" class="s3" d="m1089.8 601.1h215v273.8h-215z"/>
				<path id="&lt;Path&gt;" class="s10" d="m1094.3 605.4h205.9v265.2h-205.9z"/>
				<path id="&lt;Path&gt;" class="s11" d="m1242.2 674.3c0-19.9-16.2-36.1-36.1-36.1-19.9 0-36 16.2-36 36.1 0 19.9 16.1 36.1 36 36.1 19.9 0 36.1-16.2 36.1-36.1z"/>
				<g id="&lt;Clip Group&gt;" clip-path="url(#cp1)">
					<g id="&lt;Group&gt;">
						<g id="&lt;Group&gt;">
							<path id="&lt;Path&gt;" class="s12" d="m1135.4 715.4l-76.9 116.6h153.8z"/>
							<path id="&lt;Path&gt;" class="s13" d="m1135.4 715.4l-41.1 116.6h118z"/>
						</g>
						<g id="&lt;Group&gt;">
							<path id="&lt;Path&gt;" class="s12" d="m1201.7 735.5l-63.6 96.5h127.3z"/>
							<path id="&lt;Path&gt;" class="s13" d="m1201.7 735.5l-34 96.5h97.7z"/>
						</g>
						<g id="&lt;Group&gt;">
							<path id="&lt;Path&gt;" class="s12" d="m1278 749l-54.8 83h109.5z"/>
							<path id="&lt;Path&gt;" class="s13" d="m1278 749l-29.4 83h84.1z"/>
						</g>
					</g>
					<path id="&lt;Compound Path&gt;" class="s3" d="m1058.9 706.3c0-4.6 3.7-8.3 8.3-8.3q0.6 0 1.1 0.1c1.7-5.1 6.5-8.7 12-8.7 1.9 0 3.7 0.4 5.4 1.1 2.8-3.8 7.2-6.1 12.1-6.1 7.4 0 13.6 5.5 14.8 12.6 4.5 0.4 8 4.2 8 8.8 0 4.8-3.9 8.8-8.7 8.8h-44.7c-4.6 0-8.3-3.7-8.3-8.3z"/>
					<path id="&lt;Compound Path&gt;" class="s3" d="m1269.4 647.9c0-4.6 3.7-8.3 8.2-8.3q0.6 0 1.2 0.1c1.6-5.2 6.4-8.8 12-8.8 1.8 0 3.7 0.4 5.3 1.2 2.9-3.8 7.3-6.1 12.1-6.1 7.4 0 13.7 5.4 14.9 12.6 4.5 0.4 8 4.2 8 8.8 0 4.8-4 8.8-8.8 8.8h-44.7c-4.5 0-8.2-3.8-8.2-8.3z"/>
					<path id="&lt;Compound Path&gt;" class="s3" d="m1158.3 713.4c0-3.7 3.1-6.8 6.8-6.8q0.5 0 1 0.1c1.3-4.3 5.3-7.3 9.9-7.3 1.5 0 3 0.4 4.4 1 2.3-3.2 6-5 10-5 6.1 0 11.3 4.5 12.2 10.4 3.7 0.3 6.6 3.4 6.6 7.2 0 4-3.2 7.3-7.2 7.3h-36.9c-3.7 0-6.8-3.1-6.8-6.9z"/>
					<path id="&lt;Compound Path&gt;" class="s3" d="m1265 698.6h-20.6c-2.2 0-4-1.8-4-4 0-2.1 1.6-3.9 3.7-4.1 0.5-3.3 3.4-5.7 6.8-5.7 2.2 0 4.3 1 5.6 2.8q1.1-0.6 2.4-0.6c2.6 0 4.8 1.7 5.6 4q0.2 0 0.5 0c2.1 0 3.8 1.7 3.8 3.8 0 2.1-1.7 3.8-3.8 3.8z"/>
					<path id="&lt;Compound Path&gt;" class="s3" d="m1151.2 655h-20.6c-2.2 0-4-1.8-4-4.1 0-2.1 1.6-3.8 3.7-4 0.5-3.3 3.4-5.8 6.8-5.8 2.2 0 4.3 1.1 5.6 2.8q1.1-0.5 2.4-0.5c2.6 0 4.8 1.6 5.5 4q0.3 0 0.6 0c2.1 0 3.8 1.7 3.8 3.8 0 2.1-1.7 3.8-3.8 3.8z"/>
				</g>
				<path id="&lt;Path&gt;" class="s14" d="m1094.3 832h205.9v38.6h-205.9z"/>
				<path id="&lt;Path&gt;" class="s5" d="m1311.5 594.3h-228.5v287.4h228.5z"/>
				<path id="&lt;Path&gt;" class="s3" d="m1086.5 590.8h-7v7h7z"/>
				<path id="&lt;Path&gt;" class="s3" d="m1086.5 878.2h-7v7h7z"/>
				<path id="&lt;Path&gt;" class="s3" d="m1315 590.8h-7v7h7z"/>
				<path id="&lt;Path&gt;" class="s3" d="m1315 878.2h-7v7h7z"/>
			</g>
			<g id="&lt;Group&gt;">
				<path id="&lt;Path&gt;" class="s5" d="m1036.3 594.3h-314.1v287.4h314.1z"/>
				<path id="&lt;Path&gt;" class="s3" d="m725.7 590.8h-7v7h7z"/>
				<path id="&lt;Path&gt;" class="s3" d="m725.7 878.2h-7v7h7z"/>
				<path id="&lt;Path&gt;" class="s3" d="m1039.8 590.8h-7v7h7z"/>
				<path id="&lt;Path&gt;" class="s3" d="m1039.8 878.2h-7v7h7z"/>
				<g id="&lt;Group&gt;">
					<path id="&lt;Path&gt;" class="s15" d="m864 753.1h-108.6c-4 0-7.2 3.2-7.2 7.2 0 4 3.2 7.2 7.2 7.2h108.6c4 0 7.3-3.2 7.3-7.2 0-4-3.3-7.2-7.3-7.2z"/>
					<path id="&lt;Path&gt;" class="s15" d="m945 753.1h-51.4c-3.9 0-7.2 3.2-7.2 7.2 0 4 3.3 7.2 7.2 7.2h51.4c4 0 7.2-3.2 7.2-7.2 0-4-3.2-7.2-7.2-7.2z"/>
					<path id="&lt;Path&gt;" class="s10" d="m886.2 780.1h-134.8c-1.8 0-3.2 1.4-3.2 3.1 0 1.8 1.4 3.2 3.2 3.2h134.8c1.8 0 3.2-1.4 3.2-3.2 0-1.7-1.4-3.1-3.2-3.1z"/>
					<path id="&lt;Path&gt;" class="s10" d="m824.3 797h-72.9c-1.8 0-3.2 1.4-3.2 3.2 0 1.8 1.4 3.2 3.2 3.2h72.9c1.7 0 3.2-1.4 3.2-3.2 0-1.8-1.5-3.2-3.2-3.2z"/>
					<path id="&lt;Path&gt;" class="s10" d="m924.4 797h-88.9c-1.7 0-3.2 1.4-3.2 3.2 0 1.8 1.5 3.2 3.2 3.2h88.9c1.8 0 3.2-1.4 3.2-3.2 0-1.8-1.4-3.2-3.2-3.2z"/>
					<path id="&lt;Path&gt;" class="s10" d="m886.2 814h-134.8c-1.8 0-3.2 1.4-3.2 3.1 0 1.8 1.4 3.2 3.2 3.2h134.8c1.8 0 3.2-1.4 3.2-3.2 0-1.7-1.4-3.1-3.2-3.1z"/>
					<path id="&lt;Path&gt;" class="s10" d="m959.5 814h-60.6c-1.7 0-3.2 1.4-3.2 3.1 0 1.8 1.5 3.2 3.2 3.2h60.6c1.7 0 3.1-1.4 3.1-3.2 0-1.7-1.4-3.1-3.1-3.1z"/>
					<path id="&lt;Path&gt;" class="s10" d="m815.5 830.9h-64.1c-1.8 0-3.2 1.4-3.2 3.2 0 1.8 1.4 3.2 3.2 3.2h64.1c1.8 0 3.2-1.4 3.2-3.2 0-1.8-1.4-3.2-3.2-3.2z"/>
					<path id="&lt;Path&gt;" class="s10" d="m864 830.9h-36.6c-1.8 0-3.2 1.4-3.2 3.2 0 1.8 1.4 3.2 3.2 3.2h36.6c1.8 0 3.2-1.4 3.2-3.2 0-1.8-1.4-3.2-3.2-3.2z"/>
					<path id="&lt;Path&gt;" class="s10" d="m893.9 830.9h-17.5c-1.8 0-3.2 1.4-3.2 3.2 0 1.8 1.4 3.2 3.2 3.2h17.5c1.7 0 3.2-1.4 3.2-3.2 0-1.8-1.5-3.2-3.2-3.2z"/>
					<path id="&lt;Path&gt;" class="s10" d="m979.6 780.1h-79.4c-1.7 0-3.2 1.4-3.2 3.1 0 1.8 1.5 3.2 3.2 3.2h79.4c1.8 0 3.2-1.4 3.2-3.2 0-1.7-1.4-3.1-3.2-3.1z"/>
				</g>
				<g id="&lt;Group&gt;">
					<path id="&lt;Path&gt;" class="s15" d="m864 639.9h-108.6c-4 0-7.2 3.2-7.2 7.2 0 4 3.2 7.2 7.2 7.2h108.6c4 0 7.3-3.2 7.3-7.2 0-4-3.3-7.2-7.3-7.2z"/>
					<path id="&lt;Path&gt;" class="s15" d="m945 639.9h-51.4c-3.9 0-7.2 3.2-7.2 7.2 0 4 3.3 7.2 7.2 7.2h51.4c4 0 7.2-3.2 7.2-7.2 0-4-3.2-7.2-7.2-7.2z"/>
					<path id="&lt;Path&gt;" class="s10" d="m886.2 666.9h-134.8c-1.8 0-3.2 1.4-3.2 3.2 0 1.7 1.4 3.2 3.2 3.2h134.8c1.8 0 3.2-1.5 3.2-3.2 0-1.8-1.4-3.2-3.2-3.2z"/>
					<path id="&lt;Path&gt;" class="s10" d="m824.3 683.8h-72.9c-1.8 0-3.2 1.5-3.2 3.2 0 1.8 1.4 3.2 3.2 3.2h72.9c1.7 0 3.2-1.4 3.2-3.2 0-1.7-1.5-3.2-3.2-3.2z"/>
					<path id="&lt;Path&gt;" class="s10" d="m924.4 683.8h-88.9c-1.7 0-3.2 1.5-3.2 3.2 0 1.8 1.5 3.2 3.2 3.2h88.9c1.8 0 3.2-1.4 3.2-3.2 0-1.7-1.4-3.2-3.2-3.2z"/>
					<path id="&lt;Path&gt;" class="s10" d="m886.2 700.8h-134.8c-1.8 0-3.2 1.4-3.2 3.2 0 1.7 1.4 3.2 3.2 3.2h134.8c1.8 0 3.2-1.5 3.2-3.2 0-1.8-1.4-3.2-3.2-3.2z"/>
					<path id="&lt;Path&gt;" class="s10" d="m959.5 700.8h-60.6c-1.7 0-3.2 1.4-3.2 3.2 0 1.7 1.5 3.2 3.2 3.2h60.6c1.7 0 3.1-1.5 3.1-3.2 0-1.8-1.4-3.2-3.1-3.2z"/>
					<path id="&lt;Path&gt;" class="s10" d="m815.5 717.8h-64.1c-1.8 0-3.2 1.4-3.2 3.1 0 1.8 1.4 3.2 3.2 3.2h64.1c1.8 0 3.2-1.4 3.2-3.2 0-1.7-1.4-3.1-3.2-3.1z"/>
					<path id="&lt;Path&gt;" class="s10" d="m864 717.8h-36.6c-1.8 0-3.2 1.4-3.2 3.1 0 1.8 1.4 3.2 3.2 3.2h36.6c1.8 0 3.2-1.4 3.2-3.2 0-1.7-1.4-3.1-3.2-3.1z"/>
					<path id="&lt;Path&gt;" class="s10" d="m893.9 717.8h-17.5c-1.8 0-3.2 1.4-3.2 3.1 0 1.8 1.4 3.2 3.2 3.2h17.5c1.7 0 3.2-1.4 3.2-3.2 0-1.7-1.5-3.1-3.2-3.1z"/>
					<path id="&lt;Path&gt;" class="s10" d="m979.6 666.9h-79.4c-1.7 0-3.2 1.4-3.2 3.2 0 1.7 1.5 3.2 3.2 3.2h79.4c1.8 0 3.2-1.5 3.2-3.2 0-1.8-1.4-3.2-3.2-3.2z"/>
				</g>
			</g>
			<g id="&lt;Group&gt;" style="opacity: 0">
				<path id="&lt;Path&gt;" class="s3" d="m1602.7 446.7h-23l-573 573.2h452.3l153.9-154v-409.1c0-5.5-4.6-10.1-10.2-10.1z"/>
				<path id="&lt;Path&gt;" class="s3" d="m1432.4 446.7l-573 573.2h83.2l572.9-573.2z"/>
				<path id="&lt;Path&gt;" class="s3" d="m916 446.7l-261 261.1v296.5l15.5 15.6h124.8l573-573.2z"/>
				<path id="&lt;Path&gt;" class="s3" d="m768.7 446.7l-113.7 113.8v83.1l196.9-196.9z"/>
			</g>
			<path id="&lt;Path&gt;" class="s3" d="m655 1009.7c0 5.6 4.5 10.2 10.1 10.2h937.6c5.6 0 10.2-4.6 10.2-10.2v-31.3h-957.9z"/>
			<g id="&lt;Group&gt;">
				<path id="&lt;Path&gt;" class="s16" d="m1539.7 876.1h-202.4c-3.9 0-7.1-3-7.1-6.7v-261.7c0-3.6 3.2-6.6 7.1-6.6h202.4c3.9 0 7 3 7 6.6v261.7c0 3.7-3.1 6.7-7 6.7z"/>
				<path id="&lt;Path&gt;" class="s17" d="m1509.1 649.1h-141.2v-18.2h141.2z"/>
				<path id="&lt;Path&gt;" class="s18" d="m1468.1 846.9h-59.2c-5.9 0-10.7-4.6-10.7-10.2 0-5.6 4.8-10.1 10.7-10.1h59.2c5.9 0 10.6 4.5 10.6 10.1 0 5.6-4.7 10.2-10.6 10.2z"/>
				<g id="&lt;Group&gt;">
					<g id="&lt;Group&gt;">
						<g id="&lt;Group&gt;">
							<path id="&lt;Path&gt;" class="s17" d="m1442.3 684h-57.4c-2.3 0-4.2-1.7-4.2-3.9v-0.7c0-2.2 1.9-3.9 4.2-3.9h57.4c2.3 0 4.1 1.7 4.1 3.9v0.7c0 2.2-1.8 3.9-4.1 3.9z"/>
							<path id="&lt;Path&gt;" class="s17" d="m1516.5 705.2h-131.6c-2.3 0-4.2-1.8-4.2-4v-0.7c0-2.2 1.9-3.9 4.2-3.9h131.6c2.3 0 4.2 1.7 4.2 3.9v0.7c0 2.2-1.9 4-4.2 4z"/>
							<path id="&lt;Path&gt;" class="s17" d="m1516.5 726.3h-131.6c-2.3 0-4.2-1.8-4.2-4v-0.7c0-2.2 1.9-3.9 4.2-3.9h131.6c2.3 0 4.2 1.7 4.2 3.9v0.7c0 2.2-1.9 4-4.2 4z"/>
						</g>
						<path id="&lt;Path&gt;" class="s17" d="m1357.9 679.8c0 2.3-2 4.2-4.5 4.2-2.5 0-4.5-1.9-4.5-4.2 0-2.4 2-4.3 4.5-4.3 2.5 0 4.5 1.9 4.5 4.3z"/>
					</g>
				</g>
				<g id="&lt;Group&gt;">
					<g id="&lt;Group&gt;">
						<g id="&lt;Group&gt;">
							<path id="&lt;Path&gt;" class="s17" d="m1442.3 754.1h-57.4c-2.3 0-4.2-1.7-4.2-3.9v-0.7c0-2.2 1.9-4 4.2-4h57.4c2.3 0 4.1 1.8 4.1 4v0.7c0 2.2-1.8 3.9-4.1 3.9z"/>
							<path id="&lt;Path&gt;" class="s17" d="m1516.5 775.2h-131.6c-2.3 0-4.2-1.7-4.2-3.9v-0.7c0-2.2 1.9-4 4.2-4h131.6c2.3 0 4.2 1.8 4.2 4v0.7c0 2.2-1.9 3.9-4.2 3.9z"/>
							<path id="&lt;Path&gt;" class="s17" d="m1516.5 796.3h-131.6c-2.3 0-4.2-1.7-4.2-3.9v-0.7c0-2.2 1.9-4 4.2-4h131.6c2.3 0 4.2 1.8 4.2 4v0.7c0 2.2-1.9 3.9-4.2 3.9z"/>
						</g>
						<path id="&lt;Path&gt;" class="s17" d="m1357.9 749.8c0 2.4-2 4.3-4.5 4.3-2.5 0-4.5-1.9-4.5-4.3 0-2.3 2-4.3 4.5-4.3 2.5 0 4.5 2 4.5 4.3z"/>
					</g>
				</g>
			</g>
		</g>
		<g id="&lt;Group&gt;">
			<g id="&lt;Group&gt;">
				<path id="&lt;Path&gt;" class="s19" d="m1579.4 1119.5l-131.1-25 22.5-118.2 131.1 25z"/>
			</g>
			<g id="&lt;Group&gt;">
				<path id="&lt;Path&gt;" class="s20" d="m1598.7 1017.9l-131.2-25 3.3-17 131.1 25z"/>
			</g>
		</g>
		<g id="&lt;Group&gt;">
			<g id="&lt;Group&gt;">
				<path id="&lt;Path&gt;" class="s21" d="m802.3 1037.2l-129.8 31.1-28-117 129.8-31.1z"/>
			</g>
			<g id="&lt;Group&gt;">
				<path id="&lt;Path&gt;" class="s22" d="m780.4 945.9l-129.8 31.1-6.1-25.7 129.8-31.1z"/>
			</g>
		</g>
		<g id="&lt;Group&gt;">
			<g id="&lt;Group&gt;">
				<path id="&lt;Path&gt;" class="s23" d="m1711.6 951.4l-131.5 23-20.7-118.5 131.5-23z"/>
			</g>
			<g id="&lt;Group&gt;">
				<path id="&lt;Path&gt;" class="s24" d="m1695.4 858.9l-131.5 23-4.5-26 131.5-23z"/>
			</g>
		</g>
		<g id="&lt;Group&gt;">
			<path id="&lt;Path&gt;" class="s25" d="m1641.9 1338.7h-908.9l120-170.9h668.9z"/>
			<g id="&lt;Group&gt;">
				<g id="&lt;Group&gt;">
					<path id="&lt;Path&gt;" class="s26" d="m1611.4 1299.5h-849.9l82.8-131.7h684.4z"/>
					<path id="&lt;Path&gt;" class="s27" d="m1611.4 1314.5h-849.9v-15h849.9z"/>
				</g>
				<g id="&lt;Group&gt;">
					<g id="&lt;Group&gt;">
						<path id="&lt;Path&gt;" class="s3" d="m889.7 1191h-42.9l6.2-13.5h41.6z"/>
					</g>
					<g id="&lt;Group&gt;">
						<path id="&lt;Path&gt;" class="s3" d="m895.3 1191l5.4-13.5h41.6l-4.1 13.5z"/>
					</g>
					<g id="&lt;Group&gt;">
						<path id="&lt;Path&gt;" class="s3" d="m943.8 1191l4.5-13.5h41.6l-3.2 13.5z"/>
					</g>
					<g id="&lt;Group&gt;">
						<path id="&lt;Path&gt;" class="s3" d="m992.4 1191l3.7-13.5h41.6l-2.3 13.5z"/>
					</g>
					<g id="&lt;Group&gt;">
						<path id="&lt;Path&gt;" class="s3" d="m1041 1191l2.8-13.5h41.6l-1.4 13.5z"/>
					</g>
					<g id="&lt;Group&gt;">
						<path id="&lt;Path&gt;" class="s3" d="m1089.6 1191l1.9-13.5h41.6l-0.6 13.5z"/>
					</g>
					<g id="&lt;Group&gt;">
						<path id="&lt;Path&gt;" class="s3" d="m1138 1191l1.1-13.5h41.6l0.2 13.5z"/>
					</g>
					<g id="&lt;Group&gt;">
						<path id="&lt;Path&gt;" class="s3" d="m1186.1 1191l0.3-13.5h41.6l1.1 13.5z"/>
					</g>
					<g id="&lt;Group&gt;">
						<path id="&lt;Path&gt;" class="s3" d="m1234.6 1191l-0.6-13.5h41.5l2 13.5z"/>
					</g>
					<g id="&lt;Group&gt;">
						<path id="&lt;Path&gt;" class="s3" d="m1283.1 1191l-1.4-13.5h41.5l2.9 13.5z"/>
					</g>
					<g id="&lt;Group&gt;">
						<path id="&lt;Path&gt;" class="s3" d="m1331.7 1191l-2.3-13.5h41.5l3.7 13.5z"/>
					</g>
					<g id="&lt;Group&gt;">
						<path id="&lt;Path&gt;" class="s3" d="m1380.4 1191l-3.2-13.5h41.5l4.6 13.5z"/>
					</g>
					<g id="&lt;Group&gt;">
						<path id="&lt;Path&gt;" class="s3" d="m1428.9 1191l-4.1-13.5h41.6l5.4 13.5z"/>
					</g>
					<g id="&lt;Group&gt;">
						<path id="&lt;Path&gt;" class="s3" d="m1477.4 1191h42.9l-6.3-13.5h-41.6z"/>
					</g>
				</g>
				<g id="&lt;Group&gt;">
					<g id="&lt;Group&gt;">
						<path id="&lt;Path&gt;" class="s3" d="m880.8 1216.3h-44.5l6.5-14h43.1z"/>
					</g>
					<g id="&lt;Group&gt;">
						<path id="&lt;Path&gt;" class="s3" d="m886.6 1216.3l5.6-14h43.1l-4.2 14z"/>
					</g>
					<g id="&lt;Group&gt;">
						<path id="&lt;Path&gt;" class="s3" d="m936.8 1216.3l4.8-14h43.1l-3.3 14z"/>
					</g>
					<g id="&lt;Group&gt;">
						<path id="&lt;Path&gt;" class="s3" d="m987.3 1216.3l3.8-14h43.2l-2.5 14z"/>
					</g>
					<g id="&lt;Group&gt;">
						<path id="&lt;Path&gt;" class="s3" d="m1037.6 1216.3l3-14h43.1l-1.5 14z"/>
					</g>
					<g id="&lt;Group&gt;">
						<path id="&lt;Path&gt;" class="s3" d="m1088 1216.3l2-14h43.2l-0.7 14z"/>
					</g>
					<g id="&lt;Group&gt;">
						<path id="&lt;Path&gt;" class="s3" d="m1138.2 1216.3l1.2-14h43.1l0.2 14z"/>
					</g>
					<g id="&lt;Group&gt;">
						<path id="&lt;Path&gt;" class="s3" d="m1188.1 1216.3l0.3-14h43.1l1.1 14z"/>
					</g>
					<g id="&lt;Group&gt;">
						<path id="&lt;Path&gt;" class="s3" d="m1238.3 1216.3l-0.6-14h43.1l2.1 14z"/>
					</g>
					<g id="&lt;Group&gt;">
						<path id="&lt;Path&gt;" class="s3" d="m1288.7 1216.3l-1.6-14h43.2l2.9 14z"/>
					</g>
					<g id="&lt;Group&gt;">
						<path id="&lt;Path&gt;" class="s3" d="m1339 1216.3l-2.4-14h43.1l3.9 14z"/>
					</g>
					<g id="&lt;Group&gt;">
						<path id="&lt;Path&gt;" class="s3" d="m1389.5 1216.3l-3.3-14h43.1l4.7 14z"/>
					</g>
					<g id="&lt;Group&gt;">
						<path id="&lt;Path&gt;" class="s3" d="m1439.8 1216.3l-4.2-14h43.1l5.6 14z"/>
					</g>
					<g id="&lt;Group&gt;">
						<path id="&lt;Path&gt;" class="s3" d="m1490.1 1216.3h44.5l-6.5-14h-43.1z"/>
					</g>
				</g>
				<g id="&lt;Group&gt;">
					<g id="&lt;Group&gt;">
						<path id="&lt;Path&gt;" class="s3" d="m872.8 1241.1h-45.9l6.7-14.4h44.5z"/>
					</g>
					<g id="&lt;Group&gt;">
						<path id="&lt;Path&gt;" class="s3" d="m878.7 1241.1l5.8-14.4h44.4l-4.3 14.4z"/>
					</g>
					<g id="&lt;Group&gt;">
						<path id="&lt;Path&gt;" class="s3" d="m930.5 1241.1l4.9-14.4h44.4l-3.4 14.4z"/>
					</g>
					<g id="&lt;Group&gt;">
						<path id="&lt;Path&gt;" class="s3" d="m982.5 1241.1l4-14.4h44.4l-2.5 14.4z"/>
					</g>
					<g id="&lt;Group&gt;">
						<path id="&lt;Path&gt;" class="s3" d="m1034.4 1241.1l3-14.4h44.4l-1.6 14.4z"/>
					</g>
					<g id="&lt;Group&gt;">
						<path id="&lt;Path&gt;" class="s3" d="m1086.2 1241.1l2.1-14.4h44.4l-0.6 14.4z"/>
					</g>
					<g id="&lt;Group&gt;">
						<path id="&lt;Path&gt;" class="s3" d="m1137.9 1241.1l1.2-14.4h44.4l0.3 14.4z"/>
					</g>
					<g id="&lt;Group&gt;">
						<path id="&lt;Path&gt;" class="s3" d="m1189.3 1241.1l0.3-14.4h44.4l1.2 14.4z"/>
					</g>
					<g id="&lt;Group&gt;">
						<path id="&lt;Path&gt;" class="s3" d="m1241.1 1241.1l-0.7-14.4h44.4l2.1 14.4z"/>
					</g>
					<g id="&lt;Group&gt;">
						<path id="&lt;Path&gt;" class="s3" d="m1292.9 1241.1l-1.6-14.4h44.4l3.1 14.4z"/>
					</g>
					<g id="&lt;Group&gt;">
						<path id="&lt;Path&gt;" class="s3" d="m1344.8 1241.1l-2.5-14.4h44.4l3.9 14.4z"/>
					</g>
					<g id="&lt;Group&gt;">
						<path id="&lt;Path&gt;" class="s3" d="m1396.7 1241.1l-3.4-14.4h44.4l4.9 14.4z"/>
					</g>
					<g id="&lt;Group&gt;">
						<path id="&lt;Path&gt;" class="s3" d="m1448.5 1241.1l-4.3-14.4h44.4l5.8 14.4z"/>
					</g>
					<g id="&lt;Group&gt;">
						<path id="&lt;Path&gt;" class="s3" d="m1500.3 1241.1h45.9l-6.7-14.4h-44.4z"/>
					</g>
				</g>
				<g id="&lt;Group&gt;">
					<g id="&lt;Group&gt;">
						<path id="&lt;Path&gt;" class="s3" d="m861.7 1266.4h-47.5l7-14.9h45.9z"/>
					</g>
					<g id="&lt;Group&gt;">
						<path id="&lt;Path&gt;" class="s3" d="m867.8 1266.4l6-14.9h46l-4.5 14.9z"/>
					</g>
					<g id="&lt;Group&gt;">
						<path id="&lt;Path&gt;" class="s3" d="m921.4 1266.4l5.1-14.9h45.9l-3.5 14.9z"/>
					</g>
					<g id="&lt;Group&gt;">
						<path id="&lt;Path&gt;" class="s3" d="m975.2 1266.4l4.1-14.9h45.9l-2.5 14.9z"/>
					</g>
					<g id="&lt;Group&gt;">
						<path id="&lt;Path&gt;" class="s3" d="m1028.9 1266.4l3.1-14.9h45.9l-1.6 14.9z"/>
					</g>
					<g id="&lt;Group&gt;">
						<path id="&lt;Path&gt;" class="s3" d="m1288 1251.5h-45.9-6.7-45.9-6.3-45.9-52.6l-2.2 14.9h53.5 47.5 5.7 47.5 6 47.5z"/>
					</g>
					<g id="&lt;Group&gt;">
						<path id="&lt;Path&gt;" class="s3" d="m1296.4 1266.4l-1.6-14.9h45.9l3.2 14.9z"/>
					</g>
					<g id="&lt;Group&gt;">
						<path id="&lt;Path&gt;" class="s3" d="m1350.1 1266.4l-2.6-14.9h45.9l4.1 14.9z"/>
					</g>
					<g id="&lt;Group&gt;">
						<path id="&lt;Path&gt;" class="s3" d="m1403.8 1266.4l-3.5-14.9h46l5 14.9z"/>
					</g>
					<g id="&lt;Group&gt;">
						<path id="&lt;Path&gt;" class="s3" d="m1457.4 1266.4l-4.5-14.9h46l6 14.9z"/>
					</g>
					<g id="&lt;Group&gt;">
						<path id="&lt;Path&gt;" class="s3" d="m1511 1266.4h47.5l-7-14.9h-45.9z"/>
					</g>
				</g>
			</g>
		</g>
		<g id="&lt;Group&gt;">
			<g id="&lt;Group&gt;">
				<g id="&lt;Group&gt;">
					<path id="&lt;Path&gt;" class="s28" d="m1444.9 1179.8c0 0-16.1 39.8-10.4 43.9 5.7 4.2 25.2-12.7 30.3-30.6 5.2-17.8-19.9-13.3-19.9-13.3z"/>
				</g>
				<g id="&lt;Group&gt;">
					<path id="&lt;Path&gt;" class="s29" d="m1773.9 1448.3c-71.2 0-145.6 0-215.9 0-2.7-6.6-5.6-13.5-8.6-20.4-19.5-45.5-43.9-96.6-57.5-102.7-25.1-11.2-40.2-1.4-71.3-37.8-31.2-36.4-51-48.7-38.8-57.2 12.3-8.3 52.7 23.2 63.9 21.9 9-1.1 13.7-23 13-46-0.2-6.1-0.8-12.2-1.8-18q-0.7-4.4-1.7-8.6c-1.1-4.3-2.4-8.4-4-12-3-7-2.7-11.8-0.4-15 7-9.6 32.5-5 42.2-2.7 4.3 1.1 17.6-7 26.9-2.4 14.5 7.1 22.9-1.1 32.5 5.1 6.8 4.4 20.8 6.4 25.6 12.7 9.2 12 11.5 37.4 20.4 60.9 8.3 21.7 11.2 44.5 39.6 83 12.6 17.2 51.8 56.9 91.3 95.8 15.4 15.1 30.7 30 44.6 43.4z"/>
				</g>
				<g id="&lt;Group&gt;">
					<path id="&lt;Path&gt;" class="s29" d="m1450.6 1152.5c0 0-59.4 48.6-51.7 55.2 7.7 6.5 27.3 0.1 59.4-20.5 32.1-20.5-7.7-34.7-7.7-34.7z"/>
				</g>
			</g>
			<g id="&lt;Group&gt;">
				<path id="&lt;Path&gt;" class="s30" d="m1791.8 1448.3h-17.9c-71.2 0-145.6 0-215.9 0h-21l-2.4-5.1c0 0 5-6.7 14.8-15.3 26-22.8 86-59 179.9-23q6.3 2.4 12.8 5.2z"/>
			</g>
		</g>
		<g id="&lt;Group&gt;">
			<g id="&lt;Group&gt;">
				<g id="&lt;Group&gt;">
					<path id="&lt;Path&gt;" class="s28" d="m974.7 1204.6c0 0 10.3 41.7 4.1 45-6.2 3.3-23.1-16.2-25.7-34.6-2.6-18.4 21.6-10.4 21.6-10.4z"/>
				</g>
				<g id="&lt;Group&gt;">
					<path id="&lt;Path&gt;" class="s29" d="m983.6 1314.6c-36 31.6-49.6 19.8-76 27.4-14.3 4.1-45.7 51.2-71.5 93.5q-3.3 5.4-6.4 10.6c-84.9-0.3-170-0.6-248.4-0.8 21.2-15.2 50.7-36.4 80-58 44.6-32.9 89-66.7 104-81.9 33.5-34.1 39.6-56.3 50.9-76.6 12-21.7 11.6-47.2 28.2-47 8.1 0.2 15.3-10.5 22.9-14 10.4-4.7 20.3 5.9 35.6 0.9 9.9-3.3 23.5 5.5 27.9 5.1 8.4-0.8 28.9-4 38.2 0.8 5.2 2.7 6.9 7.8 1.1 17-2 3.4-3.9 7.2-5.6 11.3q-1.4 3.5-2.6 7.3c-1.9 5.9-3.5 12.3-4.6 18.5-4 22.7-2.4 45 6.4 47.4 10.9 2.9 56-27.4 66.9-17.3 11 10-11 24.2-47 55.8z"/>
				</g>
				<g id="&lt;Group&gt;">
					<path id="&lt;Path&gt;" class="s29" d="m968.1 1174.3c0 0 89.7 26.8 85.1 35.8-4.7 8.9-51.7 7.4-89.1 0.5-37.5-6.8 4-36.3 4-36.3z"/>
				</g>
			</g>
			<g id="&lt;Group&gt;">
				<path id="&lt;Path&gt;" class="s30" d="m844.5 1446.2q-7.4 0-14.8-0.1c-84.9-0.3-170-0.6-248.4-0.8q-15.2-0.1-30.1-0.2l96.8-54.4q6.8-1.9 13.3-3.4c98.1-22.4 152.4 22 174.8 48.2 3.6 4.1 6.4 7.8 8.4 10.7z"/>
			</g>
		</g>
		<g id="&lt;Group&gt;">
			<g id="&lt;Group&gt;">
				<g id="&lt;Group&gt;">
					<path id="&lt;Path&gt;" class="s31" d="m872.6 734.1h-341.9c-2 0-3.6-1.6-3.6-3.6v-157.6c0-1.9 1.6-3.5 3.6-3.5h341.9c1.9 0 3.5 1.6 3.5 3.5v157.6c0 2-1.6 3.6-3.5 3.6z"/>
					<g id="&lt;Group&gt;">
						<g id="&lt;Group&gt;">
							<path id="&lt;Path&gt;" class="s32" d="m696.5 688h151.5v21.2h-151.5z"/>
							<path id="&lt;Path&gt;" class="s32" d="m696.5 655.8h151.5v21.2h-151.5z"/>
							<path id="&lt;Path&gt;" class="s32" d="m696.5 623.7h92.4v21.2h-92.4z"/>
							<path id="&lt;Path&gt;" class="s33" d="m805.3 623.7h42.7v21.2h-42.7z"/>
							<path id="&lt;Path&gt;" class="s32" d="m696.5 591.5h151.5v21.2h-151.5z"/>
						</g>
						<g id="&lt;Group&gt;">
							<g id="&lt;Group&gt;">
								<path id="&lt;Path&gt;" class="s34" d="m675.1 709.7h-119.8v-119.8h119.8z"/>
								<g id="&lt;Group&gt;">
									<path id="&lt;Compound Path&gt;" class="s3" d="m576.2 651.1v-5.8l23.7-10.4v6l-17.8 7.3 17.8 7.2v6z"/>
									<path id="&lt;Compound Path&gt;" class="s3" d="m620 627.5h7.8l-17.4 41.4h-7.8z"/>
									<path id="&lt;Compound Path&gt;" class="s3" d="m630.5 655.4l17.8-7.2-17.8-7.3v-6l23.7 10.4v5.8l-23.7 10.3z"/>
								</g>
							</g>
						</g>
					</g>
				</g>
			</g>
			<g id="&lt;Group&gt;">
				<g id="&lt;Group&gt;">
					<path id="&lt;Path&gt;" class="s35" d="m767.8 439.5h-250.9v-137.9h250.9z"/>
					<path id="&lt;Path&gt;" class="s36" d="m642.3 439.5h125.5l-125.5-86.3-125.4 86.3z"/>
					<path id="&lt;Path&gt;" class="s37" d="m642.3 301.6h-125.4l125.4 86.4 125.5-86.4z"/>
				</g>
			</g>
		</g>
		<g id="&lt;Group&gt;">
			<path id="&lt;Path&gt;" class="s38" d="m1966.7 1429.4l26 0.6 203-106.8-86.9-53.3z"/>
			<g id="&lt;Group&gt;">
				<g id="&lt;Group&gt;">
					<g id="&lt;Group&gt;">
						<g id="&lt;Group&gt;">
							<g id="&lt;Group&gt;">
								<g id="&lt;Group&gt;">
									<path id="&lt;Path&gt;" class="s39" d="m1680.3 1248.3c-6.2 3.6-6.2 9.4 0 13l135.9 79 193.1-111.5-136-79c-6.2-3.6-16.2-3.6-22.4 0z"/>
								</g>
								<path id="&lt;Path&gt;" class="s40" d="m2009.3 1228.8l-193.1 111.5-135.9-79q-0.4-0.2-0.6-0.4-0.4-0.2-0.6-0.4-0.3-0.2-0.5-0.3-0.2-0.2-0.5-0.4-0.1-0.2-0.2-0.3-0.4-0.4-0.7-0.7-0.1-0.2-0.2-0.3-0.2-0.3-0.4-0.6-0.1-0.2-0.2-0.4-0.2-0.2-0.3-0.4-0.1-0.2-0.1-0.4-0.1-0.3-0.2-0.5 0-0.2-0.1-0.4 0-0.3 0-0.5-0.1-0.2-0.1-0.5v3.7q0 0 0.1 0.1 0 0.2 0 0.3 0 0.3 0 0.5 0.1 0.1 0.1 0.1 0 0.2 0 0.3 0.1 0.3 0.2 0.5 0 0.1 0 0.1 0.1 0.2 0.1 0.3 0.2 0.3 0.3 0.5 0 0.1 0 0.1 0.1 0.1 0.2 0.2 0.2 0.3 0.4 0.6 0 0.1 0.1 0.2 0.1 0.1 0.1 0.1 0.3 0.4 0.7 0.8 0.1 0 0.2 0.1 0 0.1 0.1 0.1 0.2 0.2 0.4 0.4 0.3 0.2 0.5 0.4 0.3 0.2 0.6 0.3 0.2 0.2 0.4 0.3 0.1 0.1 0.2 0.1l136 79.1 193-111.5z"/>
							</g>
						</g>
						<g id="&lt;Group&gt;">
							<g id="&lt;Group&gt;">
								<g id="&lt;Group&gt;">
									<path id="&lt;Path&gt;" class="s3" d="m2002.1 1222.3l-182.1 105.8-137.6-79.4c-1.3-0.8-1.3-2.8 0-3.6l178-103.4c0.6-0.4 1.4-0.4 2.1-0.1z"/>
								</g>
								<g id="&lt;Group&gt;">
									<path id="&lt;Path&gt;" class="s41" d="m2002.1 1222.3l-0.1 6.9-182.1 105.8 0.1-6.9z"/>
								</g>
								<g id="&lt;Group&gt;">
									<path id="&lt;Path&gt;" class="s42" d="m1820 1328.1l-0.1 6.9-138.5-80.3v-6.6z"/>
								</g>
							</g>
						</g>
					</g>
					<g id="&lt;Group&gt;">
						<g id="&lt;Group&gt;">
							<path id="&lt;Path&gt;" class="s39" d="m2153.9 1311.4c6.2 3.6 6.3 9.4 0.1 13l-170.6 99.2c-6.2 3.6-16.4 3.6-22.6 0l-137.8-79.6 193.1-112.2z"/>
						</g>
						<path id="&lt;Path&gt;" class="s40" d="m2158.6 1317.9q0 0.3 0 0.5-0.1 0.3-0.1 0.5 0 0.2-0.1 0.4-0.1 0.3-0.1 0.5-0.1 0.2-0.2 0.4-0.1 0.2-0.2 0.5-0.1 0.2-0.2 0.3-0.2 0.3-0.4 0.6-0.2 0.3-0.4 0.5-0.1 0.1-0.2 0.2-0.3 0.3-0.6 0.6-0.3 0.2-0.5 0.4-0.2 0.2-0.5 0.4-0.2 0.2-0.5 0.3-0.3 0.2-0.6 0.4l-170.6 99.2q-0.8 0.4-1.5 0.8-0.3 0.1-0.5 0.2-0.6 0.2-1.2 0.4-0.3 0.1-0.5 0.2-0.4 0.1-0.8 0.2-0.3 0.1-0.7 0.2-0.4 0.1-0.8 0.2-0.3 0.1-0.6 0.1-0.9 0.2-1.9 0.3-0.2 0-0.5 0-0.6 0-1.1 0.1-0.4 0-0.7 0-0.4 0-0.9 0-0.3 0-0.7 0-0.4 0-0.8-0.1-0.4 0-0.8 0-0.4-0.1-0.8-0.1-0.3-0.1-0.7-0.1-0.4-0.1-0.8-0.2-0.3 0-0.7-0.1-0.5-0.1-1-0.2-0.2-0.1-0.5-0.2-0.9-0.2-1.7-0.6-0.4-0.1-0.8-0.3-0.2-0.1-0.4-0.2-0.7-0.3-1.2-0.6l-137.8-79.6v3.7l137.8 79.6q0.5 0.3 1.1 0.6 0.2 0.1 0.5 0.2 0.3 0.1 0.7 0.3 0 0 0.1 0 0.8 0.3 1.7 0.6 0 0 0.1 0 0.2 0.1 0.4 0.1 0.5 0.2 1 0.3 0.2 0 0.3 0 0.2 0.1 0.4 0.1 0.4 0.1 0.8 0.2 0.2 0 0.4 0 0.2 0 0.3 0.1 0.4 0 0.8 0.1 0.2 0 0.4 0 0.2 0 0.4 0 0.4 0 0.8 0.1 0.2 0 0.4 0 0.2 0 0.3 0 0.4 0 0.9 0 0.2 0 0.4 0 0.2 0 0.3 0 0.5-0.1 1.1-0.1 0.2 0 0.4 0 0.1-0.1 0.1-0.1 0.9-0.1 1.8-0.2 0.1 0 0.1 0 0.3-0.1 0.5-0.1 0.5-0.1 0.9-0.2 0.3-0.1 0.7-0.2 0.4-0.1 0.8-0.2 0.1-0.1 0.2-0.1 0.1 0 0.2-0.1 0.7-0.2 1.3-0.5 0.2-0.1 0.5-0.2 0.7-0.3 1.5-0.7l170.6-99.2q0 0 0.1-0.1 0.3-0.1 0.5-0.3 0.3-0.2 0.5-0.4 0.3-0.1 0.5-0.3 0.2-0.2 0.5-0.4 0-0.1 0.1-0.1 0.3-0.3 0.5-0.6 0.1 0 0.1-0.1 0.2-0.2 0.4-0.4 0 0 0.1-0.1 0.2-0.3 0.3-0.6 0.1-0.1 0.2-0.2 0-0.1 0.1-0.1 0.1-0.3 0.2-0.5 0.1-0.2 0.1-0.3 0-0.1 0-0.1 0.1-0.3 0.2-0.5 0-0.2 0.1-0.3 0-0.1 0-0.1 0-0.3 0-0.5 0.1-0.2 0.1-0.3 0-0.1 0-0.2z"/>
					</g>
					<g id="&lt;Group&gt;">
						<g id="&lt;Group&gt;">
							<g id="&lt;Group&gt;">
								<path id="&lt;Path&gt;" class="s3" d="m2148.8 1301.8l-176.9 102.6-140.7-81.2 183.5-106.4 134 77.4c3 1.7 3 5.9 0.1 7.6z"/>
							</g>
							<g id="&lt;Group&gt;">
								<path id="&lt;Path&gt;" class="s41" d="m2150.9 1298l-1.3 21.6-177.8 105.3 0.1-20.5z"/>
							</g>
							<g id="&lt;Group&gt;">
								<path id="&lt;Path&gt;" class="s42" d="m1971.9 1404.4l-0.1 20.5-140.6-81.3v-20.4z"/>
							</g>
						</g>
					</g>
					<g id="&lt;Group&gt;">
						<g id="&lt;Group&gt;">
							<g id="&lt;Group&gt;">
								<path id="&lt;Path&gt;" class="s42" d="m2009.1 1229c2.6 1.5 2.7 4 0.1 5.5-2.6 1.5-6.9 1.5-9.5 0-2.6-1.5-2.6-4 0-5.5 2.6-1.5 6.8-1.5 9.4 0z"/>
							</g>
							<g id="&lt;Group&gt;">
								<path id="&lt;Path&gt;" class="s42" d="m1981.9 1225.5c2.6 1.5 2.6 4 0 5.5-2.6 1.5-6.8 1.5-9.5 0-2.6-1.5-2.6-4 0-5.5 2.6-1.5 6.9-1.5 9.5 0z"/>
							</g>
							<g id="&lt;Group&gt;">
								<path id="&lt;Path&gt;" class="s43" d="m1993.2 1219.1q0.1 0.1 0.2 0.2 0.3 0.3 0.7 0.6 0 0 0.1 0 0.3 0.4 0.7 0.7 0.1 0.1 0.2 0.2 0.3 0.3 0.6 0.7 0.1 0 0.1 0.1 0.4 0.4 0.7 0.7 0.1 0.1 0.2 0.2 0.3 0.4 0.6 0.8 0 0 0.1 0.1 0.3 0.4 0.6 0.8 0.3 0.5 0.7 0.9 0 0.1 0.1 0.2 0.5 0.8 1 1.6 0.1 0.1 0.2 0.3 0.2 0.3 0.4 0.7 0.1 0.2 0.2 0.5 0.1 0.1 0.1 0.2 0.3 0.4 0.5 0.9 0 0 0 0.1 0.3 0.5 0.5 1 0 0.1 0 0.1 0.3 0.6 0.5 1.1l2.2-1.3q0-0.1-0.1-0.2-0.1-0.3-0.2-0.6-0.1-0.2-0.1-0.3 0-0.1-0.1-0.1 0-0.2-0.1-0.3-0.1-0.3-0.3-0.6 0-0.1 0-0.1-0.1-0.1-0.1-0.2-0.1-0.2-0.2-0.4-0.1-0.2-0.2-0.4-0.1-0.1-0.1-0.2-0.1-0.1-0.1-0.2-0.1-0.1-0.2-0.3-0.2-0.4-0.4-0.7 0-0.1-0.1-0.2 0-0.1-0.1-0.1-0.5-0.8-1-1.6 0 0 0 0 0-0.1-0.1-0.2-0.3-0.4-0.6-0.9-0.1 0-0.1-0.1-0.3-0.3-0.5-0.7-0.1 0-0.1 0 0-0.1 0-0.1-0.2-0.3-0.5-0.5-0.1-0.1-0.2-0.3 0-0.1-0.1-0.2-0.1 0-0.2-0.1-0.2-0.3-0.5-0.6 0 0 0 0-0.1-0.1-0.1-0.1-0.2-0.3-0.4-0.5-0.1-0.1-0.3-0.2 0-0.1-0.1-0.2-0.1-0.1-0.2-0.1-0.3-0.3-0.6-0.6 0 0 0 0 0 0 0 0-0.3-0.3-0.6-0.5-0.1-0.1-0.2-0.2-0.1 0-0.2-0.1-0.1-0.1-0.2-0.2-0.3-0.2-0.6-0.4-0.2-0.2-0.5-0.4-0.2-0.1-0.3-0.2-0.1-0.1-0.1-0.1-0.1-0.1-0.2-0.1-0.3-0.2-0.6-0.4 0 0-0.1 0-0.2-0.2-0.4-0.3-0.3-0.1-0.6-0.3-0.1 0-0.3-0.1-0.1 0-0.1-0.1 0 0-0.1 0-0.3-0.1-0.5-0.2-0.3-0.1-0.6-0.2 0-0.1-0.1-0.1 0 0 0 0-0.2-0.1-0.4-0.1-0.3-0.1-0.5-0.2-0.2 0-0.3 0-0.1 0-0.1 0-0.1-0.1-0.2-0.1-0.3 0-0.6-0.1-0.2 0-0.3 0-0.1 0-0.2 0 0 0-0.1 0-0.3-0.1-0.6-0.1-0.1 0-0.3 0-0.1 0.1-0.2 0.1-0.1 0-0.2 0-0.4 0-0.8 0.1 0 0 0 0-0.1 0-0.2 0-0.3 0.1-0.7 0.2 0 0.1-0.1 0.1-0.5 0.2-1 0.4l-2.2 1.3q0.5-0.2 1-0.4 0.4-0.2 0.8-0.3 0.1 0 0.2 0 0.5-0.1 1-0.1 0.1 0 0.2 0 0.5-0.1 1 0 0 0 0.1 0 0.5 0 1.1 0.2 0.1 0 0.1 0 0.6 0.1 1.2 0.3 0 0 0.1 0 0.6 0.2 1.3 0.6 0 0 0 0 0.7 0.3 1.4 0.7 0.4 0.2 0.8 0.5 0.1 0.1 0.2 0.1 0.8 0.5 1.6 1.2z"/>
								<path id="&lt;Path&gt;" class="s44" d="m1978.6 1226.8q0 0.2 0 0.3 0 0 0 0.1 0 0.1 0 0.2 0 0.3 0.1 0.6 0 0.3 0.1 0.6 0 0 0 0 0 0 0 0 0 0.3 0.1 0.6 0 0.3 0.1 0.6 0 0.1 0 0.2 0.1 0.1 0.1 0.2 0 0 0 0c0 0 2.3-0.9 2.2-1.3q0-0.1 0-0.2-0.2-0.7-0.3-1.4 0 0 0 0-0.1-0.7-0.2-1.4 0-0.1 0-0.1 0-0.7 0-1.4 0-0.7 0-1.3 0-0.1 0-0.1 0.1-0.6 0.2-1.1 0-0.1 0-0.2 0.1-0.5 0.3-1 0-0.1 0.1-0.2 0.1-0.4 0.3-0.8 0-0.1 0-0.1 0.2-0.5 0.5-0.9 0 0 0.1-0.1 0.2-0.3 0.5-0.6 0-0.1 0.1-0.2 0.2-0.2 0.5-0.4 0.1-0.1 0.2-0.2 0.3-0.3 0.7-0.5l-2.3 1.3q-0.3 0.2-0.7 0.5-0.1 0.1-0.2 0.2-0.2 0.2-0.4 0.4-0.1 0.1-0.2 0.2-0.2 0.3-0.5 0.6 0 0.1 0 0.1-0.1 0-0.1 0-0.2 0.4-0.4 0.9 0 0 0 0 0 0-0.1 0.1-0.1 0.2-0.2 0.6-0.1 0.1-0.1 0.2 0 0.1-0.1 0.2 0 0.1 0 0.2-0.1 0.3-0.2 0.6 0 0.1 0 0.2 0 0.1 0 0.2-0.1 0.1-0.1 0.2 0 0.3-0.1 0.5 0 0.2 0 0.4 0 0 0 0.1 0 0.1 0 0.1-0.1 0.3-0.1 0.6 0 0.3 0 0.6 0 0 0 0 0 0.3 0 0.5 0 0.3 0.1 0.6z"/>
								<path id="&lt;Path&gt;" class="s44" d="m1979.1 1230.2c-0.4-1.5-0.6-3-0.6-4.5 0-7.6 5.4-10.7 12.1-6.9 4.1 2.5 7.8 7.1 10 12l1.6 1c-2.3-6-6.7-11.7-11.6-14.5-7.4-4.3-13.4-0.8-13.4 7.6 0 1.5 0.1 3 0.5 4.5z"/>
							</g>
						</g>
						<g id="&lt;Group&gt;">
							<g id="&lt;Group&gt;">
								<path id="&lt;Path&gt;" class="s42" d="m1994.4 1237.2c2.6 1.5 2.7 4 0.1 5.5-2.6 1.5-6.9 1.5-9.5 0-2.6-1.5-2.6-4 0-5.5 2.6-1.5 6.8-1.5 9.4 0z"/>
							</g>
							<g id="&lt;Group&gt;">
								<path id="&lt;Path&gt;" class="s42" d="m1967.2 1233.7c2.6 1.5 2.6 4 0 5.5-2.6 1.5-6.8 1.5-9.5 0-2.6-1.5-2.6-4 0-5.5 2.6-1.5 6.9-1.5 9.5 0z"/>
							</g>
							<g id="&lt;Group&gt;">
								<path id="&lt;Path&gt;" class="s43" d="m1978.5 1227.3q0.1 0.1 0.2 0.1 0.4 0.3 0.7 0.7 0 0 0.1 0 0.3 0.4 0.7 0.7 0.1 0.1 0.2 0.2 0.3 0.3 0.7 0.7 0 0 0 0.1 0.4 0.3 0.7 0.7 0.1 0.1 0.2 0.2 0.3 0.4 0.6 0.8 0 0 0.1 0.1 0.3 0.4 0.6 0.8 0.3 0.5 0.7 0.9 0 0.1 0.1 0.2 0.5 0.8 1 1.6 0.1 0.1 0.2 0.3 0.2 0.3 0.4 0.7 0.1 0.2 0.2 0.5 0.1 0.1 0.1 0.2 0.3 0.4 0.5 0.8 0 0.1 0 0.2 0.3 0.5 0.5 1 0 0 0 0.1 0.3 0.5 0.5 1.1l2.2-1.3q0-0.1 0-0.2-0.2-0.3-0.3-0.7-0.1-0.1-0.1-0.2 0-0.1-0.1-0.2 0-0.1-0.1-0.2-0.1-0.3-0.3-0.6 0-0.1 0-0.1-0.1-0.1-0.1-0.2-0.1-0.2-0.2-0.4-0.1-0.2-0.2-0.4-0.1-0.1-0.1-0.3-0.1 0-0.1-0.1-0.1-0.2-0.2-0.3-0.2-0.4-0.4-0.7 0-0.1-0.1-0.2 0-0.1-0.1-0.2-0.5-0.8-1-1.5 0 0 0 0 0-0.1-0.1-0.2-0.3-0.5-0.6-0.9-0.1 0-0.1-0.1-0.3-0.4-0.5-0.7-0.1 0-0.1 0 0-0.1 0-0.1-0.2-0.3-0.5-0.5-0.1-0.2-0.2-0.3 0-0.1-0.1-0.2-0.1-0.1-0.2-0.1-0.2-0.3-0.5-0.6 0 0 0 0-0.1-0.1-0.1-0.1-0.2-0.3-0.4-0.5-0.1-0.1-0.2-0.2-0.1-0.1-0.2-0.2-0.1-0.1-0.2-0.1-0.3-0.3-0.6-0.6 0 0 0 0 0 0 0 0-0.3-0.3-0.6-0.5-0.1-0.1-0.2-0.2-0.1 0-0.2-0.1-0.1-0.1-0.2-0.2-0.3-0.2-0.6-0.4-0.2-0.3-0.5-0.4-0.1-0.1-0.3-0.2-0.1-0.1-0.1-0.1-0.1-0.1-0.2-0.1-0.3-0.2-0.6-0.4 0 0-0.1 0-0.2-0.2-0.4-0.3-0.3-0.1-0.6-0.3-0.1-0.1-0.3-0.1-0.1 0-0.1-0.1 0 0-0.1 0-0.3-0.1-0.5-0.2-0.3-0.2-0.6-0.2 0-0.1-0.1-0.1 0 0 0 0-0.2-0.1-0.4-0.1-0.3-0.1-0.5-0.2-0.2 0-0.3 0-0.1 0-0.1-0.1-0.1 0-0.2 0-0.3 0-0.6-0.1-0.2 0-0.3 0-0.1 0-0.2 0 0 0-0.1 0-0.3-0.1-0.6-0.1-0.1 0-0.3 0-0.1 0-0.2 0.1-0.1 0-0.2 0-0.4 0-0.8 0.1 0 0 0 0-0.1 0-0.2 0-0.3 0.1-0.7 0.2 0 0-0.1 0.1-0.5 0.2-1 0.4l-2.2 1.3q0.5-0.2 1-0.4 0.4-0.2 0.8-0.3 0.1 0 0.2 0 0.5-0.1 1-0.1 0.1 0 0.2 0 0.5-0.1 1 0 0.1 0 0.1 0 0.6 0 1.1 0.2 0.1 0 0.1 0 0.6 0.1 1.2 0.3 0 0 0.1 0 0.6 0.2 1.3 0.5 0 0.1 0 0.1 0.7 0.3 1.4 0.7 0.4 0.2 0.8 0.5 0.1 0 0.2 0.1 0.8 0.5 1.6 1.2z"/>
								<path id="&lt;Path&gt;" class="s44" d="m1963.9 1235q0 0.1 0 0.3 0 0 0 0.1 0 0.1 0 0.2 0 0.3 0.1 0.6 0 0.3 0.1 0.6 0 0 0 0 0 0 0 0 0 0.3 0.1 0.6 0 0.3 0.1 0.6 0 0.1 0 0.2 0 0.1 0.1 0.2 0 0 0 0c0 0 2.3-0.9 2.2-1.3q0-0.1 0-0.2-0.2-0.7-0.3-1.4 0 0 0 0-0.1-0.7-0.2-1.4 0-0.1 0-0.1 0-0.7 0-1.4 0-0.7 0-1.3 0-0.1 0-0.1 0.1-0.6 0.2-1.2 0 0 0-0.1 0.1-0.5 0.3-1 0-0.1 0.1-0.2 0.1-0.4 0.3-0.8 0-0.1 0-0.1 0.2-0.5 0.5-0.9 0-0.1 0.1-0.1 0.2-0.3 0.5-0.6 0-0.1 0.1-0.2 0.3-0.3 0.5-0.5 0.1 0 0.2-0.1 0.3-0.3 0.7-0.5l-2.3 1.3q-0.3 0.2-0.7 0.5-0.1 0.1-0.2 0.2-0.2 0.2-0.4 0.4-0.1 0.1-0.2 0.2-0.2 0.3-0.5 0.6 0 0.1 0 0.1-0.1 0-0.1 0-0.2 0.4-0.4 0.9 0 0 0 0 0 0-0.1 0.1-0.1 0.2-0.2 0.5 0 0.2-0.1 0.3 0 0.1-0.1 0.2 0 0.1 0 0.2-0.1 0.3-0.2 0.6 0 0.1 0 0.2 0 0.1 0 0.1-0.1 0.2-0.1 0.3 0 0.3-0.1 0.5 0 0.2 0 0.4 0 0 0 0.1 0 0 0 0.1-0.1 0.3-0.1 0.6 0 0.3 0 0.6 0 0 0 0 0 0.3 0 0.5 0 0.3 0.1 0.6z"/>
								<path id="&lt;Path&gt;" class="s44" d="m1964.4 1238.4c-0.4-1.5-0.6-3-0.6-4.5 0-7.6 5.4-10.7 12.1-6.9 4.1 2.5 7.8 7.1 10 12l1.6 1c-2.3-6-6.7-11.7-11.6-14.5-7.4-4.3-13.4-0.9-13.4 7.6q0 2.2 0.5 4.5z"/>
							</g>
						</g>
						<g id="&lt;Group&gt;">
							<g id="&lt;Group&gt;">
								<path id="&lt;Path&gt;" class="s42" d="m1978.3 1246.5c2.6 1.6 2.6 4 0 5.5-2.6 1.5-6.8 1.5-9.4 0-2.7-1.5-2.7-3.9-0.1-5.5 2.6-1.5 6.9-1.5 9.5 0z"/>
							</g>
							<g id="&lt;Group&gt;">
								<path id="&lt;Path&gt;" class="s42" d="m1951.1 1243.1c2.6 1.5 2.6 3.9 0 5.4-2.6 1.6-6.8 1.6-9.5 0-2.6-1.5-2.6-3.9 0-5.4 2.6-1.6 6.8-1.6 9.5 0z"/>
							</g>
							<g id="&lt;Group&gt;">
								<path id="&lt;Path&gt;" class="s43" d="m1962.4 1236.6q0.1 0.1 0.2 0.2 0.3 0.3 0.7 0.6 0 0 0 0 0.4 0.4 0.8 0.7 0.1 0.1 0.2 0.2 0.3 0.4 0.6 0.7 0.1 0 0.1 0.1 0.4 0.4 0.7 0.8 0.1 0.1 0.2 0.2 0.3 0.3 0.6 0.7 0 0 0.1 0.1 0.3 0.4 0.6 0.8 0.3 0.5 0.6 0.9 0.1 0.1 0.2 0.2 0.5 0.8 0.9 1.6 0.1 0.1 0.2 0.3 0.2 0.4 0.4 0.7 0.2 0.3 0.3 0.5 0.1 0.1 0.1 0.2 0.2 0.5 0.4 0.9 0.1 0 0.1 0.1 0.2 0.5 0.4 1 0.1 0.1 0.1 0.2 0.2 0.5 0.4 1l2.3-1.3q0-0.1-0.1-0.2-0.1-0.3-0.2-0.6-0.1-0.1-0.1-0.2-0.1-0.1-0.1-0.2-0.1-0.1-0.1-0.3-0.2-0.3-0.3-0.6 0-0.1 0-0.1-0.1-0.1-0.1-0.1-0.1-0.3-0.2-0.5-0.1-0.2-0.2-0.4-0.1-0.1-0.2-0.2 0-0.1 0-0.2-0.1-0.1-0.2-0.3-0.2-0.3-0.4-0.7 0-0.1-0.1-0.2 0 0-0.1-0.1-0.5-0.8-1-1.6 0 0 0 0-0.1-0.1-0.1-0.2-0.3-0.4-0.6-0.9-0.1 0-0.1-0.1-0.3-0.3-0.6-0.7 0 0 0 0 0-0.1-0.1-0.1-0.2-0.3-0.4-0.5-0.1-0.1-0.2-0.2-0.1-0.1-0.1-0.2-0.1-0.1-0.2-0.2-0.2-0.3-0.5-0.6 0 0 0 0-0.1-0.1-0.1-0.1-0.2-0.2-0.5-0.5-0.1-0.1-0.2-0.2-0.1-0.1-0.2-0.2 0-0.1-0.1-0.1-0.3-0.3-0.6-0.6 0 0 0 0 0 0 0 0-0.3-0.2-0.6-0.5-0.1-0.1-0.2-0.1-0.1-0.1-0.2-0.2-0.1-0.1-0.2-0.2-0.3-0.2-0.6-0.4-0.3-0.2-0.6-0.4-0.1-0.1-0.2-0.2-0.1 0-0.2-0.1 0 0-0.1-0.1-0.3-0.2-0.6-0.3 0-0.1-0.1-0.1-0.2-0.1-0.4-0.2-0.3-0.2-0.6-0.3-0.2-0.1-0.3-0.2-0.1 0-0.1 0-0.1-0.1-0.1-0.1-0.3-0.1-0.5-0.2-0.3-0.1-0.6-0.2 0 0-0.1-0.1 0 0-0.1 0-0.1 0-0.3-0.1-0.3-0.1-0.6-0.1-0.1-0.1-0.2-0.1-0.1 0-0.2 0 0 0-0.1-0.1-0.3 0-0.6-0.1-0.2 0-0.4 0 0 0-0.1 0 0 0-0.1 0-0.3 0-0.6 0-0.2 0-0.3 0-0.1 0-0.2 0-0.1 0-0.2 0-0.4 0-0.8 0.1 0 0 0 0-0.1 0-0.2 0.1-0.4 0-0.7 0.2-0.1 0-0.1 0-0.5 0.2-1 0.5l-2.3 1.3q0.5-0.3 1.1-0.5 0.4-0.1 0.8-0.2 0.1-0.1 0.1-0.1 0.5-0.1 1.1-0.1 0 0 0.2 0 0.4 0 1 0 0 0 0.1 0 0.5 0.1 1.1 0.2 0.1 0 0.1 0 0.6 0.1 1.2 0.3 0 0 0.1 0.1 0.6 0.2 1.2 0.5 0.1 0 0.1 0 0.7 0.3 1.3 0.7 0.5 0.2 0.9 0.5 0.1 0.1 0.2 0.1 0.8 0.6 1.6 1.2z"/>
								<path id="&lt;Path&gt;" class="s44" d="m1947.7 1244.3q0 0.2 0.1 0.3 0 0.1 0 0.1 0 0.1 0 0.2 0 0.3 0 0.6 0.1 0.3 0.1 0.6 0 0 0 0 0 0 0 0.1 0.1 0.2 0.1 0.5 0.1 0.3 0.2 0.6 0 0.2 0 0.3 0 0 0 0.1 0.1 0 0.1 0c0 0 2.3-0.8 2.2-1.3q0-0.1 0-0.1-0.2-0.7-0.3-1.5 0 0 0 0-0.1-0.7-0.2-1.4 0 0 0-0.1-0.1-0.7-0.1-1.4 0.1-0.7 0.1-1.3 0-0.1 0-0.1 0.1-0.6 0.2-1.1 0-0.1 0-0.2 0.1-0.5 0.3-1 0-0.1 0-0.1 0.2-0.5 0.4-0.9 0-0.1 0-0.1 0.2-0.5 0.5-0.9 0 0 0.1-0.1 0.2-0.3 0.4-0.6 0.1-0.1 0.2-0.2 0.2-0.2 0.5-0.4 0.1-0.1 0.2-0.2 0.3-0.3 0.7-0.5l-2.3 1.3q-0.4 0.2-0.7 0.5-0.1 0.1-0.2 0.2-0.2 0.2-0.4 0.4-0.1 0.1-0.2 0.2-0.3 0.3-0.5 0.6 0 0.1-0.1 0.1 0 0.1 0 0.1-0.2 0.3-0.4 0.8 0 0 0 0-0.1 0.1-0.1 0.1-0.1 0.3-0.2 0.6-0.1 0.1-0.1 0.3 0 0-0.1 0.1 0 0.1 0 0.2-0.1 0.3-0.2 0.6 0 0.1 0 0.2 0 0.1-0.1 0.2 0 0.1 0 0.2-0.1 0.3-0.1 0.6 0 0.1 0 0.3 0 0 0 0.1 0 0.1-0.1 0.1 0 0.3 0 0.6 0 0.3 0 0.6 0 0 0 0 0 0.3 0 0.6 0 0.2 0 0.5z"/>
								<path id="&lt;Path&gt;" class="s44" d="m1948.3 1247.7q-0.6-2.3-0.6-4.5c0-7.6 5.4-10.7 12-6.8 4.2 2.4 7.9 7 10 12l1.6 0.9c-2.3-6-6.6-11.6-11.6-14.5-7.3-4.3-13.3-0.8-13.4 7.6q0 2.2 0.5 4.5z"/>
							</g>
						</g>
						<g id="&lt;Group&gt;">
							<g id="&lt;Group&gt;">
								<path id="&lt;Path&gt;" class="s42" d="m1962.2 1255.9c2.6 1.5 2.6 3.9 0 5.5-2.6 1.5-6.8 1.5-9.5 0-2.6-1.6-2.6-4 0-5.5 2.6-1.5 6.9-1.5 9.5 0z"/>
							</g>
							<g id="&lt;Group&gt;">
								<path id="&lt;Path&gt;" class="s42" d="m1934.9 1252.4c2.7 1.5 2.7 4 0.1 5.5-2.6 1.5-6.9 1.5-9.5 0-2.6-1.5-2.6-4 0-5.5 2.6-1.5 6.8-1.5 9.4 0z"/>
							</g>
							<g id="&lt;Group&gt;">
								<path id="&lt;Path&gt;" class="s43" d="m1946.2 1245.9q0.1 0.1 0.2 0.2 0.4 0.3 0.8 0.6 0 0 0 0.1 0.4 0.3 0.8 0.7 0.1 0.1 0.2 0.2 0.3 0.3 0.6 0.6 0 0.1 0.1 0.1 0.3 0.4 0.7 0.8 0.1 0.1 0.2 0.2 0.3 0.4 0.6 0.7 0 0.1 0 0.1 0.4 0.4 0.7 0.9 0.3 0.4 0.6 0.9 0.1 0.1 0.1 0.1 0.6 0.8 1 1.6 0.1 0.2 0.2 0.3 0.2 0.4 0.4 0.7 0.2 0.3 0.3 0.5 0 0.1 0.1 0.3 0.2 0.4 0.4 0.8 0 0.1 0.1 0.1 0.2 0.5 0.4 1 0.1 0.1 0.1 0.2 0.2 0.5 0.4 1l2.3-1.3q-0.1-0.1-0.1-0.1-0.1-0.4-0.2-0.7-0.1-0.1-0.2-0.2 0-0.1 0-0.2-0.1-0.1-0.1-0.2-0.2-0.4-0.3-0.7 0 0-0.1-0.1 0 0 0-0.1-0.1-0.2-0.3-0.5 0-0.2-0.1-0.3-0.1-0.2-0.2-0.3 0-0.1 0-0.1-0.1-0.2-0.2-0.4-0.2-0.3-0.4-0.7-0.1 0-0.1-0.1-0.1-0.1-0.1-0.2-0.5-0.8-1-1.6 0 0 0 0-0.1-0.1-0.1-0.1-0.3-0.5-0.7-0.9 0-0.1 0-0.1-0.3-0.4-0.6-0.8 0 0 0 0 0 0-0.1-0.1-0.2-0.2-0.4-0.5-0.1-0.1-0.2-0.2-0.1-0.1-0.2-0.2 0-0.1-0.1-0.2-0.3-0.3-0.5-0.6 0 0-0.1 0 0 0 0-0.1-0.3-0.2-0.5-0.4-0.1-0.1-0.2-0.3-0.1-0.1-0.2-0.1-0.1-0.1-0.1-0.2-0.3-0.3-0.6-0.5 0 0 0 0-0.1-0.1-0.1-0.1-0.2-0.2-0.5-0.5-0.1 0-0.2-0.1-0.1-0.1-0.2-0.2-0.1-0.1-0.2-0.1-0.3-0.3-0.6-0.5-0.3-0.2-0.6-0.4-0.1-0.1-0.2-0.2-0.1 0-0.2-0.1-0.1 0-0.1-0.1-0.3-0.2-0.6-0.3-0.1-0.1-0.1-0.1-0.2-0.1-0.5-0.2-0.2-0.2-0.5-0.3-0.2-0.1-0.4-0.2 0 0 0 0-0.1 0-0.1-0.1-0.3-0.1-0.6-0.2-0.2-0.1-0.5-0.2-0.1 0-0.1 0 0 0-0.1-0.1-0.2 0-0.3-0.1-0.3 0-0.6-0.1-0.1 0-0.3-0.1 0 0-0.1 0-0.1 0-0.1 0-0.3-0.1-0.6-0.1-0.2-0.1-0.4-0.1 0 0-0.1 0-0.1 0-0.1 0-0.3 0-0.6 0-0.2 0-0.3 0-0.1 0-0.2 0-0.1 0-0.2 0-0.4 0.1-0.8 0.1 0 0 0 0-0.1 0.1-0.2 0.1-0.4 0.1-0.7 0.2-0.1 0-0.1 0-0.5 0.2-1 0.5l-2.3 1.3q0.5-0.3 1-0.5 0.4-0.1 0.8-0.2 0.1 0 0.2-0.1 0.5-0.1 1-0.1 0.1 0 0.2 0 0.5 0 1 0 0.1 0 0.2 0 0.5 0.1 1.1 0.2 0 0 0.1 0 0.6 0.2 1.2 0.4 0 0 0 0 0.7 0.2 1.3 0.5 0.1 0 0.1 0 0.7 0.3 1.3 0.7 0.4 0.3 0.9 0.5 0.1 0.1 0.1 0.2 0.9 0.5 1.6 1.1z"/>
								<path id="&lt;Path&gt;" class="s44" d="m1931.6 1253.7q0 0.1 0 0.2 0 0.1 0 0.2 0.1 0 0.1 0.1 0 0.3 0 0.6 0.1 0.3 0.1 0.6 0 0 0 0.1 0 0 0 0 0.1 0.3 0.1 0.5 0.1 0.3 0.1 0.7 0.1 0.1 0.1 0.2 0 0.1 0 0.1 0 0.1 0 0.1c0 0 2.4-0.9 2.3-1.4q0 0-0.1-0.1-0.1-0.7-0.2-1.4 0 0 0-0.1-0.1-0.7-0.2-1.4 0 0 0-0.1-0.1-0.7-0.1-1.4 0-0.6 0.1-1.3 0 0 0-0.1 0.1-0.6 0.2-1.1 0-0.1 0-0.2 0.1-0.5 0.3-0.9 0-0.1 0-0.2 0.2-0.5 0.3-0.9 0.1 0 0.1-0.1 0.2-0.4 0.5-0.8 0-0.1 0-0.2 0.3-0.3 0.5-0.6 0.1-0.1 0.2-0.2 0.2-0.2 0.4-0.4 0.1-0.1 0.2-0.2 0.4-0.2 0.7-0.5l-2.2 1.4q-0.4 0.2-0.7 0.4-0.1 0.1-0.2 0.2-0.2 0.2-0.5 0.4-0.1 0.1-0.1 0.2-0.3 0.3-0.5 0.7 0 0-0.1 0.1 0 0 0 0-0.2 0.4-0.5 0.8 0 0 0 0 0 0.1 0 0.1-0.1 0.3-0.2 0.6-0.1 0.1-0.1 0.3-0.1 0.1-0.1 0.2 0 0-0.1 0.1 0 0.3-0.1 0.6 0 0.1-0.1 0.3 0 0 0 0.1 0 0.1 0 0.2-0.1 0.3-0.1 0.6 0 0.2 0 0.3-0.1 0.1-0.1 0.1 0 0.1 0 0.2 0 0.2 0 0.5 0 0.3 0 0.6 0 0 0 0 0 0.3 0 0.6 0 0.3 0 0.6z"/>
								<path id="&lt;Path&gt;" class="s44" d="m1932.1 1257.1q-0.5-2.3-0.5-4.6c0-7.6 5.4-10.6 12-6.8 4.2 2.4 7.9 7 10 12l1.6 0.9c-2.3-6-6.6-11.6-11.6-14.5-7.3-4.2-13.4-0.8-13.4 7.7q0 2.2 0.5 4.5z"/>
							</g>
						</g>
						<g id="&lt;Group&gt;">
							<g id="&lt;Group&gt;">
								<path id="&lt;Path&gt;" class="s42" d="m1946.1 1265.6c2.7 1.6 2.7 4 0.1 5.5-2.6 1.5-6.9 1.5-9.5 0-2.6-1.5-2.6-3.9 0-5.5 2.6-1.5 6.8-1.5 9.4 0z"/>
							</g>
							<g id="&lt;Group&gt;">
								<path id="&lt;Path&gt;" class="s42" d="m1918.9 1262.2c2.6 1.5 2.6 3.9 0 5.4-2.6 1.6-6.8 1.6-9.4 0-2.7-1.5-2.7-3.9-0.1-5.4 2.6-1.6 6.9-1.6 9.5 0z"/>
							</g>
							<g id="&lt;Group&gt;">
								<path id="&lt;Path&gt;" class="s43" d="m1930.2 1255.7q0.1 0.1 0.2 0.2 0.4 0.3 0.7 0.6 0 0 0.1 0 0.4 0.4 0.7 0.7 0.1 0.1 0.2 0.2 0.3 0.4 0.7 0.7 0 0 0 0.1 0.4 0.4 0.7 0.8 0.1 0.1 0.2 0.2 0.3 0.3 0.6 0.7 0.1 0.1 0.1 0.1 0.3 0.4 0.6 0.8 0.4 0.5 0.7 0.9 0 0.1 0.1 0.2 0.5 0.8 1 1.6 0.1 0.1 0.2 0.3 0.2 0.4 0.4 0.7 0.1 0.3 0.2 0.5 0.1 0.1 0.2 0.2 0.2 0.5 0.4 0.9 0 0 0 0.1 0.3 0.5 0.5 1 0 0.1 0.1 0.2 0.2 0.5 0.4 1l2.2-1.3q0-0.1 0-0.2-0.2-0.3-0.3-0.6 0-0.1-0.1-0.2 0-0.1-0.1-0.2 0-0.1-0.1-0.3-0.1-0.3-0.3-0.6 0-0.1 0-0.1 0-0.1-0.1-0.1-0.1-0.3-0.2-0.5-0.1-0.2-0.2-0.4-0.1-0.1-0.1-0.2-0.1-0.1-0.1-0.2-0.1-0.1-0.2-0.3-0.2-0.3-0.4-0.7 0-0.1-0.1-0.2 0 0-0.1-0.1-0.4-0.8-1-1.6 0 0 0 0 0-0.1-0.1-0.2-0.3-0.4-0.6-0.9 0 0-0.1-0.1-0.2-0.3-0.5-0.7 0 0-0.1 0 0-0.1 0-0.1-0.2-0.3-0.4-0.5-0.1-0.1-0.2-0.2-0.1-0.1-0.2-0.2-0.1-0.1-0.2-0.2-0.2-0.3-0.5-0.6 0 0 0 0 0-0.1-0.1-0.1-0.2-0.2-0.4-0.5-0.1-0.1-0.2-0.2-0.1-0.1-0.2-0.2-0.1 0-0.2-0.1-0.3-0.3-0.6-0.6 0 0 0 0 0 0 0 0-0.3-0.3-0.6-0.5-0.1-0.1-0.2-0.1-0.1-0.1-0.2-0.2-0.1-0.1-0.2-0.2-0.2-0.2-0.5-0.4 0 0 0 0-0.3-0.2-0.6-0.4-0.1-0.1-0.3-0.2 0 0-0.1-0.1-0.1-0.1-0.2-0.1-0.3-0.2-0.5-0.3-0.1-0.1-0.2-0.1-0.2-0.1-0.4-0.3-0.3-0.1-0.5-0.2-0.2-0.1-0.4-0.2 0 0-0.1 0 0-0.1-0.1-0.1-0.2-0.1-0.5-0.2-0.3-0.1-0.5-0.2-0.1 0-0.1-0.1-0.1 0-0.1 0-0.2 0-0.4-0.1-0.3-0.1-0.5-0.1-0.2-0.1-0.3-0.1-0.1 0-0.1 0-0.1 0-0.2-0.1-0.3 0-0.6-0.1-0.1 0-0.3 0-0.1 0-0.1 0-0.1 0-0.2 0-0.3 0-0.6 0-0.1 0-0.3 0-0.1 0-0.2 0-0.1 0-0.2 0-0.4 0-0.8 0.1 0 0 0 0-0.1 0-0.2 0.1-0.3 0-0.7 0.2 0 0 0 0-0.6 0.2-1.1 0.5l-2.2 1.3q0.5-0.3 1-0.5 0.4-0.1 0.8-0.2 0.1-0.1 0.2-0.1 0.5-0.1 1-0.1 0.1 0 0.2 0 0.5 0 1 0 0.1 0 0.1 0 0.6 0.1 1.1 0.2 0.1 0 0.1 0 0.6 0.1 1.2 0.3 0.1 0 0.1 0.1 0.6 0.2 1.3 0.5 0 0 0.1 0 0.6 0.3 1.3 0.7 0.4 0.2 0.8 0.5 0.1 0.1 0.2 0.1 0.8 0.6 1.6 1.2z"/>
								<path id="&lt;Path&gt;" class="s44" d="m1915.6 1263.4q0 0.2 0 0.3 0 0.1 0 0.1 0 0.1 0 0.2 0 0.3 0.1 0.6 0 0.3 0.1 0.6 0 0 0 0 0 0 0 0.1 0 0.2 0.1 0.5 0 0.3 0.1 0.6 0 0.2 0 0.3 0.1 0 0.1 0.1 0 0 0 0c0 0 2.3-0.8 2.2-1.3q0-0.1 0-0.1-0.2-0.7-0.3-1.5 0 0 0 0-0.1-0.7-0.2-1.4 0 0 0-0.1 0-0.7 0-1.4 0-0.7 0-1.3 0.1-0.1 0.1-0.1 0-0.6 0.1-1.1 0-0.1 0.1-0.2 0.1-0.5 0.2-1 0-0.1 0.1-0.2 0.1-0.4 0.3-0.8 0-0.1 0-0.1 0.3-0.5 0.5-0.9 0.1 0 0.1-0.1 0.2-0.3 0.5-0.6 0.1-0.1 0.1-0.2 0.3-0.2 0.5-0.4 0.1-0.1 0.2-0.2 0.3-0.3 0.7-0.5l-2.3 1.3q-0.3 0.2-0.7 0.5-0.1 0.1-0.1 0.2-0.3 0.2-0.5 0.4-0.1 0.1-0.2 0.2-0.2 0.3-0.4 0.6-0.1 0.1-0.1 0.1 0 0.1 0 0.1-0.3 0.3-0.5 0.8 0 0 0 0 0 0.1 0 0.1-0.2 0.3-0.3 0.6 0 0.1-0.1 0.3 0 0 0 0.1-0.1 0.1-0.1 0.2-0.1 0.3-0.2 0.6 0 0.1 0 0.2 0 0.1 0 0.2 0 0.1-0.1 0.2 0 0.3-0.1 0.6 0 0.1 0 0.3 0 0.1 0 0.1 0 0.1 0 0.1 0 0.3-0.1 0.6 0 0.3 0 0.6 0 0 0 0 0 0.3 0 0.6 0 0.2 0.1 0.5z"/>
								<path id="&lt;Path&gt;" class="s44" d="m1916.1 1266.9c-0.4-1.6-0.6-3.1-0.6-4.6 0.1-7.6 5.5-10.7 12.1-6.8 4.2 2.4 7.8 7 10 12l1.6 0.9c-2.3-6-6.7-11.6-11.6-14.5-7.4-4.3-13.4-0.8-13.4 7.6q0 2.2 0.5 4.5z"/>
							</g>
						</g>
						<g id="&lt;Group&gt;">
							<g id="&lt;Group&gt;">
								<path id="&lt;Path&gt;" class="s42" d="m1930.9 1274.5c2.6 1.5 2.7 4 0 5.5-2.6 1.5-6.8 1.5-9.4 0-2.6-1.5-2.7-4-0.1-5.5 2.7-1.5 6.9-1.5 9.5 0z"/>
							</g>
							<g id="&lt;Group&gt;">
								<path id="&lt;Path&gt;" class="s42" d="m1903.7 1271c2.6 1.5 2.6 4 0 5.5-2.6 1.5-6.8 1.5-9.5 0-2.6-1.5-2.6-4 0-5.5 2.6-1.5 6.9-1.5 9.5 0z"/>
							</g>
							<g id="&lt;Group&gt;">
								<path id="&lt;Path&gt;" class="s43" d="m1915 1264.6q0.1 0.1 0.2 0.1 0.3 0.4 0.7 0.7 0 0 0.1 0 0.3 0.4 0.7 0.7 0.1 0.1 0.2 0.2 0.3 0.3 0.6 0.7 0.1 0 0.1 0.1 0.4 0.3 0.7 0.7 0.1 0.1 0.2 0.2 0.3 0.4 0.6 0.8 0 0 0.1 0.1 0.3 0.4 0.6 0.8 0.3 0.5 0.6 0.9 0.1 0.1 0.2 0.2 0.5 0.8 1 1.6 0.1 0.1 0.2 0.3 0.2 0.3 0.4 0.7 0.1 0.2 0.2 0.5 0.1 0.1 0.1 0.2 0.2 0.4 0.4 0.8 0.1 0.1 0.1 0.2 0.2 0.5 0.5 1 0 0 0 0.1 0.3 0.6 0.4 1.1l2.3-1.3q0-0.1-0.1-0.2-0.1-0.3-0.2-0.6-0.1-0.2-0.1-0.3-0.1-0.1-0.1-0.2 0-0.1-0.1-0.2-0.1-0.3-0.3-0.6 0-0.1 0-0.1-0.1-0.1-0.1-0.2-0.1-0.2-0.2-0.4-0.1-0.2-0.2-0.4-0.1-0.1-0.1-0.2-0.1-0.1-0.1-0.2-0.1-0.1-0.2-0.3-0.2-0.4-0.4-0.7 0-0.1-0.1-0.2 0-0.1-0.1-0.1-0.5-0.9-1-1.6 0 0 0 0 0-0.1-0.1-0.2-0.3-0.4-0.6-0.9-0.1 0-0.1-0.1-0.3-0.3-0.6-0.7 0 0 0 0 0-0.1-0.1-0.1-0.2-0.3-0.4-0.5-0.1-0.2-0.2-0.3 0-0.1-0.1-0.2-0.1 0-0.2-0.1-0.2-0.3-0.5-0.6 0 0 0 0-0.1-0.1-0.1-0.1-0.2-0.3-0.4-0.5-0.2-0.1-0.3-0.2-0.1-0.1-0.2-0.2 0-0.1-0.1-0.1-0.3-0.3-0.6-0.6 0 0 0 0-0.3-0.3-0.6-0.5-0.1-0.1-0.2-0.2-0.1 0-0.2-0.1-0.1-0.1-0.2-0.2-0.3-0.2-0.6-0.4 0 0 0 0-0.3-0.3-0.5-0.4-0.2-0.1-0.3-0.2-0.1-0.1-0.2-0.1 0-0.1-0.1-0.1-0.3-0.2-0.6-0.4 0 0-0.1 0-0.2-0.2-0.4-0.3-0.3-0.1-0.6-0.3-0.1 0-0.3-0.1-0.1 0-0.1-0.1-0.1 0-0.1 0-0.3-0.1-0.5-0.2-0.3-0.1-0.6-0.2 0-0.1-0.1-0.1 0 0 0 0-0.2-0.1-0.4-0.1-0.3-0.1-0.6-0.2-0.1 0-0.2 0-0.1 0-0.1-0.1-0.1 0-0.2 0-0.3 0-0.6-0.1-0.2 0-0.3 0-0.1 0-0.2 0 0 0-0.1 0-0.3-0.1-0.6-0.1-0.2 0-0.3 0-0.1 0-0.2 0.1-0.1 0-0.2 0-0.4 0-0.8 0.1 0 0 0 0-0.1 0-0.2 0-0.4 0.1-0.7 0.2 0 0-0.1 0.1-0.5 0.2-1 0.4l-2.2 1.4q0.4-0.3 1-0.5 0.4-0.2 0.8-0.3 0.1 0 0.2 0 0.4-0.1 1-0.1 0.1 0 0.2 0 0.5-0.1 1 0 0 0 0.1 0 0.5 0 1.1 0.2 0.1 0 0.1 0 0.6 0.1 1.2 0.3 0 0 0.1 0 0.6 0.3 1.2 0.5 0.1 0.1 0.1 0.1 0.7 0.3 1.4 0.7 0.4 0.2 0.8 0.5 0.1 0 0.2 0.1 0.8 0.5 1.6 1.2z"/>
								<path id="&lt;Path&gt;" class="s44" d="m1900.3 1272.3q0.1 0.2 0.1 0.3 0 0 0 0.1 0 0.1 0 0.2 0 0.3 0.1 0.6 0 0.3 0 0.6 0 0 0 0 0 0 0.1 0 0 0.3 0.1 0.6 0 0.3 0.1 0.6 0 0.1 0 0.2 0 0.1 0.1 0.2 0 0 0 0c0 0 2.3-0.9 2.2-1.3q0-0.1 0-0.2-0.2-0.7-0.3-1.4 0 0 0 0-0.1-0.7-0.2-1.4 0-0.1 0-0.1 0-0.7 0-1.4 0-0.7 0-1.3 0-0.1 0-0.1 0.1-0.6 0.2-1.2 0 0 0-0.1 0.1-0.5 0.3-1 0-0.1 0-0.2 0.2-0.4 0.4-0.8 0-0.1 0-0.1 0.2-0.5 0.5-0.9 0-0.1 0.1-0.1 0.2-0.3 0.4-0.6 0.1-0.1 0.2-0.2 0.2-0.3 0.5-0.5 0.1 0 0.2-0.1 0.3-0.3 0.7-0.5l-2.3 1.3q-0.3 0.2-0.7 0.5-0.1 0.1-0.2 0.2-0.2 0.2-0.4 0.4-0.1 0.1-0.2 0.2-0.3 0.3-0.5 0.6 0 0.1 0 0.1-0.1 0-0.1 0-0.2 0.4-0.4 0.9 0 0 0 0 0 0-0.1 0.1-0.1 0.3-0.2 0.5-0.1 0.2-0.1 0.3 0 0.1-0.1 0.2 0 0.1 0 0.2-0.1 0.3-0.2 0.6 0 0.1 0 0.2 0 0.1-0.1 0.1 0 0.2 0 0.3 0 0.3-0.1 0.5 0 0.2 0 0.4 0 0 0 0.1 0 0 0 0.1-0.1 0.3-0.1 0.6 0 0.3 0 0.6 0 0 0 0 0 0.3 0 0.5 0 0.3 0 0.6z"/>
								<path id="&lt;Path&gt;" class="s44" d="m1900.9 1275.7q-0.6-2.3-0.6-4.5c0-7.6 5.4-10.7 12-6.9 4.2 2.4 7.9 7.1 10.1 12l1.5 1c-2.2-6-6.6-11.7-11.5-14.5-7.4-4.3-13.4-0.9-13.4 7.6q0 2.2 0.5 4.5z"/>
							</g>
						</g>
					</g>
					<g id="&lt;Group&gt;">
						<g id="&lt;Group&gt;">
							<g id="&lt;Group&gt;">
								<path id="&lt;Path&gt;" class="s42" d="m1916.2 1282.7c2.7 1.5 2.7 4 0.1 5.5-2.6 1.5-6.9 1.5-9.5 0-2.6-1.5-2.6-4 0-5.5 2.6-1.5 6.8-1.5 9.4 0z"/>
							</g>
							<g id="&lt;Group&gt;">
								<path id="&lt;Path&gt;" class="s42" d="m1889 1279.2c2.6 1.5 2.6 4 0 5.5-2.6 1.5-6.8 1.5-9.4 0-2.7-1.5-2.7-4-0.1-5.5 2.6-1.5 6.9-1.5 9.5 0z"/>
							</g>
							<g id="&lt;Group&gt;">
								<path id="&lt;Path&gt;" class="s43" d="m1900.3 1272.8q0.1 0.1 0.2 0.1 0.4 0.3 0.7 0.7 0 0 0.1 0 0.3 0.3 0.7 0.7 0.1 0.1 0.2 0.2 0.3 0.3 0.7 0.7 0 0 0 0.1 0.4 0.3 0.7 0.7 0.1 0.1 0.2 0.2 0.3 0.4 0.6 0.8 0.1 0 0.1 0.1 0.3 0.4 0.6 0.8 0.4 0.4 0.7 0.9 0 0.1 0.1 0.2 0.5 0.7 1 1.5 0.1 0.2 0.2 0.4 0.2 0.3 0.4 0.7 0.1 0.2 0.2 0.5 0.1 0.1 0.1 0.2 0.3 0.4 0.5 0.8 0 0.1 0 0.2 0.3 0.5 0.5 0.9 0 0.1 0.1 0.2 0.2 0.5 0.4 1.1l2.2-1.3q0-0.1 0-0.2-0.2-0.3-0.3-0.7-0.1-0.1-0.1-0.2 0-0.1-0.1-0.2 0-0.1-0.1-0.2-0.1-0.3-0.3-0.6 0-0.1 0-0.1-0.1-0.1-0.1-0.2-0.1-0.2-0.2-0.4-0.1-0.2-0.2-0.4-0.1-0.1-0.1-0.2-0.1-0.1-0.1-0.2-0.1-0.2-0.2-0.3-0.2-0.4-0.4-0.7 0-0.1-0.1-0.2 0-0.1-0.1-0.2-0.4-0.8-1-1.5 0 0 0 0 0-0.1-0.1-0.2-0.3-0.5-0.6-0.9-0.1 0-0.1-0.1-0.3-0.4-0.5-0.7-0.1 0-0.1 0 0-0.1 0-0.1-0.2-0.3-0.4-0.6-0.1-0.1-0.2-0.2-0.1-0.1-0.2-0.2-0.1-0.1-0.2-0.1-0.2-0.3-0.5-0.6 0 0 0-0.1-0.1 0-0.1 0-0.2-0.3-0.4-0.5-0.1-0.1-0.2-0.2-0.1-0.1-0.2-0.2-0.1-0.1-0.2-0.2-0.3-0.2-0.6-0.5 0 0 0 0 0 0 0 0-0.3-0.3-0.6-0.5-0.1-0.1-0.2-0.2-0.1-0.1-0.2-0.1-0.1-0.1-0.2-0.2-0.3-0.2-0.5-0.4 0-0.1 0-0.1-0.3-0.2-0.6-0.4-0.1 0-0.3-0.1 0-0.1-0.1-0.1-0.1-0.1-0.2-0.1-0.3-0.2-0.6-0.4 0 0-0.1 0-0.2-0.2-0.4-0.3-0.3-0.1-0.5-0.3-0.2 0-0.4-0.1 0-0.1-0.1-0.1 0 0-0.1 0-0.3-0.1-0.5-0.2-0.3-0.2-0.6-0.2 0-0.1-0.1-0.1 0 0 0 0-0.2-0.1-0.4-0.1-0.3-0.1-0.5-0.2-0.2 0-0.3 0-0.1-0.1-0.1-0.1-0.1 0-0.2 0-0.3 0-0.6-0.1-0.2 0-0.3 0-0.1 0-0.2 0 0 0-0.1-0.1-0.3 0-0.6 0-0.1 0-0.3 0-0.1 0-0.2 0-0.1 0-0.2 0.1-0.4 0-0.8 0.1 0 0 0 0-0.1 0-0.2 0-0.3 0.1-0.7 0.2 0 0-0.1 0.1-0.5 0.2-1 0.4l-2.2 1.3q0.5-0.2 1-0.4 0.4-0.2 0.8-0.3 0.1 0 0.2 0 0.5-0.1 1-0.1 0.1-0.1 0.2-0.1 0.5 0 1 0.1 0.1 0 0.1 0 0.6 0 1.1 0.1 0.1 0.1 0.1 0.1 0.6 0.1 1.2 0.3 0.1 0 0.1 0 0.6 0.2 1.3 0.5 0 0.1 0 0.1 0.7 0.3 1.4 0.7 0.4 0.2 0.8 0.5 0.1 0 0.2 0.1 0.8 0.5 1.6 1.2z"/>
								<path id="&lt;Path&gt;" class="s44" d="m1885.7 1280.5q0 0.1 0 0.3 0 0 0 0.1 0 0.1 0 0.2 0 0.3 0.1 0.6 0 0.3 0.1 0.6 0 0 0 0 0 0 0 0 0 0.3 0.1 0.6 0 0.3 0.1 0.6 0 0.1 0 0.2 0.1 0.1 0.1 0.2 0 0 0 0c0 0 2.3-0.9 2.2-1.3q0-0.1 0-0.2-0.2-0.7-0.3-1.4 0 0 0 0-0.1-0.7-0.2-1.4 0-0.1 0-0.1 0-0.7 0-1.4 0-0.7 0-1.3 0-0.1 0.1-0.1 0-0.6 0.1-1.2 0 0 0-0.1 0.2-0.5 0.3-1 0-0.1 0.1-0.2 0.1-0.4 0.3-0.8 0-0.1 0-0.1 0.3-0.5 0.5-0.9 0.1-0.1 0.1-0.1 0.2-0.3 0.5-0.6 0-0.1 0.1-0.2 0.3-0.3 0.5-0.5 0.1 0 0.2-0.1 0.3-0.3 0.7-0.5l-2.3 1.3q-0.3 0.2-0.7 0.5-0.1 0.1-0.2 0.1-0.2 0.2-0.4 0.5-0.1 0.1-0.2 0.2-0.2 0.3-0.5 0.6 0 0 0 0.1 0 0-0.1 0-0.2 0.4-0.4 0.9 0 0 0 0 0 0 0 0.1-0.2 0.2-0.3 0.5 0 0.2-0.1 0.3 0 0.1 0 0.2-0.1 0.1-0.1 0.2-0.1 0.3-0.2 0.6 0 0.1 0 0.2 0 0.1 0 0.1-0.1 0.1-0.1 0.3 0 0.3-0.1 0.5 0 0.2 0 0.4 0 0 0 0.1 0 0 0 0.1 0 0.3-0.1 0.6 0 0.3 0 0.6 0 0 0 0 0 0.3 0 0.5 0 0.3 0.1 0.6z"/>
								<path id="&lt;Path&gt;" class="s44" d="m1886.2 1283.9c-0.4-1.5-0.6-3-0.6-4.5 0-7.6 5.5-10.7 12.1-6.9 4.2 2.4 7.8 7 10 12l1.6 1c-2.3-6-6.7-11.7-11.6-14.5-7.4-4.3-13.4-0.9-13.4 7.6q0 2.2 0.5 4.5z"/>
							</g>
						</g>
						<g id="&lt;Group&gt;">
							<g id="&lt;Group&gt;">
								<path id="&lt;Path&gt;" class="s42" d="m1900.1 1292c2.6 1.6 2.6 4 0 5.5-2.6 1.5-6.8 1.5-9.4 0-2.6-1.5-2.7-3.9-0.1-5.5 2.7-1.5 6.9-1.5 9.5 0z"/>
							</g>
							<g id="&lt;Group&gt;">
								<path id="&lt;Path&gt;" class="s42" d="m1872.9 1288.6c2.6 1.5 2.6 3.9 0 5.4-2.6 1.6-6.8 1.6-9.5 0-2.6-1.5-2.6-3.9 0-5.4 2.6-1.6 6.8-1.6 9.5 0z"/>
							</g>
							<g id="&lt;Group&gt;">
								<path id="&lt;Path&gt;" class="s43" d="m1884.2 1282.1q0.1 0.1 0.2 0.2 0.3 0.3 0.7 0.6 0 0 0 0 0.4 0.4 0.8 0.7 0.1 0.1 0.2 0.2 0.3 0.3 0.6 0.7 0.1 0 0.1 0.1 0.4 0.4 0.7 0.8 0.1 0.1 0.2 0.2 0.3 0.3 0.6 0.7 0 0 0.1 0.1 0.3 0.4 0.6 0.8 0.3 0.5 0.7 0.9 0 0.1 0.1 0.2 0.5 0.8 1 1.6 0.1 0.1 0.1 0.3 0.3 0.4 0.4 0.7 0.2 0.2 0.3 0.5 0.1 0.1 0.1 0.2 0.2 0.4 0.4 0.9 0.1 0 0.1 0.1 0.2 0.5 0.4 1 0.1 0.1 0.1 0.2 0.2 0.5 0.4 1l2.3-1.3q0-0.1-0.1-0.2-0.1-0.3-0.2-0.6-0.1-0.1-0.1-0.2-0.1-0.1-0.1-0.2-0.1-0.2-0.1-0.3-0.1-0.3-0.3-0.6 0-0.1 0-0.1-0.1-0.1-0.1-0.1-0.1-0.3-0.2-0.5-0.1-0.2-0.2-0.4-0.1-0.1-0.1-0.2-0.1-0.1-0.1-0.2-0.1-0.1-0.2-0.3-0.2-0.3-0.4-0.7 0-0.1-0.1-0.2 0 0-0.1-0.1-0.5-0.8-1-1.6 0 0 0 0 0-0.1-0.1-0.2-0.3-0.4-0.6-0.9-0.1 0-0.1-0.1-0.3-0.3-0.6-0.7 0 0 0 0 0-0.1-0.1-0.1-0.2-0.3-0.4-0.5-0.1-0.1-0.2-0.3-0.1 0-0.1-0.1-0.1-0.1-0.2-0.2-0.2-0.3-0.5-0.6 0 0 0 0-0.1-0.1-0.1-0.1-0.2-0.2-0.4-0.5-0.2-0.1-0.3-0.2-0.1-0.1-0.2-0.2 0-0.1-0.1-0.1-0.3-0.3-0.6-0.6 0 0 0 0 0 0 0 0-0.3-0.3-0.6-0.5-0.1-0.1-0.2-0.1-0.1-0.1-0.2-0.2-0.1-0.1-0.2-0.2-0.3-0.2-0.6-0.4-0.3-0.2-0.5-0.4-0.2-0.1-0.3-0.2-0.1 0-0.2-0.1 0-0.1-0.1-0.1-0.3-0.2-0.6-0.3 0-0.1-0.1-0.1-0.2-0.1-0.4-0.3-0.3-0.1-0.6-0.2-0.2-0.1-0.3-0.2-0.1 0-0.1-0.1-0.1 0-0.1 0-0.3-0.1-0.5-0.2-0.3-0.1-0.6-0.2 0 0-0.1 0 0-0.1-0.1-0.1-0.1 0-0.3-0.1-0.3-0.1-0.6-0.1-0.1-0.1-0.2-0.1-0.1 0-0.1 0-0.1-0.1-0.2-0.1-0.3 0-0.6-0.1-0.2 0-0.4 0 0 0-0.1 0 0 0-0.1 0-0.3-0.1-0.6-0.1-0.2 0.1-0.3 0.1-0.1 0-0.2 0-0.1 0-0.2 0-0.4 0-0.8 0.1-0.1 0-0.2 0.1-0.4 0-0.7 0.2 0 0-0.1 0-0.5 0.2-1 0.5l-2.2 1.3q0.4-0.3 1-0.5 0.4-0.1 0.8-0.2 0.1-0.1 0.2-0.1 0.4-0.1 1-0.1 0.1 0 0.2 0 0.5 0 1 0 0 0 0.1 0 0.5 0.1 1.1 0.2 0.1 0 0.1 0 0.6 0.1 1.2 0.3 0 0 0.1 0.1 0.6 0.2 1.2 0.5 0.1 0 0.1 0 0.7 0.3 1.3 0.7 0.5 0.2 0.9 0.5 0.1 0.1 0.2 0.1 0.8 0.6 1.6 1.2z"/>
								<path id="&lt;Path&gt;" class="s44" d="m1869.5 1289.8q0.1 0.2 0.1 0.3 0 0.1 0 0.1 0 0.1 0 0.2 0 0.3 0.1 0.6 0 0.3 0 0.6 0 0 0 0 0 0 0 0.1 0.1 0.2 0.1 0.5 0.1 0.3 0.2 0.6 0 0.2 0 0.3 0 0 0.1 0.1 0 0 0 0c0 0 2.3-0.9 2.2-1.3q0-0.1 0-0.1-0.2-0.8-0.3-1.5 0 0 0 0-0.1-0.7-0.2-1.4 0 0 0-0.1 0-0.7 0-1.4 0-0.7 0-1.3 0-0.1 0-0.1 0.1-0.6 0.2-1.1 0-0.1 0-0.2 0.1-0.5 0.3-1 0-0.1 0-0.1 0.2-0.5 0.4-0.9 0-0.1 0-0.1 0.2-0.5 0.5-0.9 0 0 0.1-0.1 0.2-0.3 0.4-0.6 0.1-0.1 0.2-0.2 0.2-0.2 0.5-0.4 0.1-0.1 0.2-0.2 0.3-0.3 0.7-0.5l-2.3 1.3q-0.4 0.2-0.7 0.5-0.1 0.1-0.2 0.2-0.2 0.2-0.4 0.4-0.1 0.1-0.2 0.2-0.3 0.3-0.5 0.6 0 0.1-0.1 0.1 0 0 0 0.1-0.2 0.3-0.4 0.8 0 0 0 0-0.1 0-0.1 0.1-0.1 0.3-0.2 0.6-0.1 0.1-0.1 0.3 0 0-0.1 0.1 0 0.1 0 0.2-0.1 0.3-0.2 0.6 0 0.1 0 0.2 0 0.1-0.1 0.2 0 0.1 0 0.2 0 0.3-0.1 0.6 0 0.1 0 0.3 0 0 0 0.1 0 0.1 0 0.1-0.1 0.3-0.1 0.6 0 0.3 0 0.6 0 0 0 0 0 0.3 0 0.6 0 0.2 0 0.5z"/>
								<path id="&lt;Path&gt;" class="s44" d="m1870.1 1293.2c-0.4-1.5-0.6-3-0.6-4.5 0-7.6 5.4-10.7 12-6.8 4.2 2.4 7.9 7 10.1 12l1.5 0.9c-2.2-6-6.6-11.6-11.6-14.5-7.3-4.3-13.3-0.8-13.4 7.6 0 1.5 0.2 3 0.6 4.5z"/>
							</g>
						</g>
						<g id="&lt;Group&gt;">
							<g id="&lt;Group&gt;">
								<path id="&lt;Path&gt;" class="s42" d="m1884 1301.4c2.6 1.5 2.6 3.9 0 5.5-2.6 1.5-6.8 1.5-9.4 0-2.7-1.6-2.7-4-0.1-5.5 2.6-1.5 6.9-1.5 9.5 0z"/>
							</g>
							<g id="&lt;Group&gt;">
								<path id="&lt;Path&gt;" class="s42" d="m1856.7 1297.9c2.7 1.5 2.7 4 0.1 5.5-2.6 1.5-6.9 1.5-9.5 0-2.6-1.5-2.6-4 0-5.5 2.6-1.5 6.8-1.5 9.4 0z"/>
							</g>
							<g id="&lt;Group&gt;">
								<path id="&lt;Path&gt;" class="s43" d="m1868.1 1291.4q0 0.1 0.1 0.2 0.4 0.3 0.8 0.6 0 0 0 0.1 0.4 0.3 0.8 0.7 0.1 0.1 0.2 0.2 0.3 0.3 0.6 0.6 0.1 0.1 0.1 0.1 0.4 0.4 0.7 0.8 0.1 0.1 0.2 0.2 0.3 0.3 0.6 0.7 0 0.1 0 0.1 0.4 0.4 0.7 0.9 0.3 0.4 0.6 0.9 0.1 0 0.2 0.1 0.5 0.8 0.9 1.6 0.1 0.2 0.2 0.3 0.2 0.4 0.4 0.7 0.2 0.3 0.3 0.5 0 0.1 0.1 0.3 0.2 0.4 0.4 0.8 0.1 0.1 0.1 0.1 0.2 0.5 0.4 1 0.1 0.1 0.1 0.2 0.2 0.5 0.4 1l2.3-1.3q-0.1-0.1-0.1-0.1-0.1-0.4-0.2-0.7-0.1-0.1-0.1-0.2-0.1-0.1-0.1-0.2-0.1-0.1-0.1-0.2-0.2-0.4-0.3-0.7 0 0-0.1-0.1 0-0.1 0-0.1-0.1-0.2-0.2-0.5-0.1-0.2-0.2-0.3-0.1-0.2-0.2-0.3 0-0.1 0-0.1-0.1-0.2-0.2-0.4-0.2-0.3-0.4-0.7-0.1-0.1-0.1-0.1-0.1-0.1-0.1-0.2-0.5-0.8-1-1.6 0 0 0 0-0.1-0.1-0.1-0.1-0.3-0.5-0.7-1 0 0 0 0-0.3-0.4-0.6-0.8 0 0 0 0 0 0-0.1-0.1-0.2-0.2-0.4-0.5-0.1-0.1-0.2-0.2-0.1-0.1-0.1-0.2-0.1-0.1-0.2-0.2-0.3-0.3-0.5-0.6 0 0-0.1 0 0 0 0-0.1-0.3-0.2-0.5-0.4-0.1-0.1-0.2-0.3-0.1 0-0.2-0.1-0.1-0.1-0.1-0.2-0.3-0.3-0.6-0.5 0-0.1 0-0.1 0 0-0.1 0-0.2-0.2-0.5-0.5-0.1 0-0.2-0.1-0.1-0.1-0.2-0.2-0.1-0.1-0.2-0.1-0.3-0.3-0.6-0.5 0 0 0 0-0.3-0.2-0.6-0.4-0.1-0.1-0.2-0.2-0.1 0-0.2-0.1-0.1 0-0.1-0.1-0.3-0.2-0.6-0.3-0.1-0.1-0.1-0.1-0.2-0.1-0.4-0.2-0.3-0.2-0.6-0.3-0.2-0.1-0.3-0.2-0.1 0-0.1 0-0.1 0-0.1-0.1-0.3-0.1-0.6-0.2-0.2-0.1-0.5-0.2 0 0-0.1 0 0 0-0.1-0.1-0.2 0-0.3-0.1-0.3-0.1-0.6-0.1-0.1-0.1-0.3-0.1 0 0-0.1 0 0 0-0.1 0-0.3-0.1-0.6-0.1-0.2-0.1-0.4-0.1 0 0-0.1 0 0 0-0.1 0-0.3 0-0.6 0-0.2 0-0.3 0-0.1 0-0.2 0-0.1 0-0.2 0-0.4 0.1-0.8 0.1 0 0 0 0-0.1 0.1-0.2 0.1-0.4 0.1-0.7 0.2-0.1 0-0.1 0-0.5 0.2-1 0.5l-2.3 1.3q0.5-0.3 1.1-0.5 0.3-0.1 0.8-0.2 0 0 0.1-0.1 0.5-0.1 1-0.1 0.1 0 0.2 0 0.5 0 1.1 0 0 0 0.1 0 0.5 0.1 1.1 0.2 0 0 0.1 0 0.6 0.2 1.2 0.3 0 0.1 0.1 0.1 0.6 0.2 1.2 0.5 0.1 0 0.1 0 0.7 0.3 1.3 0.7 0.5 0.3 0.9 0.5 0.1 0.1 0.1 0.1 0.9 0.6 1.7 1.2z"/>
								<path id="&lt;Path&gt;" class="s44" d="m1853.4 1299.2q0 0.1 0 0.2 0 0.1 0.1 0.1 0 0.1 0 0.2 0 0.3 0 0.6 0.1 0.3 0.1 0.6 0 0 0 0.1 0 0 0 0 0.1 0.3 0.1 0.5 0.1 0.3 0.1 0.7 0.1 0.1 0.1 0.2 0 0.1 0 0.1 0 0 0 0.1c0 0 2.4-0.9 2.3-1.4q0-0.1 0-0.1-0.2-0.7-0.3-1.4 0 0 0-0.1-0.1-0.7-0.2-1.4 0 0 0-0.1-0.1-0.7-0.1-1.4 0-0.6 0.1-1.3 0 0 0-0.1 0.1-0.6 0.2-1.1 0-0.1 0-0.2 0.1-0.5 0.3-1 0 0 0-0.1 0.2-0.5 0.4-0.9 0 0 0-0.1 0.2-0.4 0.5-0.9 0 0 0.1-0.1 0.2-0.3 0.4-0.6 0.1-0.1 0.2-0.2 0.2-0.2 0.5-0.4 0-0.1 0.1-0.2 0.4-0.2 0.7-0.5l-2.2 1.3q-0.4 0.3-0.7 0.5-0.1 0.1-0.2 0.2-0.2 0.2-0.4 0.4-0.1 0.1-0.2 0.2-0.3 0.3-0.5 0.6 0 0.1-0.1 0.2 0 0 0 0-0.2 0.4-0.4 0.8 0 0-0.1 0 0 0.1 0 0.1-0.1 0.3-0.2 0.6-0.1 0.1-0.1 0.3-0.1 0.1-0.1 0.2 0 0 0 0.1-0.1 0.3-0.2 0.6 0 0.1 0 0.3-0.1 0-0.1 0.1 0 0.1 0 0.2-0.1 0.3-0.1 0.6 0 0.2 0 0.3 0 0.1-0.1 0.1 0 0.1 0 0.2 0 0.2 0 0.5 0 0.3 0 0.6 0 0 0 0 0 0.3 0 0.6 0 0.3 0 0.6z"/>
								<path id="&lt;Path&gt;" class="s44" d="m1853.9 1302.6q-0.5-2.4-0.5-4.6c0-7.6 5.4-10.6 12-6.8 4.2 2.4 7.9 7 10 12l1.6 0.9c-2.3-6-6.6-11.6-11.6-14.5-7.3-4.2-13.3-0.8-13.4 7.7 0 1.4 0.2 2.9 0.5 4.5z"/>
							</g>
						</g>
						<g id="&lt;Group&gt;">
							<g id="&lt;Group&gt;">
								<path id="&lt;Path&gt;" class="s42" d="m1868.4 1310.7c2.6 1.5 2.6 4 0 5.5-2.6 1.5-6.8 1.5-9.5 0-2.6-1.5-2.6-4 0-5.5 2.6-1.5 6.8-1.5 9.5 0z"/>
							</g>
							<g id="&lt;Group&gt;">
								<path id="&lt;Path&gt;" class="s42" d="m1841.1 1307.2c2.6 1.5 2.7 4 0.1 5.5-2.7 1.5-6.9 1.5-9.5 0-2.6-1.5-2.7-4 0-5.5 2.6-1.5 6.8-1.5 9.4 0z"/>
							</g>
							<g id="&lt;Group&gt;">
								<path id="&lt;Path&gt;" class="s43" d="m1852.4 1300.8q0.1 0 0.2 0.1 0.4 0.3 0.8 0.7 0 0 0 0 0.4 0.3 0.7 0.7 0.1 0.1 0.2 0.2 0.4 0.3 0.7 0.6 0 0.1 0.1 0.1 0.3 0.4 0.7 0.8 0.1 0.1 0.1 0.2 0.3 0.4 0.6 0.8 0.1 0 0.1 0 0.3 0.5 0.7 0.9 0.3 0.4 0.6 0.9 0.1 0.1 0.1 0.2 0.5 0.7 1 1.5 0.1 0.2 0.2 0.4 0.2 0.3 0.4 0.7 0.1 0.2 0.3 0.4 0 0.2 0.1 0.3 0.2 0.4 0.4 0.8 0 0.1 0.1 0.2 0.2 0.4 0.4 0.9 0 0.1 0.1 0.2 0.2 0.5 0.4 1l2.3-1.3q-0.1-0.1-0.1-0.1-0.1-0.3-0.3-0.7 0-0.1-0.1-0.2 0-0.1 0-0.2-0.1-0.1-0.1-0.2-0.2-0.3-0.3-0.7-0.1 0-0.1 0 0-0.1-0.1-0.2-0.1-0.2-0.2-0.4-0.1-0.2-0.2-0.4 0-0.1-0.1-0.3 0 0-0.1-0.1-0.1-0.2-0.1-0.3-0.2-0.4-0.4-0.8-0.1 0-0.1-0.1-0.1-0.1-0.1-0.2-0.5-0.8-1-1.6 0 0 0 0-0.1 0-0.1-0.1-0.4-0.5-0.7-0.9 0-0.1-0.1-0.1-0.2-0.4-0.5-0.7 0 0 0-0.1-0.1 0-0.1-0.1-0.2-0.2-0.4-0.5-0.1-0.1-0.2-0.2-0.1-0.1-0.2-0.2-0.1-0.1-0.1-0.2-0.3-0.3-0.5-0.5-0.1-0.1-0.1-0.1 0 0-0.1-0.1-0.2-0.2-0.4-0.4-0.1-0.1-0.2-0.2-0.1-0.1-0.2-0.2-0.1-0.1-0.2-0.2-0.2-0.3-0.5-0.5 0 0-0.1 0 0 0 0-0.1-0.3-0.2-0.5-0.4-0.1-0.1-0.2-0.2-0.1-0.1-0.2-0.2-0.1 0-0.2-0.1-0.3-0.3-0.6-0.5 0 0 0 0-0.3-0.2-0.6-0.4-0.1-0.1-0.2-0.1-0.1-0.1-0.2-0.1-0.1-0.1-0.2-0.2-0.2-0.1-0.5-0.3-0.1 0-0.1-0.1-0.3-0.1-0.5-0.2-0.2-0.2-0.5-0.3-0.2-0.1-0.4-0.2 0 0-0.1 0 0 0-0.1 0-0.2-0.2-0.5-0.3-0.3-0.1-0.5-0.2-0.1 0-0.1 0-0.1 0-0.1 0-0.2-0.1-0.4-0.1-0.2-0.1-0.5-0.2-0.1 0-0.3-0.1 0 0-0.1 0-0.1 0-0.2 0-0.2-0.1-0.5-0.1-0.2 0-0.4-0.1-0.1 0-0.1 0-0.1 0-0.1 0-0.3 0-0.7 0-0.1 0-0.2 0-0.1 0-0.2 0-0.1 0-0.3 0-0.3 0.1-0.7 0.2 0 0 0 0-0.1 0-0.2 0-0.4 0.1-0.8 0.2 0 0 0 0-0.6 0.2-1 0.5l-2.3 1.3q0.5-0.3 1-0.5 0.4-0.1 0.8-0.2 0.1 0 0.2 0 0.5-0.1 1-0.2 0.1 0 0.2 0 0.5 0 1 0 0.1 0 0.1 0 0.6 0.1 1.2 0.2 0 0 0.1 0 0.6 0.2 1.1 0.4 0.1 0 0.1 0 0.7 0.2 1.3 0.5 0 0 0.1 0 0.6 0.4 1.3 0.7 0.4 0.3 0.9 0.6 0 0 0.1 0.1 0.8 0.5 1.6 1.2z"/>
								<path id="&lt;Path&gt;" class="s44" d="m1837.8 1308.5q0 0.1 0 0.3 0 0 0 0.1 0 0.1 0 0.2 0.1 0.3 0.1 0.6 0 0.3 0.1 0.6 0 0 0 0 0 0 0 0 0.1 0.3 0.1 0.6 0.1 0.3 0.1 0.6 0 0.1 0.1 0.2 0 0.1 0 0.1 0 0.1 0 0.1c0 0 2.4-0.9 2.3-1.4q-0.1 0-0.1-0.1-0.1-0.7-0.3-1.4 0 0 0 0-0.1-0.7-0.1-1.4 0-0.1 0-0.2-0.1-0.7-0.1-1.3 0-0.7 0.1-1.4 0 0 0-0.1 0.1-0.5 0.1-1.1 0.1-0.1 0.1-0.1 0.1-0.5 0.2-1 0.1-0.1 0.1-0.2 0.1-0.5 0.3-0.9 0.1 0 0.1 0 0.2-0.5 0.4-0.9 0.1-0.1 0.1-0.1 0.2-0.4 0.5-0.6 0.1-0.1 0.2-0.2 0.2-0.3 0.4-0.5 0.1-0.1 0.2-0.2 0.4-0.2 0.7-0.4l-2.2 1.3q-0.4 0.2-0.7 0.5-0.1 0-0.2 0.1-0.3 0.2-0.5 0.5-0.1 0.1-0.2 0.2-0.2 0.3-0.4 0.6-0.1 0-0.1 0.1 0 0 0 0-0.3 0.4-0.5 0.8 0 0 0 0.1 0 0 0 0-0.2 0.3-0.3 0.6 0 0.2-0.1 0.3 0 0.1 0 0.2 0 0.1-0.1 0.1-0.1 0.3-0.1 0.7-0.1 0.1-0.1 0.2 0 0.1 0 0.1 0 0.1 0 0.2-0.1 0.3-0.1 0.6 0 0.2-0.1 0.3 0 0.1 0 0.1 0 0.1 0 0.2 0 0.3 0 0.6 0 0.2 0 0.5 0 0.1 0 0.1 0 0.2 0 0.5 0 0.3 0 0.6z"/>
								<path id="&lt;Path&gt;" class="s44" d="m1838.3 1311.9c-0.3-1.5-0.5-3.1-0.5-4.5 0-7.6 5.4-10.7 12-6.9 4.2 2.4 7.9 7 10 12l1.6 0.9c-2.3-5.9-6.6-11.6-11.6-14.5-7.4-4.2-13.4-0.8-13.4 7.7q0 2.2 0.5 4.5z"/>
							</g>
						</g>
					</g>
				</g>
			</g>
		</g>
		<g id="&lt;Group&gt;">
			<g id="&lt;Group&gt;">
				<g id="&lt;Group&gt;">
					<path id="&lt;Path&gt;" class="s26" d="m313.2 1395.7c-5.3-3.2-5.2-8.3 0.1-11.4l162.6-94.6c5.3-3 13.9-2.9 19.1 0.4l69.2 43.8c5.2 3.3 5.1 8.5-0.2 11.6l-159.9 93.5c-5.3 3.1-14 3.1-19.3-0.1z"/>
				</g>
				<g id="&lt;Group&gt;">
					<path id="&lt;Path&gt;" class="s45" d="m313.2 1389.7c-5.3-3.1-5.2-8.3 0.1-11.4l162.6-94.5c5.3-3.1 13.9-2.9 19.1 0.4l69.2 43.8c5.2 3.3 5.1 8.5-0.2 11.6l-159.9 93.5c-5.3 3.1-14 3-19.3-0.2z"/>
				</g>
				<g id="&lt;Group&gt;">
					<path id="&lt;Path&gt;" class="s1" d="m484.7 1293.7l65.6 40.3-133.3 76.8-67.8-37.5z"/>
				</g>
			</g>
			<path id="&lt;Path&gt;" class="s26" d="m309.3 1384.2v5.3c0 1 0.4 1.8 1.1 2.4l5.7 4v-4.4c0 0-7.4-4.7-6.8-7.3z"/>
		</g>
		<g id="&lt;Group&gt;">
			<path id="&lt;Path&gt;" class="s38" d="m291.1 1182.8l50 43.9 58.5 41.1-20.4-52.7 72.9 44.2-46.4-43h81.9l-128.4-36.3z"/>
			<g id="&lt;Group&gt;">
				<g id="&lt;Group&gt;">
					<path id="&lt;Path&gt;" class="s46" d="m271 1098.3l20.1 84.5c0 0 33 26.2 68.1-2.8l20-89.1z"/>
				</g>
				<g id="&lt;Group&gt;">
					<path id="&lt;Path&gt;" class="s47" d="m379.2 1090.9l-108.2 7.4 2.7 11.2c5.8 5.3 14.8 11.5 27.1 14.3 20.4 4.8 54 4.8 74.4-15.2z"/>
				</g>
				<g id="&lt;Group&gt;">
					<path id="&lt;Path&gt;" class="s46" d="m265.4 1067.6l3.6 31.1c0 0 8 13.5 31.8 19.1 23.8 5.5 61.9 2.5 79.6-21l3.8-30.7z"/>
				</g>
				<g id="&lt;Group&gt;">
					<path id="&lt;Path&gt;" class="s3" d="m384.2 1067.6c0 19.4-26.6 35.2-59.4 35.2-32.8 0-59.4-15.8-59.4-35.2 0-19.4 26.6-35.1 59.4-35.1 32.8 0 59.4 15.7 59.4 35.1z"/>
				</g>
				<g id="&lt;Group&gt;">
					<path id="&lt;Path&gt;" class="s48" d="m380.5 1067.6c0 17.8-24.9 32.2-55.7 32.2-30.7 0-55.7-14.4-55.7-32.2 0-17.8 25-32.2 55.7-32.2 30.8 0 55.7 14.4 55.7 32.2z"/>
				</g>
				<g id="&lt;Group&gt;">
					<path id="&lt;Path&gt;" class="s49" d="m325.1 1070.5c-19.6 0-36.9 5.9-46.8 14.8 9.9 8.8 27.1 14.5 46.5 14.5 19.7 0 37-5.9 46.9-14.7-10-8.8-27.1-14.6-46.6-14.6z"/>
				</g>
				<g id="&lt;Group&gt;">
					<g id="&lt;Group&gt;">
						<g id="&lt;Group&gt;">
							<path id="&lt;Path&gt;" class="s50" d="m295.1 1063.1c1-5.3 0.9-9.7 0.5-13.8-0.5-4.1-1.3-7.8-2.5-11.2-2.5-6.7-6.2-12.2-10.8-16.6-4.7-4.3-9.8-8.1-15-11.9-5.1-3.7-10.4-7.2-16-10.4-11-6.5-22.6-12-34.9-16q-4.6-1.6-9.3-2.9c-3.3-0.7-6.4-1.5-9.6-2.1-3.2-0.7-6.6-1.2-9.9-1.5-3.3-0.4-6.7-0.7-10.2-0.7-0.9 0-1.6 0.8-1.6 1.7q0 0.5 0.2 0.9h0.1c3.7 5.9 7.9 10.8 11.9 15.8 4 4.9 8.2 9.5 12.3 14 8.3 9 16.8 17.4 25.4 25.4 4.3 4.1 8.6 8 13 11.9 4.4 3.8 8.8 7.7 13.4 11.3 4.7 3.5 10.1 6.1 16.6 7.6 3.3 0.8 6.9 1.2 10.8 1.4 4 0.1 8.2 0 13.5-0.9h0.1c1-0.2 1.8-1 2-2z"/>
						</g>
						<g id="&lt;Group&gt;">
							<path id="&lt;Path&gt;" class="s51" d="m290.3 1055.6c-6.2-7.1-13.1-13.6-20.2-19.7-3.5-3.1-7.3-6-10.9-9-3.7-2.9-7.5-5.7-11.3-8.4q-11.5-8.3-23.7-15.4c-8.1-4.7-16.5-9.1-25.3-12.7 7.2 6.2 14.7 11.9 22.1 17.5 7.5 5.6 15 11.2 22.6 16.6 7.6 5.3 15.2 10.8 23 15.9 7.7 5.3 15.6 10.4 23.7 15.2z"/>
						</g>
						<g id="&lt;Group&gt;" style="mix-blend-mode: multiply">
							<path id="&lt;Path&gt;" class="s52" d="m175.9 977.3q1.5 1.7 3 3.4c4.1 4.6 8.3 8.8 12.5 13.1 8.4 8.2 16.9 16 25.5 23.4 4.4 3.7 8.7 7.4 13.1 10.9 4.4 3.5 8.8 7 13.4 10.4 4.6 3.1 10 5.4 16.4 6.6 3.1 0.7 6.7 0.9 10.4 0.9 3.9 0 8-0.3 13-1.4h0.1c1-0.3 1.7-1.1 1.9-2 0.7-5.2 0.5-9.5-0.1-13.4q-0.5-3.3-1.4-6.2c3.9 4.1 7.2 9.1 9.4 15.1 1.2 3.4 2 7.1 2.5 11.2 0.4 4.1 0.5 8.5-0.5 13.8-0.2 1-1 1.8-2 2h-0.1c-5.3 0.9-9.5 1-13.5 0.9-3.9-0.2-7.5-0.6-10.8-1.4-6.5-1.5-11.9-4.1-16.6-7.6-4.6-3.6-9-7.5-13.4-11.3-4.4-3.9-8.7-7.8-13-11.9-8.6-8-17.1-16.4-25.4-25.4-4.1-4.5-8.3-9.1-12.3-14-4-5-8.2-9.9-11.9-15.8h-0.1q-0.2-0.4-0.2-0.9 0-0.2 0.1-0.4z"/>
						</g>
					</g>
					<g id="&lt;Group&gt;">
						<g id="&lt;Group&gt;">
							<path id="&lt;Path&gt;" class="s50" d="m362.8 1070.8c-1.1-5.3-1-9.7-0.5-13.8 0.4-4 1.3-7.7 2.5-11.1 2.5-6.7 6.2-12.2 10.8-16.6 4.7-4.3 9.8-8.2 14.9-11.9 5.2-3.7 10.5-7.3 16-10.5 11-6.4 22.7-11.9 35-16q4.6-1.5 9.3-2.8c3.2-0.8 6.4-1.6 9.6-2.2 3.2-0.7 6.5-1.2 9.9-1.5 3.3-0.4 6.7-0.6 10.1-0.6 0.9 0 1.7 0.7 1.7 1.6q0 0.5-0.3 0.9v0.1c-3.8 5.9-7.9 10.7-11.9 15.7-4.1 5-8.2 9.5-12.3 14.1-8.4 8.9-16.8 17.4-25.4 25.4-4.3 4-8.7 8-13.1 11.8-4.4 3.9-8.7 7.7-13.3 11.3-4.7 3.5-10.1 6.1-16.6 7.7-3.3 0.8-6.9 1.2-10.8 1.4-4 0.1-8.3 0-13.5-1h-0.1c-1.1-0.2-1.9-1-2-2z"/>
						</g>
						<g id="&lt;Group&gt;">
							<path id="&lt;Path&gt;" class="s51" d="m367.5 1063.4c6.3-7.2 13.2-13.6 20.3-19.8 3.5-3.1 7.2-6 10.9-8.9 3.7-2.9 7.5-5.7 11.3-8.5q11.5-8.2 23.7-15.3c8.1-4.8 16.5-9.1 25.2-12.8-7.1 6.3-14.6 11.9-22 17.6-7.5 5.6-15 11.1-22.6 16.5-7.7 5.4-15.2 10.8-23 16-7.8 5.2-15.6 10.4-23.8 15.2z"/>
						</g>
						<g id="&lt;Group&gt;" style="mix-blend-mode: multiply">
							<path id="&lt;Path&gt;" class="s52" d="m482 985q-1.5 1.7-3 3.4c-4.1 4.6-8.4 8.9-12.5 13.1-8.4 8.3-16.9 16.1-25.6 23.5-4.3 3.7-8.7 7.3-13.1 10.8-4.4 3.6-8.8 7.1-13.3 10.4-4.7 3.2-10 5.5-16.4 6.7-3.2 0.6-6.7 0.9-10.5 0.9-3.8-0.1-7.9-0.3-12.9-1.5h-0.1c-1-0.2-1.8-1-1.9-2-0.8-5.2-0.5-9.4 0.1-13.4q0.5-3.3 1.4-6.2c-4 4.2-7.2 9.2-9.4 15.2-1.2 3.4-2.1 7.1-2.5 11.1-0.5 4.1-0.6 8.5 0.5 13.8 0.1 1 0.9 1.8 2 2h0.1c5.2 1 9.5 1.1 13.5 1 3.9-0.2 7.5-0.6 10.8-1.4 6.5-1.6 11.9-4.2 16.6-7.7 4.6-3.6 8.9-7.4 13.3-11.3 4.4-3.8 8.8-7.8 13.1-11.8 8.6-8 17-16.5 25.4-25.4 4.1-4.6 8.2-9.1 12.3-14.1 4-5 8.1-9.8 11.9-15.7v-0.1q0.3-0.4 0.3-0.9c0-0.1-0.1-0.3-0.1-0.4z"/>
						</g>
					</g>
					<g id="&lt;Group&gt;">
						<path id="&lt;Path&gt;" class="s50" d="m324.7 1085.4c-10.5-9.7-16.1-19.7-20.7-29.7-4.3-10-6.7-20-7.6-30.1-1.1-10 0-20 0.8-30 0.5-5 1.1-9.9 1.8-14.9q1.1-7.5 2.4-14.9c3.9-19.9 9.2-39.6 17.5-58.7 1.8-4.8 4.3-9.5 6.7-14.1 2.3-4.7 4.8-9.3 7.7-13.8 3-4.4 5.8-8.8 9.2-13 3.4-4.2 7-8.3 10.9-12 0.7-0.7 1.8-0.6 2.4 0.1q0.5 0.4 0.5 1c2.3 21.4 3.5 40.5 4.5 59.8 0.8 19 1.4 38 1.1 56.8 0 4.7-0.1 9.4-0.3 14.2-0.1 4.7-0.2 9.4-0.5 14.1-0.4 9.4-0.6 18.9-2.5 28.3-1.8 9.3-4.9 18.7-9.6 28.2-5 9.4-10.8 18.9-21.1 28.7h-0.1c-0.8 0.8-2.2 0.8-3.1 0z"/>
					</g>
					<g id="&lt;Group&gt;">
						<path id="&lt;Path&gt;" class="s51" d="m324 1073.8c-1.3-15.6-1.5-31.3-1.3-46.9q0.4-23.5 2.6-47c1.6-15.5 3.4-31.1 6.6-46.5 3.1-15.4 7-30.7 12.9-45.2-3.5 15.2-5.9 30.6-8.1 46q-0.7 5.8-1.6 11.5l-1.3 11.6q-1.3 11.6-2.3 23.2c-1.6 15.5-2.7 31-3.9 46.6z"/>
					</g>
					<g id="&lt;Group&gt;" style="mix-blend-mode: multiply">
						<path id="&lt;Path&gt;" class="s52" d="m358.6 1028.5c1.9-9.4 2.1-18.9 2.5-28.3 0.3-4.7 0.4-9.4 0.5-14.1 0.2-4.8 0.3-9.5 0.3-14.2q0.1-2.7 0.1-5.4c-11.3 14.4-31.1 41.2-36.3 57.2 0 0-14.7-37.1-24.7-55.1-0.7 4-1.4 8.1-2 12.1-0.7 5-1.3 9.9-1.8 14.9-0.8 10-1.9 20-0.8 30 0.9 10.1 3.3 20.1 7.6 30.1 4.6 10 10.2 20 20.7 29.7 0.9 0.8 2.3 0.8 3.1 0h0.1c10.3-9.8 16.1-19.3 21.1-28.7 4.7-9.5 7.8-18.9 9.6-28.2z"/>
					</g>
					<g id="&lt;Group&gt;">
						<path id="&lt;Path&gt;" class="s50" d="m299.6 1090.8c-5.6-3.2-9.6-6.6-13.3-10-3.6-3.3-6.6-6.8-9.2-10.3-5.1-7-8.5-14.3-10.6-21.8-3.6-15.2-7-30.4-10.3-45.6l-9.6-45.6c-3.5-15.4-6.9-30.4-12.3-46.9v-0.1c-0.3-0.9 0.2-1.8 1.1-2.1 0.4-0.2 0.8-0.1 1.2 0 8.3 3.6 15.6 9.1 22.2 15.1 6.6 6.1 12.5 12.8 17.7 19.8 10.5 14.1 18.7 29.5 25.3 45.2 6.6 15.8 11.7 32 15.3 48.4 1.6 8.3 1.6 16.9-0.3 25.8q-1.5 6.7-4.8 13.6c-2.2 4.6-4.9 9.2-9.3 14.1-0.8 0.8-2.1 1-3 0.4z"/>
					</g>
					<g id="&lt;Group&gt;">
						<path id="&lt;Path&gt;" class="s51" d="m300 1073.8c-2.3-11.8-5.1-23.4-8.1-34.9-3.1-11.4-6.4-22.9-10.3-34.1-3.7-11.2-7.9-22.3-12.4-33.3-4.4-11.1-9.5-21.8-14.4-32.9 7.1 9.8 13.5 20 18.8 30.9 2.9 5.3 5.2 10.9 7.6 16.4 1.2 2.8 2.2 5.6 3.3 8.4 1 2.9 2.1 5.7 3 8.5 3.9 11.5 7 23.2 9.1 35.1 2.2 11.8 3.7 23.8 3.4 35.9z"/>
					</g>
					<g id="&lt;Group&gt;" style="mix-blend-mode: multiply">
						<path id="&lt;Path&gt;" class="s52" d="m317.1 1036.9q-0.1-0.5-0.2-0.9-1.1 5.3-3.3 10.8c-1.8 4.2-4 8.5-7.6 13-0.7 0.8-1.8 1-2.7 0.5h-0.1c-5.1-2.6-8.8-5.4-12.2-8.2q-5.1-4.3-8.7-8.8c-4.9-6-8.3-12.3-10.5-18.9-3.9-13.3-7.6-26.6-11.3-40l-10.7-40.1c-3.2-11.4-6.5-22.8-10.9-34.8-0.7-0.3-1.5-0.7-2.3-1.1-0.4-0.1-0.8-0.2-1.2 0-0.9 0.3-1.4 1.2-1.1 2.1v0.1c5.4 16.5 8.8 31.5 12.3 46.9l9.6 45.6c3.3 15.2 6.7 30.4 10.3 45.6 2.1 7.5 5.5 14.8 10.6 21.8 2.6 3.5 5.6 7 9.2 10.3 3.7 3.4 7.7 6.8 13.3 10h0.1c0.9 0.6 2.2 0.4 3-0.4 4.4-4.9 7.1-9.5 9.3-14.1q3.3-6.9 4.8-13.6c1.9-8.9 1.9-17.5 0.3-25.8z"/>
					</g>
					<g id="&lt;Group&gt;">
						<g id="&lt;Group&gt;">
							<path id="&lt;Path&gt;" class="s50" d="m343.6 1085c-4.2-5.5-6.6-10.5-8.4-15.4-1.8-4.9-2.9-9.6-3.4-14.1-1-9.1 0.1-17.4 2.9-25 2.9-7.6 6.5-14.8 10.2-22 3.8-7.1 7.9-14.2 12.3-20.9 8.9-13.6 19-26.4 30.7-38q4.4-4.3 9-8.5c3.3-2.6 6.4-5.4 9.7-7.9 3.3-2.6 6.8-5 10.4-7.3 3.5-2.3 7.2-4.4 11.2-6.4 1-0.5 2.3-0.1 2.8 0.9 0.2 0.4 0.2 0.8 0.2 1.2v0.1c-0.9 8.8-2.9 16.7-4.7 24.6-1.8 7.9-3.9 15.4-6 23-4.4 14.9-9.3 29.2-14.5 43.2-2.7 7-5.3 13.9-8.2 20.8-2.8 6.9-5.6 13.7-8.7 20.4-3.4 6.6-8.1 12.7-14.7 18.1-3.2 2.7-7.1 5.3-11.4 7.7-4.5 2.4-9.4 4.7-15.9 6.6h-0.1c-1.3 0.4-2.7-0.1-3.4-1.1z"/>
						</g>
						<g id="&lt;Group&gt;">
							<path id="&lt;Path&gt;" class="s51" d="m344.8 1073.8c3-11.7 7.2-22.9 11.9-33.9 2.2-5.6 4.8-10.9 7.3-16.4 2.6-5.3 5.3-10.6 8.1-15.9q8.4-15.9 18.2-30.9c6.5-10 13.6-19.6 21.5-28.7-4.6 11.1-9.9 21.8-15.1 32.4-5.4 10.6-10.8 21.1-16.4 31.6-5.6 10.4-11.2 20.8-17.1 31.1-5.8 10.4-11.8 20.6-18.4 30.7z"/>
						</g>
						<g id="&lt;Group&gt;" style="mix-blend-mode: multiply">
							<path id="&lt;Path&gt;" class="s52" d="m430.6 920q-0.7 2.8-1.5 5.6c-2 7.6-4.5 14.8-6.8 21.9-4.9 14.2-10.1 27.9-15.8 41.2-2.8 6.6-5.7 13.2-8.7 19.7-3 6.5-6 13-9.3 19.4-3.5 6.2-8.3 11.8-14.9 16.8-3.2 2.5-7.1 4.8-11.4 6.9-4.4 2.2-9.2 4.2-15.6 5.7l-0.1 0.1c-1.2 0.3-2.5-0.3-3.2-1.3-3.8-5.4-5.9-10.4-7.5-15.2-0.8-2.7-1.5-5.3-1.9-7.9-2.2 7-3 14.5-2.1 22.6 0.5 4.5 1.6 9.2 3.4 14.1 1.8 4.9 4.2 9.9 8.4 15.4 0.7 1 2.1 1.5 3.4 1.1h0.1c6.5-1.9 11.4-4.2 15.9-6.6 4.3-2.4 8.2-5 11.4-7.7 6.6-5.4 11.3-11.5 14.7-18.1 3.1-6.7 5.9-13.5 8.7-20.4 2.9-6.9 5.5-13.8 8.2-20.8 5.2-14 10.1-28.3 14.5-43.2 2.1-7.6 4.2-15.1 6-23 1.8-7.9 3.8-15.8 4.7-24.6v-0.1c0-0.4 0-0.8-0.2-1.2-0.1-0.1-0.2-0.3-0.4-0.4z"/>
						</g>
					</g>
					<g id="&lt;Group&gt;">
						<g id="&lt;Group&gt;">
							<path id="&lt;Path&gt;" class="s50" d="m325.3 1087c0.9-4.7 2.4-8.3 4.1-11.6 1.7-3.2 3.6-6 5.7-8.4 4.3-4.7 9.2-8 14.4-10.2 5.3-2 10.8-3.5 16.3-4.9 5.5-1.4 11-2.6 16.7-3.4 11.2-1.7 22.6-2.5 34.1-1.8q4.4 0.3 8.7 0.7c2.9 0.5 5.7 0.8 8.6 1.4 2.9 0.4 5.8 1.2 8.7 1.9 2.9 0.8 5.7 1.7 8.6 2.9 0.7 0.3 1.1 1.1 0.8 1.9q-0.1 0.4-0.5 0.6v0.1c-5.1 3.6-10.1 6.3-15.1 9.1-4.9 2.8-9.9 5.2-14.8 7.6-9.8 4.7-19.5 8.9-29.3 12.7-4.9 1.9-9.8 3.8-14.7 5.5-4.9 1.8-9.8 3.5-14.7 5-5 1.3-10.4 1.8-16.3 0.9-2.9-0.5-6.1-1.3-9.4-2.4-3.3-1.2-6.8-2.7-10.8-5.2l-0.1-0.1c-0.8-0.5-1.2-1.4-1-2.3z"/>
						</g>
						<g id="&lt;Group&gt;">
							<path id="&lt;Path&gt;" class="s51" d="m331.7 1082.4c7.5-3.9 15.3-6.9 23.2-9.7 4-1.4 8-2.6 12-3.8 4-1.2 8-2.3 12.1-3.3q12.2-3.1 24.6-4.9c8.3-1.3 16.6-2.2 25.1-2.3-8 2.8-16 5-24 7.3-8.1 2.2-16.1 4.3-24.1 6.3-8.1 1.9-16.2 3.9-24.3 5.6-8.1 1.8-16.3 3.5-24.6 4.8z"/>
						</g>
						<g id="&lt;Group&gt;" style="mix-blend-mode: multiply">
							<path id="&lt;Path&gt;" class="s52" d="m452.1 1055.1q-1.8 0.9-3.7 1.9c-4.9 2.4-9.7 4.5-14.6 6.7-9.6 4.1-19.2 7.7-28.8 11-4.8 1.6-9.6 3.2-14.4 4.7-4.8 1.5-9.6 3-14.4 4.2-4.9 1.1-10.1 1.3-15.8 0.2-2.8-0.6-5.8-1.5-8.9-2.7-3.2-1.3-6.5-2.9-10.3-5.5h-0.1c-0.8-0.5-1.1-1.5-0.9-2.3 1.1-4.5 2.7-8 4.5-11q1.5-2.6 3.2-4.7c-4.6 2.1-9 5.2-12.8 9.4-2.1 2.4-4 5.2-5.7 8.4-1.7 3.3-3.2 6.9-4.1 11.6-0.2 0.9 0.2 1.8 1 2.3l0.1 0.1c4 2.5 7.5 4 10.8 5.2 3.3 1.1 6.5 1.9 9.4 2.4 5.9 0.9 11.3 0.4 16.3-0.9 4.9-1.5 9.8-3.2 14.7-5 4.9-1.7 9.8-3.6 14.7-5.5 9.8-3.8 19.5-8 29.3-12.7 4.9-2.4 9.9-4.8 14.8-7.6 5-2.8 10-5.5 15.1-9.1v-0.1q0.4-0.2 0.5-0.6 0.1-0.2 0.1-0.4z"/>
						</g>
					</g>
					<g id="&lt;Group&gt;">
						<g id="&lt;Group&gt;">
							<path id="&lt;Path&gt;" class="s50" d="m326.2 1087c-0.9-4.7-2.5-8.3-4.2-11.6-1.7-3.2-3.6-6-5.7-8.4-4.3-4.7-9.1-8-14.4-10.2-5.3-2-10.8-3.5-16.3-4.9-5.5-1.4-11-2.6-16.6-3.4-11.3-1.7-22.7-2.5-34.2-1.8q-4.3 0.3-8.6 0.7c-3 0.5-5.8 0.8-8.7 1.4-2.9 0.4-5.8 1.2-8.7 1.9-2.8 0.8-5.7 1.7-8.6 2.9-0.7 0.3-1.1 1.1-0.8 1.9q0.2 0.4 0.5 0.6v0.1c5.1 3.6 10.1 6.3 15.1 9.1 4.9 2.8 9.9 5.2 14.8 7.6 9.8 4.7 19.6 8.9 29.3 12.7 4.9 1.9 9.8 3.8 14.7 5.5 4.9 1.8 9.8 3.5 14.7 5 5.1 1.3 10.4 1.8 16.3 0.9 3-0.5 6.1-1.3 9.4-2.4 3.3-1.2 6.8-2.7 10.9-5.2v-0.1c0.8-0.5 1.2-1.4 1.1-2.3z"/>
						</g>
						<g id="&lt;Group&gt;">
							<path id="&lt;Path&gt;" class="s51" d="m319.7 1082.4c-7.5-3.9-15.3-6.9-23.2-9.7-3.9-1.4-8-2.6-11.9-3.8-4.1-1.2-8.1-2.3-12.2-3.3q-12.2-3.1-24.6-4.9c-8.3-1.3-16.6-2.2-25.1-2.3 8 2.8 16 5 24 7.3 8.1 2.2 16.1 4.3 24.2 6.3 8 1.9 16.1 3.9 24.2 5.6 8.1 1.8 16.3 3.5 24.6 4.8z"/>
						</g>
						<g id="&lt;Group&gt;" style="mix-blend-mode: multiply">
							<path id="&lt;Path&gt;" class="s52" d="m199.3 1055.1q1.9 0.9 3.7 1.9c4.9 2.4 9.8 4.5 14.6 6.7 9.7 4.1 19.2 7.7 28.8 11 4.8 1.6 9.6 3.2 14.4 4.7 4.8 1.5 9.6 3 14.5 4.2 4.9 1.1 10 1.3 15.7 0.2 2.8-0.6 5.8-1.5 9-2.7 3.2-1.3 6.4-2.9 10.2-5.5h0.1c0.8-0.5 1.1-1.5 0.9-2.3-1.1-4.5-2.7-8-4.5-11q-1.5-2.6-3.2-4.7c4.7 2.1 9 5.2 12.8 9.4 2.1 2.4 4 5.2 5.7 8.4 1.7 3.3 3.3 6.9 4.2 11.6 0.1 0.9-0.3 1.8-1.1 2.3v0.1c-4.1 2.5-7.6 4-10.9 5.2-3.3 1.1-6.4 1.9-9.4 2.4-5.9 0.9-11.2 0.4-16.3-0.9-4.9-1.5-9.8-3.2-14.7-5-4.9-1.7-9.8-3.6-14.7-5.5-9.7-3.8-19.5-8-29.3-12.7-4.9-2.4-9.9-4.8-14.8-7.6-5-2.8-10-5.5-15.1-9.1v-0.1q-0.3-0.2-0.5-0.6-0.1-0.2-0.1-0.4z"/>
						</g>
					</g>
				</g>
			</g>
		</g>
		<g id="&lt;Group&gt;">
			<path id="&lt;Path&gt;" class="s38" d="m1948.9 1205.8q-0.1-0.2-0.2-0.4-0.4 0.1-0.8 0.2c-0.3 0.1-0.7 0.3-1 0.4-0.6 0.2-1.3 0.5-1.9 0.7-0.6 0.2-1.4 0.5-2 0.7-0.3 0.1-0.7 0.2-1 0.3q-0.4 0.2-1 0.4c-0.3 0.1-8.9 2.9-10 3.3l-0.1 0.1q0 0 0 0h-0.1l-110 63.9-1.6 2.2 1.6 4 3.1 1.7 110.1-63.9 0.1-0.1c3-2.6 6.2-6.1 9.2-8.7q2.8-2.4 5.6-4.8z"/>
			<g id="&lt;Group&gt;">
				<g id="&lt;Group&gt;">
					<g id="&lt;Group&gt;">
						<path id="&lt;Path&gt;" class="s53" d="m1946.8 1203.4q-0.5 0.2-0.8 0.3c-0.3 0.1-0.7 0.3-1 0.4-0.6 0.2-1.4 0.5-1.9 0.7-0.6 0.2-1.4 0.4-2 0.7-0.3 0-0.7 0.2-1 0.3-0.3 0.1-0.7 0.2-1 0.4l2.3 2.5q2.8-2.4 5.6-4.8-0.1-0.2-0.2-0.5z"/>
						<path id="&lt;Path&gt;" class="s54" d="m1939.1 1206.2c-0.3 0.1-9.8 3.2-10.2 3.4 0.2 0.4 0.4 0.4 1 0.7 1.5 0.9 3 2.8 3 4.6 0 0.8-0.5 2.3-0.8 2.6 3-2.6 6.2-6.2 9.3-8.8 0.3-0.8-1.6-2.6-2.3-2.5z"/>
						<g id="&lt;Group&gt;">
							<path id="&lt;Path&gt;" class="s43" d="m1932.9 1214.9c0 1.8-1.2 2.5-2.7 1.7-1.5-0.9-2.8-3-2.8-4.8 0-1.7 1.2-2.5 2.7-1.6 1.5 0.8 2.8 2.9 2.8 4.7z"/>
						</g>
					</g>
				</g>
				<g id="&lt;Group&gt;">
					<g id="&lt;Group&gt;">
						<g id="&lt;Group&gt;">
							<path id="&lt;Path&gt;" class="s55" d="m1823.5 1279.2l110.2-63.9-1.6 2.2-110.1 63.9z"/>
						</g>
						<g id="&lt;Group&gt;">
							<path id="&lt;Path&gt;" class="s53" d="m1822 1275.3l110.1-64 1.6 4-110.2 63.9z"/>
						</g>
						<g id="&lt;Group&gt;">
							<path id="&lt;Path&gt;" class="s53" d="m1818.9 1273.5l110.1-64 3.1 1.8-110.1 64z"/>
						</g>
						<g id="&lt;Group&gt;">
							<path id="&lt;Path&gt;" class="s43" d="m1822 1275.3l1.5 3.9-1.5 2.2-3.1-1.8-1.6-3.9 1.6-2.2z"/>
						</g>
					</g>
				</g>
			</g>
		</g>
		<g id="&lt;Group&gt;">
			<path id="&lt;Path&gt;" class="s38" d="m1908.3 1192.6q-0.1-0.2-0.2-0.4-0.5 0.1-0.8 0.3c-0.3 0.1-0.7 0.2-1 0.3-0.6 0.2-1.4 0.5-2 0.7-0.6 0.2-1.3 0.5-1.9 0.7-0.3 0.1-0.7 0.2-1 0.3-0.3 0.2-0.7 0.3-1 0.4-0.3 0.1-8.9 2.9-10.1 3.4q-0.1 0-0.1 0l-110 63.9-1.6 2.2 1.5 4 3.1 1.8 110.2-64 0.1-0.1c2.9-2.6 6.2-6.1 9.1-8.6q2.9-2.5 5.7-4.9z"/>
			<g id="&lt;Group&gt;">
				<g id="&lt;Group&gt;">
					<g id="&lt;Group&gt;">
						<path id="&lt;Path&gt;" class="s56" d="m1906.1 1190.3q-0.4 0.1-0.8 0.3c-0.3 0.1-0.6 0.2-0.9 0.3-0.6 0.2-1.4 0.5-2 0.7-0.6 0.2-1.4 0.5-1.9 0.7-0.3 0.1-0.7 0.2-1 0.3-0.3 0.1-0.7 0.3-1.1 0.4l2.3 2.5q2.8-2.4 5.6-4.8-0.1-0.2-0.2-0.4z"/>
						<path id="&lt;Path&gt;" class="s54" d="m1898.4 1193c-0.3 0.1-9.7 3.2-10.1 3.4 0.2 0.4 0.3 0.4 1 0.8 1.5 0.8 2.9 2.8 3 4.5 0 0.8-0.5 2.3-0.9 2.6 3-2.6 6.3-6.1 9.3-8.8 0.3-0.7-1.5-2.6-2.3-2.5z"/>
						<g id="&lt;Group&gt;">
							<path id="&lt;Path&gt;" class="s43" d="m1892.3 1201.7c0 1.8-1.2 2.5-2.7 1.7-1.6-0.9-2.8-3-2.8-4.7-0.1-1.8 1.2-2.5 2.7-1.7 1.5 0.9 2.7 3 2.8 4.7z"/>
						</g>
					</g>
				</g>
				<g id="&lt;Group&gt;">
					<g id="&lt;Group&gt;">
						<g id="&lt;Group&gt;">
							<path id="&lt;Path&gt;" class="s57" d="m1782.9 1266.1l110.1-64-1.5 2.2-110.2 64z"/>
						</g>
						<g id="&lt;Group&gt;">
							<path id="&lt;Path&gt;" class="s56" d="m1781.3 1262.1l110.2-64 1.5 4-110.1 64z"/>
						</g>
						<g id="&lt;Group&gt;">
							<path id="&lt;Path&gt;" class="s56" d="m1778.2 1260.3l110.2-63.9 3.1 1.7-110.2 64z"/>
						</g>
						<g id="&lt;Group&gt;">
							<path id="&lt;Path&gt;" class="s43" d="m1781.3 1262.1l1.6 4-1.6 2.2-3.1-1.8-1.5-4 1.5-2.2z"/>
						</g>
					</g>
				</g>
			</g>
		</g>
		<g id="&lt;Group&gt;">
			<path id="&lt;Path&gt;" class="s58" d="m1630.5 236.3v149.5c0 7.8-6.4 14.1-14.2 14.1h-218.7c-7.8 0-14.2-6.3-14.2-14.1v-149.5c0-7.9 6.4-14.2 14.2-14.2h218.7c7.8 0 14.2 6.3 14.2 14.2z"/>
			<g id="&lt;Group&gt;">
				<path id="&lt;Path&gt;" class="s59" d="m1612.6 217.5v149.5c0 7.8-6.4 14.2-14.2 14.2h-218.7c-7.8 0-14.1-6.4-14.1-14.2v-149.5c0-7.8 6.3-14.2 14.1-14.2h218.7c7.8 0 14.2 6.4 14.2 14.2z"/>
				<path id="&lt;Path&gt;" class="s60" d="m1612.6 347v20c0 7.8-6.4 14.2-14.2 14.2h-218.7c-7.8 0-14.1-6.4-14.1-14.2v-20z"/>
				<g id="&lt;Group&gt;">
					<path id="&lt;Path&gt;" class="s47" d="m1496.7 365.8c0 1.6 0.5 3.1 1.4 4.4h-110.5c-2.4 0-4.5-2-4.5-4.4 0-2.5 2.1-4.5 4.5-4.5h110.5c-0.9 1.3-1.4 2.8-1.4 4.5z"/>
					<path id="&lt;Path&gt;" class="s46" d="m1534.9 365.8c0 2.4-2 4.4-4.5 4.4h-32.3c-0.9-1.3-1.4-2.8-1.4-4.4 0-1.7 0.5-3.2 1.4-4.5h32.3c2.5 0 4.5 2 4.5 4.5z"/>
					<g id="&lt;Group&gt;">
						<path id="&lt;Path&gt;" class="s3" d="m1512.6 365.8c0 1.6-0.5 3.1-1.4 4.4-1.4 2.1-3.8 3.5-6.6 3.5-2.7 0-5.1-1.4-6.5-3.5-0.9-1.3-1.4-2.8-1.4-4.4 0-1.7 0.5-3.2 1.4-4.5 1.4-2.1 3.8-3.5 6.5-3.5 2.8 0 5.2 1.4 6.6 3.5 0.9 1.3 1.4 2.8 1.4 4.5z"/>
						<path id="&lt;Path&gt;" class="s47" d="m1508.5 365.8c0 2.1-1.7 3.9-3.9 3.9-2.1 0-3.9-1.8-3.9-3.9 0-2.2 1.8-3.9 3.9-3.9 2.2 0 3.9 1.7 3.9 3.9z"/>
					</g>
				</g>
				<g id="&lt;Group&gt;">
					<path id="&lt;Path&gt;" class="s46" d="m1568.2 369.7v-7.5c0-0.9 1-1.6 1.9-1.1l7.5 3.7c0.9 0.5 0.9 1.9 0 2.3l-7.5 3.8c-0.9 0.4-1.9-0.2-1.9-1.2z"/>
					<g id="&lt;Group&gt;">
						<path id="&lt;Path&gt;" class="s46" d="m1588.3 368.3v-4.6c0-0.6 0.5-1 0.9-0.7l3.6 2.3c0.5 0.3 0.5 1.1 0 1.4l-3.6 2.3c-0.4 0.2-0.9-0.1-0.9-0.7z"/>
						<path id="&lt;Path&gt;" class="s46" d="m1593.2 368.3v-4.6c0-0.6 0.5-1 0.9-0.7l3.6 2.3c0.4 0.3 0.4 1.1 0 1.4l-3.6 2.3c-0.4 0.2-0.9-0.1-0.9-0.7z"/>
					</g>
					<g id="&lt;Group&gt;">
						<path id="&lt;Path&gt;" class="s46" d="m1559.1 368.3v-4.6c0-0.6-0.5-1-0.9-0.7l-3.7 2.3c-0.4 0.3-0.4 1.1 0 1.4l3.7 2.3c0.4 0.2 0.9-0.1 0.9-0.7z"/>
						<path id="&lt;Path&gt;" class="s46" d="m1554.2 368.3v-4.6c0-0.6-0.5-1-0.9-0.7l-3.6 2.3c-0.5 0.3-0.5 1.1 0 1.4l3.6 2.3c0.4 0.2 0.9-0.1 0.9-0.7z"/>
					</g>
				</g>
				<path id="&lt;Path&gt;" class="s61" d="m1533.1 277.4c0 24.3-19.7 44-44 44-24.3 0-44-19.7-44-44 0-24.3 19.7-44 44-44 24.3 0 44 19.7 44 44z"/>
				<path id="&lt;Path&gt;" class="s47" d="m1477.4 291v-27.1c0-3 3.4-4.8 5.9-3.2l20.8 13.6c2.3 1.4 2.3 4.8 0 6.3l-20.8 13.5c-2.5 1.7-5.9-0.1-5.9-3.1z"/>
			</g>
		</g>
		<g id="&lt;Group&gt;">
			<g id="&lt;Group&gt;">
				<path id="&lt;Path&gt;" class="s58" d="m1823.3 732.2h-171.9c-1.4 0-2.6-1.1-2.6-2.6v-231.4c0-1.5 1.2-2.7 2.6-2.7h171.9c1.5 0 2.6 1.2 2.6 2.7v231.4c0 1.5-1.1 2.6-2.6 2.6z"/>
				<g id="&lt;Group&gt;">
					<path id="&lt;Path&gt;" class="s60" d="m1852.6 705.8h-171.9c-1.5 0-2.6-1.1-2.6-2.6v-231.4c0-1.5 1.1-2.7 2.6-2.7h171.9c1.4 0 2.6 1.2 2.6 2.7v231.4c0 1.5-1.2 2.6-2.6 2.6z"/>
					<path id="&lt;Path&gt;" class="s17" d="m1824.4 510.5h-115.5v-15.7h115.5z"/>
					<path id="&lt;Path&gt;" class="s16" d="m1790.8 680.7h-48.4c-4.8 0-8.7-3.9-8.7-8.7 0-4.9 3.9-8.8 8.7-8.8h48.4c4.8 0 8.7 3.9 8.7 8.8 0 4.8-3.9 8.7-8.7 8.7z"/>
					<g id="&lt;Group&gt;">
						<g id="&lt;Group&gt;">
							<g id="&lt;Group&gt;">
								<path id="&lt;Path&gt;" class="s17" d="m1771.6 540.6h-50.7c-0.8 0-1.5-0.7-1.5-1.6v-4.3c0-0.8 0.6-1.5 1.5-1.5h50.7c0.8 0 1.5 0.7 1.5 1.5v4.3c0 0.9-0.7 1.6-1.5 1.6z"/>
								<path id="&lt;Path&gt;" class="s17" d="m1832.3 558.7h-111.4c-0.9 0-1.5-0.7-1.5-1.5v-4.3c0-0.9 0.6-1.6 1.5-1.6h111.4c0.9 0 1.6 0.7 1.6 1.6v4.3c0 0.8-0.7 1.5-1.6 1.5z"/>
								<path id="&lt;Path&gt;" class="s17" d="m1832.3 576.9h-111.4c-0.9 0-1.5-0.7-1.5-1.6v-4.2c0-0.9 0.6-1.6 1.5-1.6h111.4c0.9 0 1.6 0.7 1.6 1.6v4.2c0 0.9-0.7 1.6-1.6 1.6z"/>
							</g>
							<path id="&lt;Path&gt;" class="s17" d="m1700.7 536.9c0 2-1.7 3.7-3.7 3.7-2 0-3.7-1.7-3.7-3.7 0-2.1 1.7-3.7 3.7-3.7 2 0 3.7 1.6 3.7 3.7z"/>
						</g>
					</g>
					<g id="&lt;Group&gt;">
						<g id="&lt;Group&gt;">
							<g id="&lt;Group&gt;">
								<path id="&lt;Path&gt;" class="s17" d="m1771.6 600.9h-50.7c-0.8 0-1.5-0.7-1.5-1.6v-4.2c0-0.9 0.6-1.6 1.5-1.6h50.7c0.8 0 1.5 0.7 1.5 1.6v4.2c0 0.9-0.7 1.6-1.5 1.6z"/>
								<path id="&lt;Path&gt;" class="s17" d="m1832.3 619h-111.4c-0.8 0-1.5-0.7-1.5-1.5v-4.3c0-0.8 0.6-1.5 1.5-1.5h111.4c0.9 0 1.6 0.7 1.6 1.5v4.3c0 0.9-0.7 1.5-1.6 1.5z"/>
								<path id="&lt;Path&gt;" class="s17" d="m1832.3 637.2h-111.4c-0.9 0-1.5-0.7-1.5-1.5v-4.3c0-0.9 0.6-1.6 1.5-1.6h111.4c0.9 0 1.6 0.7 1.6 1.6v4.3c0 0.8-0.7 1.5-1.6 1.5z"/>
							</g>
							<path id="&lt;Path&gt;" class="s17" d="m1700.7 597.2c0 2-1.7 3.7-3.7 3.7-2 0-3.7-1.7-3.7-3.7 0-2 1.7-3.7 3.7-3.7 2 0 3.7 1.7 3.7 3.7z"/>
						</g>
					</g>
				</g>
			</g>
			<g id="&lt;Group&gt;">
				<path id="&lt;Path&gt;" class="s16" d="m1933 464.1l-84.8 69.9q-0.9 0.8-2.1 1.5c-1.7 1.2-3.7 2-5.8 2.6l-13.7 3.9c-1.6 0.5-3-1.2-2.3-2.8l6.4-12.7q1.5-2.8 3.7-5.1 0.9-1 1.9-1.9l84.4-69.6c3.9-3.2 9.8-3.1 13.2 0.6 3.7 4 3.2 10.2-0.9 13.6z"/>
				<path id="&lt;Path&gt;" class="s62" d="m1846.1 535.5c-1.7 1.2-3.7 2-5.8 2.6l-8 2.3-5.7 1.6c-1.6 0.5-3-1.2-2.3-2.8l2.7-5.2 3.7-7.5q1.5-2.8 3.7-5.1c3 0.9 10.2 4 11.7 14.1z"/>
				<path id="&lt;Path&gt;" class="s16" d="m1832.3 540.4l-5.7 1.6c-1.6 0.5-3-1.2-2.3-2.8l2.7-5.2c2.5 0.2 5.9 1.5 5.3 6.4z"/>
			</g>
		</g>
		<path id="&lt;Path&gt;" class="s45" d="m1025.2 1129.9v18.4h207.4v-18.4z"/>
	</g>
</svg>