<svg width="400" height="400" viewBox="0 0 400 400" fill="none" xmlns="http://www.w3.org/2000/svg">
<path d="M168 163.4C168.4 164.2 168.733 164.867 169 165.4C169.533 166.6 169.667 167.2 169.4 167.2H101.8C101.8 170.667 101.667 174.067 101.4 177.4C101.267 180.6 101.267 183.933 101.4 187.4C101.533 189.667 101.733 191.933 102 194.2C102.267 196.333 102.6 198.533 103 200.8C103.267 202.4 103.533 204 103.8 205.6C104.067 207.2 104.2 208.8 104.2 210.4C104.333 211.867 104.333 213.4 104.2 215C104.067 216.467 103.6 217.8 102.8 219C102.133 220.067 101.267 220.867 100.2 221.4C99.2667 221.8 98.2 222 97 222C97.9333 222.667 98.8 223.333 99.6 224C100.4 224.533 101.267 225.133 102.2 225.8C102.2 225.8 102.333 225.867 102.6 226C103.267 226 103.933 226 104.6 226C105.267 226 105.933 225.933 106.6 225.8C109.667 225.133 112.333 223.8 114.6 221.8C116.867 219.8 119.067 217.733 121.2 215.6C121.467 215.333 122.133 215.4 123.2 215.8C124.267 216.067 124.933 216.267 125.2 216.4C126.667 216.933 128.067 217.533 129.4 218.2C130.867 218.867 132.333 219.533 133.8 220.2C135.267 220.867 136.667 221.6 138 222.4C139.333 223.067 140.667 223.8 142 224.6C142 224.6 142.133 224.733 142.4 225C142.8 225.133 143.2 225.333 143.6 225.6C144 225.867 144.333 226.133 144.6 226.4C145 226.667 145.133 226.867 145 227C144.733 227.4 144.333 227.867 143.8 228.4C142.333 229.867 140.733 231.333 139 232.8C137.4 234.133 135.6 235.267 133.6 236.2C131.333 237.267 129 237.8 126.6 237.8C124.333 237.8 122 237.467 119.6 236.8C117.467 236.4 115.533 235.8 113.8 235C109.8 233.533 106.067 231.933 102.6 230.2C99.9333 228.733 97.2667 227.333 94.6 226C91.9333 224.533 89.3333 222.933 86.8 221.2L80.2 216.4C79.6667 216 79.1333 215.6 78.6 215.2C78.0667 214.8 77.4667 214.4 76.8 214C76.6667 213.867 76.3333 213.667 75.8 213.4C75.5333 213.133 75.3333 213 75.2 213C74.6667 212.733 74.1333 212.4 73.6 212C73.2 211.6 72.8 211.267 72.4 211C71.8667 210.467 71.9333 210.2 72.6 210.2C73.5333 210.333 74.4667 210.333 75.4 210.2C77.2667 209.8 78.6667 208.6 79.6 206.6C80.2667 205.133 80.6 203.667 80.6 202.2C80.6 200.6 80.5333 199.067 80.4 197.6C80.2667 196 80.0667 194.4 79.8 192.8C79.5333 191.2 79.2667 189.667 79 188.2C78.3333 184.733 77.9333 181.267 77.8 177.8C77.6667 174.2 77.6667 170.667 77.8 167.2H58C57.4667 167.2 56.9333 166.8 56.4 166C55.8667 165.2 55.4667 164.667 55.2 164.4C53.3333 162.133 51.4667 159.667 49.6 157C48.8 155.667 48 154.333 47.2 153C46.4 151.667 45.6 150.333 44.8 149C44.5333 148.333 44.2667 147.733 44 147.2C43.4667 145.867 43.3333 145.2 43.6 145.2H154.8C155.333 145.2 155.867 145.6 156.4 146.4C157.067 147.067 157.533 147.533 157.8 147.8C158.867 149.133 159.8 150.4 160.6 151.6C161.533 152.8 162.4 154.067 163.2 155.4C165.067 158.2 166.667 160.867 168 163.4ZM164.478 163.6V163.4V163.6ZM164.478 163.4C164.878 164.2 165.211 164.867 165.478 165.4C166.011 166.6 166.145 167.2 165.878 167.2H146.678C146.811 170.8 146.811 174.4 146.678 178C146.678 181.467 146.745 185 146.878 188.6C146.878 191.8 146.811 195 146.678 198.2C146.678 201.4 146.745 204.6 146.878 207.8C147.011 210.867 147.145 214 147.278 217.2C147.545 220.4 147.678 223.533 147.678 226.6C147.678 230.067 147.611 233.6 147.478 237.2C147.345 240.667 146.745 244.133 145.678 247.6C144.878 250.133 143.678 252.533 142.078 254.8C140.611 256.933 138.478 258.267 135.678 258.8H135.478L147.078 271.6L146.278 272.4L131.278 256.2C129.011 254.467 126.945 252.6 125.078 250.6C124.011 249.533 122.945 248.467 121.878 247.4C120.811 246.333 119.745 245.2 118.678 244C118.678 244 118.545 243.867 118.278 243.6C118.011 243.2 117.745 242.8 117.478 242.4C117.211 242 116.945 241.6 116.678 241.2C116.411 240.8 116.345 240.6 116.478 240.6C118.478 240.2 120.145 239.4 121.478 238.2C122.811 237 123.945 235.6 124.878 234C125.678 232.267 126.345 230.467 126.878 228.6C127.278 226.733 127.611 224.933 127.878 223.2C128.411 219.733 128.678 216.2 128.678 212.6C128.811 208.867 128.745 205.2 128.478 201.6C128.345 198.933 128.211 196.267 128.078 193.6C127.811 190.8 127.678 188.067 127.678 185.4V167.2H107.478C106.945 167.2 106.411 166.867 105.878 166.2C105.211 165.4 104.745 164.867 104.478 164.6C102.611 162.333 100.811 159.8 99.0781 157C97.2115 154.2 95.6115 151.533 94.2781 149C93.8781 148.333 93.5448 147.733 93.2781 147.2C92.7448 145.867 92.6115 145.2 92.8781 145.2H127.478C127.478 144.533 127.478 143.933 127.478 143.4C127.478 142.733 127.411 142.067 127.278 141.4C127.278 141.267 127.478 141.333 127.878 141.6C128.278 141.733 128.678 142 129.078 142.4C129.611 142.667 130.011 142.933 130.278 143.2C130.678 143.333 130.878 143.4 130.878 143.4C131.278 143.8 132.011 144.4 133.078 145.2H151.278C151.811 145.2 152.345 145.6 152.878 146.4C153.545 147.2 154.011 147.733 154.278 148C155.211 149.2 156.078 150.467 156.878 151.8C157.811 153 158.745 154.267 159.678 155.6C160.478 156.8 161.278 158.067 162.078 159.4C163.011 160.733 163.811 162.067 164.478 163.4ZM347.317 328.2C347.451 328.467 347.784 329 348.317 329.8C348.851 330.733 348.984 331.467 348.717 332L345.717 337.4C343.051 341.8 339.984 346.067 336.517 350.2C333.184 354.467 329.517 358.333 325.517 361.8C321.517 365.4 317.184 368.467 312.517 371C307.984 373.667 303.117 375.6 297.917 376.8C292.451 377.867 287.051 378.067 281.717 377.4C276.384 376.867 271.184 375.533 266.117 373.4C263.584 372.333 261.117 371.133 258.717 369.8C256.317 368.6 253.984 367.267 251.717 365.8C249.451 364.333 247.251 362.733 245.117 361C242.984 359.4 240.851 357.667 238.717 355.8C234.184 351.8 229.851 347.6 225.717 343.2C221.717 338.8 217.784 334.333 213.917 329.8C212.051 327.667 210.251 325.533 208.517 323.4C206.784 321.267 204.984 319.133 203.117 317C202.584 316.467 202.051 315.933 201.517 315.4C201.117 315 200.651 314.467 200.117 313.8L199.917 313.6C199.651 313.2 199.251 312.733 198.717 312.2C197.784 311.133 196.851 310.133 195.917 309.2C195.117 308.267 194.184 307.267 193.117 306.2C191.651 304.733 190.184 303.267 188.717 301.8C187.384 300.467 185.984 299.067 184.517 297.6C181.717 294.4 178.784 291.267 175.717 288.2C174.784 287.4 173.917 286.533 173.117 285.6C172.584 285.067 172.117 284.733 171.717 284.6C171.584 284.467 171.517 284.333 171.517 284.2C171.517 284.2 171.451 284.133 171.317 284C170.384 283.2 169.451 282.4 168.517 281.6C167.717 280.933 166.851 280.267 165.917 279.6C164.451 278.4 162.851 277.267 161.117 276.2C159.384 275.133 157.584 274.267 155.717 273.6C154.384 273.2 153.051 272.933 151.717 272.8C150.384 272.667 149.051 272.8 147.717 273.2C146.251 273.733 144.917 274.533 143.717 275.6C142.384 276.8 141.184 278 140.117 279.2C137.717 281.867 135.584 284.733 133.717 287.8C131.717 291 129.784 294.133 127.917 297.2C127.917 297.333 127.784 297.2 127.517 296.8C127.117 296.533 126.784 296.2 126.517 295.8C126.117 295.4 125.784 295.067 125.517 294.8C125.251 294.533 125.117 294.4 125.117 294.4C122.984 292.133 121.117 289.667 119.517 287C118.584 285.667 117.717 284.333 116.917 283C115.984 281.8 115.184 280.467 114.517 279C114.384 278.733 114.051 278.133 113.517 277.2C112.984 276.4 112.851 275.8 113.117 275.4C114.984 272.333 116.851 269.267 118.717 266.2C120.584 263.133 122.717 260.267 125.117 257.6C126.317 256.133 127.584 254.8 128.917 253.6C130.251 252.4 131.851 251.6 133.717 251.2C135.584 250.8 137.384 250.867 139.117 251.4C140.851 251.8 142.517 252.333 144.117 253C145.984 254.067 147.851 255.2 149.717 256.4C151.451 257.6 153.117 258.867 154.717 260.2C156.717 261.933 158.651 263.667 160.517 265.4C162.251 267 164.051 268.733 165.917 270.6L174.317 279.6C175.784 281.2 177.317 282.733 178.917 284.2C180.517 285.8 182.051 287.4 183.517 289C187.517 293.267 191.384 297.6 195.117 302C198.984 306.533 202.851 311 206.717 315.4C207.117 315.933 207.517 316.467 207.917 317C208.451 317.533 208.984 318.067 209.517 318.6C209.784 318.867 209.984 319.067 210.117 319.2C210.251 319.467 210.451 319.733 210.717 320L211.117 320.4C212.051 321.467 212.917 322.467 213.717 323.4C214.651 324.333 215.651 325.333 216.717 326.4C217.784 327.467 218.717 328.467 219.517 329.4C220.451 330.333 221.451 331.267 222.517 332.2C223.317 333 223.917 333.533 224.317 333.8C224.317 333.8 224.384 333.867 224.517 334C224.784 334.267 224.917 334.4 224.917 334.4C225.451 334.933 225.917 335.4 226.317 335.8C226.851 336.2 227.384 336.6 227.917 337C232.184 340.467 236.651 343.6 241.317 346.4C245.984 349.2 250.851 351.533 255.917 353.4C266.717 357.133 277.584 357.133 288.517 353.4C293.584 351.667 298.317 349.267 302.717 346.2C307.117 343.267 311.184 339.867 314.917 336C318.784 332.267 322.251 328.2 325.317 323.8C328.517 319.4 331.317 314.867 333.717 310.2C333.984 309.933 334.517 310.267 335.317 311.2C336.117 312.133 336.584 312.667 336.717 312.8C337.784 314 338.717 315.2 339.517 316.4C340.451 317.733 341.384 319 342.317 320.2C343.917 322.6 345.584 325.267 347.317 328.2ZM271.717 163.4C272.117 164.2 272.451 164.867 272.717 165.4C273.251 166.6 273.384 167.2 273.117 167.2H228.917C227.584 174.8 226.784 182.533 226.517 190.4C226.384 194.667 226.451 199 226.717 203.4C226.984 207.8 227.251 212.133 227.517 216.4C227.784 220.533 227.917 224.667 227.917 228.8C228.051 232.933 227.784 237.133 227.117 241.4C226.851 243.267 226.517 245.2 226.117 247.2C225.717 249.2 225.051 251.133 224.117 253C223.717 254.067 223.251 255 222.717 255.8C222.184 256.6 221.584 257.467 220.917 258.4C220.384 259.067 219.784 259.733 219.117 260.4C218.584 261.067 217.984 261.6 217.317 262C215.317 263.733 213.117 264.533 210.717 264.4C207.784 264 204.984 262.8 202.317 260.8C199.651 258.933 197.184 256.867 194.917 254.6C192.784 252.333 190.584 250.067 188.317 247.8C185.117 244.333 182.051 240.8 179.117 237.2C176.317 233.467 173.451 229.667 170.517 225.8C169.984 225.133 169.451 224.533 168.917 224C168.517 223.333 168.117 222.667 167.717 222C167.317 221.467 167.117 220.867 167.117 220.2C169.251 219.8 170.784 218.667 171.717 216.8C172.784 214.933 173.517 213.067 173.917 211.2C174.317 208.8 174.517 206.4 174.517 204C174.651 201.6 174.651 199.2 174.517 196.8C174.384 195.733 174.251 194.733 174.117 193.8C174.117 192.733 173.984 191.667 173.717 190.6C173.451 188.333 173.051 186.133 172.517 184C171.984 181.733 171.584 179.467 171.317 177.2C171.051 175.467 170.851 173.8 170.717 172.2C170.717 170.6 170.784 168.933 170.917 167.2H157.717C157.184 167.2 156.651 166.8 156.117 166C155.584 165.2 155.184 164.667 154.917 164.4C153.051 162.133 151.184 159.667 149.317 157C148.517 155.667 147.717 154.333 146.917 153C146.117 151.667 145.317 150.333 144.517 149C144.251 148.333 143.984 147.733 143.717 147.2C143.184 145.867 142.984 145.2 143.117 145.2H210.517C210.517 144.933 210.584 144.733 210.717 144.6C210.717 144.2 211.251 144.4 212.317 145.2H258.517C259.051 145.2 259.584 145.6 260.117 146.4C260.784 147.067 261.251 147.533 261.517 147.8C262.451 149.133 263.317 150.4 264.117 151.6C265.051 152.8 265.984 154.067 266.917 155.4C268.784 158.2 270.384 160.867 271.717 163.4ZM186.517 241.2C186.117 240.933 185.917 240.867 185.917 241C186.051 241 186.251 241.067 186.517 241.2ZM207.317 179.6C207.184 177.467 207.117 175.4 207.117 173.4C207.251 171.4 207.384 169.333 207.517 167.2H191.517C191.784 167.867 191.851 168.333 191.717 168.6C191.317 170.6 190.851 172.6 190.317 174.6C189.784 176.6 189.317 178.6 188.917 180.6C188.517 182.6 188.251 184.667 188.117 186.8C187.984 188.8 187.984 190.8 188.117 192.8C188.384 194.667 188.651 196.467 188.917 198.2C189.184 199.8 189.451 201.467 189.717 203.2C189.984 205.067 190.251 206.867 190.517 208.6C190.917 210.333 191.184 212.133 191.317 214C191.584 215.867 191.717 217.667 191.717 219.4C191.851 221.133 191.851 222.933 191.717 224.8C191.717 226 191.584 227.4 191.317 229C191.184 230.6 190.851 232.133 190.317 233.6C189.917 235.067 189.251 236.4 188.317 237.6C187.517 238.8 186.451 239.6 185.117 240C185.384 240.267 185.584 240.467 185.717 240.6C185.984 240.733 186.251 240.933 186.517 241.2H186.717L187.317 241.8C187.584 242.067 187.851 242.267 188.117 242.4C188.517 242.4 188.851 242.533 189.117 242.8C189.651 243.067 190.184 243.333 190.717 243.6C191.251 243.733 191.851 243.933 192.517 244.2C193.451 244.333 194.384 244.4 195.317 244.4C196.251 244.267 197.184 243.933 198.117 243.4C199.184 242.733 200.117 241.933 200.917 241C201.717 239.933 202.451 238.867 203.117 237.8H203.317C203.451 237.533 203.651 237.267 203.917 237C205.251 234.467 206.251 231.667 206.917 228.6C207.717 225.133 208.184 221.667 208.317 218.2C208.584 214.6 208.717 211.067 208.717 207.6C208.584 202.933 208.317 198.267 207.917 193.6C207.517 188.933 207.317 184.267 207.317 179.6ZM279.908 163.6V163.4V163.6ZM279.908 163.4C280.308 164.2 280.641 164.867 280.908 165.4C281.441 166.6 281.574 167.2 281.308 167.2H262.108C262.241 170.8 262.241 174.4 262.108 178C262.108 181.467 262.174 185 262.308 188.6C262.308 191.8 262.241 195 262.108 198.2C262.108 201.4 262.174 204.6 262.308 207.8C262.441 210.867 262.574 214 262.708 217.2C262.974 220.4 263.108 223.533 263.108 226.6C263.108 230.067 263.041 233.6 262.908 237.2C262.774 240.667 262.174 244.133 261.108 247.6C260.308 250.133 259.108 252.533 257.508 254.8C256.041 256.933 253.908 258.267 251.108 258.8H250.908L262.508 271.6L261.708 272.4L246.708 256.2C244.441 254.467 242.374 252.6 240.508 250.6C239.441 249.533 238.374 248.467 237.308 247.4C236.241 246.333 235.174 245.2 234.108 244C234.108 244 233.974 243.867 233.708 243.6C233.441 243.2 233.174 242.8 232.908 242.4C232.641 242 232.374 241.6 232.108 241.2C231.841 240.8 231.774 240.6 231.908 240.6C233.908 240.2 235.574 239.4 236.908 238.2C238.241 237 239.374 235.6 240.308 234C241.108 232.267 241.774 230.467 242.308 228.6C242.708 226.733 243.041 224.933 243.308 223.2C243.841 219.733 244.108 216.2 244.108 212.6C244.241 208.867 244.174 205.2 243.908 201.6C243.774 198.933 243.641 196.267 243.508 193.6C243.241 190.8 243.108 188.067 243.108 185.4V167.2H222.908C222.374 167.2 221.841 166.867 221.308 166.2C220.641 165.4 220.174 164.867 219.908 164.6C218.041 162.333 216.241 159.8 214.508 157C212.641 154.2 211.041 151.533 209.708 149C209.308 148.333 208.974 147.733 208.708 147.2C208.174 145.867 208.041 145.2 208.308 145.2H242.908C242.908 144.533 242.908 143.933 242.908 143.4C242.908 142.733 242.841 142.067 242.708 141.4C242.708 141.267 242.908 141.333 243.308 141.6C243.708 141.733 244.108 142 244.508 142.4C245.041 142.667 245.441 142.933 245.708 143.2C246.108 143.333 246.308 143.4 246.308 143.4C246.708 143.8 247.441 144.4 248.508 145.2H266.708C267.241 145.2 267.774 145.6 268.308 146.4C268.974 147.2 269.441 147.733 269.708 148C270.641 149.2 271.508 150.467 272.308 151.8C273.241 153 274.174 154.267 275.108 155.6C275.908 156.8 276.708 158.067 277.508 159.4C278.441 160.733 279.241 162.067 279.908 163.4ZM255.947 31.6C258.347 33.2 260.814 35.0667 263.347 37.2C265.88 39.3333 267.147 42.0667 267.147 45.4C267.147 47.5333 266.68 49.6 265.747 51.6C264.814 53.4667 263.68 55.2 262.347 56.8C258.48 62 253.947 66.6 248.747 70.6C243.414 74.4667 238.214 78.4667 233.147 82.6C231.014 84.3333 229.147 86.4 227.547 88.8C224.614 92.9333 222.214 97.4667 220.347 102.4C218.88 106.933 218.08 111.6 217.947 116.4C217.68 121.2 218.48 125.8 220.347 130.2C221.68 133.133 223.48 136.067 225.747 139C226.28 139.667 226.88 140.4 227.547 141.2C228.08 142 228.68 142.733 229.347 143.4C229.614 143.8 230.08 144.333 230.747 145H231.547C232.614 145.133 233.68 145.533 234.747 146.2L237.147 147.4C238.614 148.067 240.147 148.867 241.747 149.8C243.214 150.6 244.68 151.4 246.147 152.2C247.214 152.867 248.28 153.6 249.347 154.4C250.414 155.067 251.48 155.867 252.547 156.8C253.214 156.933 253.68 157.4 253.947 158.2H253.347C251.747 158.333 249.947 158.2 247.947 157.8C245.68 157.133 243.48 156.267 241.347 155.2C239.214 154.133 237.08 153.067 234.947 152C232.28 150.533 229.68 149.067 227.147 147.6C224.48 146 221.88 144.333 219.347 142.6C216.947 140.733 214.68 138.867 212.547 137C209.48 134.067 206.547 130.933 203.747 127.6C200.947 124.133 198.747 120.333 197.147 116.2C195.414 111.533 194.747 106.733 195.147 101.8C195.414 96.8667 196.414 92.1333 198.147 87.6C199.88 82.8 202.414 78.2667 205.747 74C206.414 72.9333 207.214 72 208.147 71.2C208.947 70.4 209.88 69.6 210.947 68.8C213.48 66.9333 216.014 65.0667 218.547 63.2C220.947 61.2 223.414 59.2 225.947 57.2C228.48 54.9333 231.014 52.6667 233.547 50.4C236.08 48 238.28 45.4667 240.147 42.8C241.614 40.8 242.814 38.6 243.747 36.2C244.68 33.6667 244.614 31.2 243.547 28.8C243.28 28.1333 242.747 27.2667 241.947 26.2L241.347 25.6C240.814 25.3333 240.28 25 239.747 24.6C239.214 24.2 238.747 23.7333 238.347 23.2C238.08 22.9333 238.08 22.7333 238.347 22.6C238.48 22.4667 238.68 22.4667 238.947 22.6L240.147 23C241.347 23.4 242.547 23.9333 243.747 24.6C244.947 25.1333 246.08 25.7333 247.147 26.4C248.614 27.2 250.08 28 251.547 28.8C253.014 29.6 254.48 30.5333 255.947 31.6ZM225.747 144.2C225.48 144.067 225.28 144 225.147 144C224.88 143.867 225.08 143.933 225.747 144.2Z" fill="white"/>
</svg>
